<svg width="100" height="101" viewBox="0 0 100 101" fill="none" xmlns="http://www.w3.org/2000/svg">
<rect y="0.41748" width="100" height="100" rx="50" fill="#024892"/>
<path d="M23.1052 62.6573C21.6972 61.247 20.8313 59.3178 20.829 57.1759V49.1987H17V57.1759C17.0022 63.5716 22.1933 68.7602 28.5878 68.7649H33.8201V64.9348H28.5878C26.4448 64.9336 24.5177 64.0677 23.1052 62.6573Z" fill="white"/>
<path d="M28.093 38.5262C30.886 38.5262 33.1462 36.2661 33.1462 33.4718C33.1462 30.6822 30.8861 28.4175 28.093 28.4175C25.3022 28.4175 23.0386 30.6822 23.0386 33.4718C23.0386 36.2659 25.3022 38.5262 28.093 38.5262Z" fill="white"/>
<path d="M40.1289 55.7463H33.0384V45.1921C33.0384 42.4599 30.8265 40.2456 28.0932 40.2456C25.3633 40.2456 23.1492 42.4598 23.1492 45.1921V57.2164C23.1492 59.9473 25.3622 62.1616 28.0932 62.1616C28.4641 62.1616 37.1327 62.1364 37.1327 62.1364L37.6069 69.4543C37.6404 70.9531 38.8829 72.1417 40.3816 72.1095C41.8827 72.0762 43.0702 70.8337 43.0357 69.3348L43.324 58.9414C43.3239 57.175 41.8941 55.7463 40.1289 55.7463Z" fill="white"/>
<path d="M79.2661 49.1987V57.1759C79.2638 59.3178 78.3978 61.2472 76.9898 62.6573C75.5772 64.0677 73.6502 64.9336 71.5084 64.9348H66.2749V68.7649H71.5084C77.9017 68.7602 83.0917 63.5716 83.095 57.1759V49.1987H79.2661Z" fill="white"/>
<path d="M72.0017 38.5262C74.7924 38.5262 77.0562 36.2661 77.0562 33.4718C77.0562 30.6822 74.7924 28.4175 72.0017 28.4175C69.2087 28.4175 66.9485 30.6822 66.9485 33.4718C66.9485 36.2659 69.2087 38.5262 72.0017 38.5262Z" fill="white"/>
<path d="M76.9471 57.2164V45.1921C76.9471 42.4599 74.7306 40.2456 72.0019 40.2456C69.2686 40.2456 67.0567 42.4598 67.0567 45.1921V55.7463H59.9662C58.201 55.7463 56.7712 57.175 56.7712 58.9413L57.0595 69.3347C57.025 70.8335 58.2125 72.076 59.7136 72.1093C61.2123 72.1416 62.455 70.9528 62.4883 69.4542L62.9626 62.1363C62.9626 62.1363 71.631 62.1615 72.002 62.1615C74.7328 62.1616 76.9471 59.9473 76.9471 57.2164Z" fill="white"/>
<path d="M64.2525 49.2471H36.8354V53.9133H64.2525V49.2471Z" fill="white"/>
<path d="M51.6943 56.4177H48.5039V67.7128H51.6943V56.4177Z" fill="white"/>
</svg>
