<svg width="100" height="101" viewBox="0 0 100 101" fill="none" xmlns="http://www.w3.org/2000/svg">
<rect y="0.126221" width="100" height="100" rx="50" fill="#024892"/>
<path d="M63.5407 67.1467H35.7205V69.8049H63.5407V67.1467Z" fill="white"/>
<path d="M63.5407 56.3662H35.7205V59.0244H63.5407V56.3662Z" fill="white"/>
<path d="M63.5407 45.5867H35.7205V48.2457H63.5407V45.5867Z" fill="white"/>
<path d="M63.5404 34.8076H50.4277V37.4658H63.5404V34.8076Z" fill="white"/>
<path d="M68.5895 19.1262H45.5809C43.9291 19.1262 42.3448 19.7829 41.1767 20.9498L26.8244 35.303C25.6561 36.4709 25 38.0557 25 39.7076V75.8284C25 78.9556 27.5448 81.5 30.6721 81.5H68.5894C71.7162 81.5 74.261 78.9556 74.261 75.8284V24.7961C74.2611 21.6697 71.7162 19.1262 68.5895 19.1262ZM43.5701 23.0671V35.8162C43.5701 37.1944 43.0335 37.7315 41.6553 37.7315H28.9055L43.5701 23.0671ZM71.0718 75.8284C71.0718 77.1973 69.9576 78.3102 68.5895 78.3102H30.6721C29.3032 78.3102 28.1893 77.1973 28.1893 75.8284V40.567H43.363C45.0405 40.567 46.4059 39.2017 46.4059 37.5232V22.3161H68.5895C69.9576 22.3161 71.0718 23.4279 71.0718 24.7961V75.8284Z" fill="white"/>
</svg>
