<svg width="100" height="101" viewBox="0 0 100 101" fill="none" xmlns="http://www.w3.org/2000/svg">
<rect y="0.70874" width="100" height="100" rx="50" fill="#024892"/>
<path d="M31.1127 23.251C26.9905 25.9245 26.1807 34.2813 27.737 41.0923C28.9491 46.3963 31.526 53.5112 35.8713 60.211C39.959 66.5138 45.662 72.1654 50.0106 75.4353C55.5948 79.6339 63.5553 82.3026 67.6775 79.6292C69.7619 78.2773 72.8587 74.5839 73 73.9211C73 73.9211 71.184 71.1211 70.7855 70.5067L64.6957 61.1169C64.2432 60.4191 61.4052 61.0569 59.9635 61.8735C58.0188 62.9754 56.2278 65.9319 56.2278 65.9319C54.8943 66.7024 53.7774 65.9348 51.4438 64.8607C48.5757 63.5411 45.351 59.441 42.7846 55.7273C40.4405 51.8696 38.0118 47.2531 37.9767 44.0961C37.9477 41.5274 37.7024 40.1947 38.9497 39.2913C38.9497 39.2913 42.3796 38.8617 44.1788 37.5355C45.5124 36.5522 47.2521 34.2211 46.7996 33.5233L40.7098 24.1336C40.3113 23.5191 38.4953 20.7191 38.4953 20.7191C37.8324 20.5779 33.1971 21.8992 31.1127 23.251Z" fill="white"/>
</svg>
