<svg width="100" height="101" viewBox="0 0 100 101" fill="none" xmlns="http://www.w3.org/2000/svg">
<rect y="0.834961" width="100" height="100" rx="50" fill="#024892"/>
<path d="M77.0559 53.128L71.5585 52.6729L61.8973 40.4408C61.0311 39.0545 59.498 37.6761 57.5817 36.5564C57.414 36.4605 57.2444 36.3667 57.0727 36.2769L63.1729 27.3602C63.4803 26.9122 63.6421 26.3901 63.6421 25.8492C63.6421 24.9629 63.207 24.1346 62.4743 23.6355L60.528 22.305C60.0828 21.9977 59.5598 21.835 59.0109 21.835C58.1286 21.835 57.3023 22.2701 56.8032 23.0007L48.8078 34.688H40.2773C38.7354 34.7538 37.4498 35.0193 36.3481 35.5004C35.2163 35.9924 34.2162 36.7559 33.4097 37.734L27.5771 43.2692C26.4982 44.2653 25.7316 45.479 25.2994 46.8801C24.9641 47.9601 24.8604 48.998 24.7774 49.8324L24.7534 50.068L23.2643 61.0008C23.1057 61.6874 23.0237 62.3381 23.0237 62.9349C23.0177 64.7774 23.7743 65.9252 24.2254 66.4441C24.7944 67.1049 25.3622 67.3964 25.485 67.4492C25.6866 67.57 25.8981 67.6617 26.1118 67.7236L24.1476 70.5421C24.0907 70.624 24.0857 70.7367 24.1017 70.8376L22.0099 79.8481C21.9739 80.0077 22.0378 80.1744 22.1736 80.2672C22.2415 80.3142 22.3213 80.3372 22.3992 80.3372C22.478 80.3372 22.5569 80.3142 22.6247 80.2682L30.2419 75.0714C30.3498 75.0574 30.4506 74.9976 30.5164 74.9017L35.7242 67.2906C36.0745 67.4352 36.4419 67.536 36.8231 67.59C37.0087 67.9143 37.2362 68.2189 37.5018 68.4962C38.0488 69.075 39.2933 70.0461 41.5021 70.0461C42.4981 70.0461 43.6299 69.8406 44.8695 69.4354C45.64 70.0193 46.4554 70.5043 47.3567 70.9175C49.4446 71.8736 51.7711 72.3467 53.9738 72.7139C55.5977 72.9844 57.6336 73.1221 60.023 73.1232C63.6519 73.1222 66.9515 72.8088 67.6801 72.735L76.9821 73.6861C76.996 73.6861 77.008 73.688 77.022 73.688C77.1218 73.688 77.2156 73.6511 77.2896 73.5843C77.3734 73.5093 77.4213 73.4016 77.4213 73.2888V53.5264C77.4212 53.3177 77.2634 53.146 77.0559 53.128ZM58.1427 23.9169C58.3463 23.6155 58.6756 23.4578 59.0149 23.4558C59.2225 23.4558 59.4262 23.5156 59.6098 23.6404L59.6717 23.6844L61.56 24.9749C61.8595 25.1815 62.0192 25.5099 62.0192 25.8491C62.0192 26.0548 61.9613 26.2583 61.8355 26.444L60.8475 27.8891L57.1525 25.3611L58.1427 23.9169ZM25.3334 76.4567L25.1368 76.5924L24.527 76.1753L24.5808 75.9437L25.6029 71.5403L29.0662 73.9097L25.3334 76.4567ZM26.6758 67.4053C26.7057 67.4062 26.7367 67.4183 26.7666 67.4183C26.7835 67.4183 26.7985 67.4133 26.8146 67.4123L26.7407 67.5191C26.7387 67.5141 26.7407 67.508 26.7387 67.5031C26.7258 67.4651 26.6948 67.4392 26.6758 67.4053ZM30.7179 61.8112L27.9763 65.7475C27.7068 65.8313 27.4692 65.9172 27.2796 65.979C27.054 66.0528 26.8904 66.0868 26.7666 66.0868C26.6359 66.0839 26.5291 66.0649 26.3315 65.9431L26.2875 65.9161L26.2496 65.8991L26.1867 65.8652C26.0421 65.7834 25.6808 65.5458 25.3634 65.0917C25.0461 64.6356 24.7566 63.969 24.7546 62.9349C24.7546 62.4779 24.8125 61.9479 24.9603 61.338L24.9673 61.3041L26.4713 50.2795V50.2695C26.5642 49.3573 26.647 48.3712 26.9514 47.3941C27.2577 46.417 27.7688 45.4498 28.7568 44.5346L34.6424 38.9495L34.6682 38.9175C35.3638 38.0671 36.1244 37.4862 37.0387 37.087C37.9509 36.6888 39.0298 36.4723 40.3422 36.4164L48.1071 36.4183L41.4061 46.2133L40.8153 45.4429L36.2082 48.973L35.8988 49.6097C35.807 49.5688 35.7103 49.5249 35.6074 49.476C35.1003 49.2384 34.4895 48.9401 34.0044 48.7025C33.5215 48.4649 33.1671 48.2873 33.1661 48.2873L32.5713 49.477C32.5723 49.477 33.2079 49.7964 33.9406 50.1526C34.0803 50.2215 34.2241 50.2894 34.3668 50.3592C34.3439 50.3633 34.322 50.3653 34.2989 50.3693C34.2949 50.3703 34.2909 50.3713 34.2879 50.3713V50.3733C33.223 50.5898 32.3137 51.2476 31.7589 52.1638L31.7387 52.1957L31.1061 53.2505L31.0761 53.2994C30.7089 53.9172 30.5272 54.6069 30.5283 55.2896C30.5272 56.2657 30.8964 57.2359 31.608 57.9794L31.8057 58.184L30.7179 61.8112ZM40.7544 47.1666L37.915 51.3156L37.2562 50.9673L37.2552 50.9683C37.1214 50.8775 36.9818 50.7956 36.838 50.7208L37.2681 49.8384L40.7544 47.1666ZM36.344 65.6757L38.0906 63.1227L40.44 64.9361C39.2074 65.6678 38.2404 65.9122 37.5097 65.9112C37.0486 65.9093 36.6673 65.8164 36.344 65.6757ZM41.502 68.3166C40.0208 68.3086 39.2364 67.7935 38.7514 67.2994C38.6934 67.2386 38.6535 67.1787 38.6036 67.1189C39.4819 66.9332 40.4649 66.516 41.5619 65.8035L42.5908 66.5978C42.977 67.0969 43.3783 67.548 43.7915 67.9633C42.8894 68.2146 42.1308 68.3166 41.502 68.3166ZM75.6905 71.8137L67.68 70.9944L67.6102 71.0024C67.6081 71.0034 67.3886 71.0273 66.9873 71.0642C65.7856 71.173 62.999 71.3936 60.0228 71.3926C58.0407 71.3936 55.9748 71.2938 54.2571 71.0074C51.8079 70.6002 49.7928 70.1321 48.0772 69.3446C46.3605 68.5541 44.9293 67.4582 43.585 65.7126L43.5321 65.6437L32.9986 57.5046L32.5685 57.0584L32.5694 57.0595C32.1003 56.5694 31.8599 55.9327 31.8588 55.29C31.8588 54.8389 31.9766 54.3887 32.2201 53.9825L32.1912 54.0294L32.8968 52.8547C33.2681 52.2439 33.866 51.8147 34.5625 51.675L34.5806 51.6709L34.5736 51.6729C34.7422 51.635 34.9109 51.617 35.0806 51.617C35.3041 51.617 35.5266 51.649 35.7472 51.7108L35.7592 51.7148C36.0387 51.7887 36.3041 51.9164 36.5576 52.0961L36.5956 52.124L45.5422 56.8548L49.3308 56.6491L49.2589 55.3218V55.3207L45.8386 55.5054L44.073 54.5722L55.7293 37.5334C56.0626 37.6942 56.392 37.8657 56.7134 38.0534C58.3262 38.9856 59.7554 40.2332 60.458 41.397L60.4779 41.4319L70.6662 54.3348L75.6905 54.7519V71.8137Z" fill="white"/>
</svg>
