<svg width="100" height="101" viewBox="0 0 100 101" fill="none" xmlns="http://www.w3.org/2000/svg">
<rect y="0.543701" width="100" height="100" rx="50" fill="#024892"/>
<path d="M74.2952 22.5437H32.3562C28.3716 22.5437 25.13 25.7852 25.13 29.7605C25.13 31.7878 25.9517 33.6488 27.3492 34.9766L27.6556 38.6199L27.8041 40.4902L27.6991 40.3674C24.886 42.8664 22.5182 45.5926 20.8048 48.2924C19.9576 49.6465 19.2673 50.992 18.7784 52.3291C18.2887 53.6662 18.0001 54.9852 18.0001 56.3044C17.9917 57.7115 18.3585 59.1525 19.2237 60.3497C20.0804 61.5553 21.3817 62.4206 22.9022 62.9096C23.4875 63.1023 24.0814 63.1723 24.6582 63.1723C26.1173 63.1629 27.5422 62.744 29.0619 62.1236C31.718 61.0229 34.6806 59.1961 37.7472 57.0117C38.6909 56.3309 39.7566 55.5177 40.8838 54.6268V56.2693C40.8838 59.4059 43.4264 61.9486 46.5631 61.9486H66.0732C69.2098 61.9486 71.7524 59.4059 71.7524 56.2693V34.5132H75.5792L72.8362 67.6542C72.5128 71.5076 69.2969 74.4691 65.4265 74.4691H41.4954C37.6334 74.4691 34.4091 71.5075 34.095 67.6542L33.7537 63.5646L33.6052 61.7916C32.2162 62.5953 30.9406 63.2421 29.7349 63.7397L29.752 63.8975L30.0839 67.9863C30.5738 73.8756 35.5891 78.4881 41.4954 78.4881H65.4265C71.342 78.4881 76.3568 73.8754 76.8379 67.9863L79.5981 34.6532C80.8132 33.3425 81.512 31.6129 81.512 29.7605C81.512 25.7852 78.2791 22.5437 74.2952 22.5437ZM40.8836 49.0347C39.8085 49.9349 38.7863 50.7651 37.887 51.4639C35.1078 53.6047 32.3562 55.5006 29.9704 56.8197C28.7828 57.4835 27.6906 57.9997 26.7639 58.3316C25.8467 58.6721 25.0864 58.8119 24.6581 58.8035C24.449 58.8035 24.3176 58.7771 24.2655 58.7591C23.4174 58.4715 23.0156 58.1387 22.7706 57.7983C22.5266 57.4485 22.3687 57.0116 22.3687 56.3043C22.3603 55.6575 22.5181 54.8017 22.885 53.8316C23.409 52.364 24.379 50.6429 25.7067 48.8862C26.4497 47.899 27.3056 46.8947 28.2494 45.9066L28.4499 48.2744L29.0445 55.3343L29.1231 55.2907C30.2587 54.6618 31.5172 53.8751 32.8714 52.9493L32.1632 44.3954L32.0147 42.6216L31.3423 34.5131H40.8834V49.0347H40.8836ZM40.8836 32.4167H30.5738C29.7171 31.8399 29.1497 30.8697 29.1497 29.7605C29.1497 27.9951 30.5823 26.5626 32.3562 26.5626H40.8837L40.8836 32.4167ZM69.1313 32.4167V34.5131V56.2693C69.1313 57.1166 68.7909 57.8683 68.2396 58.4272C67.6808 58.9869 66.929 59.3275 66.0732 59.3275H46.5628C45.7154 59.3275 44.9553 58.9869 44.4049 58.4272C43.8452 57.8683 43.5048 57.1167 43.5048 56.2693V52.4775V46.7718V34.5131V32.4167V26.5626H69.1313V32.4167ZM76.0597 32.4167H71.7525V26.5626H74.2952C76.0597 26.5626 77.4933 27.9951 77.4933 29.7605C77.4932 30.8697 76.9163 31.8399 76.0597 32.4167Z" fill="white"/>
<path d="M65.2029 42.0407C65.6858 42.0407 66.0767 41.6498 66.0767 41.1669V38.0474C66.0767 37.5645 65.6858 37.1736 65.2029 37.1736C64.7199 37.1736 64.3291 37.5643 64.3291 38.0474V41.1669C64.3292 41.6498 64.72 42.0407 65.2029 42.0407Z" fill="white"/>
<path d="M65.2029 49.8395C65.6858 49.8395 66.0767 49.4486 66.0767 48.9657V45.8462C66.0767 45.364 65.6858 44.9724 65.2029 44.9724C64.7199 44.9724 64.3291 45.364 64.3291 45.8462V48.9657C64.3292 49.4488 64.72 49.8395 65.2029 49.8395Z" fill="white"/>
<path d="M65.2029 34.2417C65.6858 34.2417 66.0767 33.851 66.0767 33.3679V30.2485C66.0767 29.7656 65.6858 29.3748 65.2029 29.3748C64.7199 29.3748 64.3291 29.7655 64.3291 30.2485V33.3679C64.3292 33.851 64.72 34.2417 65.2029 34.2417Z" fill="white"/>
<path d="M63.4558 56.2667H65.2034C65.4337 56.2667 65.6581 56.1737 65.8211 56.0108C65.9841 55.8478 66.0772 55.6226 66.0772 55.3931V53.6455C66.0772 53.1626 65.6863 52.7717 65.2034 52.7717C64.7204 52.7717 64.3296 53.1626 64.3296 53.6455V54.5193H63.4558C62.9729 54.5193 62.582 54.91 62.582 55.3931C62.582 55.875 62.9728 56.2667 63.4558 56.2667Z" fill="white"/>
<path d="M54.5364 56.2669H58.1038C58.5868 56.2669 58.9776 55.8752 58.9776 55.3931C58.9776 54.9102 58.5869 54.5193 58.1038 54.5193H54.5364C54.0535 54.5193 53.6626 54.91 53.6626 55.3931C53.6627 55.8751 54.0535 56.2669 54.5364 56.2669Z" fill="white"/>
<path d="M47.4376 56.2669H49.1851C49.6671 56.2669 50.0589 55.8753 50.0589 55.3931C50.0589 54.9102 49.6671 54.5193 49.1851 54.5193H48.3113V53.6455C48.3113 53.1626 47.9197 52.7717 47.4375 52.7717C46.9546 52.7717 46.5637 53.1626 46.5637 53.6455V55.393C46.5637 55.6225 46.6568 55.8477 46.8198 56.0107C46.9829 56.1738 47.2073 56.2669 47.4376 56.2669Z" fill="white"/>
<path d="M47.4375 49.8404C47.9196 49.8404 48.3113 49.4486 48.3113 48.9666V45.8472C48.3113 45.3641 47.9197 44.9734 47.4375 44.9734C46.9546 44.9734 46.5637 45.3641 46.5637 45.8472V48.9666C46.5638 49.4488 46.9546 49.8404 47.4375 49.8404Z" fill="white"/>
<path d="M47.4375 42.0407C47.9196 42.0407 48.3113 41.6498 48.3113 41.1669V38.0474C48.3113 37.5652 47.9197 37.1736 47.4375 37.1736C46.9546 37.1736 46.5637 37.5652 46.5637 38.0474V41.1669C46.5638 41.6498 46.9546 42.0407 47.4375 42.0407Z" fill="white"/>
<path d="M47.4375 34.2417C47.9196 34.2417 48.3113 33.851 48.3113 33.3679V30.2485C48.3113 29.7656 47.9197 29.3748 47.4375 29.3748C46.9546 29.3748 46.5637 29.7655 46.5637 30.2485V33.3679C46.5638 33.851 46.9546 34.2417 47.4375 34.2417Z" fill="white"/>
</svg>
