<svg width="25" height="25" viewBox="0 0 25 25" fill="none" xmlns="http://www.w3.org/2000/svg">
<circle cx="12.5" cy="12.5" r="12.5" fill="white"/>
<path d="M9.56344 4.89509C8.70537 4.93557 8.1194 5.07251 7.60713 5.2738C7.07697 5.48041 6.62761 5.75768 6.18051 6.20639C5.73341 6.6551 5.45808 7.10479 5.25292 7.63576C5.05437 8.14915 4.91985 8.73561 4.88195 9.59417C4.84404 10.4527 4.83565 10.7287 4.83985 12.9187C4.84404 15.1087 4.85372 15.3833 4.89533 16.2436C4.9363 17.1015 5.07275 17.6873 5.27405 18.1997C5.48098 18.7299 5.75792 19.1791 6.2068 19.6264C6.65567 20.0736 7.10503 20.3483 7.6373 20.5538C8.1502 20.752 8.73682 20.8872 9.59522 20.9248C10.4536 20.9623 10.7299 20.9711 12.9193 20.9669C15.1087 20.9627 15.3843 20.953 16.2445 20.9122C17.1046 20.8714 17.6874 20.734 18.2 20.5336C18.7301 20.3262 19.1797 20.0498 19.6266 19.6007C20.0736 19.1517 20.3487 18.7017 20.5537 18.1704C20.7524 17.6575 20.8874 17.0709 20.9247 16.2131C20.9623 15.3523 20.9711 15.0774 20.9669 12.8877C20.9628 10.698 20.9529 10.4235 20.9121 9.56352C20.8713 8.70351 20.7347 8.11947 20.5336 7.60673C20.3263 7.07656 20.0497 6.62768 19.601 6.1801C19.1523 5.73251 18.7019 5.45751 18.1708 5.25299C17.6576 5.05444 17.0713 4.91912 16.2129 4.88202C15.3545 4.84492 15.0782 4.83541 12.888 4.8396C10.6978 4.8438 10.4236 4.85315 9.56344 4.89509ZM9.65764 19.4739C8.87134 19.4398 8.4444 19.3091 8.15988 19.1997C7.7831 19.0546 7.51471 18.8791 7.23116 18.5983C6.94761 18.3175 6.77342 18.0481 6.62632 17.6722C6.51583 17.3876 6.38277 16.9612 6.34599 16.1749C6.30599 15.325 6.2976 15.0699 6.29293 12.9168C6.28825 10.7637 6.29648 10.5089 6.33373 9.65868C6.36728 8.87303 6.49874 8.44561 6.60793 8.16125C6.75309 7.78399 6.92793 7.51608 7.20939 7.23269C7.49084 6.9493 7.75939 6.77478 8.13569 6.62768C8.41988 6.51672 8.84634 6.38478 9.63232 6.34736C10.4828 6.30704 10.7376 6.29897 12.8904 6.29429C15.0432 6.28962 15.2987 6.29768 16.1495 6.3351C16.9351 6.36929 17.3627 6.49946 17.6468 6.6093C18.0237 6.75446 18.2919 6.92882 18.5753 7.21075C18.8587 7.49269 19.0334 7.76028 19.1805 8.13738C19.2916 8.42077 19.4235 8.84706 19.4606 9.63352C19.5011 10.484 19.5103 10.739 19.5142 12.8916C19.5181 15.0442 19.5105 15.2999 19.4732 16.1497C19.4389 16.936 19.3085 17.3631 19.199 17.648C19.0539 18.0246 18.8789 18.2931 18.5972 18.5764C18.3156 18.8596 18.0474 19.0341 17.6709 19.1812C17.3871 19.292 16.9601 19.4243 16.1748 19.4617C15.3243 19.5017 15.0695 19.5101 12.9159 19.5148C10.7623 19.5194 10.5081 19.5107 9.65764 19.4739ZM16.2321 8.59303C16.2324 8.78444 16.2895 8.97147 16.3961 9.13044C16.5027 9.28942 16.6541 9.4132 16.831 9.48615C17.008 9.55909 17.2026 9.57791 17.3903 9.54023C17.578 9.50255 17.7503 9.41006 17.8854 9.27446C18.0205 9.13886 18.1123 8.96624 18.1493 8.77843C18.1863 8.59062 18.1668 8.39606 18.0932 8.21936C18.0196 8.04265 17.8953 7.89174 17.7359 7.78571C17.5765 7.67967 17.3893 7.62328 17.1979 7.62366C16.9413 7.62418 16.6954 7.72658 16.5143 7.90836C16.3331 8.09015 16.2316 8.33642 16.2321 8.59303ZM8.76263 12.9113C8.76715 15.1984 10.6246 17.0483 12.9112 17.0439C15.1979 17.0396 17.049 15.1823 17.0446 12.8952C17.0403 10.608 15.1824 8.75771 12.8954 8.76222C10.6085 8.76674 8.75827 10.6245 8.76263 12.9113ZM10.2152 12.9084C10.2142 12.3767 10.3708 11.8567 10.6653 11.414C10.9598 10.9713 11.379 10.6259 11.8698 10.4215C12.3606 10.2171 12.901 10.1627 13.4227 10.2654C13.9444 10.3681 14.4239 10.6232 14.8006 10.9984C15.1773 11.3736 15.4343 11.8521 15.539 12.3734C15.6438 12.8947 15.5916 13.4353 15.3891 13.9269C15.1866 14.4185 14.8429 14.839 14.4014 15.1353C13.9599 15.4316 13.4405 15.5903 12.9088 15.5913C12.5558 15.5921 12.206 15.5233 11.8796 15.3888C11.5532 15.2544 11.2564 15.057 11.0063 14.8078C10.7561 14.5587 10.5575 14.2627 10.4218 13.9368C10.2861 13.6109 10.2159 13.2614 10.2152 12.9084Z" fill="#0A3864"/>
</svg>
