<svg width="161" height="237" viewBox="0 0 161 237" fill="none" xmlns="http://www.w3.org/2000/svg">
<path d="M133.642 46.8773C132.675 48.485 130.588 49.0037 128.981 48.0358C127.375 47.068 126.856 44.9801 127.824 43.3724C128.791 41.7647 130.877 41.246 132.484 42.2139C134.091 43.1817 134.609 45.2696 133.642 46.8773Z" fill="white"/>
<path d="M130.725 50.0506C129.861 50.0506 128.986 49.8234 128.194 49.3458C127.067 48.6672 126.272 47.59 125.955 46.3128C125.638 45.0357 125.836 43.7114 126.515 42.5839C127.915 40.2568 130.946 39.5026 133.272 40.904C134.399 41.5827 135.194 42.6599 135.511 43.937C135.828 45.2142 135.629 46.5385 134.951 47.666C134.028 49.2001 132.396 50.0506 130.725 50.0506ZM130.736 43.2566C130.102 43.2566 129.483 43.5791 129.133 44.1611C128.876 44.5888 128.8 45.0911 128.92 45.5755C129.041 46.0599 129.342 46.4685 129.77 46.7259C130.653 47.2575 131.802 46.9714 132.333 46.0887C132.59 45.6612 132.666 45.1589 132.546 44.6744C132.425 44.19 132.123 43.7813 131.696 43.5239C131.396 43.3428 131.064 43.2566 130.736 43.2566Z" fill="#111111"/>
<path d="M134.327 39.1519C132.72 38.1841 132.202 36.0962 133.169 34.4885L136.635 28.7275C137.602 27.1199 139.689 26.6011 141.295 27.5689C144.824 29.6947 149.424 28.5513 151.548 25.0201C153.673 21.4889 152.53 16.8864 149.001 14.7606C147.467 13.8363 145.652 13.4939 143.891 13.796C142.042 14.1133 140.287 12.8709 139.97 11.0215C139.653 9.17193 140.895 7.41562 142.743 7.09851C146.108 6.52065 149.575 7.17428 152.504 8.93861C159.241 12.997 161.423 21.7835 157.367 28.525C153.914 34.2637 147.038 36.699 140.913 34.7931L138.987 37.9934C138.02 39.601 135.933 40.1197 134.327 39.1519Z" fill="white"/>
<path d="M136.07 41.1664C135.205 41.1664 134.331 40.9391 133.538 40.4616C132.412 39.7829 131.617 38.7057 131.3 37.4285C130.982 36.1513 131.181 34.827 131.86 33.6996L135.326 27.9387C136.726 25.6115 139.757 24.8574 142.083 26.2587C144.89 27.95 148.55 27.0399 150.239 24.2312C151.929 21.4223 151.02 17.7613 148.213 16.0703C146.992 15.3351 145.549 15.0626 144.149 15.3027C142.852 15.5253 141.547 15.2292 140.474 14.4694C139.4 13.7094 138.686 12.5766 138.464 11.2795C138.242 9.98265 138.537 8.67658 139.297 7.60217C140.056 6.52779 141.188 5.81365 142.485 5.59123C146.212 4.95133 150.049 5.67506 153.292 7.62837C160.751 12.1215 163.166 21.8493 158.676 29.3133C155.123 35.2177 148.246 38.0914 141.628 36.5688L140.296 38.7817C139.373 40.3159 137.741 41.1664 136.07 41.1664ZM139.547 28.6113C138.913 28.6113 138.294 28.9339 137.944 29.5159L134.478 35.2768C134.221 35.7045 134.145 36.2069 134.265 36.6913C134.386 37.1758 134.687 37.5843 135.115 37.8417C135.997 38.3733 137.146 38.0873 137.678 37.2045L139.603 34.0043C139.966 33.4009 140.695 33.1237 141.366 33.3328C146.982 35.0803 153.023 32.7789 156.057 27.7361C159.679 21.7168 157.731 13.8718 151.715 10.2483C149.101 8.67305 146.007 8.08931 143.001 8.60523C142.509 8.68963 142.08 8.9605 141.792 9.36799C141.504 9.77549 141.392 10.2708 141.476 10.7628C141.56 11.2549 141.831 11.6845 142.238 11.9727C142.645 12.2609 143.14 12.3732 143.632 12.2887C145.756 11.9245 147.942 12.3375 149.789 13.4504C154.04 16.011 155.416 21.5548 152.857 25.8084C150.298 30.0621 144.757 31.439 140.507 28.8786C140.206 28.6975 139.875 28.6113 139.547 28.6113Z" fill="#111111"/>
<path d="M100.006 111.216C96.3838 107.391 94.4176 104.169 94.4176 96.2285V80.543L75.4319 90.737L53.0505 80.543C53.0505 80.543 56.4462 90.0936 56.4462 96.2285C56.4462 104.169 54.4801 107.391 50.858 111.216C47.9629 114.274 34.5688 121.658 34.5688 121.658L61.3622 147.085H89.5017L116.295 121.658C116.295 121.658 102.901 114.274 100.006 111.216Z" fill="white"/>
<path d="M89.5028 148.614C89.0981 148.614 88.6942 148.454 88.3938 148.137C87.8131 147.524 87.8387 146.556 88.451 145.975L113.737 121.978C109.851 119.782 101.308 114.814 98.8975 112.268C94.9135 108.06 92.8905 104.424 92.8905 96.2282V83.0984L76.1554 92.084C75.7349 92.3096 75.2337 92.3258 74.7998 92.1283L55.5685 83.3691C56.5929 86.7899 57.9752 92.1598 57.9752 96.2282C57.9752 104.424 55.9522 108.06 51.9681 112.268C49.5573 114.814 41.0145 119.782 37.1285 121.978L62.4147 145.975C63.027 146.556 63.0525 147.524 62.4719 148.137C61.8914 148.749 60.9244 148.775 60.3116 148.194L33.5183 122.767C33.1645 122.431 32.9922 121.947 33.0542 121.463C33.1162 120.979 33.4054 120.554 33.8325 120.318C37.5002 118.296 47.5097 112.53 49.7497 110.164C53.3244 106.389 54.9191 103.481 54.9191 96.2282C54.9191 90.4319 51.6448 81.1481 51.6118 81.055C51.4064 80.4767 51.5664 79.8314 52.0182 79.4164C52.4702 79.0014 53.1263 78.8968 53.6845 79.1511L75.3771 89.0314L93.696 79.1955C94.1697 78.941 94.7417 78.9545 95.2031 79.2306C95.6642 79.5067 95.9466 80.0049 95.9466 80.5427V96.2282C95.9466 103.481 97.5413 106.389 101.116 110.164C103.357 112.531 113.366 118.296 117.033 120.318C117.46 120.554 117.749 120.979 117.811 121.463C117.873 121.947 117.701 122.431 117.347 122.767L90.554 148.194C90.2586 148.474 89.8802 148.614 89.5028 148.614Z" fill="#111111"/>
<path d="M47.5814 107.393L49.9163 105.842L54.9084 97.6533C54.9084 97.6533 56.5378 98.8761 65.1024 104.92C69.8502 108.27 75.4313 111.282 75.4313 111.282C75.4313 111.282 81.0123 108.27 85.7601 104.92C94.3246 98.8761 95.954 97.6533 95.954 97.6533L100.946 105.842L103.281 107.393L107.148 111.205L100.946 146.275L86.8156 210.191H64.0467L49.9163 146.275L43.7144 111.205L47.5814 107.393Z" fill="white"/>
<path d="M86.8165 211.72H64.0477C63.3309 211.72 62.7105 211.222 62.5558 210.521L48.4255 146.605C48.4206 146.584 48.4165 146.563 48.4127 146.541L42.2107 111.471C42.123 110.975 42.2848 110.468 42.6431 110.115L46.5101 106.304C46.5796 106.235 46.6557 106.173 46.7369 106.119L48.7894 104.755L53.6048 96.8567C53.829 96.489 54.1981 96.2331 54.6208 96.1517C55.0436 96.0704 55.4812 96.1712 55.8257 96.4294C55.8421 96.4418 57.5736 97.7351 65.984 103.67C69.6086 106.228 73.7816 108.615 75.4322 109.536C77.0828 108.615 81.2559 106.228 84.8805 103.67C93.2908 97.7351 95.0223 96.4418 95.0387 96.4294C95.3832 96.1711 95.8211 96.07 96.2436 96.1517C96.6664 96.2331 97.0355 96.489 97.2596 96.8567L102.075 104.755L104.127 106.119C104.209 106.173 104.285 106.235 104.354 106.304L108.221 110.115C108.58 110.468 108.741 110.975 108.654 111.471L102.452 146.541C102.448 146.563 102.444 146.584 102.439 146.605L88.3084 210.521C88.1537 211.222 87.5333 211.72 86.8165 211.72ZM65.2747 208.662H85.5896L99.4481 145.976L105.504 111.729L102.314 108.585L100.102 107.115C99.9156 106.991 99.7589 106.828 99.6425 106.638L95.5135 99.8647C94.1479 100.849 91.5197 102.727 86.6416 106.169C81.874 109.534 76.3887 112.503 76.1576 112.628C75.7046 112.872 75.1598 112.872 74.7068 112.628C74.4757 112.503 68.9905 109.534 64.2228 106.169C59.3447 102.727 56.7166 100.849 55.3509 99.8647L51.2219 106.638C51.1055 106.828 50.9488 106.991 50.7628 107.115L48.55 108.585L45.3599 111.729L51.4164 145.976L65.2747 208.662Z" fill="#111111"/>
<path d="M88.0157 127.983C87.5615 127.983 87.1304 127.781 86.8398 127.431L75.4326 113.676L64.0253 127.431C63.7292 127.788 63.296 127.991 62.8235 127.983C62.3599 127.975 61.925 127.757 61.6411 127.39L47.0114 108.476C46.4949 107.808 46.6171 106.848 47.2844 106.331C47.9521 105.814 48.9116 105.936 49.4281 106.604L62.8911 124.01L74.2567 110.305C74.547 109.955 74.9779 109.752 75.4326 109.752C75.8872 109.752 76.3181 109.955 76.6085 110.305L87.9741 124.01L101.437 106.604C101.954 105.936 102.913 105.814 103.581 106.331C104.248 106.848 104.37 107.808 103.854 108.476L89.224 127.39C88.9402 127.757 88.5053 127.975 88.0417 127.983C88.0331 127.983 88.0243 127.983 88.0157 127.983Z" fill="#111111"/>
<path d="M81.9227 143.829C81.184 137.539 79.053 126.89 79.0528 126.889C79.0528 126.889 80.451 122.391 81.2372 118.282L75.4993 111.354L75.432 111.282L75.3645 111.354L69.6264 118.282C70.413 122.391 71.8111 126.889 71.8111 126.889C71.8111 126.89 69.6798 137.539 68.9412 143.829C68.5121 147.483 66.324 180.304 64.5656 207.169C63.2973 226.547 87.5671 226.553 86.2991 207.18C84.5406 180.313 82.352 147.483 81.9227 143.829Z" fill="#DBC890"/>
<path d="M87.8244 207.08C86.0634 180.176 83.8734 147.333 83.4408 143.65C82.9432 139.414 81.2497 129.808 80.623 126.981C80.974 125.816 82.0656 122.087 82.7386 118.57C82.8243 118.121 82.7054 117.658 82.4143 117.306L76.6764 110.379C76.6571 110.355 76.6374 110.333 76.6169 110.311L76.5495 110.239C76.2609 109.929 75.8566 109.753 75.4335 109.753H75.4325C75.0096 109.753 74.6057 109.928 74.3167 110.237L74.2492 110.31C74.2283 110.332 74.2081 110.355 74.1885 110.378L68.4504 117.306C68.1592 117.658 68.0404 118.121 68.1263 118.57C68.7971 122.074 69.8833 125.79 70.2381 126.968C69.8481 128.947 68.085 138.023 67.4241 143.65C66.991 147.337 64.8017 180.173 63.0414 207.069C62.6158 213.57 64.911 218.84 69.3385 221.529C71.2195 222.671 73.3278 223.242 75.4365 223.242C77.5443 223.242 79.6527 222.671 81.5324 221.53C85.9563 218.843 88.2497 213.577 87.8244 207.08ZM75.4324 113.669L79.5973 118.697C78.9801 121.697 78.0873 124.789 77.7402 125.952C77.303 126.229 76.4558 126.662 75.4325 126.662C74.407 126.662 73.5581 126.227 73.1249 125.953C72.7781 124.79 71.885 121.698 71.2674 118.697L75.4324 113.669ZM79.947 218.915C77.1645 220.605 73.707 220.604 70.9238 218.915C67.504 216.838 65.7425 212.593 66.0909 207.269C68.612 168.75 70.1225 146.874 70.4593 144.007C70.9903 139.485 72.2564 132.647 72.9084 129.248C73.3122 129.401 73.7668 129.531 74.2616 129.616L73.4795 134.455C73.3598 135.197 73.863 135.894 74.6035 136.014C74.677 136.026 74.7499 136.032 74.822 136.032C75.4766 136.032 76.0533 135.557 76.1612 134.889L77.0274 129.53C77.3593 129.452 77.6709 129.356 77.9562 129.248C78.6075 132.645 79.8762 139.5 80.4056 144.007C80.742 146.87 82.2528 168.75 84.775 207.28C85.1232 212.6 83.3633 216.841 79.947 218.915Z" fill="#111111"/>
<path d="M137.774 122.458C137.774 122.458 130.441 120.941 123.857 118.266C116.295 115.193 111.684 112.804 111.684 112.804L108.444 107.865L101.315 103.646L93.7384 158.918L75.4318 202.82C75.4316 202.82 71.5535 188.441 71.5535 188.441L58.7256 170.244L49.5485 103.646L42.419 107.865L39.1798 112.804C39.1798 112.804 34.5686 115.193 27.0065 118.266C20.4222 120.941 14.7872 122.458 14.7872 122.458C14.7864 122.458 8.49067 122.64 5.25371 128.191C-1.58795 139.925 4.23254 169.835 7.46719 193.782C10.6867 217.618 12.9002 229.598 20.0335 233.593C20.0335 233.593 23.4485 235.791 28.8335 235.136C32.0201 234.749 49.0417 231.588 63.6978 228.824L86.0481 224.579C86.0481 224.579 112.84 234.108 117.142 234.7C121.444 235.291 127.066 236.048 130.694 233.611C134.322 231.173 138.466 224.694 139.972 215.756C141.985 203.812 143.243 193.996 144.072 186.106C144.902 178.217 151.625 138.818 146.5 128.191C143.708 122.402 137.774 122.458 137.774 122.458Z" fill="#024892"/>
<path d="M123.749 236.823C121.362 236.823 118.974 236.495 116.934 236.214C112.527 235.608 86.6362 226.41 85.5362 226.019C84.741 225.736 84.3256 224.862 84.6082 224.066C84.8908 223.271 85.765 222.855 86.5598 223.138C93.9707 225.774 113.949 232.717 117.35 233.185C121.286 233.726 126.677 234.468 129.842 232.341C133.09 230.159 137.016 224.106 138.465 215.501C140.194 205.239 141.569 195.296 142.552 185.946C142.692 184.622 142.991 182.45 143.369 179.701C145.115 167.018 149.203 137.316 145.123 128.856C142.806 124.05 137.984 123.987 137.78 123.986C137.677 123.986 137.565 123.976 137.464 123.955C137.159 123.892 129.919 122.379 123.282 119.682C115.741 116.618 111.172 114.26 110.981 114.161C110.748 114.041 110.55 113.862 110.406 113.643L107.361 109L102.516 106.133L95.2519 159.126C95.234 159.257 95.1991 159.385 95.1482 159.507L76.8418 203.408C76.6044 203.978 76.0483 204.348 75.4317 204.348C74.2614 204.348 74.0107 203.42 73.7897 202.6L70.1487 189.101L57.4767 171.125C57.3359 170.926 57.2451 170.695 57.2116 170.453L48.3485 106.132L43.5019 109L40.4571 113.643C40.3132 113.862 40.1152 114.041 39.8823 114.161C39.6914 114.26 35.1219 116.618 27.5812 119.682C20.9856 122.362 15.4178 123.871 15.184 123.934C15.0709 123.964 14.9542 123.982 14.8371 123.986C14.6143 123.994 9.32583 124.241 6.57336 128.962C1.00255 138.515 4.42256 162.008 7.43999 182.736C7.98866 186.504 8.50677 190.063 8.98131 193.577C12.1672 217.163 14.3697 228.668 20.7795 232.258C20.8055 232.273 20.8314 232.288 20.8566 232.304C20.8826 232.321 23.9315 234.192 28.649 233.618C31.1703 233.312 43.1922 231.134 63.4148 227.322C64.2436 227.166 65.0431 227.711 65.1993 228.541C65.3555 229.371 64.8098 230.17 63.9805 230.327C49.8341 232.994 32.2852 236.257 29.0177 236.654C23.4423 237.333 19.7422 235.207 19.2561 234.909C11.6362 230.614 9.34904 219.13 5.95276 193.986C5.48023 190.488 4.96325 186.937 4.41594 183.177C1.17531 160.916 -2.17554 137.898 3.93379 127.42C7.24799 121.736 13.334 121.026 14.538 120.94C15.4804 120.679 20.5691 119.231 26.4315 116.849C32.6682 114.315 36.9177 112.23 38.1256 111.624L41.1414 107.026C41.2693 106.83 41.4403 106.667 41.6411 106.548L48.7706 102.329C49.2108 102.069 49.7523 102.046 50.2127 102.268C50.6735 102.491 50.9922 102.929 51.0622 103.436L60.1882 169.667L72.802 187.56C72.9053 187.706 72.9819 187.87 73.0287 188.043C73.0287 188.043 74.6001 193.869 75.7424 198.104L92.2513 158.513L99.8007 103.437C99.8703 102.93 100.189 102.491 100.65 102.269C101.11 102.046 101.652 102.068 102.092 102.329L109.222 106.548C109.423 106.667 109.594 106.83 109.722 107.026L112.737 111.624C113.945 112.23 118.195 114.315 124.431 116.849C130.326 119.244 136.934 120.713 137.95 120.932C139.102 120.972 144.958 121.476 147.876 127.526C152.357 136.818 148.48 164.986 146.396 180.118C146.022 182.84 145.726 184.99 145.592 186.266C144.602 195.678 143.218 205.686 141.479 216.01C139.769 226.161 135.059 232.519 131.546 234.88C129.32 236.375 126.535 236.823 123.749 236.823Z" fill="#111111"/>
<path d="M104.943 159.927C104.642 159.927 104.338 159.838 104.072 159.652C103.379 159.17 103.208 158.217 103.691 157.524L116.608 138.957L110.625 131.384C110.159 130.794 110.191 129.952 110.7 129.399L115.868 123.789L113.678 120.622C113.198 119.928 113.371 118.975 114.065 118.494C114.758 118.014 115.711 118.187 116.191 118.882L119.077 123.055C119.484 123.644 119.429 124.436 118.944 124.962L113.832 130.512L119.709 137.95C120.127 138.479 120.149 139.219 119.764 139.772L106.199 159.271C105.902 159.698 105.427 159.927 104.943 159.927Z" fill="#111111"/>
<path d="M50.6498 172.3C50.1204 172.3 49.6057 172.025 49.3232 171.533L31.0289 139.66C30.7177 139.118 30.7678 138.441 31.1554 137.95L37.033 130.512L31.92 124.962C31.4353 124.435 31.3801 123.643 31.787 123.055L34.6734 118.882C35.1539 118.187 36.1058 118.014 36.7994 118.494C37.4934 118.975 37.6667 119.927 37.1863 120.622L34.9959 123.789L40.1645 129.399C40.674 129.952 40.7058 130.794 40.2396 131.384L34.1942 139.035L51.9734 170.01C52.3938 170.742 52.1412 171.676 51.4094 172.097C51.1694 172.235 50.9078 172.3 50.6498 172.3Z" fill="#111111"/>
<path d="M37.83 184.928C37.0568 184.928 36.3933 184.343 36.3119 183.556L35.1672 172.505C35.0801 171.665 35.6901 170.914 36.5296 170.827C37.371 170.74 38.12 171.35 38.207 172.19L39.3517 183.241C39.4388 184.081 38.8288 184.833 37.9893 184.92C37.9358 184.925 37.8825 184.928 37.83 184.928Z" fill="#111111"/>
<path d="M27.6833 217.295C27.4948 217.295 27.3033 217.26 27.1176 217.186C26.3342 216.873 25.9523 215.985 26.2643 215.201C26.4064 214.844 29.8342 206.373 37.6069 198.957C38.2175 198.374 39.1852 198.397 39.7673 199.008C40.3496 199.619 40.3267 200.587 39.7159 201.17C32.4465 208.106 29.1355 216.252 29.103 216.333C28.864 216.931 28.2898 217.295 27.6833 217.295Z" fill="#111111"/>
<path d="M55.7522 185.918L52.0725 199.28L44.1903 196.745C44.1903 196.745 43.9453 193.402 42.9392 192.294C41.9331 191.187 39.2294 190.938 39.2294 190.938L37.8311 183.399L55.7522 185.918Z" fill="white"/>
<path d="M52.0722 200.809C51.9149 200.809 51.7572 200.785 51.6046 200.736L43.7224 198.2C43.1295 198.01 42.7115 197.478 42.6661 196.857C42.5556 195.38 42.1468 193.695 41.8083 193.322C41.455 192.934 40.0905 192.556 39.0867 192.46C38.4078 192.395 37.8512 191.888 37.7268 191.217L36.3284 183.678C36.2387 183.194 36.3869 182.697 36.7269 182.342C37.0666 181.986 37.5575 181.816 38.0433 181.885L55.9644 184.403C56.3998 184.465 56.7876 184.71 57.029 185.078C57.2705 185.446 57.3417 185.9 57.225 186.324L53.5453 199.686C53.4348 200.088 53.165 200.427 52.7987 200.625C52.5734 200.747 52.3234 200.809 52.0722 200.809ZM45.6047 195.594L51.0225 197.336L53.8166 187.189L39.7206 185.208L40.5332 189.59C41.6288 189.811 43.1774 190.283 44.0696 191.265C45.0135 192.304 45.4278 194.282 45.6047 195.594Z" fill="#111111"/>
<path d="M87.7903 190.85C87.7903 190.85 97.2204 174.638 98.8804 172.524C100.541 170.41 109.746 163.313 111.91 162.809C114.073 162.306 124.863 162.029 127.907 163.942C130.95 165.855 129.969 167.893 129.969 167.893C129.969 167.893 132.51 167.843 133.692 170.46C134.874 173.078 132.736 173.984 132.736 173.984C132.736 173.984 135.704 174.789 135.704 176.853C135.704 178.917 131.78 179.572 131.78 179.572C131.78 179.572 134.698 182.139 132.686 184.303C130.674 186.468 121.92 186.166 119.003 187.625C116.085 189.085 109.495 196.745 109.495 196.745L87.7903 190.85Z" fill="white"/>
<path d="M137.232 176.854C137.232 175.327 136.312 174.221 135.246 173.489C135.272 173.432 135.297 173.373 135.32 173.313C135.603 172.59 135.792 171.398 135.084 169.831C134.253 167.991 132.854 167.059 131.62 166.645C131.478 165.415 130.743 163.919 128.719 162.647C125.171 160.417 113.858 160.786 111.563 161.32C108.933 161.932 99.4506 169.323 97.6787 171.58C96.0014 173.716 87.44 188.412 86.4694 190.081C86.2303 190.492 86.196 190.991 86.3764 191.431C86.5566 191.871 86.9312 192.201 87.3898 192.326L109.094 198.22C109.227 198.256 109.361 198.274 109.495 198.274C109.933 198.274 110.358 198.085 110.653 197.742C113.124 194.871 117.762 189.956 119.686 188.993C120.709 188.481 122.99 188.186 125.196 187.9C128.84 187.429 132.281 186.983 133.805 185.345C134.586 184.504 134.971 183.489 134.916 182.409C134.879 181.665 134.638 180.98 134.329 180.395C135.727 179.79 137.232 178.707 137.232 176.854ZM131.637 178.043C129.362 178.044 119.736 178.081 117.884 178.603C115.924 179.156 110.203 184.004 108.497 185.477C107.858 186.028 107.786 186.994 108.338 187.633C108.64 187.984 109.066 188.164 109.495 188.164C109.849 188.164 110.204 188.042 110.493 187.793C113.708 185.018 117.766 181.841 118.713 181.547C119.665 181.278 125.652 181.114 131.132 181.102C131.465 181.499 131.84 182.073 131.864 182.562C131.873 182.74 131.845 182.963 131.567 183.262C130.795 184.092 127.19 184.559 124.804 184.868C122.233 185.201 119.804 185.515 118.319 186.258C115.673 187.582 110.784 192.964 108.972 195.019L90.1152 189.897C93.1965 184.629 98.9172 174.952 100.082 173.469C101.675 171.44 110.663 164.669 112.255 164.299C114.314 163.82 124.587 163.661 127.094 165.237C127.713 165.626 128.08 165.985 128.297 166.292C121.823 166.031 114.576 165.904 113.175 166.558C111.599 167.294 105.173 172.754 103.241 174.41C102.6 174.959 102.526 175.924 103.075 176.566C103.377 176.919 103.805 177.1 104.236 177.1C104.587 177.1 104.941 176.979 105.229 176.732C109.051 173.456 113.489 169.839 114.426 169.35C115.666 169.019 123.134 169.122 129.764 169.415C129.767 169.415 129.77 169.415 129.773 169.415C129.815 169.417 129.858 169.419 129.901 169.421C129.906 169.421 129.91 169.42 129.914 169.42C129.935 169.421 129.955 169.423 129.976 169.422C130.138 169.424 131.576 169.489 132.299 171.09C132.581 171.715 132.589 172.153 132.328 172.425C128.423 172.171 118.007 171.597 115.835 172.528C113.591 173.491 106.34 179.352 105.521 180.017C104.865 180.549 104.765 181.511 105.297 182.167C105.599 182.54 106.039 182.733 106.484 182.733C106.822 182.733 107.163 182.621 107.446 182.392C110.414 179.983 115.643 175.938 117.033 175.342C118.237 174.882 125.939 175.065 132.459 175.498C133.108 175.714 134.176 176.283 134.176 176.854C134.176 177.131 132.959 177.792 131.637 178.043Z" fill="#111111"/>
<path d="M50.2206 195.33C48.108 203.523 48.0957 209.882 48.0957 209.882L58.5673 212.728L65.5136 185.414L55.2413 182.359C55.2413 182.359 52.3336 187.138 50.2206 195.33Z" fill="white"/>
<path d="M58.568 214.257C58.4354 214.257 58.3007 214.239 58.1666 214.203L47.695 211.357C47.0283 211.176 46.5661 210.57 46.5674 209.879C46.5679 209.611 46.6044 203.232 48.7407 194.948C50.8857 186.632 53.8123 181.767 53.9358 181.564C54.2966 180.971 55.0107 180.695 55.6764 180.893L65.9487 183.948C66.7577 184.189 67.2184 185.04 66.978 185.85C66.7374 186.659 65.8862 187.12 65.0779 186.88L55.9871 184.176C55.0636 185.956 53.1758 189.99 51.6999 195.712C50.1772 201.617 49.7709 206.565 49.6626 208.723L58.9674 211.252C59.7818 211.473 60.2628 212.313 60.0416 213.128C59.857 213.809 59.2405 214.257 58.568 214.257Z" fill="#111111"/>
<path d="M117.6 196.674C114.934 195.063 111.362 197.278 111.362 197.278L62.7448 182.359C62.7448 182.359 59.1538 189.606 57.0098 198.491C54.866 207.375 54.1799 214.756 54.1799 214.756L77.2757 221.369L124.18 206.204C124.18 206.204 120.266 198.285 117.6 196.674Z" fill="#024892"/>
<path d="M77.2763 222.898C77.137 222.898 76.9956 222.879 76.8551 222.839L53.7593 216.226C53.0527 216.024 52.5901 215.347 52.6583 214.614C52.6866 214.309 53.3792 207.022 55.5241 198.132C57.6836 189.183 61.2258 181.982 61.3755 181.68C61.7079 181.009 62.4774 180.678 63.1925 180.897L111.199 195.629C112.539 194.967 115.708 193.745 118.389 195.365C121.291 197.118 124.863 204.137 125.549 205.526C125.923 206.283 125.613 207.2 124.857 207.574C124.101 207.949 123.184 207.639 122.81 206.882C121.372 203.974 118.471 198.986 116.81 197.983C115.024 196.904 112.194 198.56 112.167 198.577C111.792 198.81 111.335 198.869 110.914 198.74L63.5662 184.21C62.4923 186.584 60.0772 192.292 58.495 198.85C56.9137 205.402 56.13 211.182 55.839 213.641L77.6957 219.899C78.5072 220.131 78.9767 220.977 78.7444 221.789C78.5526 222.461 77.941 222.898 77.2763 222.898Z" fill="#111111"/>
<path d="M98.8118 46.9749L96.2409 32.3849C95.4993 28.1767 93.7192 24.2187 91.045 20.8871C85.9386 14.5257 76.3815 6.0316 62.9086 8.34933L62.6728 8.39095C49.2203 10.8238 43.143 22.0765 40.5188 29.8017C39.1446 33.8477 38.8248 38.1762 39.5664 42.3844L42.1373 56.9745C38.7906 56.3392 33.6277 58.0467 35.3971 67.2164C36.9642 75.3374 43.637 78.6593 47.3325 78.4727C47.9678 79.9635 48.6923 81.4019 49.5093 82.655C54.7536 90.498 66.5327 97.8594 75.109 98.6358C75.109 98.6358 76.6384 98.7643 78.6569 98.4082C80.6753 98.052 82.0687 97.408 82.0687 97.408C89.8623 93.7431 98.4149 82.7946 100.662 73.6297C101.002 72.1726 101.191 70.573 101.278 68.9546C104.815 67.8653 109.949 62.46 108.646 54.2924C107.175 45.0703 101.74 45.2326 98.8118 46.9749Z" fill="white"/>
<path d="M78.9226 99.9136C76.7339 100.3 75.052 100.165 74.9815 100.159C65.9726 99.3436 53.7309 91.7172 48.2397 83.5049C47.5739 82.4841 46.9343 81.3036 46.3274 79.9779C41.866 79.5997 35.4814 75.716 33.8971 67.506C33.0079 62.8977 33.637 59.4771 35.7667 57.3389C36.9425 56.1586 38.552 55.4655 40.2987 55.3431L38.0619 42.6497C37.2752 38.1852 37.6246 33.5722 39.0724 29.3095C41.533 22.0657 47.8358 9.52022 62.4014 6.886C62.4433 6.87856 62.485 6.87268 62.5266 6.86857C62.5671 6.85814 62.6079 6.84978 62.6501 6.8421C77.2379 4.33261 87.4485 13.9645 92.2365 19.9293C95.0541 23.4394 96.9593 27.6546 97.746 32.1192L99.9828 44.8126C101.665 44.33 103.415 44.4303 104.923 45.1371C107.656 46.4174 109.416 49.4165 110.156 54.0511C111.473 62.3082 106.801 68.1427 102.738 70.0249C102.621 71.4775 102.424 72.803 102.151 73.9764C99.7934 83.59 90.8967 94.946 82.719 98.7914C82.6457 98.8253 81.1112 99.5275 78.9226 99.9136ZM39.9851 58.4613C39.3012 58.582 38.5541 58.8724 37.9313 59.4977C36.5793 60.855 36.222 63.4237 36.8978 66.9262C38.3215 74.3042 44.3465 77.0922 47.2558 76.9453C47.8954 76.913 48.4872 77.2831 48.7384 77.8725C49.3925 79.4073 50.0826 80.7352 50.7894 81.8191C55.744 89.2287 67.1773 96.3821 75.247 97.1128C75.2469 97.1127 76.6158 97.2154 78.3919 96.9021C80.1679 96.5887 81.4192 96.0237 81.4317 96.0179C88.7525 92.5754 97.0512 81.9405 99.1785 73.265C99.4681 72.0212 99.6627 70.5372 99.7526 68.8718C99.7871 68.2319 100.217 67.6815 100.829 67.4929C103.613 66.6354 108.322 61.9535 107.138 54.5332C106.576 51.0106 105.362 48.7191 103.627 47.9064C101.867 47.0814 100.094 47.9905 99.5932 48.2888C99.1615 48.5455 98.6316 48.5738 98.1754 48.3645C97.719 48.1552 97.3945 47.7349 97.3073 47.2401L94.7363 32.6502C94.0387 28.6909 92.3504 24.9543 89.8539 21.8443C84.5193 15.1986 75.5593 7.72423 63.1679 9.85592C63.1304 9.86238 63.0929 9.86737 63.0556 9.87101C63.0193 9.88035 62.9825 9.88847 62.945 9.89524C50.5724 12.1329 44.7074 22.223 41.9659 30.2936C40.6832 34.0704 40.3739 38.1594 41.0715 42.1187L43.6425 56.7086C43.7297 57.2034 43.5684 57.7093 43.2112 58.0623C42.8539 58.4152 42.3458 58.57 41.853 58.4763C41.54 58.4169 40.8083 58.3161 39.9851 58.4613Z" fill="#111111"/>
<path d="M103.737 30.7028C103.737 30.7028 103.397 25.4122 99.1318 18.4227C96.2754 13.7416 93.023 9.35092 87.478 6.58327C78.8528 2.27815 74.9447 4.03973 74.9447 4.03973C74.9447 4.03973 69.3608 -0.654773 56.0221 3.94782C48.7172 6.46829 41.9439 13.8913 39.488 17.0878C34.5534 23.5111 31.6681 24.9151 31.2644 36.5381C31.113 40.8968 32.6007 45.2394 33.6269 48.7976C35.3371 54.7276 36.7415 58.5222 36.7415 58.5222C36.7415 58.5222 37.6923 57.4321 39.1622 57.0833C40.632 56.7346 42.1363 56.9738 42.1363 56.9738C42.1363 56.9738 43.6506 55.5311 43.7295 53.3703C43.8895 48.9952 41.2183 43.8728 45.8875 39.0622C48.3258 36.55 55.5181 33.7447 60.5535 28.948C64.9493 24.7605 67.5025 21.5885 69.313 19.9855C73.4225 16.3469 77.8815 17.2469 77.8815 17.2469L84.3924 18.8766C84.3924 18.8766 87.0158 20.4071 89.3941 26.3846C90.9423 30.2759 91.4711 31.793 93.3579 38.7443C95.3238 45.9878 98.9466 46.8565 98.9466 46.8565C98.9466 46.8565 100.512 45.9329 102.039 46.0426C103.566 46.1522 104.397 46.9223 104.397 46.9223C104.397 46.9223 104.217 41.2319 104.446 40.5016C104.872 39.1486 105.167 36.8707 105.144 36.0415C105.099 34.4158 103.737 30.7028 103.737 30.7028Z" fill="black"/>
<path d="M98.8113 46.9733L99.6791 52.428L101.086 62.6832L101.278 68.953C104.814 67.8637 109.949 62.4584 108.646 54.2908C107.174 45.0687 101.739 45.2311 98.8113 46.9733Z" fill="white"/>
<path d="M101.543 70.4592C101.141 70.53 100.725 70.4375 100.389 70.1971C100.001 69.9197 99.7646 69.477 99.75 69.0002L99.5581 62.7304C99.5323 61.8863 100.195 61.1812 101.039 61.1553C101.882 61.1294 102.587 61.7928 102.613 62.6368L102.73 66.4808C105.306 64.5836 108.076 60.4201 107.137 54.5324C106.575 51.0098 105.361 48.7182 103.626 47.9055C102.467 47.3623 101.303 47.5709 100.5 47.8619L101.188 52.188C101.321 53.0219 100.757 53.8041 99.9191 53.9383C99.0857 54.0711 98.3025 53.5027 98.1699 52.6687L97.302 47.2141C97.2036 46.5956 97.492 45.9797 98.03 45.6596C100.239 44.3448 102.816 44.1491 104.922 45.1362C107.655 46.4165 109.415 49.4156 110.154 54.0502C111.583 63.0029 105.97 69.1078 101.727 70.4147C101.666 70.4335 101.604 70.4483 101.543 70.4592Z" fill="#111111"/>
<path d="M43.1858 62.3968L42.1368 56.9741C38.7901 56.3388 33.6273 58.0463 35.3966 67.216C36.9638 75.337 43.6365 78.659 47.3321 78.4723L45.3693 72.5149L43.1858 62.3968Z" fill="white"/>
<path d="M47.5978 79.9777C47.5359 79.9887 47.473 79.9959 47.4094 79.9991C42.9754 80.2231 35.6144 76.4073 33.8966 67.5056C33.0075 62.8974 33.6365 59.4767 35.7662 57.3386C37.4082 55.6902 39.8963 54.9923 42.422 55.4716C43.0369 55.5883 43.5185 56.0684 43.6374 56.6833L44.6863 62.1059C44.8467 62.935 44.305 63.7371 43.4765 63.8976C42.6512 64.0559 41.8462 63.5161 41.686 62.687L40.854 58.3863C39.9994 58.3877 38.8343 58.5902 37.9308 59.4974C36.5788 60.8546 36.2215 63.4234 36.8973 66.9259C38.0269 72.78 42.0534 75.7444 45.1218 76.6458L43.9185 72.9933C43.6543 72.1913 44.0898 71.3269 44.8913 71.0625C45.6932 70.7975 46.5568 71.2339 46.821 72.0359L48.7836 77.9933C48.9328 78.4463 48.8623 78.9431 48.5927 79.3365C48.3591 79.6774 47.9994 79.9069 47.5978 79.9777Z" fill="#111111"/>
<path d="M42.6997 58.021L43.456 57.8041C44.0072 57.1828 45.1781 55.6141 45.2581 53.4267C45.3064 52.1056 45.1262 50.7552 44.9519 49.4493C44.516 46.1821 44.1041 43.0962 46.9852 40.1278C47.8983 39.187 49.778 38.0846 51.9546 36.8083C54.9284 35.0643 58.6294 32.8938 61.6086 30.056C64.0851 27.6967 65.9698 25.6715 67.4842 24.0443C68.6542 22.7872 69.5782 21.7941 70.3271 21.131C73.7774 18.0762 77.4372 18.7193 77.581 18.7461C78.4086 18.9131 79.2142 18.3774 79.381 17.5496C79.5479 16.7218 79.0125 15.9155 78.1853 15.7486C77.9728 15.7058 72.9275 14.7453 68.3019 18.8408C67.4423 19.602 66.4738 20.6427 65.2477 21.9603C63.7612 23.5575 61.9113 25.5453 59.5014 27.8411C56.7786 30.4348 53.3948 32.4191 50.4093 34.17C48.0407 35.5591 45.995 36.7586 44.7928 37.9974C40.8787 42.0302 41.4576 46.3683 41.9227 49.854C42.0874 51.0878 42.2429 52.2531 42.204 53.3149C42.1499 54.7977 41.0854 55.8654 41.0842 55.8669C40.9202 56.0232 40.7931 56.2138 40.7118 56.4253L40.4863 57.0117C41.1816 56.9615 41.8839 57.0732 42.5366 57.3853C42.8392 57.5973 42.6997 58.021 42.6997 58.021Z" fill="#111111"/>
<path d="M105.242 30.3681C105.122 29.2159 104.393 24.1083 100.437 17.626C97.5732 12.9331 94.104 8.18134 88.1611 5.21502C81.1278 1.70437 76.9256 1.97949 75.1985 2.37013C73.1882 1.17225 66.9861 -1.45202 55.525 2.50227C46.5871 5.58619 39.1017 15.0831 38.2776 16.1559C37.5038 17.1629 36.7907 18.033 36.1011 18.8745C32.4846 23.2871 30.0954 26.2023 29.7382 36.485C29.5966 40.5592 30.7509 44.455 31.7693 47.8921C31.9038 48.346 32.0352 48.7896 32.1597 49.2215C33.8661 55.1379 35.2513 58.8962 35.3095 59.0532C35.3998 59.2972 35.5509 59.5142 35.7485 59.6835L36.2032 60.0733C36.6071 59.1216 37.3349 58.3197 38.2169 57.7727L38.0424 57.6231C37.6552 56.5394 36.4698 53.1368 35.096 48.3736C34.9694 47.9346 34.8359 47.484 34.6992 47.0229C33.7472 43.8096 32.6681 40.1675 32.7924 36.5911C33.1137 27.3419 35.0141 25.0231 38.4641 20.8136C39.1359 19.9939 39.8975 19.0649 40.7005 18.0195C43.4832 14.3973 49.9468 7.66176 56.5213 5.39327C68.7158 1.1854 73.9262 5.18159 73.9627 5.21037C73.9897 5.23306 74.0192 5.25128 74.0473 5.27176C74.0591 5.28046 74.068 5.29134 74.0801 5.29966C74.1015 5.31458 76.2278 6.80705 76.9816 8.98723C77.2305 9.70698 77.9628 10.1217 78.6892 9.99358C78.7681 9.97968 78.8471 9.95933 78.9253 9.93222C79.7229 9.65605 80.1456 8.7853 79.8697 7.98726C79.5069 6.93807 78.9483 6.02277 78.3609 5.26082C80.2088 5.4195 82.9976 6.05498 86.7969 7.95155C91.7566 10.4269 94.794 14.2464 97.8286 19.2196C101.816 25.7533 102.21 30.7558 102.213 30.8007C102.222 30.9473 102.253 31.0917 102.303 31.2295C102.796 32.5743 103.589 35.0815 103.617 36.0839C103.634 36.702 103.381 38.7987 102.99 40.0425C102.731 40.8651 102.738 43.3822 102.826 45.9425C103.892 45.9342 104.97 46.3001 105.926 46.9234C105.806 44.0447 105.771 41.5222 105.905 40.9608C106.365 39.497 106.701 37.0495 106.672 35.999C106.626 34.3461 105.552 31.2348 105.242 30.3681Z" fill="#111111"/>
<path d="M99.7196 47.2958C100.089 46.9189 100.486 46.6301 100.899 46.4156L99.8694 45.6371C99.6832 45.4963 99.5505 45.4174 99.3271 45.3741C99.0699 45.2798 96.4158 44.1731 94.8337 38.3439C92.9545 31.4202 92.3943 29.7889 90.8149 25.8194C88.314 19.5334 85.4786 17.7399 85.1635 17.5559C84.4345 17.1306 83.487 17.3699 83.0617 18.0994C82.6366 18.8289 82.871 19.7579 83.6001 20.1832C83.6226 20.1976 85.8754 21.672 87.9756 26.9504C89.5271 30.8498 90.0344 32.3291 91.8845 39.1454C93.7413 45.9865 97.0737 47.7963 98.2276 48.2287L99.0098 48.2173C99.0098 48.2173 99.3749 47.5517 99.7196 47.2958Z" fill="#111111"/>
<path d="M96.8123 49.248C96.743 48.8548 96.515 48.5143 96.1702 48.2894C95.3159 47.732 93.798 47.9903 92.9693 48.1939C92.6487 48.2725 92.3861 48.502 92.2648 48.8091C92.1434 49.1164 92.1785 49.4633 92.3587 49.7402C92.5993 50.1098 92.8745 50.7243 93.1061 51.4827C93.1169 51.5326 93.1316 51.5821 93.1502 51.6307C93.7371 53.6508 93.9935 56.5988 92.5369 58.6853C90.6368 61.407 81.9284 62.3503 79.2578 61.462C76.2262 60.4538 75.2532 55.2466 75.2315 54.581C75.2188 54.1973 75.2552 53.7894 75.2555 53.786C75.3071 53.2253 74.8946 52.729 74.3344 52.6776C73.8097 52.629 73.3474 52.9892 73.2471 53.4943C72.61 53.4293 71.7638 53.4228 70.7469 53.6022C69.7306 53.7815 68.9365 54.0564 68.3611 54.3093C68.0848 53.9 67.5471 53.7397 67.0866 53.9564C66.5779 54.1961 66.3596 54.8032 66.5987 55.3125C66.6004 55.3161 66.774 55.6872 66.8935 56.0525C67.1005 56.6851 67.966 61.9112 65.4619 63.8962C63.2559 65.6447 54.7503 67.7389 52.0344 65.8315C49.9513 64.3683 49.1849 61.5077 49.0466 59.4082C49.0472 59.3589 49.0443 59.3102 49.0379 59.2622C48.9959 58.4687 49.0445 57.795 49.1444 57.3648C49.2191 57.043 49.1335 56.705 48.9144 56.4578C48.6954 56.2107 48.3703 56.0849 48.042 56.1208C47.1939 56.213 45.6793 56.4898 45.067 57.3059C44.8198 57.6352 44.7219 58.0332 44.7912 58.4265C44.9215 59.1655 45.6862 59.7568 47.0676 60.1888C47.3569 62.7347 48.424 65.7865 50.8639 67.5001C52.7028 68.7916 56.0155 68.8259 59.2026 68.2635C62.344 67.7091 65.3634 66.5751 66.7271 65.4942C69.679 63.1541 69.3873 58.3234 69.0205 56.2508C69.4616 56.0424 70.1585 55.7761 71.1007 55.6099C72.0778 55.4375 72.8404 55.4869 73.3122 55.5591C73.6922 57.6612 75.0763 62.2197 78.6151 63.3967C80.2662 63.9459 83.4906 63.9784 86.6323 63.4239C89.819 62.8615 92.9208 61.6955 94.2072 59.8527C95.9142 57.4075 95.8739 54.1744 95.2756 51.6833C96.426 50.8046 96.9425 49.987 96.8123 49.248Z" fill="#111111"/>
<path d="M65.3166 85.6445C65.1568 85.6445 64.9945 85.6068 64.8433 85.5271C64.3454 85.2651 64.154 84.6488 64.4158 84.1504L65.9041 81.3194C66.1662 80.8211 66.7821 80.6297 67.2799 80.8919C67.7778 81.1539 67.9691 81.7703 67.7073 82.2686L66.2191 85.0996C66.0367 85.4464 65.6827 85.6445 65.3166 85.6445Z" fill="#111111"/>
<path d="M71.6968 71.1101C71.9101 70.7511 72.6972 70.9683 73.655 70.8212C74.605 70.6304 75.2698 70.156 75.5932 70.4198C75.9276 70.6927 75.8905 72.357 73.9951 72.7434C72.0823 73.0317 71.4764 71.4813 71.6968 71.1101Z" fill="#111111"/>
<path d="M87.3326 50.5762C86.6178 50.0629 85.7913 49.8332 85.0651 49.9462C84.4994 50.0322 83.9578 50.3871 83.5334 50.9407C82.9406 51.714 82.6685 52.768 82.8237 53.6914C82.9657 54.5366 83.5313 55.3537 84.337 55.8769C84.9659 56.2853 85.6451 56.4531 86.2574 56.3529C86.2787 56.3494 86.3 56.3456 86.3213 56.3415C87.6589 56.0796 88.7895 54.1851 88.6035 52.5167C88.5256 51.8172 88.0505 51.0919 87.3326 50.5762Z" fill="#111111"/>
<path d="M57.4004 55.8364C57.8977 55.11 58.5965 54.6123 59.3177 54.4709C59.8789 54.359 60.5089 54.508 61.0963 54.8837C61.917 55.4087 62.5317 56.3069 62.7003 57.2279C62.8546 58.071 62.601 59.032 62.0217 59.7986C61.5695 60.3969 60.9881 60.7863 60.3783 60.9008C60.357 60.9048 60.3357 60.9085 60.3143 60.9119C58.9675 61.1217 57.2596 59.726 56.8663 58.094C56.7014 57.4098 56.9011 56.566 57.4004 55.8364Z" fill="#111111"/>
<path d="M69.8629 84.9879C69.482 84.9879 69.108 84.8056 68.8784 84.4672C68.5106 83.925 68.6487 83.1885 69.1894 82.8187C69.4 82.6745 74.4376 79.3019 81.8571 80.624C82.5032 80.7392 82.9338 81.3568 82.8187 82.0034C82.7037 82.6499 82.086 83.0805 81.4402 82.9656C75.0149 81.8207 70.5717 84.7545 70.5276 84.7843C70.3237 84.9219 70.092 84.9878 69.8629 84.9879Z" fill="#111111"/>
<path d="M76.8093 46.1528C76.3921 46.1528 75.9709 46.1398 75.5469 46.1119C74.7984 46.0626 74.2316 45.4154 74.2808 44.6664C74.33 43.9175 74.9764 43.3497 75.7253 43.3995C80.9948 43.7464 86.0495 41.3749 86.0999 41.3509C86.7767 41.0287 87.5871 41.3158 87.9099 41.9928C88.2326 42.6697 87.9469 43.48 87.2708 43.8037C87.0562 43.9064 82.2955 46.1528 76.8093 46.1528Z" fill="#111111"/>
<path d="M79.7818 53.65C79.6716 53.65 79.5596 53.638 79.4476 53.6129C78.6239 53.429 78.1052 52.6118 78.2889 51.7876C78.5411 50.6572 79.6843 48.4947 82.3698 47.5598C86.8487 46.0008 89.6716 48.5889 90.5383 50.1752C90.9432 50.9161 90.6711 51.8452 89.9306 52.2503C89.1903 52.6555 88.2616 52.3831 87.8569 51.6423C87.6422 51.2735 86.3734 49.4039 83.3739 50.448C81.6285 51.0556 81.2747 52.4399 81.2717 52.4538C81.1129 53.1657 80.4817 53.65 79.7818 53.65Z" fill="#111111"/>
<path d="M53.1296 50.9429C51.6685 50.9429 50.6732 50.8185 50.5633 50.8042C49.8195 50.7068 49.2954 50.0245 49.3927 49.2802C49.4901 48.536 50.1708 48.0115 50.9158 48.1088C50.9798 48.1171 57.5068 48.9179 61.6087 46.0879C62.2267 45.662 63.0723 45.8174 63.4979 46.4353C63.9237 47.0534 63.7683 47.8997 63.1507 48.3258C59.9487 50.5348 55.7756 50.9429 53.1296 50.9429Z" fill="#111111"/>
<path d="M52.9775 59.9619C52.9024 59.9619 52.8263 59.9565 52.7498 59.9451C51.9149 59.8218 51.3393 59.0364 51.4627 58.2009C51.4927 57.9975 52.2629 53.2034 57.8851 51.8726C60.2013 51.3243 62.0661 52.5746 62.2714 52.7188C62.9618 53.2046 63.1277 54.1583 62.6424 54.8491C62.1598 55.5355 61.2154 55.7041 60.5261 55.229C60.484 55.2015 59.5694 54.6162 58.5887 54.8484C55.0301 55.6907 54.504 58.5431 54.4834 58.6641C54.3714 59.4229 53.7213 59.9618 52.9775 59.9619Z" fill="#111111"/>
<path d="M73.3143 47.0114C72.9015 47.0114 72.4936 46.8238 72.2268 46.4677L71.1515 45.0331C70.7013 44.4326 70.8228 43.5807 71.423 43.1303C72.0226 42.6802 72.8743 42.8013 73.3245 43.402L74.3999 44.8367C74.85 45.4372 74.7285 46.2892 74.1283 46.7395C73.884 46.9228 73.598 47.0114 73.3143 47.0114Z" fill="#111111"/>
<path d="M78.4252 10.0164C77.7919 10.0164 77.2 9.61946 76.9813 8.98697C76.2274 6.80685 74.1011 5.31428 74.0797 5.2995C73.3875 4.81987 73.2113 3.86897 73.6883 3.17474C74.1649 2.48067 75.1107 2.30148 75.8066 2.77655C75.9274 2.85912 78.7791 4.83421 79.8692 7.98704C80.1453 8.78504 79.7223 9.65582 78.9248 9.93196C78.7595 9.98921 78.5909 10.0164 78.4252 10.0164Z" fill="#111111"/>
</svg>
