<svg width="165" height="235" viewBox="0 0 165 235" fill="none" xmlns="http://www.w3.org/2000/svg">
<path d="M28.0574 46.0447C24.7745 46.0447 22.1701 43.9886 21.5653 41.0997C20.082 41.2127 18.5894 40.9217 17.5896 40.0632C16.4599 39.0931 15.8225 37.7026 15.7459 36.042C15.7413 35.9393 15.7386 35.8356 15.7386 35.7312C14.4898 35.8953 13.3146 35.9391 12.3695 35.8808C9.51472 35.7045 8.02583 33.7409 7.53639 33.0957C6.34988 31.5312 6.27097 29.441 7.30888 27.1938C4.63118 26.653 2.30697 25.2014 1.07537 23.2953C0.121675 21.8195 -0.161827 20.1124 0.255666 18.3587C1.34563 13.7826 6.93981 12.2566 10.5566 12.9143C12.7038 13.3047 15.3231 14.5829 16.2357 16.9996C16.566 17.8747 16.2138 18.5053 16.047 18.7357C15.4531 19.5573 14.5167 19.5165 13.7639 19.4838C12.5251 19.4301 11.5989 19.4715 10.9665 20.4975C10.483 21.2818 10.489 22.054 10.9065 22.9834C11.2222 22.7904 11.5481 22.6228 11.8824 22.4823C13.2241 21.9178 15.6932 20.879 17.3618 22.1845C17.5727 22.3498 17.7644 22.5499 17.9335 22.7774C18.0632 22.657 18.1872 22.5284 18.3063 22.3915C19.19 21.377 19.9258 19.6164 19.5786 17.9701C19.2954 16.6288 18.3185 15.5582 16.6744 14.7882C15.9104 14.4303 15.5808 13.5201 15.9386 12.7553C16.296 11.9906 17.206 11.6605 17.9703 12.0187C21.158 13.5118 22.2305 15.7357 22.5687 17.3384C23.1722 20.1984 21.8909 22.9302 20.6102 24.4006C20.0279 25.069 19.3919 25.5805 18.7403 25.974C18.6209 27.0605 18.1146 27.9582 17.3267 28.4646C15.4379 29.6783 12.0684 29.6173 10.4658 27.7517C10.3494 27.9469 10.24 28.1499 10.1382 28.3602C9.71866 29.2248 9.34925 30.4276 9.97102 31.2471C10.7742 32.3066 11.5236 32.7647 12.5579 32.8286C13.6747 32.8975 15.0147 32.7958 16.3276 32.5495C16.7968 31.2422 17.5217 30.0093 18.4097 29.092C18.4362 29.0643 21.2075 26.4062 23.2568 27.5017C23.978 27.8869 24.4409 28.5514 24.5597 29.3727C24.7583 30.7445 23.9492 32.111 23.3569 32.6949C22.248 33.7877 20.5943 34.5688 18.8308 35.0866C18.7984 35.3604 18.7864 35.6335 18.7987 35.9013C18.8361 36.71 19.0988 37.3295 19.5799 37.7426C19.8691 37.991 20.6401 38.1254 21.5115 38.0342C21.6442 36.816 21.9645 35.5687 22.6526 34.7046C23.3685 33.8054 24.4211 33.4343 25.3986 33.7349C26.4196 34.049 27.1124 35.0078 27.2062 36.2371C27.3332 37.8993 26.3828 39.3716 24.5988 40.2762C24.5749 40.2883 24.5507 40.3004 24.5265 40.3123C24.7958 42.0703 26.4435 42.9867 28.0574 42.9867C28.9014 42.9867 29.5855 43.6713 29.5855 44.5157C29.5855 45.3602 28.9014 46.0447 28.0574 46.0447ZM8.88337 15.8278C6.59396 15.8278 3.74845 16.8851 3.22882 19.0674C3.00301 20.0156 3.13795 20.8554 3.64166 21.6349C4.42293 22.8441 6.13334 23.8561 7.99928 24.2131C8.04142 24.2211 8.08386 24.229 8.12662 24.2367C7.41767 22.6422 7.18687 20.8044 8.3654 18.8923C9.31577 17.3501 10.6153 16.7505 11.7836 16.5293C11.2179 16.2346 10.5858 16.0278 10.0101 15.9231C9.66165 15.8597 9.28062 15.8278 8.88337 15.8278Z" fill="#111111"/>
<path d="M117.944 113.228C114.322 109.402 112.356 106.181 112.356 98.2402V82.5547L93.3701 92.7487L70.9888 82.5547C70.9888 82.5547 74.3844 92.1053 74.3844 98.2402C74.3844 106.181 72.4183 109.402 68.7962 113.228C65.9013 116.286 52.5071 123.669 52.5071 123.669L79.3004 149.097H107.44L134.233 123.669C134.233 123.669 120.839 116.286 117.944 113.228Z" fill="white"/>
<path d="M107.441 150.625C107.036 150.625 106.632 150.465 106.332 150.148C105.751 149.536 105.777 148.568 106.389 147.987L131.675 123.99C127.789 121.794 119.246 116.826 116.836 114.279C112.851 110.071 110.829 106.435 110.829 98.2398V85.1101L94.0932 94.0956C93.6731 94.3212 93.1715 94.3375 92.7378 94.14L73.5065 85.3807C74.5309 88.8016 75.9131 94.1714 75.9131 98.2398C75.9131 106.435 73.8902 110.071 69.9061 114.279C67.4953 116.826 58.9525 121.794 55.0665 123.99L80.3527 147.987C80.965 148.568 80.9905 149.536 80.4099 150.148C79.8294 150.761 78.8624 150.787 78.2496 150.206L51.4562 124.779C51.1025 124.443 50.9302 123.958 50.9922 123.474C51.0542 122.991 51.3433 122.565 51.7704 122.33C55.4382 120.308 65.4477 114.542 67.6877 112.176C71.2624 108.401 72.8571 105.492 72.8571 98.2398C72.8571 92.4435 69.5828 83.1598 69.5498 83.0668C69.3444 82.4884 69.5044 81.8431 69.9562 81.4281C70.4081 81.0131 71.0643 80.9086 71.6225 81.1628L93.3151 91.0431L111.634 81.2072C112.108 80.9528 112.68 80.9662 113.141 81.2424C113.602 81.5184 113.885 82.0166 113.885 82.5544V98.2398C113.885 105.492 115.479 108.4 119.054 112.176C121.294 114.542 131.303 120.308 134.971 122.33C135.398 122.565 135.687 122.991 135.749 123.474C135.811 123.958 135.639 124.443 135.285 124.779L108.492 150.206C108.197 150.486 107.818 150.625 107.441 150.625Z" fill="#111111"/>
<path d="M142.055 120.906L141.69 120.757L124.588 112.9L113.234 100.944C113.234 100.944 109.286 106.062 103.834 110.328C98.3814 114.594 90.654 118.364 90.654 118.364L86.1425 116.09L70.0451 101.318L60.1599 113.097C60.1599 113.097 49.973 118.335 39.7861 122.549C29.5992 126.763 19.2654 132.786 20.3529 151.83C21.1396 165.607 23.6341 177.369 25.9224 194.5C28.2106 211.631 28.4439 220.244 34.8059 226.885C43.744 236.216 58.3336 228.175 60.8992 225.659L93.8986 221.751C93.8986 221.751 116.604 228.363 127.367 231.176C138.129 233.989 147.733 235.078 151.28 226.561C154.43 218.996 156.066 205.829 157.788 191.883C159.779 175.763 161.656 158.602 162.436 147.849C163.679 130.698 147.759 123.595 142.055 120.906Z" fill="white"/>
<path d="M139.914 234.748C135.943 234.748 131.484 233.832 126.98 232.655C116.321 229.869 93.6984 223.285 93.4712 223.218C92.661 222.982 92.1952 222.134 92.431 221.323C92.6668 220.512 93.5145 220.046 94.3251 220.282C94.5521 220.348 117.134 226.921 127.753 229.696C138.885 232.606 146.906 233.086 149.869 225.973C152.953 218.567 154.564 205.514 156.271 191.696C158.508 173.582 160.199 157.561 160.911 147.738C162.053 131.995 147.845 125.317 141.778 122.465L141.44 122.306L141.112 122.172C141.092 122.164 141.072 122.155 141.052 122.146L123.95 114.289C123.773 114.208 123.614 114.094 123.48 113.953L113.318 103.252C111.743 105.103 108.643 108.505 104.775 111.532C99.2588 115.848 91.6448 119.581 91.3233 119.738C90.8945 119.947 90.3926 119.944 89.9664 119.729L85.4549 117.456C85.3292 117.392 85.213 117.312 85.1093 117.217L70.1881 103.525L61.3298 114.08C61.1991 114.236 61.0386 114.364 60.8579 114.457C60.7554 114.51 50.4976 119.772 40.3695 123.962C30.4446 128.067 20.8414 133.594 21.8779 151.742C22.394 160.781 23.6531 168.957 25.111 178.424C25.8724 183.368 26.6596 188.481 27.4366 194.297C27.7428 196.589 28.0078 198.694 28.2639 200.729C29.8641 213.437 30.7457 220.437 35.9086 225.827C38.3459 228.371 41.4748 229.691 45.2079 229.749C51.654 229.85 58.2841 226.082 59.8291 224.566C60.4319 223.975 61.3992 223.985 61.99 224.588C62.5807 225.191 62.5711 226.159 61.9686 226.75C59.8271 228.851 52.4746 232.925 45.1604 232.806C40.5806 232.735 36.7257 231.099 33.7024 227.943C27.8398 221.823 26.9135 214.466 25.2319 201.111C24.9764 199.081 24.7121 196.983 24.4074 194.702C23.6346 188.916 22.8496 183.819 22.0906 178.89C20.6208 169.345 19.3512 161.102 18.8268 151.917C18.3106 142.879 20.223 135.92 24.6731 130.642C28.6517 125.924 34.0073 123.285 39.2019 121.136C48.2945 117.375 57.5039 112.733 59.1889 111.876L68.8743 100.335C69.1424 100.015 69.5292 99.8195 69.9452 99.7924C70.363 99.7659 70.7702 99.9094 71.0773 100.191L87.0187 114.82L90.6548 116.652C92.6292 115.645 98.5503 112.52 102.892 109.123C108.132 105.023 111.986 100.059 112.024 100.01C112.297 99.6563 112.71 99.4399 113.156 99.417C113.599 99.3943 114.034 99.5672 114.341 99.8907L125.492 111.633L142.297 119.353L142.632 119.49C142.657 119.5 142.681 119.511 142.706 119.523L143.078 119.698C149.142 122.548 165.253 130.121 163.959 147.96C163.244 157.831 161.547 173.909 159.304 192.071C157.571 206.103 155.934 219.357 152.69 227.149C150.311 232.86 145.615 234.748 139.914 234.748Z" fill="#111111"/>
<path d="M103.237 135.036C102.799 135.036 102.363 134.848 102.061 134.484L90.6535 120.729L79.2461 134.484C78.9635 134.825 78.5468 135.026 78.1043 135.036C77.6608 135.044 77.2366 134.863 76.939 134.535L63.1719 119.362C62.6045 118.737 62.6513 117.77 63.2761 117.203C63.901 116.635 64.8673 116.682 65.4345 117.307L78.0184 131.176L89.4777 117.358C89.768 117.008 90.1989 116.806 90.6535 116.806C91.1082 116.806 91.5391 117.008 91.8294 117.358L104.412 132.531C104.951 133.181 104.862 134.145 104.212 134.684C103.927 134.921 103.581 135.036 103.237 135.036Z" fill="#111111"/>
<path d="M94.2748 133.942C94.2748 133.942 95.6728 129.444 96.4594 125.335L90.7213 118.407L90.6539 118.335L90.5865 118.407L84.8486 125.335C85.6348 129.444 87.0331 133.942 87.0331 133.942C87.0329 133.942 84.9018 144.592 84.1632 150.881C83.7782 154.158 82.9006 178.494 82.1482 201.059L99.1947 202.113C98.4346 179.259 97.5355 154.209 97.1447 150.881C96.406 144.592 94.2748 133.942 94.2748 133.942Z" fill="#DBC890"/>
<path d="M99.1948 203.643C98.3744 203.643 97.6961 202.991 97.6686 202.164C96.6446 171.378 95.939 153.706 95.6283 151.06C94.9133 144.972 92.8652 134.681 92.7783 134.246C92.7587 134.147 92.7479 134.043 92.7479 133.942C92.7479 133.788 92.7711 133.635 92.8169 133.488C92.8299 133.447 94.0433 129.525 94.8201 125.751L90.6552 120.722L86.4902 125.751C87.2667 129.525 88.4803 133.447 88.4933 133.488C88.57 133.735 88.5823 133.995 88.5321 134.245C88.511 134.349 86.4053 144.901 85.6819 151.06C85.4677 152.883 84.9459 163.046 83.6764 201.11C83.6484 201.954 82.9347 202.618 82.0982 202.587C81.2548 202.559 80.5938 201.852 80.622 201.008C81.644 170.364 82.3252 153.439 82.6467 150.703C83.1441 146.468 84.8378 136.862 85.4645 134.034C85.1135 132.87 84.0221 129.14 83.3489 125.623C83.2632 125.174 83.3821 124.711 83.6732 124.36L89.4112 117.432C89.4304 117.409 89.4501 117.386 89.4707 117.364L89.538 117.292C89.8266 116.982 90.2309 116.806 90.654 116.806H90.655C91.078 116.806 91.4819 116.982 91.7709 117.291L91.8383 117.363C91.8592 117.385 91.8794 117.408 91.899 117.432L97.6371 124.36C97.9283 124.711 98.0471 125.175 97.9613 125.623C97.2904 129.128 96.2043 132.843 95.8494 134.021C96.2407 136.007 98.0029 145.079 98.6634 150.703C98.9886 153.472 99.6815 170.752 100.723 202.063C100.751 202.907 100.09 203.614 99.2467 203.642C99.2293 203.642 99.2121 203.643 99.1948 203.643Z" fill="#111111"/>
<path d="M115.782 48.7884L113.211 34.1984C112.47 29.9902 110.69 26.0322 108.015 22.7005C102.909 16.3393 93.352 7.84505 79.8791 10.1628L79.6433 10.2044C66.1906 12.6374 60.1134 23.89 57.4893 31.6153C56.1151 35.6612 55.7952 39.9897 56.5368 44.1979L59.1078 58.7879C55.7611 58.1527 50.5982 59.8603 52.3676 69.0299C53.9346 77.1508 60.6075 80.4728 64.3029 80.2861C64.9383 81.777 65.6627 83.2154 66.4797 84.4685C71.7241 92.3115 83.5032 99.6729 92.0793 100.449C92.0793 100.449 93.6089 100.578 95.6273 100.222C97.6458 99.8655 99.0392 99.2215 99.0392 99.2215C106.833 95.5567 115.385 84.608 117.633 75.4432C117.972 73.9861 118.161 72.3865 118.249 70.7681C121.785 69.6787 126.92 64.2735 125.617 56.1059C124.145 46.8838 118.71 47.0462 115.782 48.7884Z" fill="white"/>
<path d="M95.893 101.727C93.7045 102.113 92.0224 101.979 91.952 101.973C82.943 101.157 70.7012 93.5304 65.2101 85.3185C64.5443 84.2975 63.9047 83.1169 63.2977 81.7914C58.8365 81.413 52.4518 77.5294 50.8676 69.3195C49.9784 64.7112 50.6075 61.2905 52.7372 59.1522C53.913 57.972 55.524 57.2801 57.2691 57.1565L55.0322 44.463C54.2456 39.999 54.5951 35.386 56.0428 31.1228C58.5034 23.8789 64.8064 11.3337 79.3719 8.69945C79.4114 8.69147 79.4554 8.68606 79.4969 8.68209C79.5375 8.67155 79.5815 8.66143 79.6204 8.65559C94.2082 6.14609 104.419 15.7777 109.207 21.7426C112.025 25.253 113.93 29.4681 114.716 33.9325L116.953 46.626C118.635 46.1439 120.385 46.2438 121.894 46.9507C124.626 48.2308 126.386 51.2299 127.126 55.8646C128.444 64.1215 123.771 69.956 119.708 71.8384C119.591 73.291 119.394 74.6169 119.121 75.7901C116.764 85.4032 107.867 96.7592 99.6893 100.605C99.6161 100.639 98.0818 101.341 95.893 101.727ZM56.9555 60.2749C56.2716 60.3956 55.5246 60.6857 54.9018 61.3111C53.5498 62.6683 53.1923 65.2371 53.8683 68.7396C55.292 76.1179 61.3169 78.9056 64.2262 78.7586C64.8657 78.7263 65.4575 79.0966 65.7087 79.686C66.3628 81.2206 67.0529 82.5483 67.7599 83.6328C72.7144 91.0421 84.1478 98.1955 92.2174 98.9264C92.2172 98.9261 93.5862 99.0289 95.3623 98.7155C97.1383 98.4021 98.3896 97.837 98.4021 97.8315C105.723 94.3888 114.022 83.7539 116.149 75.0786C116.439 73.8348 116.633 72.351 116.723 70.6852C116.758 70.0453 117.187 69.4947 117.799 69.3062C120.583 68.4487 125.292 63.7672 124.108 56.3466C123.546 52.824 122.332 50.5328 120.598 49.7198C118.837 48.8948 117.065 49.8038 116.564 50.1021C116.132 50.3598 115.602 50.3873 115.146 50.1781C114.689 49.9685 114.365 49.5483 114.278 49.0536L111.707 34.4635C111.009 30.5043 109.321 26.7678 106.824 23.6576C101.49 17.0122 92.5296 9.53768 80.1383 11.6694C80.1007 11.6757 80.0632 11.6809 80.026 11.6845C79.9898 11.6939 79.9528 11.7018 79.9153 11.7087C67.543 13.9463 61.6778 24.0365 58.9362 32.1069C57.6536 35.8842 57.3443 39.9732 58.0419 43.932L60.6129 58.5221C60.7001 59.0168 60.5389 59.5227 60.1816 59.8759C59.8242 60.2287 59.3163 60.384 58.8232 60.2897C58.5104 60.2303 57.7786 60.1297 56.9555 60.2749Z" fill="#111111"/>
<path d="M89.0779 5.47014C85.6966 2.9373 80.462 1.77441 80.462 1.77441L81.9178 4.19923C81.9069 4.19845 81.8963 4.19849 81.8854 4.19784C81.8616 4.19669 81.838 4.19597 81.8142 4.19492C81.1721 4.1571 80.5392 4.15184 79.9246 4.16855C78.4649 4.19723 77.0445 4.34123 75.6636 4.57696C75.6214 4.58315 75.5739 4.58974 75.5328 4.59582L75.5445 4.59728C60.1157 7.29661 49.8221 21.8112 48.9943 23.8672L51.7792 22.9786L51.78 22.9783C49.3295 26.9769 48.5336 29.7395 47.8157 33.0226C44.543 47.9885 53.0685 61.1864 53.0685 61.1864L58.2921 63.197L59.1071 58.7882C59.1071 58.7882 60.9212 52.3998 61.5667 51.4611C62.4701 50.1475 69.6006 42.9082 73.9156 37.4947C74.9844 38.2394 73.2357 44.2411 73.2357 44.2411C73.2357 44.2411 79.153 43.3066 82.0423 38.2079C83.8499 35.0182 84.3516 33.8727 84.3516 33.8727C84.3516 33.8727 87.0962 28.6637 87.1734 34.7731C87.2126 37.8788 85.7334 40.7969 85.7334 40.7969C85.7334 40.7969 99.7077 34.4513 94.8081 19.9815L100.869 22.4901C105.509 26.5454 108.71 38.348 111.103 43.2886C114.192 49.6647 115.781 48.7887 115.781 48.7887L119.173 51.842L122.258 48.9617C122.258 48.9617 125.732 25.3457 107.123 11.288C100.211 6.06706 91.7995 4.76758 89.0779 5.47014Z" fill="black"/>
<path d="M58.5582 64.7026C58.2878 64.7503 58.0064 64.7249 57.7443 64.6239L52.5207 62.6132C52.2187 62.497 51.9615 62.288 51.786 62.0161C51.4237 61.4556 42.9537 48.1065 46.3237 32.6953C46.835 30.3567 47.3991 28.1224 48.7236 25.3718C48.4042 25.314 48.1051 25.1548 47.8754 24.9072C47.4726 24.4732 47.3565 23.8451 47.5778 23.2956C48.7488 20.3868 59.6575 5.88916 75.1633 3.11189C75.2133 3.09939 75.2642 3.08974 75.3163 3.08189L75.4277 3.06596C76.6906 2.85122 77.9605 2.71541 79.2128 2.66125L79.153 2.56162C78.8384 2.03759 78.8659 1.37675 79.2228 0.880814C79.5796 0.38423 80.1977 0.149172 80.7939 0.281515C81.0093 0.329424 85.8621 1.42707 89.4361 3.84843C93.2862 3.33119 101.468 5.09962 108.044 10.0674C115.961 16.0478 121.192 24.7076 123.171 35.1102C124.66 42.9349 123.808 48.9323 123.771 49.1838C123.72 49.527 123.555 49.8429 123.301 50.0793L120.216 52.9596C119.637 53.5001 118.741 53.5084 118.152 52.9782L115.213 50.3328C115.075 50.3127 114.929 50.2799 114.775 50.2309C113.179 49.7228 111.528 47.6699 109.729 43.955C109.004 42.458 108.245 40.4576 107.368 38.1414C105.363 32.8508 102.868 26.2661 99.8647 23.6412C99.2291 23.0858 99.1639 22.1199 99.7192 21.4839C100.275 20.8481 101.24 20.783 101.875 21.3383C105.454 24.4667 108.1 31.4478 110.225 37.0573C111.042 39.2115 111.813 41.2463 112.479 42.6214C114.209 46.1938 115.303 47.0764 115.612 47.2688C116.037 47.2211 116.473 47.3534 116.804 47.6518L119.155 49.7681L120.807 48.2259C120.967 46.6568 121.32 41.6578 120.149 35.5793C118.273 25.8441 113.581 18.0816 106.203 12.5082C99.3555 7.33553 91.4523 6.43546 89.4604 6.95032C89.0127 7.0667 88.5342 6.97187 88.1629 6.69372C86.7616 5.64412 84.9762 4.84085 83.4447 4.27682C83.4319 4.52775 83.3574 4.77605 83.2212 4.99854C82.928 5.47681 82.3972 5.75679 81.8378 5.72577C81.8278 5.72553 81.8153 5.72505 81.8095 5.72471L81.7592 5.72281C81.7476 5.72216 81.7362 5.72179 81.7248 5.72111C81.1696 5.68836 80.5782 5.68017 79.9671 5.69668C78.6287 5.72325 77.2716 5.85318 75.9216 6.08396C75.9087 6.08624 75.8958 6.08817 75.8828 6.09014L75.86 6.09347C75.8429 6.09684 75.8222 6.09881 75.8085 6.10326C75.7958 6.1055 75.7817 6.10798 75.769 6.11022C64.4242 8.11185 55.9826 16.8655 52.3501 21.5594C52.5359 21.6338 52.7092 21.7461 52.8583 21.8943C53.3602 22.394 53.4535 23.1731 53.0835 23.7771C50.6618 27.729 49.9664 30.3427 49.3091 33.3492C46.5207 46.1001 52.7593 57.6552 54.1044 59.9463L57.1248 61.1091L57.6052 58.5098C57.6139 58.4628 57.6248 58.4161 57.638 58.37C58.3411 55.8938 59.6232 51.591 60.3087 50.594C60.7156 50.0024 61.8467 48.7684 63.9782 46.4567C66.5955 43.6178 70.1797 39.73 72.7216 36.5412C73.224 35.9115 74.1285 35.7798 74.7893 36.2397C75.2939 36.5911 76.3776 37.3456 75.3918 41.9772C77.1 41.2523 79.3308 39.894 80.7139 37.4536C82.4369 34.413 82.949 33.267 82.9541 33.2557C82.9681 33.2242 82.9844 33.19 83.0006 33.1595C83.7962 31.6492 85.0901 29.9317 86.7347 30.3288C88.6519 30.7908 88.6857 33.4675 88.7019 34.7537C88.713 35.6163 88.6216 36.4613 88.4779 37.2451C91.8956 34.5066 96.2774 29.0828 93.3616 20.4718C93.0908 19.6722 93.5192 18.8041 94.3185 18.5331C95.1189 18.2645 95.9855 18.6911 96.2562 19.4907C101.538 35.0906 86.518 42.1196 86.3656 42.1889C85.7746 42.4573 85.079 42.3226 84.6306 41.8542C84.1819 41.3852 84.078 40.6838 84.3715 40.1051C84.3832 40.0815 85.6801 37.4665 85.646 34.7922C85.6458 34.767 85.6454 34.7418 85.6451 34.7169C85.4144 35.2013 84.7753 36.486 83.3724 38.9619C80.1564 44.6369 73.7488 45.7071 73.4747 45.7512C72.9581 45.8329 72.4355 45.6441 72.0899 45.2512C71.744 44.8584 71.6231 44.3157 71.7694 43.8131C71.9606 43.156 72.1329 42.4781 72.2773 41.8309C70.2212 44.1951 68.0022 46.6018 66.2245 48.5301C64.6324 50.257 63.1286 51.888 62.8264 52.3274C62.4883 52.8898 61.4079 56.289 60.5972 59.137L59.7955 63.4749C59.7129 63.9221 59.4357 64.3089 59.0393 64.5312C58.8881 64.6158 58.7253 64.6731 58.5582 64.7026ZM115.052 47.4455C115.052 47.4455 115.052 47.4455 115.052 47.4455V47.4455Z" fill="#111111"/>
<path d="M60.1567 64.2112L59.1078 58.7886C55.7611 58.1533 50.5982 59.8609 52.3676 69.0305C53.9346 77.1514 60.6075 80.4734 64.3029 80.2867L62.3403 74.3293L60.1567 64.2112Z" fill="white"/>
<path d="M64.5687 81.7923C64.5067 81.8032 64.444 81.8103 64.3803 81.8138C59.9464 82.0377 52.5853 78.2219 50.8676 69.3203C49.9784 64.712 50.6074 61.2913 52.7373 59.153C54.3791 57.5045 56.867 56.8064 59.3929 57.2863C60.0078 57.4029 60.4894 57.8829 60.6083 58.4978L61.6573 63.9202C61.8177 64.7494 61.276 65.5515 60.4475 65.7119C60.4389 65.7138 60.4304 65.7153 60.4219 65.7167C59.6026 65.8613 58.8156 65.3219 58.6568 64.5015L57.8249 60.2008C56.9711 60.2022 55.8055 60.4045 54.9016 61.3119C53.5498 62.6691 53.1923 65.2379 53.8683 68.7403C54.9979 74.5947 59.0243 77.5589 62.0926 78.4603L60.8893 74.8079C60.6251 74.0058 61.0607 73.1416 61.8622 72.8772C62.6634 72.6125 63.5277 73.0489 63.7918 73.8504L65.7545 79.8078C65.9037 80.2609 65.8331 80.7575 65.5636 81.1511C65.33 81.4919 64.9702 81.7214 64.5687 81.7923Z" fill="#111111"/>
<path d="M115.782 48.7888L116.65 54.2434L118.056 64.4986L118.248 70.7684C121.785 69.6792 126.92 64.2739 125.616 56.1064C124.145 46.8842 118.71 47.0465 115.782 48.7888Z" fill="white"/>
<path d="M118.514 72.2737C118.113 72.3445 117.696 72.2519 117.36 72.0116C116.972 71.734 116.736 71.2915 116.722 70.8146L116.53 64.5448C116.504 63.7007 117.165 62.9961 118.01 62.9699C118.854 62.9441 119.559 63.6071 119.585 64.4513L119.702 68.2952C122.277 66.398 125.048 62.2346 124.108 56.3467C123.546 52.8242 122.333 50.533 120.598 49.72C119.439 49.1772 118.275 49.3859 117.471 49.6763L118.16 54.0027C118.293 54.8364 117.718 55.6353 116.891 55.7529C116.058 55.8857 115.274 55.3174 115.142 54.4833L114.274 49.0286C114.175 48.4101 114.464 47.7942 115.002 47.4742C117.211 46.1589 119.787 45.9637 121.894 46.9509C124.626 48.231 126.387 51.23 127.126 55.8648C128.555 64.8174 122.942 70.9224 118.699 72.2293C118.638 72.2478 118.576 72.2627 118.514 72.2737Z" fill="#111111"/>
<path d="M88.8011 72.8826C89.0143 72.5236 89.8015 72.7408 90.7593 72.5937C91.7093 72.4028 92.374 71.9284 92.6974 72.1923C93.0319 72.4651 92.9948 74.1295 91.0993 74.5159C89.1865 74.8041 88.5806 73.2537 88.8011 72.8826Z" fill="#111111"/>
<path d="M87.614 57.8814C87.014 57.8814 86.4985 57.4283 86.4336 56.8179C86.4184 56.6922 85.9964 53.5309 82.4209 52.3738C81.7965 52.1718 81.4539 51.5013 81.6559 50.8764C81.8577 50.2514 82.5276 49.9085 83.1524 50.1108C88.2294 51.7538 88.7764 56.3707 88.7973 56.5664C88.8666 57.2195 88.3937 57.8053 87.7412 57.8747C87.6986 57.8792 87.6559 57.8814 87.614 57.8814Z" fill="#111111"/>
<path d="M103.576 52.6524C102.861 52.1391 102.034 51.9094 101.308 52.0223C100.742 52.1084 100.201 52.4633 99.7764 53.0168C99.1835 53.7901 98.9115 54.8442 99.0666 55.7675C99.2085 56.6128 99.7743 57.4299 100.58 57.9531C101.209 58.3614 101.888 58.5293 102.5 58.4291C102.522 58.4256 102.543 58.4218 102.564 58.4177C103.902 58.1558 105.032 56.2613 104.846 54.5929C104.768 53.8934 104.293 53.1681 103.576 52.6524Z" fill="#111111"/>
<path d="M73.6423 57.9126C74.1396 57.1862 74.8385 56.6885 75.5597 56.5471C76.1208 56.4352 76.7508 56.5841 77.3383 56.9599C78.159 57.4848 78.7736 58.383 78.9422 59.3041C79.0965 60.1472 78.8429 61.1082 78.2636 61.8748C77.8114 62.4731 77.23 62.8624 76.6202 62.977C76.599 62.981 76.5776 62.9847 76.5562 62.9881C75.2094 63.1979 73.5015 61.8021 73.1082 60.1702C72.9433 59.486 73.143 58.6421 73.6423 57.9126Z" fill="#111111"/>
<path d="M87.2351 87.0637C86.957 87.0637 86.6782 86.9668 86.453 86.7694C85.9604 86.3376 85.9087 85.5896 86.3389 85.0954C86.5314 84.874 91.1267 79.7011 97.2698 81.9729C97.8856 82.2005 98.2003 82.8845 97.9728 83.5005C97.7453 84.1167 97.0622 84.4315 96.4461 84.2039C91.857 82.5073 88.2792 86.4898 88.1291 86.66C87.8938 86.927 87.5652 87.0637 87.2351 87.0637Z" fill="#111111"/>
<path d="M96.4148 48.089C95.4344 48.089 94.394 47.9724 93.3045 47.6955C92.5774 47.5107 92.1377 46.771 92.3224 46.0435C92.507 45.3159 93.2464 44.8758 93.9733 45.0609C99.2875 46.4119 103.172 42.9005 103.335 42.7504C103.885 42.2429 104.743 42.2744 105.252 42.8227C105.762 43.3712 105.734 44.2268 105.187 44.7384C105.015 44.8995 101.539 48.089 96.4148 48.089Z" fill="#111111"/>
<path d="M96.0274 55.7395C95.9155 55.7395 95.8017 55.7273 95.6877 55.7018C94.8641 55.5179 94.3483 54.6882 94.532 53.864C94.784 52.7336 95.9272 50.571 98.6129 49.636C103.092 48.0769 105.915 50.6651 106.781 52.2515C107.186 52.9924 106.914 53.9215 106.174 54.3265C105.433 54.7319 104.505 54.4594 104.1 53.7186C103.885 53.3499 102.617 51.4803 99.617 52.5243C97.9009 53.1217 97.5241 54.4968 97.5088 54.555C97.3505 55.2652 96.7244 55.7395 96.0274 55.7395Z" fill="#111111"/>
<path d="M69.3735 53.02C67.9125 53.02 66.9171 52.8956 66.8072 52.8813C66.0634 52.7839 65.5393 52.1016 65.6366 51.3574C65.7341 50.6131 66.4138 50.0892 67.1597 50.186C67.2237 50.1942 73.7507 50.995 77.8526 48.165C78.4706 47.7391 79.3162 47.8946 79.7418 48.5125C80.1677 49.1305 80.0122 49.9769 79.3946 50.4029C76.1926 52.6119 72.0195 53.02 69.3735 53.02Z" fill="#111111"/>
<path d="M69.2204 62.0381C69.1453 62.0381 69.0692 62.0326 68.9927 62.0212C68.1577 61.8979 67.5822 61.1125 67.7056 60.2771C67.7356 60.0737 68.5058 55.2795 74.128 53.9487C76.4441 53.4007 78.3092 54.6506 78.5143 54.795C79.2047 55.2808 79.3706 56.2345 78.8853 56.9253C78.4027 57.6116 77.4581 57.7802 76.7692 57.3053C76.7283 57.2786 75.8133 56.6921 74.8315 56.9245C71.273 57.7668 70.7469 60.6193 70.7264 60.7403C70.6143 61.499 69.9642 62.038 69.2204 62.0381Z" fill="#111111"/>
<path d="M55.6341 169.102C54.8807 169.102 54.2249 168.545 54.1216 167.777L52.5067 155.763C52.3943 154.926 52.9811 154.156 53.8175 154.043C54.6529 153.93 55.4229 154.518 55.5356 155.355L57.1505 167.369C57.2629 168.206 56.6762 168.976 55.8397 169.089C55.7707 169.098 55.7019 169.102 55.6341 169.102Z" fill="#111111"/>
<path d="M91.886 193.409L82.1661 190.739L75.0478 185.555L65.2795 206.979L76.6872 211.431L91.3915 215.359L93.0458 204.765L91.886 193.409Z" fill="white"/>
<path d="M91.3924 216.888C91.2606 216.888 91.1281 216.871 90.9983 216.836L76.2939 212.909C76.2394 212.894 76.1855 212.877 76.1328 212.856L64.7252 208.404C64.3337 208.251 64.0225 207.944 63.8645 207.554C63.7065 207.165 63.716 206.727 63.8902 206.345L73.6585 184.92C73.849 184.502 74.2169 184.193 74.6606 184.076C75.1046 183.96 75.5772 184.049 75.9481 184.319L82.8406 189.339L92.2914 191.934C92.8997 192.101 93.3431 192.625 93.4071 193.253L94.5667 204.61C94.5801 204.74 94.5766 204.872 94.5564 205.001L92.9022 215.595C92.8352 216.023 92.5897 216.403 92.2266 216.64C91.976 216.803 91.6857 216.888 91.3924 216.888ZM77.1642 209.976L90.1449 213.443L91.5065 204.724L90.4732 194.606L81.7626 192.214C81.5847 192.165 81.4169 192.084 81.2677 191.976L75.6622 187.893L67.3416 206.143L77.1642 209.976Z" fill="#111111"/>
<path d="M121.68 195.709C121.68 195.709 121.332 192.865 122.463 191.581C123.595 190.298 124.938 188.636 124.938 188.636L127.697 163.422L107.835 192.954L121.68 195.709Z" fill="white"/>
<path d="M90.6724 189.66C90.6724 189.66 92.0444 194.194 92.1284 204.06C92.19 211.277 91.2741 217.578 91.2741 217.578L107.835 192.954L102.919 191.976L90.6724 189.66Z" fill="white"/>
<path d="M91.2759 219.107C91.2027 219.107 91.1288 219.102 91.0542 219.091C90.2192 218.969 89.6406 218.193 89.7618 217.358C89.7707 217.296 90.6599 211.079 90.6002 204.073C90.5196 194.611 89.2217 190.143 89.2087 190.099C89.0566 189.588 89.1811 189.033 89.5383 188.637C89.8954 188.241 90.4321 188.058 90.9561 188.157L103.203 190.474L120.129 193.842C120.22 192.755 120.516 191.478 121.317 190.57C122.108 189.672 123.018 188.57 123.467 188.021L126.177 163.256C126.269 162.417 127.023 161.812 127.862 161.903C128.701 161.995 129.307 162.75 129.215 163.589L126.456 188.803C126.424 189.094 126.309 189.37 126.125 189.598C126.069 189.667 124.749 191.3 123.608 192.593C123.172 193.087 123.089 194.615 123.196 195.527C123.254 196.013 123.075 196.499 122.716 196.831C122.357 197.163 121.861 197.304 121.381 197.209L102.621 193.476L92.661 191.592C93.0803 193.925 93.6049 198.016 93.6563 204.047C93.7178 211.298 92.8241 217.536 92.786 217.798C92.6754 218.559 92.0223 219.107 91.2759 219.107Z" fill="#111111"/>
<path d="M104.124 213.872C104.099 213.872 104.074 213.872 104.049 213.871C103.206 213.83 102.556 213.113 102.597 212.27L103.025 203.372L101.027 192.15C100.879 191.319 101.433 190.525 102.264 190.377C103.093 190.229 103.888 190.783 104.036 191.614L106.064 203.005C106.084 203.118 106.091 203.232 106.085 203.347L105.649 212.417C105.61 213.235 104.934 213.872 104.124 213.872Z" fill="#111111"/>
<path d="M139.44 212.806C138.811 212.806 138.221 212.414 138 211.787C137.97 211.703 134.92 203.336 126.561 198.142C125.844 197.697 125.624 196.754 126.069 196.037C126.514 195.319 127.456 195.099 128.173 195.544C137.477 201.325 140.747 210.387 140.882 210.77C141.162 211.566 140.743 212.439 139.947 212.719C139.78 212.778 139.608 212.806 139.44 212.806Z" fill="#111111"/>
<path d="M118.59 114.54C118.59 114.54 118.956 112.479 118.088 111.082C117.22 109.685 115.809 109.015 115.809 109.015C115.809 109.015 116.863 107.543 115.881 105.58C114.901 103.617 112.818 102.984 110.78 102.833C108.743 102.682 103.353 103.757 103.353 103.757L108.109 96.0422C108.109 96.0422 109.802 95.4886 113.223 93.9281C116.244 92.5502 116.05 89.9571 114.581 88.7937C113.586 88.0054 112.276 87.5307 108.977 87.874C106.272 88.1555 103.376 88.9182 102.319 89.5864C101.263 90.2549 97.339 97.4768 95.4148 100.12C91.8635 104.997 89.6933 107.678 89.6933 107.678L85.6981 102.308C85.6981 102.308 82.2726 96.8613 77.856 95.7958C74.1782 94.9086 72.2665 97.1234 72.7193 98.6839C73.1719 100.244 76.1225 102.209 78.7385 106.085C80.6217 108.875 82.8307 114.867 82.8307 114.867C82.8307 114.867 85.9999 129.742 85.3207 132.989C84.6416 136.236 66.2256 166.028 66.2256 166.028L85.6053 176.128L102.371 144.242C102.371 144.242 107.576 138.848 109.845 132.913C111.557 128.435 111.953 127.599 111.953 127.599C111.953 127.599 118.123 127.009 119.13 126.103C120.136 125.197 121.802 121.418 121.541 119.171C121.125 115.596 118.59 114.54 118.59 114.54Z" fill="white"/>
<path d="M123.059 118.994C122.724 116.11 121.229 114.515 120.194 113.74C120.219 112.803 120.102 111.425 119.387 110.274C118.881 109.46 118.245 108.847 117.694 108.416C117.919 107.456 117.908 106.215 117.249 104.896C116.176 102.748 114.038 101.541 110.894 101.308C109.817 101.228 108.035 101.43 106.436 101.669L109.128 97.3035C109.892 97.0226 111.464 96.4111 113.858 95.3189C116.417 94.1516 116.996 92.3568 117.113 91.3909C117.287 89.9601 116.681 88.5056 115.531 87.5946C113.973 86.3606 112.092 86.0124 108.82 86.353C106.293 86.6159 102.968 87.367 101.504 88.2938C100.659 88.828 99.6445 90.4197 97.1701 94.499C96.0721 96.309 94.9365 98.1808 94.1806 99.2189C92.2412 101.883 90.7087 103.896 89.7278 105.162L86.9573 101.439C86.5441 100.798 82.9803 95.4586 78.215 94.3092C75.7671 93.7189 73.5815 94.1992 72.2186 95.6273C71.2695 96.6216 70.9084 97.9237 71.2526 99.1099C71.5807 100.241 72.4999 101.2 73.7723 102.529C74.8635 103.668 76.2212 105.085 77.4729 106.94C79.1022 109.354 81.0661 114.512 81.3604 115.296C82.5587 120.941 84.2694 130.555 83.8263 132.675C83.3802 134.678 73.7561 150.94 64.9269 165.223C64.4831 165.941 64.7049 166.883 65.4227 167.328C66.1403 167.772 67.0822 167.55 67.526 166.832C70.6249 161.819 86.1186 136.642 86.8173 133.302C87.5266 129.911 84.8663 117.085 84.3258 114.548C84.3107 114.477 84.2903 114.406 84.2651 114.338C84.1723 114.086 81.9696 108.139 80.0056 105.229C78.6079 103.158 77.1501 101.636 75.9787 100.413C75.1947 99.5945 74.3064 98.6669 74.1876 98.2574C74.1648 98.1787 74.21 97.9684 74.4287 97.7393C74.6466 97.5109 75.5122 96.8025 77.4987 97.2819C81.2477 98.1863 84.3756 103.075 84.4057 103.122C84.4269 103.156 84.4495 103.189 84.4734 103.221L87.6265 107.459L87.1637 107.865C86.5293 108.422 86.4665 109.388 87.0232 110.023C87.3254 110.367 87.7476 110.544 88.1723 110.544C88.5301 110.544 88.8895 110.418 89.1795 110.164L90.7021 108.826C90.7078 108.821 90.7118 108.815 90.7174 108.81C90.7755 108.757 90.8313 108.702 90.8815 108.64C90.9712 108.529 93.1169 105.873 96.6508 101.02C97.4824 99.8774 98.5996 98.0357 99.7824 96.0857C100.921 94.2085 102.632 91.3879 103.187 90.8481C103.921 90.4219 106.387 89.6807 109.136 89.3944C112.189 89.0765 113.058 89.5364 113.634 89.9923C113.955 90.2468 114.126 90.6413 114.08 91.0219C114.01 91.592 113.481 92.1298 112.59 92.5367C109.313 94.0315 107.65 94.5836 107.635 94.5886C107.292 94.7009 106.999 94.9313 106.81 95.2393L102.054 102.953C101.734 103.471 101.752 104.129 102.099 104.629C102.447 105.128 103.057 105.375 103.653 105.256C105.096 104.968 109.168 104.245 110.668 104.357C112.691 104.507 113.95 105.131 114.516 106.264C114.775 106.782 114.799 107.225 114.752 107.553L108.007 108.009C107.165 108.066 106.529 108.795 106.586 109.637C106.64 110.445 107.312 111.063 108.109 111.063C108.143 111.063 108.178 111.062 108.213 111.06L115.451 110.571C115.805 110.799 116.389 111.242 116.791 111.889C117.004 112.232 117.095 112.701 117.126 113.141L109.326 113.873C108.486 113.952 107.868 114.698 107.947 115.538C108.021 116.331 108.687 116.925 109.467 116.925C109.514 116.925 109.563 116.922 109.611 116.918L118.26 116.106C118.765 116.45 119.795 117.377 120.024 119.348C120.226 121.086 118.78 124.289 118.144 124.932C117.679 125.192 116.136 125.507 114.41 125.76L115.119 124.114L115.452 124.045C116.278 123.871 116.807 123.061 116.634 122.235C116.461 121.408 115.651 120.878 114.825 121.052L113.716 121.284C113.23 121.386 112.823 121.718 112.627 122.175L110.557 126.979C110.461 127.188 109.982 128.278 108.419 132.367C106.292 137.929 101.322 143.128 101.272 143.18C101.172 143.284 101.087 143.402 101.019 143.53L84.2539 175.416C83.8609 176.163 84.1477 177.088 84.8947 177.481C85.1217 177.6 85.3649 177.657 85.6048 177.657C86.1541 177.657 86.685 177.36 86.9584 176.84L103.626 145.14C104.543 144.16 109.115 139.102 111.273 133.46C112.181 131.083 112.713 129.749 113.008 129.028C115.87 128.716 119.122 128.167 120.153 127.239C121.503 126.023 123.381 121.757 123.059 118.994Z" fill="#111111"/>
<path d="M78.6972 142.898L53.9077 180.504L49.5292 180.72L42.4468 189.012L67.5435 217.578C67.5435 217.578 74.3104 208.449 79.2345 200.275C81.7721 196.063 92.9588 176.872 92.9588 176.872C92.9588 176.872 98.5169 167.647 99.9418 164.639C83.8997 154.764 78.6972 142.898 78.6972 142.898Z" fill="white"/>
<path d="M67.543 219.107C67.2267 219.107 66.9075 219.009 66.634 218.806C65.9562 218.303 65.8142 217.345 66.3169 216.667C66.3841 216.576 73.0983 207.5 77.9266 199.485C80.4294 195.331 91.5279 176.293 91.6396 176.101C91.6987 176.003 96.0114 168.84 97.9484 165.191C86.6132 157.911 80.8681 149.813 78.5572 145.888L55.1839 181.345C54.9159 181.752 54.47 182.007 53.9836 182.031L50.2633 182.214L43.6091 190.005C43.061 190.648 42.0962 190.723 41.4548 190.175C40.8132 189.626 40.7376 188.661 41.2859 188.019L48.3682 179.726C48.6414 179.406 49.0345 179.213 49.4547 179.192L53.0595 179.014L77.4224 142.056C77.7305 141.588 78.2686 141.327 78.8274 141.374C79.3852 141.422 79.8723 141.771 80.0973 142.283C80.1469 142.396 85.3501 153.861 100.743 163.337C101.407 163.745 101.657 164.589 101.323 165.294C99.8822 168.336 94.4968 177.282 94.2681 177.661C94.1676 177.834 83.058 196.891 80.544 201.064C75.6387 209.206 68.8396 218.397 68.7715 218.489C68.4717 218.893 68.0103 219.107 67.543 219.107Z" fill="#111111"/>
<path d="M83.5417 171.931C83.2213 171.931 82.8983 171.831 82.6227 171.623C72.777 164.191 69.573 155.649 69.4416 155.288C69.1516 154.495 69.5593 153.617 70.3518 153.327C71.144 153.037 72.0219 153.445 72.3116 154.238C72.3403 154.316 75.3781 162.324 84.4631 169.182C85.1368 169.69 85.2711 170.649 84.7627 171.323C84.4624 171.721 84.0048 171.931 83.5417 171.931Z" fill="#111111"/>
</svg>
