<svg width="18" height="31" viewBox="0 0 18 31" fill="none" xmlns="http://www.w3.org/2000/svg">
<path d="M1.9439 1.63255C0.36355 2.99913 0.0530956 7.27083 0.649747 10.7524C1.11442 13.4636 2.10234 17.1006 3.76822 20.5253C5.33536 23.7471 7.52175 26.636 9.18889 28.3074C11.3297 30.4536 14.3816 31.8178 15.9619 30.4512C16.761 29.7602 17.9483 27.8722 18.0025 27.5334C18.0025 27.5334 17.3063 26.1022 17.1535 25.7881L14.8188 20.9883C14.6453 20.6317 13.5573 20.9577 13.0046 21.3751C12.259 21.9383 11.5724 23.4496 11.5724 23.4496C11.0612 23.8434 10.633 23.4511 9.73833 22.9021C8.63878 22.2275 7.40253 20.1316 6.41861 18.2334C5.51995 16.2614 4.58885 13.9016 4.57537 12.2879C4.56428 10.9748 4.47021 10.2936 4.94841 9.8318C4.94841 9.8318 6.26336 9.61222 6.95313 8.93432C7.46439 8.43167 8.13134 7.24011 7.95785 6.88337L5.62318 2.08368C5.4704 1.76959 4.7742 0.338319 4.7742 0.338319C4.52008 0.266145 2.74301 0.941529 1.9439 1.63255Z" fill="#024892"/>
</svg>
