<svg width="25" height="25" viewBox="0 0 25 25" fill="none" xmlns="http://www.w3.org/2000/svg">
<circle cx="12.5" cy="12.5" r="12.5" fill="white"/>
<path d="M19.8088 8.87665C18.8877 8.87665 18.036 8.57066 17.3546 8.05647C16.5723 7.46658 16.0076 6.59909 15.8089 5.60226C15.7584 5.35621 15.7332 5.10069 15.73 4.83887H13.096V12.0343L13.0929 15.9743C13.0929 17.0279 12.4052 17.9206 11.4557 18.2361C11.1781 18.3276 10.8816 18.3717 10.5724 18.3528C10.1749 18.3307 9.80587 18.2109 9.48095 18.0184C8.79327 17.6083 8.32956 16.8639 8.31694 16.009C8.29801 14.6778 9.3737 13.5895 10.7049 13.5895C10.9667 13.5895 11.2191 13.6337 11.4557 13.7094V11.7441V11.0406C11.2065 11.0028 10.9541 10.9839 10.6954 10.9839C9.23806 10.9839 7.87531 11.5895 6.90056 12.681C6.16556 13.5043 5.72393 14.5579 5.65453 15.662C5.5662 17.1099 6.09616 18.4885 7.12453 19.5042C7.27595 19.6525 7.43367 19.7913 7.60086 19.9206C8.48097 20.5988 9.55982 20.9679 10.6954 20.9679C10.951 20.9679 11.2065 20.949 11.4557 20.9111C12.5156 20.7534 13.4935 20.2676 14.2664 19.5042C15.2159 18.5673 15.7395 17.3213 15.7458 15.9964L15.7332 10.1101C16.1843 10.4602 16.6796 10.7473 17.2127 10.9712C18.0392 11.3214 18.9161 11.4949 19.8151 11.4949V9.58326V8.87349C19.8183 8.87665 19.8088 8.87665 19.8088 8.87665Z" fill="#0A3864"/>
</svg>
