<svg width="170" height="233" viewBox="0 0 170 233" fill="none" xmlns="http://www.w3.org/2000/svg">
<path d="M142.011 47.363C141.167 47.363 140.483 46.6785 140.483 45.834C140.483 44.9896 141.167 44.305 142.011 44.305C143.625 44.305 145.272 43.3886 145.542 41.6306C145.518 41.6187 145.494 41.6067 145.47 41.5946C143.686 40.69 142.735 39.2177 142.862 37.5552C142.956 36.3257 143.649 35.3671 144.67 35.0531C145.648 34.7524 146.7 35.1239 147.416 36.0228C148.104 36.887 148.424 38.1343 148.557 39.3525C149.428 39.4437 150.2 39.3093 150.489 39.0609C150.97 38.6478 151.232 38.0283 151.27 37.2196C151.282 36.9518 151.27 36.6788 151.238 36.4049C149.474 35.8871 147.821 35.1063 146.712 34.0132C146.12 33.4299 145.31 32.0636 145.509 30.6915C145.627 29.8701 146.09 29.2054 146.812 28.8201C148.864 27.7238 151.632 30.3826 151.659 30.4102C152.547 31.3275 153.272 32.5605 153.741 33.8679C155.054 34.1141 156.396 34.2157 157.511 34.1469C158.545 34.083 159.294 33.6249 160.098 32.5655C160.719 31.7459 160.35 30.5431 159.93 29.6785C159.828 29.4681 159.719 29.265 159.603 29.0699C157.999 30.936 154.63 30.9966 152.742 29.7829C151.954 29.2765 151.448 28.3789 151.328 27.2923C150.677 26.8989 150.041 26.3874 149.458 25.7189C148.178 24.2485 146.896 21.5167 147.5 18.6567C147.838 17.054 148.911 14.8301 152.098 13.337C152.863 12.9789 153.773 13.3088 154.13 14.0736C154.488 14.8384 154.158 15.7486 153.394 16.1065C151.75 16.8765 150.773 17.9471 150.49 19.2884C150.143 20.9347 150.879 22.6953 151.762 23.7098C151.881 23.8467 152.005 23.9752 152.135 24.0957C152.304 23.8683 152.496 23.6681 152.707 23.5029C154.374 22.1977 156.844 23.236 158.171 23.7941C158.511 23.937 158.842 24.1072 159.162 24.3029C159.58 23.373 159.586 22.6006 159.102 21.8158C158.47 20.7898 157.545 20.7485 156.305 20.8021C155.554 20.8348 154.616 20.8756 154.022 20.054C153.855 19.8236 153.503 19.193 153.833 18.318C154.745 15.9011 157.365 14.6229 159.512 14.2326C163.132 13.5749 168.723 15.101 169.813 19.6769C170.23 21.4307 169.947 23.1378 168.993 24.6136C167.762 26.5198 165.437 27.9714 162.76 28.5121C163.797 30.7591 163.718 32.8493 162.532 34.4139C162.043 35.0592 160.554 37.0228 157.699 37.1991C156.755 37.2574 155.579 37.2135 154.33 37.0495C154.33 37.1539 154.327 37.2576 154.323 37.3603C154.246 39.0209 153.609 40.4114 152.479 41.3815C151.479 42.2399 149.987 42.5309 148.503 42.418C147.898 45.3069 145.294 47.363 142.011 47.363ZM158.285 17.8476C159.454 18.0687 160.753 18.6683 161.703 20.2107C162.882 22.1229 162.651 23.9607 161.942 25.555C161.985 25.5473 162.027 25.5394 162.07 25.5314C163.935 25.1744 165.646 24.1624 166.427 22.9532C166.931 22.1737 167.066 21.3339 166.84 20.3857C166.23 17.8245 162.416 16.8128 160.059 17.2414C159.483 17.346 158.851 17.5529 158.285 17.8476Z" fill="#111111"/>
<path d="M105.155 57.1982H95.5723L97.3488 130.361C97.3488 130.361 111.911 131.556 118.22 126.799C123.026 123.175 133.105 110.623 118.646 95.0865C103.928 79.271 105.155 57.1982 105.155 57.1982Z" fill="#111111"/>
<path d="M101.393 132.028C99.0499 132.028 97.4225 131.901 97.2247 131.885C96.3838 131.816 95.7582 131.078 95.8268 130.237C95.8955 129.395 96.6353 128.769 97.4739 128.837C97.6143 128.849 111.533 129.927 117.301 125.578C120.324 123.298 124.035 118.568 124.547 112.736C125.03 107.239 122.669 101.651 117.529 96.1284C104.685 82.3278 103.61 64.2147 103.597 58.7269H95.573C94.729 58.7269 94.0449 58.0424 94.0449 57.1979C94.0449 56.3535 94.729 55.6689 95.573 55.6689H105.156C105.576 55.6689 105.978 55.8419 106.266 56.1473C106.555 56.4526 106.705 56.8633 106.682 57.2829C106.67 57.4964 105.682 78.9121 119.765 94.0445C125.52 100.228 128.153 106.607 127.592 113.004C126.992 119.836 122.664 125.363 119.14 128.02C114.586 131.454 106.374 132.028 101.393 132.028Z" fill="#111111"/>
<path d="M100.934 104.507C98.7587 102.056 98.4337 100.288 98.4337 92.3474V76.6621L81.1458 86.8559L63.8581 76.6621V92.3474C63.8581 100.288 63.5331 102.056 61.3575 104.507C59.1816 106.957 41.981 117.777 41.981 117.777L67.0762 143.204H95.2157L120.311 117.777C120.311 117.777 103.11 106.957 100.934 104.507Z" fill="white"/>
<path d="M67.077 144.733C66.6828 144.733 66.2889 144.581 65.9899 144.278L40.8945 118.851C40.5689 118.521 40.4105 118.061 40.4637 117.601C40.517 117.14 40.7763 116.729 41.1684 116.482C47.7476 112.344 58.7365 105.157 60.216 103.491C61.9574 101.53 62.3309 100.354 62.3309 92.3473V76.6618C62.3309 76.1131 62.6248 75.6065 63.101 75.3342C63.577 75.0621 64.1624 75.0659 64.6348 75.3445L81.1467 85.0811L97.6589 75.3445C98.1314 75.0661 98.7168 75.062 99.1927 75.3343C99.6689 75.6065 99.9627 76.1131 99.9627 76.6618V92.3473C99.9627 100.354 100.336 101.53 102.078 103.491C103.557 105.157 114.546 112.344 121.125 116.482C121.517 116.729 121.777 117.14 121.83 117.601C121.883 118.061 121.725 118.521 121.399 118.851L96.3037 144.278C95.7105 144.879 94.743 144.885 94.1429 144.292C93.5425 143.698 93.5363 142.73 94.1294 142.129L117.89 118.054C113.385 115.193 101.715 107.687 99.7929 105.522C97.1901 102.59 96.9066 100.263 96.9066 92.3473V79.3376L81.9225 88.1731C81.4437 88.4553 80.8498 88.4553 80.371 88.1731L65.387 79.3376V92.3473C65.387 100.263 65.1035 102.59 62.5007 105.522C60.5781 107.687 48.9081 115.193 44.403 118.054L68.1642 142.129C68.7573 142.73 68.7512 143.698 68.1508 144.292C67.853 144.586 67.4649 144.733 67.077 144.733Z" fill="#111111"/>
<path d="M44.0466 150.314L49.2564 116.021L77.83 131.122H78.6286H83.6655H84.464L113.038 116.021L118.247 150.314L118.744 214.266H43.5498L44.0466 150.314Z" fill="white"/>
<path d="M118.745 215.794H43.5508C43.1434 215.794 42.7529 215.632 42.4661 215.342C42.1792 215.053 42.0196 214.661 42.0228 214.253L42.5196 150.302C42.5203 150.229 42.5261 150.156 42.537 150.084L47.7468 115.791C47.821 115.302 48.1276 114.878 48.5694 114.656C49.0111 114.432 49.5334 114.438 49.971 114.669L78.2096 129.593H84.0863L112.325 114.669C112.763 114.437 113.285 114.433 113.727 114.656C114.168 114.878 114.475 115.302 114.549 115.791L119.759 150.084C119.77 150.156 119.776 150.229 119.776 150.302L120.273 214.253C120.276 214.661 120.117 215.053 119.83 215.342C119.543 215.632 119.153 215.794 118.745 215.794ZM45.0907 212.736H117.205L116.721 150.435L111.851 118.378L85.1786 132.474C84.9588 132.59 84.7138 132.651 84.4651 132.651H77.831C77.5822 132.651 77.3372 132.59 77.1173 132.474L50.4449 118.378L45.5749 150.435L45.0907 212.736Z" fill="#111111"/>
<path d="M53.5449 218.062C53.5449 218.062 52.9851 189.199 52.0094 147.721C51.3412 115.505 62.9845 100.061 62.9845 100.061L45.9872 111.544L26.7828 120.944C26.7828 120.944 18.9352 124.493 17.8034 134.271C16.6715 144.049 16.987 158.426 18.526 174.417C20.0652 190.409 33.3413 207.663 33.3413 207.663V207.665L53.5449 218.062Z" fill="#FFEFD9"/>
<path d="M53.5446 219.591C53.3053 219.591 53.0656 219.535 52.8457 219.422L32.6422 209.025C32.421 208.911 32.2353 208.747 32.0964 208.552C31.1828 207.356 18.5442 190.558 17.0047 174.563C15.4226 158.126 15.1671 143.754 16.2851 134.095C17.4818 123.757 25.519 119.844 26.1281 119.562L45.2198 110.217L62.1291 98.7931C62.7482 98.3748 63.5786 98.4658 64.0926 99.0079C64.6067 99.55 64.6539 100.384 64.204 100.981C64.0924 101.13 52.8893 116.472 53.5368 147.689C54.5014 188.692 55.0667 217.744 55.0723 218.032C55.0827 218.57 54.8096 219.075 54.3532 219.359C54.1064 219.513 53.8258 219.591 53.5446 219.591ZM34.3536 206.467L51.9661 215.53C51.8073 207.575 51.2819 181.783 50.4815 147.757C50.0373 126.341 54.9029 112.27 58.39 105.009L46.8418 112.81C46.7831 112.85 46.7218 112.886 46.6583 112.917L27.454 122.317C27.4401 122.324 27.4261 122.331 27.412 122.337C27.1283 122.468 20.3338 125.697 19.3209 134.447C18.227 143.898 18.4846 158.041 20.0468 174.27C21.4255 188.594 32.7107 204.254 34.3536 206.467Z" fill="#111111"/>
<path d="M43.0408 161.868C42.2446 161.868 41.5733 161.251 41.5179 160.444L40.4578 145.013C40.3999 144.17 41.0355 143.44 41.8774 143.382C42.723 143.326 43.4487 143.96 43.5065 144.803L44.5667 160.234C44.6246 161.077 43.989 161.807 43.1471 161.864C43.1114 161.867 43.076 161.868 43.0408 161.868Z" fill="#111111"/>
<path d="M47.2962 205.514C40.1719 202.716 27.4384 191.349 27.4384 191.349L22.8535 187.161C22.8535 187.161 18.2866 180.14 16.2733 179.79C14.3218 179.452 11.7157 180.997 8.83105 182.284C5.38767 183.821 2.74622 184.848 2.19029 186.418C1.24756 189.081 4.61319 189.914 6.69784 189.541C7.74254 189.354 14.2568 187.151 14.2568 187.151L15.5315 189.549C15.5315 189.549 10.4846 189.893 9.36461 190.377C8.77648 190.631 7.53481 192.16 6.22331 193.715C5.03715 195.121 3.76825 196.504 3.34034 197.796C2.37784 200.704 5.20661 201.87 5.20661 201.87C5.20661 201.87 3.86824 203.335 4.16305 205.363C4.4257 207.17 6.03944 207.663 6.03944 207.663C6.03944 207.663 5.27012 209.043 5.93481 210.346C6.36738 211.194 7.1329 212.118 9.05456 211.868C10.9762 211.617 14.1284 208.865 14.1284 208.865L20.2824 209.593C20.2824 209.593 25.4102 216.711 31.4881 221.71C38.0982 227.147 51.3919 224.196 51.3919 224.196L74.5611 224.378L72.1905 207.663C72.1905 207.663 54.4205 208.311 47.2962 205.514Z" fill="white"/>
<path d="M74.5735 222.849L51.4042 222.668C51.2858 222.665 51.174 222.679 51.0623 222.704C50.9361 222.731 38.4104 225.424 32.4587 220.529C26.6116 215.72 21.5722 208.768 21.5219 208.699C21.2715 208.351 20.8869 208.125 20.4618 208.075L14.308 207.347C13.8803 207.296 13.4498 207.43 13.1248 207.713C11.9911 208.7 9.85073 210.222 8.8574 210.352C7.80754 210.489 7.55734 210.163 7.29588 209.651C7.10857 209.284 7.21758 208.835 7.30284 208.59C9.82654 206.392 12.7891 203.936 13.6256 203.419C14.4181 203.387 17.0928 203.631 19.2895 203.897C20.1283 203.998 20.8885 203.401 20.99 202.563C21.0913 201.725 20.4944 200.963 19.6567 200.861C15.8571 200.401 13.5551 200.263 12.8148 200.451C12.474 200.537 11.6935 200.737 5.91735 205.743C5.80726 205.59 5.71247 205.397 5.67549 205.143C5.51107 204.012 6.1773 203.101 6.31035 202.932C8.69469 200.743 11.5325 198.234 12.3602 197.635C13.2931 197.575 16.552 197.669 19.2924 197.802C20.1424 197.846 20.8517 197.192 20.8925 196.349C20.9333 195.505 20.2832 194.789 19.4402 194.748C12.294 194.401 11.6359 194.621 11.3547 194.715C11.0536 194.816 10.4395 195.024 5.05829 199.933C4.74538 199.58 4.53608 199.048 4.79126 198.277C5.07429 197.422 6.03347 196.296 6.96116 195.208L7.79776 194.218C8.56891 193.3 9.61711 192.053 10.0149 191.764C10.6671 191.537 13.3758 191.23 15.5942 191.077L19.0486 191.039C19.8924 191.029 20.5691 190.337 20.5596 189.493C20.5505 188.654 19.8682 187.981 19.032 187.981C19.0264 187.981 19.0206 187.981 19.0148 187.981L16.4442 188.009L15.6059 186.433C15.2546 185.772 14.4768 185.463 13.7677 185.702C10.6187 186.768 7.01288 187.932 6.42927 188.036C5.28521 188.24 3.98517 187.91 3.62886 187.49C3.58044 187.433 3.4904 187.326 3.63098 186.929C3.91383 186.13 6.34273 185.057 8.48588 184.11C8.80025 183.971 9.12317 183.828 9.45346 183.681C10.0363 183.421 10.608 183.15 11.1656 182.887C12.9975 182.02 14.8918 181.124 15.9838 181.292C16.8511 181.618 19.4517 184.735 21.5733 187.995C21.6438 188.103 21.728 188.203 21.8235 188.29L26.4215 192.49C26.9498 192.962 39.4432 204.073 46.7383 206.937C54.0746 209.818 71.5081 209.218 72.2464 209.191C73.0897 209.16 73.7484 208.451 73.7177 207.607C73.687 206.764 72.9801 206.106 72.1351 206.135C71.9604 206.141 54.6004 206.739 47.8547 204.091C41.0679 201.426 28.5813 190.32 28.469 190.22L24.0272 186.162C22.1623 183.314 18.813 178.679 16.5346 178.284C14.4922 177.93 12.2424 178.995 9.85952 180.122C9.32199 180.376 8.77087 180.637 8.20899 180.888C7.88203 181.034 7.56236 181.175 7.25115 181.312C3.89677 182.795 1.47322 183.866 0.750322 185.908C0.281113 187.233 0.475778 188.498 1.29851 189.468C2.48117 190.863 4.66939 191.289 6.41563 191.121C6.12697 191.456 5.81031 191.832 5.45849 192.25L4.63574 193.224C3.51742 194.536 2.36113 195.893 1.89026 197.316C1.15873 199.525 1.99533 201.25 3.13722 202.314C2.76084 203.139 2.45944 204.263 2.65129 205.583C2.83897 206.874 3.50349 207.776 4.21066 208.358C4.07385 209.11 4.07919 210.071 4.5741 211.041C5.742 213.33 7.76261 213.578 9.25235 213.384C11.1141 213.141 13.4926 211.369 14.6058 210.462L19.4468 211.034C20.7901 212.825 25.2696 218.575 30.5182 222.891C34.0347 225.784 39.1258 226.529 43.4405 226.529C47.413 226.529 50.7274 225.897 51.5473 225.727L74.5496 225.907H74.5616C75.4001 225.907 76.0829 225.23 76.0895 224.39C76.096 223.545 75.4174 222.855 74.5735 222.849Z" fill="#111111"/>
<path d="M107.344 195.611C106.661 191.923 106.292 188.043 106.124 183.929C105.701 173.559 106.559 161.708 106.888 147.72C107.556 115.505 99.3086 100.06 99.3086 100.06L116.306 111.543L135.51 120.943C135.51 120.943 144.037 125.172 145.169 134.95C146.301 144.727 145.442 162.648 143.703 185.544C142.099 206.655 141.715 218.061 134.685 222.592C130.805 225.093 122.342 227.338 108.493 228.397C90.9445 229.74 73.2369 231.099 73.2369 231.099C73.2369 231.099 75.2578 214.484 66.3953 203.715C90.8537 199.382 100.301 197.625 107.344 195.611Z" fill="#FFEFD9"/>
<path d="M73.2373 232.628C72.822 232.628 72.4225 232.459 72.1332 232.156C71.8167 231.825 71.6653 231.369 71.7205 230.914C71.7397 230.756 73.5462 214.809 65.2164 204.688C64.871 204.268 64.7744 203.697 64.9623 203.187C65.1503 202.677 65.5947 202.305 66.1295 202.21C88.6596 198.219 98.6148 196.391 105.602 194.508C105.086 191.344 104.757 187.888 104.598 183.992C104.314 177.01 104.597 169.561 104.925 160.934C105.086 156.702 105.252 152.326 105.361 147.685C106.011 116.34 98.041 100.93 97.9604 100.778C97.6318 100.158 97.7665 99.3931 98.2881 98.9239C98.8099 98.4547 99.583 98.3998 100.164 98.7926L117.074 110.216L136.182 119.57C136.568 119.761 145.474 124.292 146.687 134.774C147.705 143.566 147.268 158.784 145.227 185.66C145.123 187.03 145.024 188.359 144.928 189.648C143.508 208.722 142.726 219.229 135.514 223.878C130.923 226.836 121.62 228.927 108.61 229.922C91.0619 231.265 73.3543 232.624 73.3543 232.624C73.3152 232.627 73.2763 232.628 73.2373 232.628ZM69.0991 204.789C75.0888 213.684 75.1487 225.03 74.9046 229.438C79.8223 229.06 94.152 227.961 108.377 226.873C125.009 225.6 131.481 222.839 133.859 221.307C139.792 217.483 140.533 207.515 141.88 189.421C141.976 188.13 142.075 186.8 142.18 185.428C143.525 167.713 144.909 145.985 143.652 135.126C142.627 126.276 134.91 122.352 134.832 122.314L115.635 112.916C115.572 112.885 115.51 112.85 115.452 112.81L102.682 104.183C105.136 111.077 108.88 125.395 108.416 147.752C108.307 152.42 108.14 156.807 107.979 161.05C107.653 169.612 107.372 177.006 107.651 183.867C107.828 188.191 108.219 191.941 108.847 195.333C108.991 196.108 108.522 196.865 107.765 197.082C100.801 199.072 91.4336 200.827 69.0991 204.789Z" fill="#111111"/>
<path d="M114.894 193.114C114.857 193.114 114.819 193.113 114.781 193.11C113.939 193.048 113.307 192.315 113.369 191.473L115.482 162.68C115.544 161.838 116.276 161.207 117.118 161.267C117.959 161.329 118.591 162.062 118.529 162.904L116.417 191.697C116.358 192.501 115.687 193.114 114.894 193.114Z" fill="#111111"/>
<path d="M123.643 207.147C123.08 207.147 122.538 206.834 122.271 206.294C122.243 206.236 119.132 200.142 112.178 197.519C111.388 197.222 110.989 196.34 111.287 195.549C111.585 194.759 112.466 194.36 113.256 194.658C121.373 197.72 124.867 204.647 125.012 204.94C125.385 205.698 125.075 206.614 124.318 206.988C124.101 207.096 123.87 207.147 123.643 207.147Z" fill="#111111"/>
<path d="M114.257 52.2967L116.828 37.7068C117.57 33.4986 117.25 29.17 115.876 25.1241C113.252 17.3989 107.175 6.14621 93.722 3.71317L93.4862 3.67158C80.0132 1.35389 70.4563 9.84812 65.3499 16.2094C62.6757 19.541 60.8956 23.4991 60.154 27.7073L57.583 42.2972C54.6553 40.555 49.2201 40.3927 47.7486 49.6147C46.4454 57.7823 51.5803 63.1875 55.1167 64.277C55.2041 65.8954 55.3933 67.4949 55.7326 68.9519C57.9799 78.1167 66.5325 89.0654 74.3261 92.7303C74.3261 92.7303 75.7195 93.3744 77.7379 93.7305C79.7564 94.0867 81.2859 93.9583 81.2859 93.9583C89.862 93.1817 101.641 85.8202 106.886 77.9772C107.703 76.7243 108.427 75.2859 109.062 73.795C112.758 73.9816 119.431 70.6597 120.998 62.5386C122.767 53.3692 117.604 51.6616 114.257 52.2967Z" fill="white"/>
<path d="M77.4723 95.2368C75.2835 94.8506 73.7492 94.1486 73.6849 94.1188C65.4981 90.269 56.6014 78.913 54.2484 69.3168C53.9715 68.1291 53.774 66.8011 53.6568 65.3481C49.5939 63.4658 44.9218 57.6313 46.2392 49.3744C46.9788 44.7396 48.7391 41.7406 51.4713 40.4601C52.9797 39.7535 54.7292 39.6548 56.4121 40.1358L58.6489 27.4423C59.4356 22.9775 61.3407 18.7624 64.1582 15.2524C68.9465 9.28745 79.1572 -0.344117 93.7448 2.16534C93.783 2.1721 93.8277 2.18165 93.8683 2.19184C93.91 2.19616 93.9547 2.20238 93.9934 2.20921C108.559 4.84347 114.862 17.3887 117.322 24.6326C118.77 28.8955 119.12 33.5084 118.333 37.9728L116.096 50.6663C117.843 50.7892 119.452 51.4814 120.628 52.662C122.758 54.8003 123.387 58.2209 122.498 62.8293C120.913 71.0391 114.529 74.9228 110.068 75.3011C109.461 76.6263 108.823 77.8046 108.165 78.8132C102.664 87.0402 90.4222 94.6665 81.4234 95.4814C81.3428 95.4884 79.6607 95.6229 77.4723 95.2368ZM55.0514 42.9584C54.3675 42.8377 53.5663 42.8551 52.7674 43.2296C51.033 44.0422 49.8192 46.3338 49.2572 49.8563C48.0731 57.2769 52.7818 61.9585 55.5659 62.816C56.178 63.0045 56.6077 63.555 56.6422 64.1949C56.7321 65.8604 56.9266 67.3442 57.2205 68.6053C59.3436 77.2637 67.6423 87.8986 74.9757 91.3471C74.9756 91.3468 76.2269 91.9119 78.003 92.2252C79.779 92.5386 81.148 92.4358 81.1617 92.4349C89.2175 91.7053 100.651 84.5519 105.615 77.1275C106.312 76.0581 107.002 74.7303 107.656 73.1958C107.908 72.6063 108.5 72.236 109.139 72.2683C112.048 72.4154 118.073 69.6276 119.497 62.2493C120.173 58.7469 119.815 56.178 118.464 54.8209C117.091 53.4432 115.115 53.691 114.542 53.7995C114.049 53.894 113.541 53.7387 113.184 53.3856C112.826 53.0325 112.665 52.5266 112.752 52.0318L115.323 37.4418C116.021 33.4826 115.712 29.3936 114.429 25.6167C111.687 17.5462 105.822 7.45601 93.4499 5.21848C93.4125 5.21155 93.3755 5.20366 93.3392 5.19425C93.302 5.19069 93.2645 5.18545 93.2269 5.17913C80.8358 3.04747 71.8755 10.5219 66.5409 17.1674C64.0445 20.2775 62.3562 24.0141 61.6585 27.9733L59.0875 42.5633C59.0003 43.0581 58.6758 43.4782 58.2195 43.6878C57.763 43.8971 57.2329 43.8692 56.8017 43.6119C56.5279 43.449 55.8746 43.1036 55.0514 42.9584Z" fill="#111111"/>
<path d="M116.691 58.7507C116.715 57.3973 116.78 56.2306 116.864 55.2387L118.465 52.917C122.446 44.3087 128.851 17.9906 100.271 3.81054C95.6467 1.51586 87.9526 0.541343 82.7407 3.56692C70.8775 2.3616 59.744 16.0925 56.5942 22.4371C51.2614 33.179 52.5783 41.6597 52.5783 41.6597L53.5504 47.1292L57.5828 42.2977C57.5828 42.2977 60.6696 22.2897 74.5368 14.1023L80.5421 10.4593C79.2867 14.6848 78.3034 24.5012 83.4767 30.9116C89.1537 37.9461 97.5473 37.7388 97.5473 37.7388C97.5473 37.7388 101.989 41.267 109.66 43.3681C109.718 43.4032 109.984 43.876 110.359 44.5847C110.615 46.0715 110.782 48.0529 110.619 50.5235C109.488 67.6765 118.853 70.3773 118.853 70.3773C118.853 70.3773 116.594 64.2298 116.691 58.7507Z" fill="black"/>
<path d="M123.088 30.2174C121.227 18.3083 113.572 8.70343 100.951 2.44113C95.9066 -0.0613984 88.009 -0.971662 82.4076 2.00404C69.8619 1.11532 58.5181 15.1262 55.2261 21.7574C49.7404 32.8073 51.012 41.529 51.0743 41.9279L52.0464 47.3973C52.1505 47.9827 52.5841 48.4545 53.1582 48.6073C53.7325 48.7588 54.3429 48.566 54.7237 48.1099L58.756 43.2785C58.9344 43.0647 59.051 42.8066 59.0933 42.5317C59.1231 42.3385 62.2211 23.1497 75.3137 15.4198C76.0405 14.9907 76.2821 14.0532 75.8532 13.3259C75.4245 12.5986 74.4876 12.3572 73.7607 12.7859C60.4108 20.6678 56.6952 38.5513 56.1454 41.6356L54.4809 43.63L54.0874 41.417C54.0375 41.0531 53.0268 33.0609 57.9631 23.1177C61.3465 16.3025 72.0429 4.01736 82.5868 5.08861C82.9072 5.12088 83.2295 5.0514 83.508 4.88994C88.1466 2.19686 95.2575 3.02966 99.5931 5.18075C111.454 11.066 118.343 19.6482 120.069 30.6901C121.361 38.9562 119.409 47.1736 117.133 52.1582L116.659 52.8448C116.828 54.4974 117.066 56.0715 117.05 57.6626L119.723 53.7861C119.773 53.7143 119.816 53.6387 119.852 53.5599C122.34 48.1806 124.496 39.224 123.088 30.2174Z" fill="#111111"/>
<path d="M120.288 69.8504C120.266 69.7913 118.129 63.8955 118.219 58.7777C118.31 53.6571 119.01 51.3036 119.015 51.287C119.269 50.4816 118.822 49.623 118.017 49.3692C117.213 49.1141 116.354 49.5627 116.1 50.3683C116.066 50.4768 115.264 53.0883 115.164 58.7237C115.114 61.5378 115.64 64.4793 116.197 66.7673C113.999 64.4442 111.541 59.7682 112.144 50.6242C112.573 44.1329 110.827 40.6973 110.753 40.5544C110.365 39.8094 109.452 39.5223 108.705 39.9046C108.191 40.1677 107.897 40.6856 107.882 41.2274C101.972 39.2444 98.5344 36.5698 98.4984 36.5411C98.4669 36.5162 98.4317 36.4975 98.3985 36.4753C98.378 36.4616 98.3613 36.4442 98.3401 36.4313C98.2579 36.3814 90.1333 31.3239 91.1576 20.7474C91.239 19.907 90.624 19.1562 89.7841 19.0781C88.9441 18.9966 88.1972 19.6122 88.1158 20.4526C87.4411 27.4189 90.0916 32.3268 92.6326 35.3462C90.1314 34.5385 87.1082 32.9769 84.6664 29.951C80.2045 24.4221 80.6319 15.526 82.0078 10.895C82.2482 10.0857 81.7874 9.23446 80.9785 8.99369C80.1692 8.7552 79.319 9.21404 79.0784 10.0237C77.7362 14.5413 76.6798 24.9218 82.2887 31.8725C87.5754 38.4226 94.9501 39.1803 97.0313 39.2598C98.3201 40.1856 102.399 42.8678 108.677 44.6797C108.736 44.7881 108.807 44.9197 108.884 45.0638C109.103 46.4187 109.241 48.204 109.095 50.423C107.896 68.5957 118 71.7223 118.43 71.8464C118.483 71.8618 118.536 71.8738 118.588 71.8831C119.094 71.9724 119.616 71.8006 119.972 71.4192C120.364 70.9975 120.486 70.3911 120.288 69.8504Z" fill="#111111"/>
<path d="M56.7152 47.7522L57.583 42.2976C54.6554 40.5553 49.2202 40.393 47.7486 49.6151C46.4454 57.7827 51.5803 63.188 55.1168 64.2772L55.3087 58.0074L56.7152 47.7522Z" fill="white"/>
<path d="M54.8511 65.7833C54.7892 65.7724 54.7277 65.7574 54.6668 65.739C50.4236 64.432 44.8108 58.3271 46.2392 49.3744C46.9788 44.7397 48.7391 41.7406 51.4714 40.4601C53.5777 39.4736 56.1544 39.6688 58.3638 40.9838C58.9017 41.3038 59.1901 41.9198 59.0917 42.5382L58.2238 47.9929C58.0911 48.827 57.3079 49.3954 56.4745 49.2625C55.634 49.1331 55.0731 48.3461 55.2058 47.5123L55.8942 43.1859C55.0912 42.895 53.9268 42.6865 52.7675 43.2296C51.0331 44.0422 49.8192 46.3338 49.2572 49.8564C48.3177 55.7443 51.088 59.9077 53.6633 61.8048L53.7811 57.9609C53.8069 57.1168 54.5116 56.4537 55.3551 56.4795C56.1996 56.5025 56.8615 57.2106 56.8357 58.0545L56.6437 64.3243C56.629 64.8011 56.393 65.2436 56.0052 65.5213C55.6692 65.7615 55.2527 65.8541 54.8511 65.7833Z" fill="#111111"/>
<path d="M111.805 73.8771C111.543 75.3554 110.134 76.3416 108.656 76.0798C107.179 75.8181 106.194 74.4076 106.455 72.9294C106.717 71.4512 108.126 70.4649 109.604 70.7266C111.081 70.9884 112.067 72.3989 111.805 73.8771Z" fill="white"/>
<path d="M108.393 77.5863C108.392 77.5861 108.391 77.5859 108.39 77.5858C107.274 77.388 106.301 76.767 105.652 75.8373C105.002 74.9075 104.753 73.7802 104.951 72.6631C105.149 71.5461 105.769 70.5729 106.698 69.9228C107.626 69.2734 108.752 69.0241 109.867 69.2209L109.87 69.2214C112.175 69.6297 113.718 71.8379 113.31 74.144C113.31 74.144 113.31 74.1439 113.31 74.144C112.902 76.4489 110.697 77.9927 108.393 77.5863ZM109.337 72.2324C109.024 72.1773 108.709 72.2471 108.449 72.429C108.189 72.611 108.015 72.8834 107.96 73.1962C107.905 73.5092 107.975 73.8247 108.156 74.085C108.338 74.3454 108.611 74.5192 108.923 74.5746C108.923 74.5747 108.924 74.5747 108.924 74.5747C109.569 74.6886 110.186 74.2563 110.301 73.6108C110.415 72.9651 109.983 72.3469 109.338 72.2326C109.337 72.2325 109.337 72.2325 109.337 72.2324Z" fill="#111111"/>
<path d="M56.6607 64.1476C56.3991 65.6259 54.9895 66.6121 53.5122 66.3503C52.0349 66.0886 51.0493 64.6781 51.3109 63.1999C51.5724 61.7217 52.982 60.7355 54.4593 60.9972C55.9366 61.2589 56.9222 62.6694 56.6607 64.1476Z" fill="white"/>
<path d="M53.2491 67.8568C53.2481 67.8567 53.2471 67.8564 53.2462 67.8563C52.1298 67.6585 51.1571 67.0376 50.5075 66.1078C49.8578 65.178 49.6089 64.0507 49.8066 62.9336C50.0043 61.8166 50.6248 60.8434 51.5539 60.1933C52.4822 59.5439 53.6076 59.2946 54.723 59.4914C54.724 59.4916 54.725 59.4917 54.726 59.4919C57.0306 59.9002 58.5736 62.1084 58.1657 64.4145C58.1657 64.4144 58.1657 64.4145 58.1657 64.4145C57.7577 66.7194 55.5524 68.2632 53.2491 67.8568ZM54.1924 62.5029C53.8802 62.4478 53.565 62.5176 53.3052 62.6994C53.045 62.8815 52.8712 63.1539 52.8159 63.4667C52.7606 63.7797 52.8302 64.0952 53.0122 64.3556C53.1941 64.6159 53.4663 64.7898 53.7788 64.8451C53.7791 64.8452 53.7795 64.8452 53.7796 64.8452C54.4248 64.9591 55.0422 64.5268 55.1565 63.8813C55.2706 63.2356 54.8386 62.6174 54.1933 62.5031C54.193 62.5031 54.1927 62.503 54.1924 62.5029Z" fill="#111111"/>
<path d="M70.9916 41.7056C68.6937 41.7056 67.0077 41.5234 66.8663 41.5076C66.121 41.4244 65.5842 40.7525 65.6671 40.0067C65.7499 39.2609 66.4217 38.7234 67.1668 38.8061C67.2335 38.8136 73.8648 39.5253 78.5713 38.0399C79.2872 37.814 80.0494 38.2115 80.2752 38.9273C80.5008 39.643 80.1037 40.4064 79.3883 40.6322C76.6588 41.4936 73.4697 41.7056 70.9916 41.7056Z" fill="#111111"/>
<path d="M105.709 48.3439C105.603 48.3439 105.495 48.3314 105.387 48.3052C105.1 48.2354 98.2954 46.5575 93.9198 43.1971C93.3247 42.7401 93.2126 41.8869 93.6692 41.2915C94.1258 40.696 94.9784 40.5838 95.5738 41.0408C99.4886 44.0474 105.963 45.648 106.028 45.6637C106.757 45.8412 107.204 46.576 107.027 47.3052C106.876 47.9268 106.321 48.3439 105.709 48.3439Z" fill="#111111"/>
<path d="M83.3128 79.1971C82.7862 79.1971 82.2849 78.8889 82.0641 78.374C82.0638 78.3741 81.5853 77.3524 80.6218 77.1831C79.6253 77.0079 78.9538 77.6225 78.9475 77.6288C78.4143 78.1566 77.5543 78.1522 77.0267 77.6184C76.4991 77.0847 76.5037 76.2242 77.0371 75.6963C77.6436 75.0962 79.1793 74.1701 81.0917 74.5059C83.0288 74.8462 84.1832 76.4233 84.5601 77.3014C84.8562 77.9912 84.5374 78.7903 83.848 79.0865C83.6734 79.1616 83.4915 79.1971 83.3128 79.1971Z" fill="#111111"/>
<path d="M84.6438 66.4216C84.4305 66.0627 83.6434 66.2798 82.6856 66.1328C81.7356 65.9418 81.0708 65.4675 80.7474 65.7314C80.413 66.0042 80.4501 67.6686 82.3456 68.0549C84.2583 68.3432 84.8642 66.7928 84.6438 66.4216Z" fill="#111111"/>
<path d="M69.8637 46.7142C70.6201 46.1709 71.4947 45.9279 72.2632 46.0474C72.8618 46.1385 73.4349 46.514 73.884 47.0998C74.5113 47.9181 74.7992 49.0335 74.6351 50.0106C74.4848 50.905 73.8862 51.7696 73.0337 52.3233C72.3682 52.7555 71.6495 52.933 71.0015 52.827C70.9789 52.8233 70.9564 52.8193 70.9339 52.8149C69.5184 52.5378 68.322 50.533 68.5188 48.7675C68.6013 48.0274 69.104 47.2599 69.8637 46.7142Z" fill="#111111"/>
<path d="M77.7765 49.5517C77.1775 49.5517 76.6096 49.1969 76.3656 48.6105C76.3236 48.5139 75.5756 46.8558 73.688 46.4337C70.4283 45.7056 69.0195 48.1465 68.8695 48.4272C68.4747 49.1669 67.5543 49.4569 66.8112 49.069C66.068 48.6808 65.7726 47.7728 66.1534 47.0257C67.0093 45.3459 69.8244 42.436 74.3545 43.4494C77.8471 44.2302 79.1381 47.315 79.1913 47.446C79.5095 48.2282 79.1336 49.1203 78.352 49.4385C78.1633 49.5153 77.9683 49.5517 77.7765 49.5517Z" fill="#111111"/>
<path d="M99.292 52.0679C98.7669 51.2985 98.0281 50.7708 97.2651 50.6201C96.6715 50.5008 96.0046 50.6576 95.3824 51.0543C94.5132 51.6086 93.8615 52.5581 93.6817 53.5325C93.5171 54.4245 93.7841 55.4418 94.396 56.2538C94.8736 56.8877 95.4883 57.3005 96.1334 57.4227C96.1559 57.4269 96.1785 57.4309 96.2011 57.4344C97.626 57.6584 99.4354 56.184 99.8539 54.4576C100.029 53.7339 99.8193 52.8406 99.292 52.0679Z" fill="#111111"/>
<path d="M103.909 56.4788C103.122 56.4789 102.454 55.8746 102.388 55.076C102.351 54.7145 101.91 51.4146 97.9712 50.7197C97.0903 50.5642 96.1073 51.0759 95.8029 51.2863C95.112 51.7634 94.1612 51.5973 93.6789 50.9101C93.1967 50.2229 93.3536 49.2786 94.0365 48.7907C94.2516 48.6372 96.2044 47.3028 98.5019 47.7081C103.593 48.6064 105.262 52.7552 105.433 54.8235C105.503 55.665 104.878 56.4038 104.037 56.4735C103.994 56.4771 103.951 56.4788 103.909 56.4788Z" fill="#111111"/>
<path d="M93.5441 108.467C91.7725 106.241 90.0847 103.896 88.9713 103.71C86.7981 103.348 76.9734 107.108 76.9734 107.108L79.4182 98.8174C79.4182 98.8174 81.4258 97.7204 83.5982 96.4957C85.828 95.2384 88.9067 93.6754 89.8121 91.9993C90.7177 90.3229 90.2586 88.6015 87.9495 88.4882C86.4665 88.4155 83.3536 89.758 79.8064 91.2064C76.0673 92.7331 74.6248 93.6267 73.6488 94.6495C72.8247 95.5135 72.2326 98.0534 71.0908 101.581C69.5986 106.192 67.9669 109.165 67.3298 111.729C66.6928 114.293 67.375 137.371 65.8357 142.445C64.2964 147.519 58.209 157.363 58.209 157.363L72.5963 170.954L80.595 148.454C80.595 148.454 82.2196 145.095 82.8139 143.566C83.3625 142.154 85.802 133.837 85.802 133.837C85.802 133.837 86.8886 135.174 88.5865 134.358C90.2843 133.543 90.0518 131.837 90.9634 129.986C92.0032 127.875 93.2724 125.683 93.2724 125.683C93.2724 125.683 94.9362 124.244 95.4796 122.16C96.0229 120.076 95.0834 117.89 95.0834 117.89C95.0834 117.89 97.0303 115.534 97.0303 113.541C97.0303 112.569 95.2304 110.586 93.5441 108.467Z" fill="white"/>
<path d="M98.5582 113.541C98.5582 112.265 97.569 110.993 95.6728 108.668C95.3659 108.292 95.0506 107.906 94.7392 107.514C94.4994 107.213 94.2612 106.91 94.0257 106.61C91.9452 103.959 90.6964 102.448 89.2224 102.202C87.459 101.908 82.6656 103.431 79.2993 104.623L80.7055 99.8548C81.4556 99.442 82.8702 98.661 84.3482 97.8275C84.5946 97.6888 84.8512 97.5461 85.1143 97.3999C87.4699 96.0914 90.1397 94.6082 91.1564 92.7261C91.9095 91.3317 91.9782 89.887 91.3449 88.7623C90.9904 88.133 90.0878 87.0621 88.0242 86.9609C86.4114 86.8813 84.1 87.7934 80.1549 89.4113L79.2288 89.7906C75.5313 91.3003 73.7819 92.2954 72.5435 93.5935C71.6749 94.504 71.1647 96.1699 70.3927 98.6912C70.1666 99.4296 69.9187 100.239 69.637 101.11C68.9154 103.339 68.16 105.177 67.4936 106.798C66.7968 108.494 66.1951 109.958 65.8467 111.36C65.568 112.482 65.5183 115.713 65.4481 121.804C65.3639 129.11 65.2485 139.116 64.3734 142C62.9099 146.825 56.9693 156.462 56.9095 156.559C56.4655 157.277 56.6873 158.219 57.4049 158.663C58.1231 159.108 59.0646 158.886 59.5083 158.167C59.7611 157.759 65.7186 148.094 67.2979 142.889C68.2993 139.587 68.4081 130.158 68.504 121.839C68.5521 117.661 68.6067 112.926 68.8126 112.098C69.1067 110.914 69.669 109.545 70.3201 107.962C71.0075 106.289 71.7866 104.394 72.5445 102.052C72.8315 101.165 73.0842 100.34 73.3146 99.5871C73.8164 97.9489 74.3849 96.0921 74.754 95.7052C75.5111 94.9115 76.7169 94.1191 80.3835 92.622L81.3138 92.241C83.9146 91.1742 86.8594 89.9678 87.8746 90.0152C88.3465 90.0385 88.6242 90.1602 88.6824 90.2637C88.7475 90.3792 88.7469 90.7553 88.4677 91.2721C87.8756 92.3681 85.4223 93.7312 83.6309 94.7263C83.362 94.8756 83.0996 95.0215 82.848 95.1633C80.7101 96.3688 78.7057 97.4644 78.6858 97.4754C78.3308 97.6694 78.067 97.9964 77.9526 98.3846L75.7738 105.773L73.6751 106.157C72.8449 106.309 72.295 107.105 72.4467 107.936C72.5815 108.673 73.2245 109.19 73.948 109.19C74.0392 109.19 74.1317 109.182 74.2246 109.165L77.248 108.612C77.2563 108.61 77.2636 108.607 77.2719 108.605C77.3552 108.588 77.438 108.567 77.5191 108.536C81.9785 106.83 87.4692 105.107 88.6763 105.213C89.267 105.498 90.6812 107.299 91.6223 108.498C91.862 108.804 92.1046 109.113 92.3486 109.419C92.6676 109.82 92.9908 110.216 93.3053 110.602C94.1121 111.591 95.3211 113.073 95.5007 113.613C95.4809 114.094 95.2662 114.679 94.9826 115.242L91.7707 111.041C91.4938 110.679 91.0698 110.459 90.6147 110.442L77.031 109.929C76.1807 109.897 75.4781 110.556 75.4464 111.399C75.4146 112.243 76.0723 112.953 76.9155 112.985L89.7805 113.471L93.7357 118.644C93.8992 119.102 94.3313 120.507 94.0008 121.774C93.8864 122.213 93.7016 122.619 93.4953 122.978L89.8473 116.546C89.5873 116.088 89.1095 115.796 88.5833 115.774L77.3777 115.298C76.5258 115.259 75.8219 115.917 75.7861 116.761C75.7505 117.604 76.4049 118.317 77.248 118.353L87.6075 118.793L91.5152 125.682C91.0464 126.518 90.2772 127.92 89.5926 129.31C89.2295 130.048 89.0286 130.732 88.8515 131.336C88.5247 132.449 88.3911 132.756 87.9252 132.979C87.5653 133.153 87.2586 133.121 87.0122 132.89C86.8727 132.642 86.4323 131.749 86.553 130.521C86.6823 129.205 87.3331 125.594 87.3396 125.558C87.414 125.146 87.3164 124.721 87.0695 124.383C86.8226 124.046 86.4481 123.824 86.0332 123.77L81.4653 123.174C80.7305 123.079 80.033 123.524 79.8105 124.232L78.366 128.825C78.2297 129.258 78.2947 129.732 78.5403 130.114C78.551 130.131 79.6311 131.825 80.6012 134.612C82.1289 139.001 80.821 144.242 80.8076 144.294C80.7962 144.339 80.7947 144.383 80.7874 144.427C80.1049 145.955 79.2314 147.763 79.2196 147.787C79.1954 147.837 79.1738 147.889 79.1552 147.941L71.1566 170.442C70.8737 171.237 71.289 172.112 72.0841 172.395C72.2535 172.455 72.4263 172.484 72.5962 172.484C73.2244 172.484 73.8134 172.093 74.0359 171.467L82.0069 149.044C82.2589 148.521 83.6719 145.577 84.2379 144.12C84.6498 143.06 85.9745 138.64 86.737 136.068C87.4639 136.226 88.3191 136.182 89.2476 135.737C90.9909 134.899 91.4304 133.401 91.7838 132.198C91.9399 131.666 92.0875 131.163 92.3341 130.662C93.1609 128.983 94.1509 127.226 94.4812 126.646C95.0301 126.119 96.4156 124.627 96.9581 122.546C97.4039 120.836 97.0814 119.149 96.7916 118.157C97.4775 117.17 98.5582 115.331 98.5582 113.541ZM82.3411 126.372L84.0557 126.596C83.8509 127.798 83.5941 129.382 83.5115 130.221C83.3449 131.917 83.795 133.249 84.1572 134.013C84.0738 134.296 83.981 134.61 83.8811 134.948C83.7708 134.498 83.6417 134.05 83.4871 133.606C82.745 131.474 81.9443 129.91 81.4856 129.093L82.3411 126.372Z" fill="#111111"/>
<path d="M60.9645 146.359L45.0045 168.983L40.0903 169.214L31.7735 180.407L18.5259 174.417C18.5259 174.417 19.8924 183.54 20.845 189.549C22.3526 199.061 25.5747 207.769 31.2955 211.829C42.6195 219.867 51.0305 207.124 53.4107 204.598C58.3876 199.316 60.5674 196.014 65.6987 188.766C69.7855 182.992 73.5932 177.12 77.8207 170.744C66.1011 161.785 60.9645 146.359 60.9645 146.359Z" fill="#FFEFD9"/>
<path d="M38.7294 216.008C36.1708 216.008 33.381 215.184 30.4123 213.077C23.5354 208.196 20.5936 197.718 19.3367 189.788C18.3939 183.842 17.0292 174.735 17.0156 174.644C16.8905 173.809 17.4656 173.03 18.3003 172.905C19.1336 172.78 19.9129 173.355 20.0379 174.19C20.0516 174.282 21.4144 183.376 22.355 189.309C23.5201 196.659 26.1704 206.317 32.1804 210.582C40.0504 216.168 46.233 210.782 51.2431 204.776C51.67 204.264 52.0073 203.86 52.2997 203.549C56.6713 198.91 58.8843 195.773 62.9018 190.078C63.3898 189.386 63.9044 188.656 64.4528 187.882C67.6978 183.297 70.7711 178.643 74.0248 173.715C74.6015 172.842 75.1838 171.96 75.7734 171.069C67.3898 164.151 62.5463 154.312 60.566 149.577L46.2536 169.865C45.9818 170.25 45.5477 170.488 45.077 170.51L40.8856 170.708L33.0007 181.32C32.497 181.997 31.5398 182.138 30.8626 181.634C30.1855 181.13 30.0446 180.173 30.5481 179.495L38.8648 168.302C39.138 167.934 39.5618 167.709 40.0193 167.687L44.1875 167.491L59.7171 145.477C60.0495 145.006 60.6179 144.763 61.1886 144.846C61.7586 144.931 62.233 145.329 62.415 145.876C62.4649 146.025 67.5556 160.972 78.7492 169.53C79.3884 170.018 79.5396 170.919 79.0948 171.59C78.2396 172.88 77.4014 174.149 76.5747 175.401C73.3069 180.35 70.2203 185.025 66.9464 189.649C66.3992 190.422 65.8856 191.151 65.3985 191.841C61.3005 197.65 59.0433 200.85 54.5235 205.647C54.2943 205.89 53.9675 206.282 53.5892 206.735C51.1862 209.616 45.8545 216.008 38.7294 216.008Z" fill="#111111"/>
</svg>
