<svg width="200" height="246" viewBox="0 0 200 246" fill="none" xmlns="http://www.w3.org/2000/svg">
<g clip-path="url(#clip0_7_2904)">
<path d="M100.546 113.531C106.715 117.531 114.275 118.892 121.625 118.851C126.46 118.823 131.366 118.206 135.794 116.263C140.222 114.319 144.151 110.936 146.05 106.484C148.133 101.602 147.601 95.9408 145.889 90.9169C144.176 85.893 141.37 81.3307 138.861 76.6544C138.009 75.0665 137.167 73.3672 137.242 71.5661C137.303 70.1179 137.952 68.7682 138.589 67.4665C139.642 65.3128 140.703 63.1474 142.102 61.2012C143.802 58.8368 145.975 56.834 147.582 54.4052C151.328 48.7417 152.316 40.4865 151.56 33.8633C150.871 27.819 149.565 19.487 145.81 14.546C142.363 10.0103 137.315 6.18296 132.037 4.07618C129.929 3.23475 127.733 2.62933 125.516 2.14646C118.795 0.682453 112.149 1.21947 105.78 4.02923C102.709 5.38432 99.8548 7.23516 97.3679 9.49226C92.4446 13.9608 89.0562 19.891 86.9101 26.1393C84.8624 32.1017 83.2336 40.3056 85.8496 46.3198C87.7332 50.6504 91.8235 53.5169 95.5496 56.4138C99.2755 59.3106 103.045 62.8551 103.75 67.5254C104.518 72.6176 101.451 77.3809 99.05 81.9354C96.84 86.1278 95.1041 90.5707 93.8864 95.1518C93.1048 98.092 92.5366 101.195 93.2099 104.162C94.1108 108.131 97.1341 111.318 100.546 113.531Z" fill="#231815"/>
<path d="M121.292 120.207C112.705 120.207 105.479 118.345 99.8097 114.669C95.5729 111.922 92.7602 108.297 91.8894 104.463C91.1268 101.102 91.8094 97.6933 92.5775 94.8031C93.8213 90.1252 95.5963 85.5828 97.8526 81.3024C98.1455 80.7465 98.4483 80.1869 98.753 79.6249C100.85 75.7555 103.019 71.7542 102.411 67.7282C101.768 63.4724 98.1615 60.1619 94.7187 57.485L93.7173 56.711C90.1501 53.9643 86.4622 51.1247 84.6079 46.8615C81.5706 39.8794 83.9444 30.6054 85.6295 25.6983C88.0748 18.5806 91.7177 12.7897 96.4586 8.48706C99.0583 6.12806 102.011 4.2103 105.234 2.788C111.727 -0.0750857 118.648 -0.737563 125.804 0.821544C128.378 1.38234 130.58 2.03494 132.539 2.81695C138.066 5.02251 143.296 8.99854 146.888 13.7246C150.787 18.8554 152.152 27.1002 152.906 33.7095C153.616 39.9367 152.888 48.8402 148.711 55.1537C147.789 56.5489 146.7 57.798 145.647 59.0065C144.769 60.014 143.94 60.9655 143.201 61.9934C141.863 63.8551 140.817 65.9941 139.805 68.0629C139.235 69.2288 138.645 70.4348 138.596 71.6229C138.536 73.0563 139.252 74.5175 140.054 76.0125C140.581 76.9942 141.121 77.9709 141.661 78.9477C143.687 82.6119 145.781 86.4012 147.171 90.4789C148.625 94.747 149.828 101.081 147.296 107.017C145.401 111.457 141.408 115.279 136.339 117.504C132.271 119.29 127.461 120.174 121.633 120.207C121.52 120.207 121.406 120.207 121.292 120.207ZM101.282 112.393C106.575 115.825 113.448 117.553 121.617 117.494C127.069 117.464 131.528 116.655 135.25 115.021C139.696 113.069 143.178 109.764 144.804 105.952C147 100.807 145.908 95.1741 144.607 91.3552C143.294 87.5043 141.259 83.8222 139.291 80.2609C138.746 79.2743 138.2 78.2877 137.668 77.2961C136.72 75.5293 135.801 73.627 135.889 71.5095C135.963 69.7526 136.712 68.2212 137.373 66.8698C138.434 64.7006 139.53 62.4569 141.003 60.4091C141.816 59.2782 142.726 58.2337 143.606 57.2231C144.647 56.0294 145.629 54.9016 146.452 53.6562C150.228 47.9498 150.871 39.7697 150.215 34.0176C149.556 28.2415 148.27 20.0238 144.733 15.3669C141.43 11.0211 136.619 7.36487 131.536 5.33618C129.717 4.61024 127.654 4.00016 125.228 3.47141C118.643 2.03617 112.284 2.64133 106.326 5.27024C103.37 6.57483 100.662 8.33361 98.2779 10.4966C93.8791 14.4887 90.4855 19.9 88.1911 26.5807C86.6339 31.1145 84.4201 39.6378 87.0918 45.7781C88.6668 49.401 92.074 52.0244 95.3686 54.5609L96.3804 55.3429C100.246 58.3483 104.304 62.1222 105.089 67.3228C105.833 72.2478 103.444 76.6558 101.134 80.9184C100.834 81.4712 100.537 82.0215 100.248 82.5681C98.0864 86.6686 96.3865 91.02 95.1956 95.5007C94.5118 98.0717 93.8982 101.075 94.5309 103.861C95.2436 107.002 97.6414 110.032 101.282 112.393Z" fill="#231815"/>
<path d="M102.003 97.2912C102.449 97.2187 102.95 97.2588 103.521 97.448C104.48 97.7657 105.31 98.3744 106.132 98.9629C108.42 100.603 110.788 102.167 113.391 103.237C115.994 104.307 118.862 104.865 121.642 104.428C125.868 103.764 129.453 100.913 133.604 99.8775C134.628 99.6223 136.917 98.9648 137.482 100.285C137.785 100.992 137.574 101.802 137.351 102.538C133.841 114.157 128.306 125.044 123.886 136.348C122.373 140.217 120.962 144.191 118.547 147.572C118.298 147.92 117.989 148.29 117.563 148.331C117.128 148.373 116.749 148.053 116.435 147.748C112.17 143.605 109.206 138.316 106.639 132.951C103.648 126.7 101.113 120.232 99.0578 113.613C98.3076 111.197 97.617 108.735 97.484 106.207C97.3441 103.55 98.7231 97.8222 102.003 97.2912Z" fill="white"/>
<path d="M196.78 217.118C196.504 205.217 196.611 193.224 195.898 181.343C195.172 169.222 194.195 157.153 194.094 144.998C194.025 136.691 194.112 127.795 189.657 120.89C186.044 115.291 180.018 111.961 174.148 109.072C163.956 104.056 153.483 99.6896 142.99 95.4024C141.078 94.6213 138.953 93.0299 137.327 94.8674C135.812 96.5789 135.222 100.534 134.427 102.707C132.428 108.173 130.311 113.592 128.078 118.96C126.522 122.698 124.91 126.411 123.243 130.097C122.492 131.759 121.755 133.38 121.169 135.098C120.976 135.664 118.84 139.25 118.897 139.336C114.819 133.076 111.895 126.502 108.948 119.622C107.43 116.078 105.911 112.533 104.393 108.988C103.634 107.216 102.874 105.444 102.115 103.671C101.602 102.472 100.106 100.269 100.106 98.9797C99.4185 97.3759 98.7232 95.7422 98.5197 94C92.9243 96.4746 87.387 98.587 81.6134 100.561C75.9609 102.493 70.1277 105.969 64.7732 108.684C52.607 114.855 45.6521 125.422 44.8912 135.362C43.6391 151.718 42.7976 168.104 42.2647 184.502C42.0049 192.499 41.8126 200.498 41.6507 208.498C41.5677 212.599 41.4929 216.7 41.4211 220.802C41.3731 223.539 40.0811 229.463 42.2764 231.398C43.345 232.34 45.0553 232.324 46.3648 232.16C54.0055 231.201 61.3559 227.88 67.2349 222.729C66.6456 223.246 67.6075 230.445 67.6464 231.735C67.762 235.573 67.6661 239.431 67.6758 243.273C67.6836 246.245 74.9893 244.48 76.9897 244.48H132.587C141.782 244.48 150.979 244.652 160.173 244.772C165.176 244.838 196.515 243.688 198.307 243.367C198.563 243.322 198.842 243.253 198.994 243.035C199.134 242.833 196.89 221.848 196.78 217.118Z" fill="#DDDDDD"/>
<path d="M45.9176 137.02C45.8751 137.02 45.8326 137.018 45.7896 137.013C45.1175 136.943 44.6294 136.341 44.6996 135.668C45.1341 131.487 47.0814 127.387 50.4874 123.482C53.5942 119.917 56.8574 117.163 60.757 114.812C64.4657 112.576 97.3695 98.34 98.7685 97.7349C99.3882 97.4655 100.108 97.7533 100.377 98.3739C100.644 98.9951 100.359 99.7161 99.7384 99.9842C99.3974 100.131 65.5883 114.759 62.0187 116.911C58.2933 119.156 55.3052 121.68 52.3307 125.093C49.2632 128.611 47.5147 132.254 47.1331 135.922C47.0679 136.552 46.5367 137.02 45.9176 137.02Z" fill="#231815"/>
<path d="M198.767 244.5C198.113 244.5 197.568 243.984 197.538 243.323C197.491 242.29 192.813 139.873 191.375 133.039C188.69 120.264 175.885 115.31 175.756 115.261C175.654 115.223 175.558 115.172 175.471 115.108C173.699 113.834 153.389 105.907 140.169 100.89C139.99 100.822 139.829 100.713 139.7 100.572L133.12 93.417C132.66 92.916 132.692 92.1364 133.192 91.6748C133.693 91.2133 134.471 91.2453 134.932 91.7469L141.314 98.6877C145.708 100.357 173.398 110.909 176.755 113.004C178.288 113.613 190.944 119.017 193.786 132.531C195.263 139.559 199.806 238.982 199.999 243.211C200.029 243.891 199.504 244.467 198.824 244.499C198.805 244.5 198.786 244.5 198.767 244.5Z" fill="#231815"/>
<path d="M53.9465 134.317C55.4917 131.605 55.4885 128.487 55.2507 125.295C55.0504 122.605 54.0518 120.044 53.0573 117.532C51.207 112.857 49.2172 108.236 47.4464 103.531C46.5197 101.069 45.6482 98.5843 44.8949 96.0645C44.4602 94.6106 44.3035 91.0446 42.686 90.4265C41.9722 90.1538 41.1435 90.3715 40.5148 90.8016C35.7951 94.03 38.6561 102.751 40.955 106.752C41.1157 107.041 38.0443 107.07 37.724 106.995C34.739 106.289 32.6832 103.98 30.5346 102.031C27.9027 99.6423 25.224 97.3577 22.6808 94.8837C20.1172 92.3897 16.8633 89.3889 15.2813 89.0582C13.238 88.6312 11.0549 90.8833 11.0549 90.8833C11.0549 90.8833 8.08422 87.2446 3.95809 87.8922C3.44344 87.9729 2.92804 88.116 2.49834 88.4072C1.37767 89.1666 1.12975 90.771 1.56069 92.0467C1.99176 93.3224 2.9477 94.3467 3.87742 95.3287C1.99176 96.1632 1.237 98.579 1.74723 100.561C2.25747 102.542 3.73549 104.137 5.31449 105.458C3.35117 108.684 4.82188 112.034 7.08089 114.754C10.7405 119.161 15.4678 122.509 19.3562 126.701C21.7518 129.283 24.0935 131.915 26.3794 134.593C27.9089 136.385 29.8251 137.93 31.0151 139.987C32.5264 142.599 29.7521 145.253 30.7619 147.316C31.7361 149.306 35.5921 149.432 37.4208 149.427C39.5285 149.422 41.6365 149.295 43.7286 149.044C45.5868 148.821 47.314 149.33 49.0893 149.093C49.9383 148.98 50.7908 148.497 51.0921 147.704C51.2759 147.22 51.2377 146.685 51.1968 146.169C51.0693 144.562 50.9419 142.955 50.8146 141.349C50.7158 140.103 50.6356 138.77 51.2657 137.688C51.6017 137.111 52.1127 136.658 52.5712 136.171C53.128 135.578 53.5807 134.959 53.9465 134.317Z" fill="white"/>
<path d="M37.3539 150.783C33.0451 150.784 30.4915 149.845 29.5456 147.913C28.8476 146.486 29.2926 145.045 29.6853 143.774C30.1087 142.403 30.3309 141.51 29.8435 140.667C29.14 139.452 28.1257 138.408 27.0517 137.303C26.4683 136.702 25.8867 136.102 25.35 135.474C23.0876 132.823 20.7371 130.182 18.3639 127.624C16.688 125.817 14.7985 124.122 12.9712 122.484C10.5992 120.357 8.14601 118.157 6.0399 115.621C2.55085 111.42 2.65302 108.076 3.62852 105.782C2.36929 104.616 0.974652 102.992 0.435514 100.899C-0.055008 98.9948 0.392432 96.6179 1.85477 95.1174C1.2227 94.3674 0.622 93.4997 0.277956 92.4817C-0.402745 90.4659 0.197942 88.3288 1.73906 87.2842C2.2782 86.9194 2.93552 86.6803 3.74916 86.5528C7.11635 86.0216 9.77759 87.8315 11.1298 89.0368C12.1631 88.2721 13.8255 87.3717 15.5586 87.731C17.1084 88.0546 19.4453 89.8454 23.6242 93.9114C25.3346 95.5746 27.1502 97.1904 28.9061 98.7526C29.753 99.5063 30.6011 100.261 31.4443 101.026C31.7779 101.329 32.1096 101.64 32.4426 101.953C34.1985 103.602 35.8578 105.16 38.0353 105.676C38.1553 105.685 38.4882 105.686 38.8748 105.677C36.4954 100.575 35.0097 92.9254 39.7512 89.6821C40.8245 88.9481 42.1035 88.754 43.1682 89.1595C45.0928 89.8947 45.555 92.3991 45.9255 94.4112C46.0166 94.9035 46.0947 95.3491 46.1926 95.6751C46.8647 97.9232 47.6654 100.267 48.7135 103.053C49.7881 105.907 50.9661 108.786 52.1059 111.571C52.85 113.389 53.5935 115.206 54.3167 117.032C55.2848 119.478 56.3815 122.25 56.6013 125.194C56.8308 128.275 56.9244 131.827 55.1229 134.989C55.1229 134.99 55.1227 134.99 55.1223 134.99C54.6933 135.742 54.1665 136.452 53.5572 137.101L53.2224 137.446C52.9079 137.767 52.6106 138.071 52.4358 138.371C52.0296 139.068 52.0727 140.084 52.1644 141.241L52.5466 146.062C52.5915 146.631 52.6531 147.41 52.3577 148.186C51.9035 149.381 50.7199 150.243 49.2687 150.437C48.2335 150.574 47.2623 150.498 46.3212 150.424C45.4787 150.358 44.6816 150.294 43.8902 150.391C41.7625 150.646 39.5869 150.778 37.4241 150.783L37.3539 150.783ZM4.93391 89.1724C4.68403 89.1724 4.42861 89.1909 4.16828 89.2322C3.75592 89.2969 3.45803 89.3943 3.25739 89.5305C2.68871 89.9156 2.60008 90.8917 2.84319 91.6121C3.18785 92.6296 4.03779 93.5274 4.86006 94.3957C5.16348 94.7156 5.29211 95.163 5.20534 95.5956C5.11917 96.0276 4.82806 96.3905 4.42493 96.5692C3.14539 97.1349 2.71949 98.906 3.05862 100.222C3.4125 101.597 4.40524 102.931 6.1827 104.418C6.69722 104.849 6.8197 105.591 6.47074 106.164C5.13457 108.361 5.69034 110.959 8.12264 113.887C10.1013 116.27 12.4789 118.402 14.7782 120.464C16.6511 122.144 18.5879 123.88 20.3482 125.778C22.7466 128.363 25.1223 131.033 27.4093 133.712C27.9079 134.296 28.4501 134.853 28.9929 135.411C30.1346 136.586 31.3157 137.801 32.1872 139.307C33.3042 141.238 32.7079 143.167 32.2727 144.576C31.9939 145.479 31.7527 146.259 31.9779 146.72C32.1336 147.038 32.9811 148.072 37.3521 148.072H37.418C39.4748 148.067 41.544 147.941 43.5677 147.698C44.6262 147.571 45.5975 147.647 46.5336 147.721C47.37 147.787 48.159 147.849 48.9111 147.749C49.3401 147.692 49.734 147.465 49.8269 147.221C49.9051 147.015 49.8743 146.622 49.8466 146.276L49.465 141.456C49.3653 140.206 49.2293 138.493 50.0959 137.005C50.4417 136.412 50.8923 135.952 51.2899 135.547L51.5853 135.241C52.0481 134.749 52.4469 134.212 52.7707 133.646C54.0508 131.398 54.1481 128.723 53.9006 125.395C53.7117 122.864 52.7393 120.407 51.7982 118.031C51.08 116.215 50.3396 114.407 49.5998 112.599C48.4532 109.797 47.2672 106.9 46.1791 104.009C45.1082 101.163 44.2884 98.7624 43.5978 96.4534C43.468 96.0195 43.3683 95.4772 43.2624 94.9035C43.1245 94.1566 42.706 91.8851 42.2032 91.6934C41.981 91.6084 41.5994 91.7015 41.2794 91.9209C37.3675 94.5972 40.2251 102.761 42.1287 106.075C42.3995 106.547 42.3595 107.183 42.0321 107.617C41.1735 108.755 37.4494 108.323 37.4149 108.315C34.5315 107.633 32.4371 105.666 30.5894 103.93C30.2676 103.628 29.9475 103.328 29.625 103.035C28.7886 102.276 27.9473 101.528 27.1072 100.78C25.3291 99.1975 23.4901 97.562 21.7373 95.8562C17.1084 91.3533 15.5328 90.4961 15.0054 90.3858C14.0212 90.1762 12.5724 91.2707 12.0235 91.8309C11.7539 92.1057 11.3661 92.2536 10.9944 92.2364C10.6097 92.2185 10.2497 92.0398 10.006 91.7415C9.98566 91.7169 7.84012 89.1724 4.93391 89.1724Z" fill="#231815"/>
<path d="M18.4865 117.692C18.2538 117.692 18.0187 117.632 17.8033 117.506C16.4948 116.739 14.6325 114.828 12.4765 112.614C10.7151 110.806 7.85747 107.874 6.65301 107.282C6.24866 107.559 5.70705 107.607 5.24422 107.36C4.58568 107.005 4.33826 106.183 4.69153 105.523C4.99864 104.951 5.51502 104.586 6.14463 104.497C7.89623 104.238 10.0128 106.203 14.4152 110.721C16.2653 112.62 18.1787 114.583 19.1721 115.166C19.8171 115.544 20.0343 116.375 19.6565 117.021C19.4047 117.452 18.9518 117.692 18.4865 117.692Z" fill="#231815"/>
<path d="M21.4122 112.004C21.0608 112.004 20.7099 111.868 20.4447 111.597C17.64 108.731 15.156 106.355 12.28 103.604C10.7592 102.149 9.13744 100.599 7.31752 98.83C5.60223 97.1643 4.65934 96.9979 4.51903 97.0503C3.85987 97.4034 3.03946 97.1526 2.68803 96.492C2.33598 95.8314 2.58647 95.0093 3.24625 94.6568C4.79475 93.8304 6.85223 94.6001 9.20329 96.8839C11.0183 98.647 12.6345 100.193 14.151 101.643C17.0443 104.411 19.543 106.801 22.3797 109.699C22.9028 110.234 22.8942 111.092 22.36 111.617C22.0966 111.875 21.7544 112.004 21.4122 112.004Z" fill="#231815"/>
<path d="M26.5335 107.184C26.2221 107.184 25.9095 107.077 25.654 106.858C19.404 101.507 14.6939 97.1924 9.10984 90.9707C8.61009 90.4136 8.65563 89.5564 9.212 89.0554C9.77022 88.5562 10.6245 88.6019 11.1249 89.1577C16.6086 95.2684 21.2504 99.5199 27.4143 104.797C27.9829 105.284 28.0494 106.14 27.5632 106.709C27.2955 107.023 26.9157 107.184 26.5335 107.184Z" fill="#231815"/>
<path d="M31.725 126.537C31.352 126.537 30.9803 126.384 30.7126 126.083C27.09 122.007 23.4538 118.297 18.8071 117.662C18.0661 117.561 17.5479 116.877 17.6488 116.135C17.7491 115.393 18.431 114.872 19.1739 114.975C24.7358 115.735 28.7628 119.81 32.7362 124.28C33.2335 124.84 33.1836 125.697 32.6248 126.195C32.3669 126.425 32.045 126.537 31.725 126.537Z" fill="#231815"/>
<path d="M53.6854 202.877C53.7437 186.209 53.802 169.541 53.8602 152.873C53.8665 151.072 54.4514 146.027 53.1659 144.891C52.75 144.523 52.1396 144.509 51.5851 144.52C47.3087 144.606 43.0474 145.023 38.7721 145.134C36.5936 145.191 34.4103 145.176 32.2377 144.99C30.9519 144.88 27.8338 143.654 26.9035 144.76C26.4745 145.27 26.3473 145.963 26.2565 146.623C25.9695 148.711 25.8917 150.827 26.0248 152.929C26.067 153.596 26.128 154.282 25.9231 154.917C25.6386 155.798 24.8947 156.436 24.3469 157.182C22.9266 159.117 22.8669 161.7 22.8779 164.101C22.8894 166.645 22.9164 169.189 22.9432 171.733C23.0007 177.155 23.058 182.576 23.1154 187.998C23.1553 191.764 23.1952 195.53 23.235 199.296C23.3162 206.956 23.1658 215.774 27.8614 222.241C31.3157 226.998 40.0124 236.02 58.547 226.589L53.6854 202.877Z" fill="#DDDDDD"/>
<path d="M45.3519 233.579C34.857 233.579 29.3967 227.136 28.0131 225.232C23.3645 218.83 22.3256 204.949 22.1201 197.245C21.9281 190.007 21.8911 182.102 22.0037 172.367C22.0597 167.572 22.125 163.246 22.3515 158.858C22.3952 158.006 22.9349 157.134 23.5055 156.21C23.7861 155.756 24.2563 154.996 24.292 154.73C24.5456 151.174 24.9173 147.701 25.4282 144.118C25.5143 143.515 26.0282 143.064 26.6369 143.058L55.4067 142.803C55.779 142.845 56.0529 142.93 56.2868 143.162C56.52 143.394 56.6505 143.711 56.6499 144.041L56.6154 154.194L57.9405 159.541C57.9614 159.625 57.9731 159.711 57.9762 159.798L59.4115 204.752C59.433 205.433 58.8994 206.003 58.2193 206.025C57.5048 206.024 56.9699 205.512 56.9484 204.831L55.5175 160.008L54.1868 154.64C54.1628 154.541 54.1505 154.44 54.1505 154.338L54.1813 145.281L27.7214 145.516C27.293 148.673 26.9742 151.757 26.7496 154.911C26.6899 155.747 26.1606 156.603 25.6005 157.509C25.3186 157.964 24.8472 158.727 24.8115 158.995C24.5875 163.328 24.5234 167.628 24.4681 172.396C24.3554 182.098 24.3917 189.974 24.5831 197.179C24.7813 204.597 25.7488 217.918 30.006 223.781C31.9299 226.43 42.7306 238.878 66.3803 223.626C66.9515 223.257 67.7147 223.423 68.0833 223.995C68.4514 224.568 68.2864 225.331 67.7147 225.7C58.5917 231.583 51.192 233.579 45.3519 233.579Z" fill="#231815"/>
<path d="M41.8062 156.451C37.4106 156.451 32.1988 156.161 26.6603 155.248C25.9888 155.138 25.534 154.503 25.6448 153.831C25.7556 153.158 26.387 152.706 27.0604 152.814C41.5729 155.205 54.1653 153.145 54.2908 153.125C54.9617 153.013 55.5974 153.465 55.7101 154.137C55.8227 154.809 55.3703 155.444 54.6995 155.558C54.3678 155.614 49.2643 156.451 41.8062 156.451Z" fill="#231815"/>
<path d="M138.17 98.7364C135.207 94.8837 132.453 88.4387 132.453 77.792L119.37 79.387L106.288 77.792C106.553 92.3475 99.9321 99.1408 99.9321 99.1408L119.037 109.699L138.17 98.7364Z" fill="white"/>
<path d="M119.037 110.9C118.837 110.9 118.637 110.85 118.457 110.75L99.3524 100.192C99.025 100.011 98.8004 99.6871 98.7456 99.3161C98.6908 98.9451 98.8121 98.5698 99.0736 98.3018C99.1339 98.2389 105.34 91.6266 105.089 77.814C105.082 77.4664 105.227 77.133 105.485 76.9001C105.743 76.6671 106.087 76.563 106.433 76.5993L119.37 78.1769L132.307 76.5993C132.649 76.5587 132.99 76.6647 133.248 76.8927C133.505 77.1207 133.652 77.4479 133.652 77.7918C133.652 86.4846 135.492 93.2849 139.12 98.0035C139.332 98.2783 139.415 98.6315 139.346 98.9716C139.279 99.3124 139.067 99.6064 138.766 99.7789L119.632 110.741C119.448 110.847 119.242 110.9 119.037 110.9ZM101.773 98.7861L119.026 108.321L136.417 98.3566C133.171 93.5591 131.442 87.1101 131.268 79.1463L119.516 80.5791C119.418 80.5902 119.322 80.5902 119.225 80.5791L107.493 79.1488C107.379 89.9103 103.613 96.2996 101.773 98.7861Z" fill="#231815"/>
<path d="M124.483 84.1868C125.185 83.8916 125.877 83.5718 126.561 83.243C131.291 80.9699 135.979 78.0377 138.644 73.512C140.904 69.6735 142.567 66.5181 143.324 62.1041C145.017 52.2346 145.899 40.8364 142.801 31.1612C140.979 25.4701 137.34 20.5549 132.779 16.7418C128.395 13.0759 123.009 10.2522 117.258 10.8836C111.125 11.5569 105.7 12.2963 101.461 17.369C95.7115 24.2474 93.7754 33.3244 93.3548 42.0772C93.1573 46.1855 92.6303 50.2691 93.3636 54.3092C94.3106 59.5263 95.5891 64.6829 97.1898 69.7374C97.6455 71.1768 98.1328 72.62 98.8959 73.9224C99.7472 75.3757 100.919 76.6138 102.145 77.7673C106.912 82.2509 112.557 86.5145 119.386 85.655C121.148 85.4333 122.841 84.8774 124.483 84.1868Z" fill="white"/>
<path d="M144.339 48.4847C144.339 48.5074 144.338 48.5303 144.338 48.5532C144.28 51.7285 146.726 47.3319 146.785 45.867C147.147 36.8359 145.267 25.5387 139.883 18.0087C135.279 11.5694 126.856 8.61341 119.136 8.93928C114.869 9.11925 110.622 10.1336 106.804 12.0479C101.274 14.8194 96.7549 19.4429 93.7591 24.859C90.7635 30.2751 89.2555 36.4548 89.021 42.6415C88.9586 44.2881 88.9953 45.9925 89.6648 47.4977C90.3342 49.0032 91.7797 50.2696 93.4255 50.2613C93.6817 47.8636 93.2668 43.3045 95.4328 41.8218C96.47 41.1118 98.275 40.9577 99.4548 40.3324C103.994 37.9268 108.082 34.3877 111.41 30.4915C108.875 33.8768 108.081 38.2428 105.244 41.6394C111.17 41.1533 116.648 38.024 120.919 33.8825C125.303 29.6308 127.825 24.4084 131.298 19.5314C132.809 21.1433 134.762 22.2792 136.043 24.0995C137.647 26.3807 138.744 29.0406 139.982 31.5277C142.6 36.7825 144.478 42.5544 144.339 48.4847Z" fill="#231815"/>
<path d="M93.4102 51.6176C91.378 51.6176 89.3783 50.1866 88.4275 48.0501C87.644 46.2876 87.5997 44.384 87.668 42.5895C87.9203 35.9076 89.6171 29.5491 92.5744 24.2019C95.8001 18.3691 100.638 13.6222 106.197 10.8349C110.056 8.90106 114.511 7.77703 119.079 7.58415C128.074 7.20578 136.464 10.8965 140.984 17.2192C146.783 25.3296 148.482 37.3638 148.138 45.921C148.096 46.9637 146.68 51.0691 144.654 51.0346C144.138 51.0198 142.944 50.745 142.984 48.5283C142.984 48.5259 142.985 48.455 142.985 48.4531C143.103 43.4024 141.725 38.0638 138.771 32.133C138.463 31.5143 138.163 30.8845 137.862 30.2529C136.985 28.4109 136.079 26.5067 134.935 24.8804C134.274 23.94 133.365 23.1765 132.402 22.3673C132.107 22.1196 131.807 21.8676 131.51 21.6063C130.745 22.7389 130.014 23.8907 129.3 25.0154C127.163 28.3788 124.954 31.8569 121.861 34.8568C116.936 39.6328 111.073 42.5217 105.355 42.9907C104.801 43.0301 104.292 42.7479 104.042 42.2629C103.791 41.7779 103.855 41.1888 104.205 40.7691C105.081 39.7203 105.748 38.566 106.35 37.3434C104.327 38.99 102.221 40.4006 100.088 41.5308C99.4214 41.8839 98.6718 42.0941 97.9474 42.2974C97.2735 42.486 96.5768 42.6813 96.1964 42.9414C95.067 43.7148 94.9575 46.5877 94.8849 48.4882C94.8578 49.1975 94.8313 49.8557 94.7722 50.4054C94.699 51.0919 94.1223 51.6138 93.433 51.6175L93.4102 51.6176ZM144.339 48.487L145.343 48.524C145.337 48.5197 145.331 48.516 145.325 48.5117L144.339 48.487ZM120.35 10.2698C119.966 10.2698 119.581 10.2778 119.194 10.2944C115.004 10.4707 110.929 11.4967 107.41 13.2604C102.335 15.8049 97.9074 20.1569 94.944 25.5158C92.1916 30.4926 90.6117 36.4326 90.3748 42.6924C90.3188 44.1604 90.344 45.6911 90.9022 46.9464C91.1558 47.5171 91.6075 48.113 92.1738 48.4957C92.175 48.4587 92.1762 48.4217 92.1781 48.3847C92.2821 45.6498 92.412 42.2469 94.6682 40.702C95.4173 40.1899 96.3324 39.9335 97.2175 39.6858C97.804 39.5212 98.4115 39.3511 98.8207 39.1336C102.914 36.965 106.911 33.6718 110.382 29.6101C110.856 29.0536 111.686 28.9735 112.258 29.4332C112.828 29.8911 112.933 30.7193 112.494 31.3048C111.398 32.769 110.642 34.4581 109.842 36.2459C109.314 37.4254 108.776 38.6264 108.123 39.7967C112.252 38.7836 116.372 36.4036 119.977 32.9083C122.84 30.1314 124.868 26.9393 127.014 23.5598C128.02 21.9754 129.06 20.3374 130.195 18.7438C130.431 18.4135 130.802 18.2058 131.207 18.1781C131.616 18.1516 132.008 18.3063 132.285 18.6033C132.841 19.1955 133.474 19.7273 134.143 20.29C135.196 21.1743 136.285 22.0894 137.15 23.3188C138.426 25.1324 139.382 27.142 140.307 29.0857C140.601 29.7032 140.894 30.3182 141.195 30.9227C143.535 35.6204 144.948 39.9988 145.47 44.1918C145.536 36.2446 143.83 25.859 138.782 18.798C134.978 13.4786 127.991 10.2698 120.35 10.2698Z" fill="#231815"/>
<path d="M117.244 65.237C116.496 65.237 115.889 64.6294 115.889 63.8806C115.889 63.1319 116.496 62.5243 117.244 62.5243C117.6 62.5243 117.801 62.4848 118.081 62.43C118.41 62.3659 118.82 62.2852 119.439 62.2852C120.186 62.2852 120.793 62.8928 120.793 63.6415C120.793 64.3903 120.186 64.9979 119.439 64.9979C119.083 64.9979 118.881 65.0373 118.601 65.0922C118.272 65.1563 117.862 65.237 117.244 65.237Z" fill="#231815"/>
<path d="M118.658 74.2108C115.955 74.2108 113.274 73.515 111.358 72.1494C110.749 71.715 110.606 70.8682 111.04 70.2581C111.475 69.6474 112.319 69.5051 112.929 69.9395C115.637 71.8696 120.772 72.0225 123.92 70.2668C124.573 69.902 125.399 70.1374 125.762 70.7912C126.126 71.4457 125.892 72.2714 125.238 72.6356C123.346 73.6913 120.993 74.2108 118.658 74.2108Z" fill="#231815"/>
<path d="M109.551 50.5093C109.551 52.1454 108.226 53.4717 106.592 53.4717C104.958 53.4717 103.634 52.1454 103.634 50.5093C103.634 48.8732 104.958 47.5469 106.592 47.5469C108.226 47.5469 109.551 48.8732 109.551 50.5093Z" fill="#231815"/>
<path d="M133.408 50.5093C133.408 52.1454 132.084 53.4717 130.45 53.4717C128.816 53.4717 127.491 52.1454 127.491 50.5093C127.491 48.8732 128.816 47.5469 130.45 47.5469C132.084 47.5469 133.408 48.8732 133.408 50.5093Z" fill="#231815"/>
<path d="M101.9 44.1314C101.652 44.1314 101.413 43.9921 101.297 43.753C101.135 43.4196 101.274 43.0184 101.607 42.8563C104.557 41.4223 108.314 41.2572 111.411 42.4231C111.757 42.5538 111.932 42.9402 111.802 43.2871C111.671 43.6347 111.284 43.8091 110.939 43.679C108.176 42.6382 104.824 42.7861 102.192 44.0642C102.098 44.1098 101.998 44.1314 101.9 44.1314Z" fill="#231815"/>
<path d="M133.944 44.1314C133.846 44.1314 133.746 44.1098 133.652 44.0642C131.02 42.7855 127.669 42.6382 124.905 43.679C124.56 43.8091 124.172 43.6347 124.042 43.2871C123.911 42.9402 124.087 42.5538 124.433 42.4231C127.526 41.2572 131.285 41.4223 134.237 42.8563C134.57 43.0184 134.709 43.4196 134.548 43.753C134.431 43.9921 134.192 44.1314 133.944 44.1314Z" fill="#231815"/>
<path d="M113.679 85.8579C113.602 85.8579 113.523 85.8505 113.445 85.8351C108.059 84.7665 99.8122 77.1392 96.7201 72.5629C92.6821 66.5872 89.9242 33.9167 89.9186 33.6203C89.9075 32.9572 90.435 32.4106 91.0979 32.3989C91.7139 32.4193 92.306 32.916 92.3177 33.5797C92.3565 34.9785 95.2393 66.0849 98.7068 71.217C101.887 75.9227 109.683 82.6398 113.911 83.4785C114.561 83.6073 114.983 84.2396 114.855 84.8904C114.741 85.4622 114.24 85.8579 113.679 85.8579Z" fill="#231815"/>
<path d="M93.2719 49.1273C93.2719 49.1273 86.3441 45.555 84.7195 52.2503C82.0398 63.2946 95.3896 67.1703 95.3896 67.1703L93.2719 49.1273Z" fill="white"/>
<path d="M95.3894 68.3711C95.2773 68.3711 95.1653 68.3557 95.0552 68.3237C90.0564 66.8724 81.2196 61.5862 83.554 51.9666C84.0901 49.7579 85.2004 48.2543 86.8548 47.4975C89.9339 46.0863 93.6636 47.9776 93.8205 48.0589C94.1757 48.242 94.4163 48.5895 94.4631 48.987L96.5809 67.0301C96.6277 67.4295 96.4714 67.8263 96.1648 68.0864C95.9451 68.2725 95.6694 68.3711 95.3894 68.3711ZM89.4089 49.3796C88.8636 49.3796 88.3239 49.4652 87.845 49.6852C86.8843 50.1277 86.243 51.0595 85.8854 52.5335C84.0452 60.1152 90.6639 63.9545 93.9701 65.3675L92.16 49.9471C91.4664 49.6772 90.4281 49.3796 89.4089 49.3796Z" fill="#231815"/>
<path d="M144.629 49.1268C144.629 49.1268 151.556 45.5545 153.181 52.2498C155.861 63.2941 142.511 67.1699 142.511 67.1699L144.629 49.1268Z" fill="white"/>
<path d="M142.511 68.371C142.23 68.371 141.955 68.2724 141.736 68.0863C141.429 67.8262 141.273 67.4293 141.319 67.03L143.437 48.9869C143.484 48.5894 143.725 48.2418 144.08 48.0588C144.237 47.9775 147.968 46.0899 151.046 47.4974C152.7 48.2535 153.811 49.7572 154.347 51.9664C156.681 61.5861 147.844 66.8723 142.845 68.3235C142.735 68.3556 142.622 68.371 142.511 68.371ZM145.74 49.947L143.93 65.3674C147.236 63.9543 153.855 60.1151 152.016 52.5334C151.658 51.0593 151.017 50.1275 150.055 49.6851C148.682 49.054 146.806 49.5335 145.74 49.947Z" fill="#231815"/>
<path d="M124.221 85.8579C123.66 85.8579 123.159 85.4622 123.046 84.8904C122.917 84.2396 123.339 83.6073 123.989 83.4785C128.218 82.6398 136.014 75.9227 139.194 71.217C142.661 66.0849 145.544 34.9786 145.583 33.5766C145.601 32.916 146.169 32.3687 146.809 32.4045C147.469 32.4193 147.993 32.9597 147.982 33.6204C147.976 33.9168 145.218 66.5872 141.18 72.5629C138.088 77.1392 129.841 84.7665 124.456 85.8351C124.377 85.8505 124.298 85.8579 124.221 85.8579Z" fill="#231815"/>
<path d="M173.903 245.833C173.246 245.833 172.703 245.311 172.681 244.648L169.805 157.055C169.801 156.945 169.813 156.834 169.839 156.726C169.873 156.586 173.285 142.608 177.276 131.728C177.509 131.092 178.213 130.767 178.846 131C179.481 131.234 179.805 131.938 179.573 132.573C175.86 142.693 172.646 155.561 172.256 157.144L175.127 244.568C175.149 245.244 174.62 245.811 173.944 245.833C173.93 245.833 173.917 245.833 173.903 245.833Z" fill="#231815"/>
<path d="M119.136 146.182C118.664 146.182 118.214 145.907 118.014 145.445L98.279 99.9623C98.0095 99.3417 98.2938 98.6201 98.9136 98.3508C99.534 98.0821 100.254 98.3662 100.523 98.9862L120.258 144.469C120.527 145.09 120.243 145.811 119.623 146.081C119.464 146.15 119.299 146.182 119.136 146.182Z" fill="#231815"/>
<path d="M125.45 135.603C125.013 135.603 124.592 135.369 124.371 134.957C124.051 134.362 124.274 133.619 124.869 133.299L137.272 126.626C137.596 126.451 137.981 126.432 138.322 126.574L147.806 130.531L148.786 105.567C148.813 104.891 149.355 104.367 150.057 104.391C150.732 104.417 151.257 104.987 151.231 105.663L150.182 132.387C150.166 132.788 149.955 133.156 149.618 133.371C149.28 133.588 148.858 133.624 148.488 133.47L137.918 129.06L126.028 135.457C125.844 135.556 125.645 135.603 125.45 135.603Z" fill="#231815"/>
<path d="M113.414 135.602C113.219 135.602 113.021 135.556 112.836 135.456L100.925 129.049L89.036 133.576C88.6544 133.722 88.2248 133.667 87.8918 133.429C87.5589 133.192 87.3662 132.805 87.3779 132.395L88.1873 104.611C88.207 103.934 88.7966 103.403 89.4459 103.422C90.121 103.442 90.6528 104.006 90.6331 104.682L89.8773 130.634L100.576 126.56C100.909 126.433 101.278 126.457 101.591 126.625L113.994 133.298C114.589 133.619 114.813 134.361 114.493 134.957C114.272 135.369 113.85 135.602 113.414 135.602Z" fill="#231815"/>
<path d="M68.4261 245.473C67.7546 245.473 67.2081 244.93 67.2025 244.257L66.4837 152.552C65.8898 150.951 61.9391 140.239 58.9178 130.594C58.7159 129.948 59.0748 129.261 59.7191 129.058C60.3641 128.856 61.0504 129.215 61.2529 129.861C64.492 140.201 68.8083 151.782 68.8514 151.898C68.9012 152.033 68.9277 152.174 68.9289 152.317L69.6496 244.238C69.6545 244.914 69.1111 245.467 68.4359 245.473H68.4261Z" fill="#231815"/>
<path d="M120.676 158.801C120.366 158.801 120.055 158.684 119.817 158.448C119.336 157.972 119.331 157.197 119.806 156.715L139.735 136.513L136.727 129.485C136.46 128.863 136.749 128.142 137.37 127.876C137.99 127.607 138.71 127.898 138.976 128.52L142.309 136.305C142.505 136.763 142.404 137.294 142.054 137.649L121.547 158.437C121.307 158.68 120.992 158.801 120.676 158.801Z" fill="#231815"/>
<path d="M116.623 244.788C115.951 244.788 115.405 244.246 115.399 243.572L114.715 153.716C114.708 152.819 114.928 151.926 115.351 151.132L137.153 99.3909C137.416 98.7673 138.134 98.4746 138.756 98.739C139.378 99.0015 139.67 99.72 139.407 100.344L117.557 152.186C117.278 152.72 117.158 153.208 117.162 153.697L117.846 243.554C117.851 244.23 117.308 244.782 116.632 244.788L116.623 244.788Z" fill="#231815"/>
<path d="M128.416 243.73C127.754 243.73 127.209 243.2 127.193 242.534L125.149 158.387C125.132 157.711 125.666 157.149 126.342 157.133C127.008 157.085 127.578 157.651 127.595 158.328L129.639 242.475C129.656 243.151 129.122 243.713 128.446 243.729C128.436 243.73 128.426 243.73 128.416 243.73Z" fill="#231815"/>
<path d="M90.5556 167.777C90.467 167.777 90.3777 167.767 90.2903 167.748L74.95 164.336C74.3899 164.212 73.9917 163.715 73.9917 163.14V156.09C73.9917 155.414 74.5395 154.865 75.2152 154.865H106.043C106.378 154.865 106.698 155.003 106.929 155.245C107.16 155.488 107.281 155.814 107.265 156.149L106.963 162.476C106.937 163.006 106.573 163.46 106.062 163.599L90.8769 167.734C90.7716 167.763 90.6639 167.777 90.5556 167.777ZM76.4388 162.157L90.5261 165.29L104.561 161.469L104.76 157.315H76.4388V162.157Z" fill="#231815"/>
<path d="M106.079 188.494H75.2152C74.5395 188.494 73.9917 187.945 73.9917 187.269V163.14C73.9917 162.463 74.5395 161.915 75.2152 161.915C75.891 161.915 76.4388 162.463 76.4388 163.14V186.043H104.855V162.094C104.855 161.418 105.403 160.869 106.079 160.869C106.755 160.869 107.302 161.418 107.302 162.094V187.269C107.302 187.945 106.755 188.494 106.079 188.494Z" fill="#231815"/>
<path d="M90.1586 184.943C89.4828 184.943 88.9351 184.395 88.9351 183.718V170.809C88.9351 170.132 89.4828 169.583 90.1586 169.583C90.8344 169.583 91.3821 170.132 91.3821 170.809V183.718C91.3821 184.395 90.8344 184.943 90.1586 184.943Z" fill="#231815"/>
<path d="M149.946 167.777C149.857 167.777 149.768 167.767 149.68 167.748L134.34 164.336C133.78 164.212 133.382 163.715 133.382 163.14V156.09C133.382 155.414 133.93 154.865 134.605 154.865H165.433C165.768 154.865 166.088 155.003 166.319 155.245C166.55 155.488 166.672 155.814 166.655 156.149L166.353 162.476C166.327 163.006 165.963 163.46 165.452 163.599L150.267 167.734C150.162 167.763 150.054 167.777 149.946 167.777ZM135.829 162.157L149.916 165.29L163.951 161.469L164.15 157.315H135.829V162.157Z" fill="#231815"/>
<path d="M165.469 188.494H134.605C133.93 188.494 133.382 187.945 133.382 187.269V163.14C133.382 162.463 133.93 161.915 134.605 161.915C135.281 161.915 135.829 162.463 135.829 163.14V186.043H164.245V162.094C164.245 161.418 164.793 160.869 165.469 160.869C166.145 160.869 166.692 161.418 166.692 162.094V187.269C166.692 187.945 166.145 188.494 165.469 188.494Z" fill="#231815"/>
<path d="M149.549 184.943C148.873 184.943 148.325 184.395 148.325 183.718V170.809C148.325 170.132 148.873 169.583 149.549 169.583C150.225 169.583 150.772 170.132 150.772 170.809V183.718C150.772 184.395 150.225 184.943 149.549 184.943Z" fill="#231815"/>
<path d="M126.198 123.209C125.861 123.209 125.525 123.07 125.284 122.799L118.635 115.325L112.514 122.263C112.066 122.77 111.293 122.819 110.787 122.37C110.28 121.922 110.232 121.148 110.68 120.641L117.715 112.668C117.947 112.405 118.279 112.254 118.629 112.253H118.632C118.981 112.253 119.313 112.403 119.545 112.664L127.111 121.169C127.561 121.675 127.516 122.449 127.011 122.899C126.778 123.107 126.487 123.209 126.198 123.209Z" fill="#231815"/>
</g>
<defs>
<clipPath id="clip0_7_2904">
<rect width="200" height="245.833" fill="white"/>
</clipPath>
</defs>
</svg>
