<svg width="200" height="245" viewBox="0 0 200 245" fill="none" xmlns="http://www.w3.org/2000/svg">
<g clip-path="url(#clip0_7_2843)">
<path d="M144.24 118.95H141.073V123.127H144.24V118.95Z" fill="#231815"/>
<path d="M63.0137 92.0299C63.4616 91.9576 63.9635 91.9976 64.5359 92.1866C65.4971 92.5041 66.3299 93.1122 67.1532 93.7003C69.4469 95.3386 71.8217 96.9017 74.4311 97.9707C77.0405 99.0397 79.9161 99.5974 82.7027 99.1611C86.9403 98.4978 90.5339 95.649 94.6959 94.6142C95.7809 94.3444 96.9325 94.2028 98.0112 94.4964C100.528 95.1812 101.316 98.1564 102.449 100.19C103.841 102.69 105.02 105.375 105.268 108.255C105.564 111.695 104.519 115.09 103.638 118.433C97.7602 140.745 98.3875 165.632 84.8465 184.499C83.3271 186.616 81.4489 188.749 78.8682 189.328C76.2212 189.922 73.4825 188.714 71.3107 187.121C64.2566 181.95 61.2634 173.127 59.1471 164.766C55.5531 150.567 53.3463 136.033 52.5663 121.427C52.2299 115.127 52.2059 108.574 54.8588 102.822C55.9952 100.358 57.5769 98.138 59.1684 95.9518C60.2934 94.4064 61.222 92.3191 63.0137 92.0299Z" fill="white"/>
<path d="M1.87531 242.881C1.87568 242.888 2.73956 242.881 2.78406 242.881H93.4326C100.961 242.881 134.668 243.341 134.668 243.341L134.915 227.79C134.915 227.79 143.973 232.287 150.052 231.032C155.758 229.855 160.952 225.477 162.086 219.774C163.276 213.786 160.898 206.546 159.842 200.643C158.611 193.763 157.365 186.885 156.104 180.01C153.647 166.62 150.612 153.323 149.593 139.748C149.355 136.574 148.468 133.455 147.267 130.517C145.998 127.409 143.969 124.7 142.725 121.6C142.463 120.947 142.235 120.28 141.928 119.647C140.836 117.401 138.738 115.699 136.354 114.941C134.038 114.205 131.84 113.257 129.616 112.279C125.772 110.568 122.126 108.43 118.307 106.66C115.853 105.523 113.359 104.435 110.781 103.591C109.667 103.226 108.501 103.033 107.39 102.68C103.799 101.539 103.134 101.592 101.357 104.963C99.338 108.791 97.0435 112.501 94.8953 116.259C90.0105 124.805 85.1219 133.357 79.73 141.593C73.4759 132.354 68.9399 122.114 63.167 112.59C61.5774 109.967 59.7107 107.53 58.0424 104.959C57.0985 103.504 55.7124 98.7744 53.8471 100.097C52.8419 100.81 51.6532 101.21 50.4836 101.6C42.2319 104.354 33.5798 106.857 25.7468 110.681C13.5692 116.625 6.41679 128.19 5.65526 137.765C2.78861 173.809 2.50772 202.663 1.85055 238.668C1.82568 240.072 1.80088 241.477 1.87531 242.881Z" fill="#DDDDDD"/>
<path d="M87.8834 62.1339C81.3732 62.5657 74.7772 62.371 68.2561 62.0809C65.4093 61.9542 62.5607 61.8128 59.7256 61.5178C57.9579 61.334 55.2205 61.4217 53.6282 60.5865C50.1692 58.7722 48.9127 52.5834 48.0962 49.2045C46.2802 41.6882 44.7332 33.7135 47.0155 26.325C48.5166 21.4657 51.6405 17.166 55.6208 13.9911C56.5069 13.2843 57.4459 12.6198 58.1534 11.735C59.2547 10.3576 59.5981 8.82031 61.1285 7.85738C62.8366 6.78258 64.6796 5.71517 66.5237 4.87863C71.0519 2.82453 76.0256 1.96531 80.9637 1.36895C82.3985 1.19571 83.9226 1.05637 85.2279 1.67572C84.3175 2.57663 83.5787 3.64985 83.0627 4.82116C84.8415 4.43904 86.6203 4.05686 88.3991 3.67474C88.9803 3.54987 89.59 3.42564 90.1616 3.58884C90.7332 3.75204 91.2401 4.30552 91.1337 4.88924C91.0318 5.44745 90.4642 5.76805 90.0174 6.11897C89.5706 6.46989 89.1892 7.12776 89.5461 7.56944C92.6526 7.19357 95.8133 7.26608 98.8992 7.78405C102.138 8.3278 97.5653 11.4712 98.768 12.1564C107.143 16.9277 109.842 26.2242 110.298 35.1623C110.653 42.1262 110.713 49.2557 108.555 55.8877C107.799 58.2118 106.46 58.6646 104.289 59.3217C98.9499 60.9379 93.4479 61.7647 87.8834 62.1339Z" fill="#231815"/>
<path d="M79.7076 63.6111C76.1054 63.6111 72.3418 63.4878 68.2019 63.3037C65.3086 63.1748 62.4734 63.0344 59.598 62.735C59.1753 62.6912 58.6944 62.6637 58.1876 62.6344C56.4538 62.5342 54.4883 62.4204 53.0574 61.6698C49.3303 59.7148 47.9693 53.9789 47.0687 50.1831L46.9037 49.4914C45.0543 41.8369 43.4492 33.715 45.8436 25.9643C47.3604 21.0521 50.5609 16.4603 54.8548 13.0349L55.3264 12.6639C56.0322 12.1125 56.6986 11.5916 57.1949 10.9715C57.5317 10.5496 57.795 10.095 58.0732 9.61326C58.6183 8.67017 59.2358 7.60095 60.4739 6.82193C62.5599 5.51 64.3722 4.50987 66.0163 3.76447C70.8423 1.57514 76.2061 0.710701 80.8165 0.153737C82.4526 -0.0439494 84.1838 -0.174704 85.7544 0.570381C86.1154 0.741536 86.37 1.07708 86.4368 1.47028C86.5042 1.86319 86.375 2.2641 86.0913 2.54474C85.9398 2.69493 85.7934 2.85098 85.6518 3.01289L88.1409 2.47813C88.7645 2.34459 89.6163 2.16017 90.4989 2.41182C91.5886 2.723 92.5757 3.81658 92.3402 5.10815C92.2629 5.53066 92.0763 5.8702 91.8513 6.14714C94.2754 6.0318 96.7051 6.17459 99.1027 6.57705C100.154 6.75345 100.843 7.20618 101.152 7.92198C101.65 9.08063 100.88 10.2205 100.262 11.1364C100.192 11.2388 100.11 11.3615 100.032 11.4821C107.079 15.8281 110.944 23.769 111.523 35.0999C111.856 41.6371 112.02 49.2027 109.722 56.2657C108.75 59.25 106.757 59.8536 104.645 60.4929C99.6472 62.0059 94.1913 62.9422 87.9647 63.3551C85.2433 63.5355 82.5249 63.6111 79.7076 63.6111ZM82.9013 2.44669C82.3321 2.44669 81.7276 2.5096 81.1113 2.58392C76.4639 3.1452 71.542 3.94674 67.0312 5.99296C65.4897 6.69211 63.7726 7.64043 61.7824 8.89253C61.058 9.34865 60.6785 10.0052 60.1982 10.8364C59.9015 11.3498 59.5647 11.9321 59.1129 12.498C58.4373 13.3427 57.6245 13.9774 56.8389 14.5914L56.3865 14.947C52.4733 18.0689 49.5615 22.2379 48.1875 26.6853C45.9759 33.8436 47.5187 41.5933 49.2883 48.9178L49.4558 49.6191C50.2056 52.7786 51.4603 58.0664 54.1984 59.503C55.1602 60.0072 56.9174 60.109 58.3291 60.1907C58.8767 60.2225 59.3959 60.253 59.8527 60.3002C62.6607 60.5925 65.4563 60.731 68.3107 60.8581C75.6072 61.1825 81.714 61.3167 87.8015 60.9127C93.8397 60.512 99.1163 59.6084 103.933 58.1503C106.073 57.5024 106.841 57.1927 107.389 55.5095C109.558 48.8431 109.395 41.5434 109.073 35.2246C108.522 24.4346 104.85 17.0309 98.1595 13.2194C97.7571 12.9899 97.4796 12.6235 97.3776 12.1875C97.1761 11.3258 97.6867 10.5693 98.2275 9.76838C98.3641 9.56607 98.578 9.24935 98.7183 8.99491L98.696 8.99121C95.7193 8.4916 92.6907 8.4219 89.6935 8.78459C89.2714 8.83424 88.8566 8.66647 88.5902 8.3371C88.275 7.94636 88.1335 7.44921 88.1916 6.93789C88.2651 6.28964 88.6644 5.62379 89.259 5.15688C89.3443 5.08996 89.4333 5.02365 89.5236 4.95734C89.6021 4.89874 89.7022 4.82473 89.7869 4.75596C89.4945 4.69181 89.0513 4.78679 88.6576 4.87129L83.321 6.01762C82.8704 6.11384 82.4038 5.951 82.112 5.59481C81.8209 5.2383 81.7542 4.74917 81.9396 4.32821C82.2319 3.66577 82.5824 3.03725 82.9891 2.44729C82.96 2.44697 82.9304 2.44669 82.9013 2.44669Z" fill="#231815"/>
<path d="M134.565 244.166C133.906 244.166 133.362 243.645 133.34 242.983L130.456 155.462C130.452 155.352 130.463 155.241 130.49 155.133C130.524 154.993 133.945 141.027 137.946 130.156C138.18 129.521 138.884 129.196 139.52 129.429C140.156 129.662 140.483 130.365 140.249 131C136.526 141.115 133.305 153.968 132.913 155.551L135.791 242.902C135.814 243.578 135.283 244.144 134.606 244.166C134.592 244.166 134.579 244.166 134.565 244.166Z" fill="#231815"/>
<path d="M78.3586 81.7606L62.2352 81.7427L61.6257 94.2373L78.4203 104.395H80.0565L96.851 94.2373L96.2416 81.7427L80.1182 81.7606H78.3586Z" fill="white"/>
<path d="M80.0561 105.619H78.4201C78.1957 105.619 77.9763 105.558 77.784 105.442L60.9899 95.2841C60.6054 95.0512 60.3792 94.6266 60.4008 94.1778L61.0103 81.6831C61.0418 81.0308 61.5814 80.5186 62.2353 80.5186L80.1179 80.5364L96.2402 80.5186C96.8942 80.5186 97.435 81.0308 97.4665 81.6831L98.076 94.1778C98.0976 94.6266 97.8714 95.0512 97.4869 95.2841L80.6921 105.442C80.4999 105.558 80.2805 105.619 80.0561 105.619ZM78.7625 103.171H79.7137L95.59 93.5685L95.0733 82.9679L78.3582 82.9845L63.4035 82.9679L62.8868 93.5685L78.7625 103.171Z" fill="#231815"/>
<path d="M54.2951 51.8328C54.1418 50.0805 53.9478 48.333 53.6886 46.5936C52.9253 41.4701 52.0463 35.7434 54.0583 30.7876C56.5827 24.5697 59.4616 19.6105 65.5312 16.1874C67.7646 14.928 70.1238 14.0996 72.5611 13.3389C74.4795 12.7402 76.0853 11.7591 78.1207 11.6431C83.3954 11.3424 89.2197 12.3572 93.8855 14.8666C98.975 17.604 102.907 22.4104 104.576 27.9345C105.933 32.4276 105.98 37.4382 105.531 42.0758C105.057 46.975 104.291 52.2555 104.568 57.1341C104.858 62.2366 104 67.5511 102.669 72.471C102.284 73.8939 101.837 75.3146 101.109 76.5966C99.4501 79.514 96.5071 81.4374 93.6404 83.1887C89.2053 85.8983 84.3667 88.553 79.1707 88.3429C77.091 88.2588 75.0563 87.712 73.0881 87.0363C69.2242 85.7097 65.5024 83.848 62.4048 81.1886C59.3072 78.5292 56.8561 75.0311 55.8403 71.0814C55.2963 68.966 55.1686 66.7693 55.0433 64.5889C54.7992 60.3411 54.6661 56.0731 54.2951 51.8328Z" fill="white"/>
<path d="M107.078 50.5978C107.078 50.5978 112.39 47.2626 113.871 53.2021C116.315 62.9994 104.992 66.4375 104.992 66.4375L107.078 50.5978Z" fill="white"/>
<path d="M104.992 67.6614C104.705 67.6614 104.423 67.5608 104.199 67.3712C103.881 67.1022 103.722 66.6902 103.775 66.2779L105.862 50.4382C105.909 50.0771 106.116 49.7557 106.425 49.5617C106.724 49.3733 109.425 47.7518 111.955 48.7698C113.485 49.3838 114.53 50.7759 115.062 52.9063C117.217 61.5483 109.651 66.3022 105.349 67.6083C105.232 67.6438 105.111 67.6614 104.992 67.6614ZM108.212 51.381L106.481 64.5197C109.323 63.1569 114.257 59.8148 112.681 53.4978C112.351 52.1757 111.801 51.3498 111.046 51.0433C110.131 50.6714 108.94 51.0455 108.212 51.381Z" fill="#231815"/>
<path d="M53.4031 51.6726C53.4031 51.6726 48.2111 48.1555 46.5234 54.04C43.7394 63.7468 54.936 67.575 54.936 67.575L53.4031 51.6726Z" fill="white"/>
<path d="M54.9358 68.7991C54.8023 68.7991 54.6682 68.7772 54.5384 68.7331C50.2841 67.2787 42.888 62.2657 45.3437 53.7036C45.9494 51.5923 47.0422 50.2378 48.5924 49.6768C51.1574 48.7495 53.7992 50.4614 54.0921 50.66C54.3938 50.8648 54.5891 51.1929 54.6237 51.5556L56.1566 67.4579C56.1967 67.8721 56.0231 68.2779 55.6961 68.5357C55.4761 68.7087 55.2078 68.7991 54.9358 68.7991ZM50.1877 51.8548C49.9237 51.8548 49.6642 51.8921 49.4219 51.9806C48.6567 52.2609 48.0781 53.0671 47.7023 54.3772C45.9074 60.6352 50.7211 64.146 53.5136 65.6069L52.2422 52.4164C51.7137 52.1502 50.9325 51.8548 50.1877 51.8548Z" fill="#231815"/>
<path d="M87.2708 88.2376C86.6947 88.2376 86.1811 87.8308 86.0679 87.2458C85.9394 86.5821 86.3739 85.94 87.039 85.8114C90.9076 85.0648 97.6213 79.5312 100.404 75.5251C103.414 71.1918 104.754 44.9266 104.801 42.234C104.813 41.5654 105.36 41.0313 106.027 41.0313C106.034 41.0313 106.042 41.0312 106.049 41.0316C106.726 41.0433 107.265 41.6009 107.254 42.2766C107.249 42.5606 106.161 71.5347 102.42 76.9196C99.2982 81.4142 92.1024 87.3275 87.505 88.2151C87.4265 88.2302 87.348 88.2376 87.2708 88.2376Z" fill="#231815"/>
<path d="M71.536 87.9651C71.4452 87.9651 71.3524 87.955 71.2604 87.9337C66.7761 86.9061 59.8553 81.8848 56.7 76.0477C53.6021 70.3164 52.3461 39.8793 52.3511 39.6042C52.3628 38.9282 52.9123 38.3851 53.599 38.4017C54.2752 38.4135 54.8142 38.9695 54.8037 39.6443C54.795 40.9541 56.221 70.0058 58.859 74.8856C61.6571 80.0612 67.9295 84.6588 71.8092 85.5479C72.4694 85.699 72.8816 86.3559 72.7302 87.0147C72.5998 87.5815 72.0948 87.9651 71.536 87.9651Z" fill="#231815"/>
<path d="M50.8685 49.1953C50.7626 49.0174 50.6673 48.8337 50.5862 48.6504C49.7127 46.6754 49.4194 44.3879 49.3983 42.248C49.3562 37.9661 50.5422 33.781 51.6189 29.6738C52.6996 25.5514 54.2967 21.8516 57.3426 18.7675C62.8233 13.2181 70.7621 10.4124 78.6641 9.41711C83.0793 8.86099 87.6988 8.83609 91.8353 10.4179C94.8975 11.5891 97.5515 13.5907 99.8373 15.8692C103.366 19.3862 106.072 23.7201 107.595 28.418C108.778 32.065 109.017 35.8877 108.645 39.6865C108.463 41.5557 108.138 43.4078 107.772 45.249C107.526 46.492 107.928 52.1147 105.39 50.5214C104.507 43.3593 102.686 36.3129 99.9878 29.6179C99.1251 27.4771 98.1382 25.3201 96.5017 23.6901C96.0751 23.2651 95.5915 22.8713 95.0153 22.6951C94.4081 22.5093 93.756 22.5809 93.1246 22.6482C82.7489 23.7544 72.1991 23.2195 61.9892 21.0696C58.9185 26.1295 56.6869 31.6923 55.3869 37.463C54.5128 41.3431 54.288 45.2159 53.6737 49.1188C53.2697 51.6851 51.7222 50.6282 50.8685 49.1953Z" fill="#231815"/>
<path d="M106.198 52.0297C105.784 52.0297 105.294 51.9076 104.737 51.5578C104.425 51.362 104.217 51.0364 104.172 50.6712C103.301 43.607 101.511 36.6773 98.85 30.0748C98.0953 28.2025 97.162 26.0776 95.6353 24.5566C95.2483 24.1711 94.9374 23.9518 94.6562 23.8658C94.2934 23.7551 93.7958 23.8081 93.2686 23.8642C83.0058 24.9578 72.6954 24.4801 62.5971 22.445C59.8231 27.1872 57.8013 32.3255 56.5836 37.7314C56.0496 40.1033 55.7554 42.5452 55.4705 44.9069C55.2974 46.3444 55.1182 47.8308 54.8851 49.309C54.5909 51.1804 53.6953 51.7333 52.9962 51.8678C51.8966 52.0797 50.7044 51.3151 49.8143 49.8209C49.6826 49.6001 49.5646 49.3722 49.4639 49.1437C48.6331 47.2652 48.198 44.9489 48.172 42.2602C48.1313 38.0975 49.1919 34.0719 50.2179 30.179L50.4324 29.3642C51.7508 24.3339 53.6125 20.8009 56.4693 17.9084C62.929 11.3676 72.0211 9.02038 78.511 8.20281C84.1344 7.49503 88.5093 7.83489 92.2741 9.27512C95.2032 10.3952 97.9605 12.2691 100.704 15.0033C104.408 18.6949 107.194 23.2033 108.762 28.0412C109.911 31.5859 110.283 35.5439 109.866 39.8054C109.662 41.8945 109.283 43.9392 108.976 45.487C108.942 45.6606 108.917 46.1384 108.895 46.5602C108.793 48.5417 108.666 51.0077 107.136 51.8006C106.894 51.9255 106.579 52.0297 106.198 52.0297ZM83.7617 10.2941C82.2394 10.2941 80.6002 10.4073 78.8176 10.6318C72.7127 11.4006 64.1831 13.5853 58.216 19.6268C55.6782 22.197 54.0093 25.3911 52.8059 29.9835L52.5908 30.8017C51.6056 34.5382 50.5869 38.4022 50.6246 42.2362C50.6481 44.5908 51.0128 46.5828 51.7088 48.1565C51.77 48.2959 51.8423 48.4344 51.922 48.5689C51.9226 48.5692 51.9226 48.5695 51.9232 48.5701C52.092 48.8538 52.2638 49.066 52.4072 49.2134C52.4257 49.1338 52.4443 49.0398 52.4622 48.9294C52.6878 47.4947 52.864 46.0304 53.0352 44.6146C53.3269 42.1924 53.6286 39.6876 54.1904 37.1948C55.5298 31.2473 57.8007 25.6089 60.9406 20.4358C61.2101 19.9914 61.7336 19.7659 62.2429 19.8723C72.3629 22.0033 82.7104 22.5279 92.9942 21.4316C93.7229 21.3532 94.5326 21.2672 95.3751 21.5253C96.267 21.798 96.9401 22.3972 97.3684 22.8243C99.2233 24.6719 100.28 27.0642 101.126 29.1613C103.593 35.2818 105.333 41.6755 106.31 48.1972C106.389 47.5329 106.425 46.8227 106.445 46.4344C106.476 45.8327 106.501 45.3578 106.57 45.0108C106.866 43.5185 107.231 41.5506 107.425 39.5676C107.809 35.6426 107.474 32.018 106.428 28.7949C104.979 24.3241 102.4 20.1539 98.9711 16.7353C96.4752 14.2483 93.9979 12.5559 91.3964 11.561C89.1775 10.7123 86.6878 10.2941 83.7617 10.2941Z" fill="#231815"/>
<path d="M79.6595 144.598C79.2287 144.598 78.8109 144.371 78.5865 143.969L54.3252 100.475C53.9958 99.8849 54.2084 99.1395 54.8005 98.8107C55.3927 98.4813 56.1393 98.6945 56.4688 99.285L80.7301 142.779C81.0595 143.369 80.8469 144.115 80.2548 144.444C80.0663 144.548 79.861 144.598 79.6595 144.598Z" fill="#231815"/>
<path d="M85.9703 106.024L81.8709 119.425L84.873 133.174L80.1068 143.731L74.5516 133.544L77.2936 119.858L73.7986 106.494L85.9703 106.024Z" fill="#024892"/>
<path d="M80.1071 144.955C79.659 144.955 79.2448 144.71 79.0297 144.316L73.4743 134.129C73.3371 133.878 73.2926 133.586 73.3489 133.304L76.0357 119.894L72.6121 106.803C72.5182 106.444 72.5923 106.062 72.8136 105.764C73.0355 105.466 73.3804 105.285 73.7513 105.271L85.9227 104.801C86.3405 104.789 86.6996 104.963 86.9419 105.277C87.1842 105.591 87.2596 106.002 87.1434 106.381L83.1376 119.476L86.0717 132.913C86.1279 133.17 86.0995 133.437 85.9913 133.677L81.2252 144.233C81.0342 144.657 80.6189 144.936 80.1535 144.954C80.138 144.954 80.1225 144.955 80.1071 144.955ZM75.8416 133.349L80.0032 140.98L83.5888 133.04L80.6726 119.685C80.6281 119.48 80.6368 119.268 80.698 119.067L84.2934 107.314L75.3706 107.658L78.4803 119.549C78.5273 119.728 78.5328 119.916 78.4963 120.098L75.8416 133.349Z" fill="#231815"/>
<path d="M1.22739 243.509C1.21009 243.509 1.19279 243.509 1.17485 243.508C0.498039 243.479 -0.0273384 242.909 0.00110231 242.233C0.17664 238.106 4.30301 141.079 5.03175 134.093C6.06582 124.189 14.1715 116.429 17.6087 113.553C17.7144 113.465 17.8349 113.394 17.9641 113.346L18.5624 113.121C21.9335 111.052 49.7006 100.644 54.0946 99.0023L60.4949 92.1568C60.9572 91.6624 61.7323 91.6353 62.2287 92.0967C62.7238 92.5577 62.751 93.3324 62.2886 93.8265L55.6917 100.883C55.5626 101.021 55.4025 101.128 55.2245 101.194C41.9695 106.143 21.604 113.961 19.8276 115.218C19.7417 115.279 19.649 115.328 19.5507 115.365L19.0266 115.562C15.7346 118.347 8.39787 125.477 7.47197 134.346C6.75067 141.258 2.49511 241.327 2.45245 242.337C2.42402 242.995 1.88133 243.509 1.22739 243.509Z" fill="#231815"/>
<path d="M143.597 120.239C143.425 120.239 143.25 120.202 143.083 120.125C136.33 117.007 102.82 101.75 102.553 101.644C102.368 101.57 102.203 101.452 102.073 101.3L96.3231 94.5616C95.8843 94.0469 95.9461 93.2743 96.4616 92.8361C96.9783 92.3988 97.7515 92.4599 98.191 92.9746L103.744 99.4818C106.779 100.689 137.599 114.896 144.113 117.903C144.728 118.187 144.995 118.915 144.711 119.528C144.504 119.975 144.06 120.239 143.597 120.239Z" fill="#231815"/>
<path d="M85.9874 134.028C85.5504 134.028 85.127 133.794 84.9057 133.383C84.5849 132.787 84.8087 132.045 85.4058 131.725L97.8411 125.058C98.1656 124.883 98.5526 124.864 98.8931 125.006L108.401 128.959L109.383 104.016C109.411 103.341 109.969 102.825 110.657 102.841C111.334 102.868 111.861 103.437 111.835 104.112L110.783 130.814C110.767 131.214 110.556 131.582 110.217 131.798C109.879 132.013 109.454 132.049 109.085 131.896L98.4883 127.49L86.5665 133.882C86.3817 133.981 86.1833 134.028 85.9874 134.028Z" fill="#231815"/>
<path d="M73.9217 134.028C73.7258 134.028 73.5274 133.981 73.3426 133.882L61.4004 127.479L49.4818 132.003C49.0998 132.148 48.6696 132.094 48.3346 131.856C48.0008 131.619 47.8074 131.232 47.8191 130.823L48.6307 103.061C48.6511 102.385 49.2277 101.851 49.8928 101.874C50.5696 101.894 51.103 102.457 51.0832 103.133L50.3248 129.064L61.0512 124.992C61.3831 124.866 61.754 124.89 62.068 125.058L74.5033 131.726C75.1004 132.045 75.3242 132.788 75.0034 133.383C74.7821 133.794 74.3587 134.028 73.9217 134.028Z" fill="#231815"/>
<path d="M28.819 243.807C28.1459 243.807 27.5977 243.265 27.5927 242.592L26.872 150.963C26.2768 149.363 22.3161 138.66 19.2868 129.024C19.0835 128.379 19.4432 127.692 20.0897 127.489C20.7356 127.288 21.4242 127.646 21.6269 128.291C24.875 138.62 29.2028 150.194 29.2461 150.31C29.2962 150.444 29.3227 150.586 29.3234 150.729L30.0453 242.573C30.0509 243.249 29.5057 243.801 28.8289 243.807H28.819Z" fill="#231815"/>
<path d="M96.299 44.328C96.1995 44.328 96.0994 44.3182 95.9986 44.2975C92.7926 43.6458 87.9585 43.7121 86.7619 43.9946C85.9547 44.1871 85.153 43.6875 84.962 42.8856C84.7722 42.0835 85.2698 41.2798 86.0733 41.0901C87.9375 40.6507 93.2648 40.6957 96.5957 41.3732C97.4054 41.5376 97.9277 42.3259 97.7627 43.1336C97.618 43.8404 96.995 44.328 96.299 44.328Z" fill="#231815"/>
<path d="M73.3011 44.3282C73.2016 44.3282 73.1015 44.3184 73.0007 44.2977C69.7947 43.6461 64.9593 43.713 63.7633 43.9949C62.9555 44.1873 62.1538 43.6877 61.9635 42.8859C61.7737 42.0837 62.2713 41.28 63.0748 41.0904C64.9396 40.6506 70.2669 40.6956 73.5978 41.3735C74.4075 41.5378 74.9298 42.3261 74.7647 43.1338C74.6201 43.8407 73.9971 44.3282 73.3011 44.3282Z" fill="#231815"/>
<path d="M78.6941 70.4686C78.4722 70.4686 78.2695 70.4559 78.0828 70.4445C77.9419 70.4359 77.8003 70.4263 77.6538 70.4263C76.8281 70.4263 76.1587 69.758 76.1587 68.934C76.1587 68.1099 76.8281 67.4416 77.6538 67.4416C77.8634 67.4416 78.0655 67.453 78.2664 67.4657C78.853 67.5008 79.1737 67.5212 79.8555 67.1218C80.5681 66.7042 81.4842 66.9423 81.902 67.6532C82.3204 68.364 82.0818 69.2785 81.3698 69.6957C80.2579 70.347 79.3851 70.4686 78.6941 70.4686Z" fill="#231815"/>
<path d="M78.833 78.3016C76.708 78.3016 74.5675 77.8421 72.8461 76.908C72.2509 76.5848 72.0309 75.8415 72.3548 75.2479C72.678 74.6545 73.4222 74.4346 74.018 74.7572C76.8977 76.3202 81.5952 76.1838 84.0731 74.4673C84.63 74.0806 85.3934 74.2194 85.7803 74.7739C86.1666 75.329 86.0288 76.092 85.4725 76.4775C83.7301 77.6861 81.2917 78.3016 78.833 78.3016Z" fill="#231815"/>
<path d="M88.6077 52.3789C88.6077 53.6385 89.6536 54.6596 90.9439 54.6596C92.2341 54.6596 93.28 53.6385 93.28 52.3789C93.28 51.1193 92.2341 50.0981 90.9439 50.0981C89.6536 50.0981 88.6077 51.1193 88.6077 52.3789Z" fill="#231815"/>
<path d="M66.6675 52.3789C66.6675 53.6385 67.7135 54.6596 69.0037 54.6596C70.294 54.6596 71.3399 53.6385 71.3399 52.3789C71.3399 51.1193 70.2939 50.0981 69.0037 50.0981C67.7135 50.0981 66.6675 51.1193 66.6675 52.3789Z" fill="#231815"/>
<path d="M145.071 131.886C143.498 129.134 143.501 125.97 143.743 122.73C143.947 120.001 144.964 117.402 145.976 114.852C147.861 110.109 149.886 105.42 151.69 100.645C152.633 98.1459 153.521 95.625 154.287 93.0678C154.73 91.5923 154.89 87.9736 156.537 87.3465C157.263 87.0697 158.107 87.2906 158.747 87.7271C163.553 91.0032 160.64 99.8529 158.299 103.913C158.136 104.207 161.263 104.236 161.589 104.159C164.628 103.443 166.722 101.101 168.909 99.1221C171.589 96.6985 174.317 94.3801 176.906 91.8695C179.517 89.3387 182.83 86.2934 184.44 85.9579C186.521 85.5245 188.744 87.81 188.744 87.81C188.744 87.81 191.769 84.1174 195.97 84.7747C196.494 84.8566 197.019 85.0017 197.456 85.2972C198.597 86.068 198.85 87.696 198.411 88.9905C197.972 90.2851 196.999 91.3246 196.052 92.321C197.972 93.1679 198.741 95.6195 198.221 97.6305C197.702 99.6414 196.197 101.26 194.589 102.601C196.588 105.874 195.09 109.273 192.79 112.034C189.064 116.506 184.251 119.903 180.291 124.157C177.852 126.778 175.468 129.448 173.14 132.166C171.583 133.984 169.632 135.553 168.42 137.64C166.881 140.29 169.706 142.984 168.678 145.077C167.686 147.097 163.76 147.224 161.898 147.22C159.752 147.215 157.605 147.086 155.475 146.831C153.583 146.604 151.824 147.121 150.017 146.88C149.152 146.765 148.284 146.275 147.977 145.47C147.79 144.98 147.829 144.437 147.871 143.913C148.001 142.283 148.13 140.652 148.26 139.021C148.361 137.757 148.442 136.405 147.801 135.307C147.458 134.721 146.938 134.262 146.472 133.767C145.904 133.166 145.444 132.537 145.071 131.886Z" fill="white"/>
<path d="M161.893 148.595C159.69 148.59 157.475 148.456 155.31 148.197C154.505 148.099 153.694 148.164 152.835 148.231C151.877 148.307 150.888 148.384 149.834 148.244C148.356 148.048 147.15 147.172 146.688 145.96C146.387 145.171 146.451 144.38 146.496 143.805L146.886 138.912C146.979 137.737 147.024 136.708 146.61 136C146.431 135.694 146.128 135.387 145.808 135.061L145.468 134.711C144.845 134.051 144.308 133.329 143.873 132.566C142.038 129.357 142.134 125.754 142.369 122.628C142.591 119.643 143.709 116.828 144.694 114.345C145.427 112.5 146.181 110.663 146.936 108.827C148.099 105.993 149.302 103.064 150.398 100.16C151.469 97.3266 152.284 94.9477 152.966 92.6732C153.066 92.3426 153.145 91.8915 153.237 91.3925C153.615 89.3491 154.086 86.8068 156.044 86.0607C157.132 85.6471 158.43 85.845 159.526 86.5904C164.352 89.8813 162.839 97.6437 160.418 102.822C160.806 102.832 161.148 102.83 161.273 102.82C163.49 102.298 165.18 100.716 166.968 99.0411C167.307 98.724 167.644 98.4088 167.983 98.1021C168.839 97.3278 169.7 96.5645 170.559 95.8025C172.35 94.2145 174.203 92.573 175.946 90.8824C180.201 86.7564 182.581 84.9392 184.158 84.6104C185.927 84.2466 187.614 85.1592 188.667 85.9359C190.044 84.7136 192.755 82.8774 196.183 83.4151C197.013 83.5448 197.682 83.7875 198.23 84.1575C199.798 85.2176 200.41 87.3863 199.717 89.4321C199.367 90.4633 198.755 91.3439 198.112 92.106C199.601 93.6294 200.057 96.0409 199.557 97.9737C199.007 100.098 197.587 101.745 196.306 102.928C197.299 105.256 197.402 108.65 193.85 112.913C191.705 115.488 189.207 117.72 186.79 119.88C184.931 121.542 183.007 123.261 181.301 125.094C178.883 127.692 176.49 130.372 174.188 133.06C173.642 133.697 173.05 134.306 172.455 134.916C171.361 136.037 170.329 137.096 169.614 138.329C169.117 139.184 169.343 140.091 169.774 141.482C170.174 142.773 170.627 144.235 169.915 145.682C168.953 147.642 166.352 148.595 161.965 148.595L161.893 148.595ZM189.812 88.6805C189.563 88.9835 189.197 89.1648 188.805 89.1826C188.405 89.2152 188.032 89.0505 187.757 88.7709C187.198 88.2018 185.725 87.0888 184.722 87.3046C184.185 87.4164 182.581 88.2866 177.867 92.8564C176.08 94.5894 174.205 96.2517 172.392 97.8594C171.539 98.6159 170.684 99.3736 169.835 100.141C169.508 100.437 169.182 100.742 168.855 101.048C166.973 102.81 164.84 104.807 161.906 105.498C161.87 105.507 158.079 105.948 157.203 104.791C156.869 104.351 156.829 103.705 157.105 103.227C159.042 99.8634 161.951 91.5781 157.971 88.863C157.643 88.6406 157.257 88.5447 157.028 88.632C156.516 88.8268 156.09 91.1338 155.949 91.8921C155.842 92.4735 155.741 93.0223 155.608 93.4623C154.907 95.8 154.072 98.2361 152.98 101.13C151.869 104.071 150.658 107.019 149.488 109.871C148.738 111.697 147.988 113.524 147.259 115.359C146.301 117.771 145.31 120.266 145.118 122.833C144.866 126.208 144.964 128.923 146.268 131.203C146.27 131.204 146.27 131.205 146.27 131.205C146.596 131.777 147.003 132.322 147.476 132.823L147.776 133.133C148.181 133.545 148.639 134.011 148.992 134.613C149.875 136.124 149.736 137.861 149.635 139.13L149.245 144.023C149.217 144.374 149.185 144.771 149.265 144.981C149.36 145.228 149.76 145.458 150.199 145.516C150.964 145.618 151.768 145.554 152.619 145.488C153.575 145.412 154.563 145.335 155.639 145.465C157.697 145.711 159.803 145.838 161.901 145.843H161.966C166.417 145.843 167.281 144.794 167.44 144.471C167.669 144.004 167.424 143.212 167.139 142.296C166.697 140.867 166.09 138.909 167.227 136.949C168.115 135.422 169.317 134.189 170.478 132.997C171.031 132.43 171.584 131.865 172.092 131.272C174.418 128.555 176.836 125.846 179.281 123.22C181.073 121.295 183.044 119.534 184.95 117.83C187.293 115.737 189.714 113.573 191.729 111.153C194.206 108.181 194.773 105.545 193.412 103.317C193.057 102.735 193.182 101.982 193.705 101.545C195.514 100.035 196.525 98.6817 196.886 97.2866C197.231 95.9512 196.798 94.1543 195.495 93.5797C195.084 93.3984 194.789 93.0303 194.7 92.5921C194.613 92.1533 194.743 91.6998 195.051 91.3747C195.889 90.4922 196.755 89.5796 197.104 88.5496C197.353 87.8183 197.263 86.8277 196.683 86.4362C196.48 86.2986 196.177 86.1996 195.757 86.1339C195.491 86.0927 195.231 86.073 194.976 86.073C192.018 86.073 189.833 88.6559 189.812 88.6805Z" fill="#231815"/>
<path d="M181.178 115.014C181.414 115.014 181.654 114.954 181.872 114.826C183.205 114.048 185.102 112.107 187.298 109.861C189.091 108.027 192 105.052 193.226 104.451C193.637 104.733 194.19 104.781 194.659 104.529C195.331 104.17 195.583 103.336 195.224 102.666C194.911 102.085 194.385 101.715 193.744 101.624C191.958 101.374 189.807 103.354 185.325 107.939C183.44 109.867 181.492 111.86 180.48 112.451C179.823 112.834 179.601 113.678 179.987 114.333C180.243 114.771 180.703 115.014 181.178 115.014Z" fill="#231815"/>
<path d="M178.198 109.243C178.556 109.243 178.913 109.105 179.184 108.83C182.039 105.922 184.567 103.511 187.494 100.721C189.043 99.2439 190.695 97.67 192.55 95.8743C194.29 94.188 195.242 94.0258 195.399 94.0682C196.069 94.4277 196.904 94.172 197.263 93.5022C197.622 92.8317 197.367 91.9971 196.694 91.6395C195.118 90.8006 193.02 91.5836 190.628 93.8992C188.78 95.6893 187.134 97.2583 185.59 98.7307C182.645 101.539 180.101 103.963 177.213 106.904C176.681 107.446 176.69 108.318 177.233 108.849C177.501 109.112 177.85 109.243 178.198 109.243Z" fill="#231815"/>
<path d="M172.985 104.352C173.301 104.352 173.62 104.243 173.88 104.022C180.244 98.5885 185.041 94.2092 190.724 87.8984C191.233 87.333 191.186 86.4628 190.62 85.9552C190.053 85.4488 189.182 85.4931 188.672 86.0585C183.092 92.2568 178.365 96.5715 172.087 101.93C171.508 102.424 171.44 103.293 171.935 103.87C172.209 104.188 172.595 104.352 172.985 104.352Z" fill="#231815"/>
<path d="M167.698 123.991C168.078 123.991 168.456 123.836 168.728 123.53C172.417 119.394 176.121 115.628 180.85 114.984C181.605 114.881 182.134 114.188 182.03 113.435C181.928 112.682 181.236 112.151 180.478 112.257C174.815 113.028 170.715 117.164 166.669 121.7C166.163 122.268 166.213 123.138 166.782 123.643C167.044 123.876 167.372 123.991 167.698 123.991Z" fill="#231815"/>
<path d="M144.154 202.88C144.096 186.341 144.038 169.802 143.98 153.263C143.973 151.476 143.391 146.47 144.671 145.342C145.085 144.977 145.693 144.963 146.245 144.974C153.838 145.126 161.501 146.321 168.979 144.994C169.872 144.835 170.815 144.644 171.667 144.955C173.799 145.731 173.335 152.976 173.605 154.971C173.927 157.353 174.94 159.364 175.069 161.825C175.629 172.465 176.189 183.137 175.578 193.787C175.298 198.665 174.83 203.345 173.431 207.977C172.051 212.546 171.831 217.201 168.904 221.218C165.465 225.939 157.767 235.767 139.313 226.409L144.154 202.88Z" fill="#DDDDDD"/>
<path d="M152.286 232.001C147.373 232.002 141.483 230.608 134.511 226.877C133.914 226.558 133.69 225.816 134.01 225.22C134.33 224.625 135.072 224.4 135.671 224.72C155.629 235.4 165.806 225.541 169.256 220.808C172.54 216.3 174.357 208.366 174.655 197.226C174.846 190.075 174.881 182.261 174.77 172.635C174.714 167.896 174.65 163.624 174.427 159.328C174.393 159.072 173.923 158.315 173.642 157.863C173.084 156.964 172.557 156.115 172.498 155.285C172.274 152.156 171.957 149.096 171.53 145.963L145.186 145.729L145.216 154.717C145.217 154.817 145.204 154.918 145.18 155.016L143.856 160.343L142.431 204.819C142.409 205.494 141.849 206.016 141.166 206.003C140.489 205.982 139.958 205.417 139.98 204.741L141.408 160.135C141.411 160.049 141.422 159.963 141.443 159.879L142.763 154.573L142.729 144.499C142.728 144.171 142.857 143.857 143.091 143.627C143.324 143.396 143.633 143.277 143.966 143.271L172.61 143.524C173.216 143.53 173.727 143.976 173.813 144.575C174.322 148.131 174.692 151.578 174.944 155.111C174.98 155.37 175.448 156.124 175.728 156.575C176.296 157.49 176.833 158.356 176.877 159.201C177.102 163.542 177.166 167.841 177.222 172.606C177.335 182.264 177.298 190.109 177.107 197.292C176.796 208.935 174.821 217.331 171.24 222.247C168.644 225.81 162.638 232.001 152.286 232.001Z" fill="#231815"/>
<path d="M81.2021 157.207C80.8906 157.207 80.5791 157.089 80.3399 156.854C79.8584 156.378 79.8535 155.603 80.3294 155.123L100.31 134.937L97.2941 127.914C97.0271 127.293 97.3158 126.574 97.9382 126.307C98.5612 126.043 99.2819 126.329 99.5489 126.95L102.89 134.729C103.086 135.187 102.986 135.717 102.635 136.071L82.0749 156.843C81.835 157.085 81.5186 157.207 81.2021 157.207Z" fill="#231815"/>
<path d="M77.1389 243.122C76.4658 243.122 75.9175 242.58 75.9126 241.908L75.2265 152.126C75.2191 151.229 75.4397 150.336 75.8637 149.545L101.61 100.876C101.927 100.279 102.669 100.05 103.267 100.365C103.867 100.681 104.096 101.421 103.78 102.019L78.0302 150.693C77.7959 151.131 77.6754 151.618 77.6791 152.107L78.3652 241.889C78.3707 242.565 77.8256 243.117 77.1481 243.122L77.1389 243.122Z" fill="#231815"/>
<path d="M157.507 156.813C150.079 156.813 145.001 155.982 144.67 155.927C144.002 155.815 143.552 155.184 143.664 154.517C143.776 153.85 144.411 153.401 145.077 153.513C145.202 153.534 157.739 155.577 172.189 153.204C172.86 153.095 173.488 153.546 173.598 154.213C173.708 154.88 173.256 155.509 172.587 155.619C167.074 156.525 161.882 156.813 157.507 156.813Z" fill="#231815"/>
<path d="M88.961 242.065C88.2972 242.065 87.7514 241.536 87.7354 240.87L85.6864 156.793C85.6703 156.118 86.2056 155.557 86.883 155.54C87.5567 155.535 88.1223 156.058 88.139 156.734L90.1879 240.811C90.204 241.487 89.6687 242.048 88.9913 242.064C88.9814 242.064 88.9709 242.065 88.961 242.065Z" fill="#231815"/>
<path d="M51.0054 166.175C50.9164 166.175 50.8274 166.165 50.7396 166.146L35.3597 162.737C34.7985 162.613 34.3992 162.116 34.3992 161.542V154.498C34.3992 153.822 34.948 153.274 35.6255 153.274H66.5319C66.8675 153.274 67.1883 153.411 67.4194 153.654C67.6512 153.896 67.773 154.222 67.7569 154.557L67.4534 160.879C67.4281 161.409 67.0634 161.862 66.5504 162.001L51.3275 166.132C51.2218 166.16 51.1136 166.175 51.0054 166.175ZM36.8518 160.56L50.9758 163.69L65.046 159.872L65.245 155.722H36.8517L36.8518 160.56Z" fill="#231815"/>
<path d="M66.5677 186.875H35.6255C34.948 186.875 34.3992 186.327 34.3992 185.651V161.542C34.3992 160.866 34.948 160.318 35.6255 160.318C36.3029 160.318 36.8518 160.866 36.8518 161.542V184.426H65.3414V160.497C65.3414 159.821 65.8903 159.273 66.5677 159.273C67.2452 159.273 67.794 159.821 67.794 160.497V185.651C67.794 186.327 67.2452 186.875 66.5677 186.875Z" fill="#231815"/>
<path d="M50.6067 183.327C49.9292 183.327 49.3804 182.779 49.3804 182.103V169.204C49.3804 168.528 49.9292 167.98 50.6067 167.98C51.2841 167.98 51.833 168.528 51.833 169.204V182.103C51.833 182.779 51.2841 183.327 50.6067 183.327Z" fill="#231815"/>
<path d="M110.599 166.175C110.51 166.175 110.421 166.165 110.333 166.146L94.9534 162.737C94.3922 162.613 93.9929 162.116 93.9929 161.542V154.498C93.9929 153.822 94.5418 153.274 95.2192 153.274H126.126C126.462 153.274 126.783 153.411 127.014 153.654C127.246 153.896 127.367 154.222 127.351 154.557L127.047 160.879C127.022 161.409 126.657 161.862 126.144 162.001L110.921 166.132C110.816 166.16 110.707 166.175 110.599 166.175ZM96.4455 160.56L110.57 163.69L124.64 159.872L124.839 155.722H96.4455L96.4455 160.56Z" fill="#231815"/>
<path d="M126.162 186.875H95.2192C94.5418 186.875 93.9929 186.327 93.9929 185.651V161.542C93.9929 160.866 94.5418 160.318 95.2192 160.318C95.8966 160.318 96.4455 160.866 96.4455 161.542V184.426H124.936V160.497C124.936 159.821 125.485 159.273 126.162 159.273C126.84 159.273 127.388 159.821 127.388 160.497V185.651C127.388 186.327 126.84 186.875 126.162 186.875Z" fill="#231815"/>
<path d="M110.201 183.327C109.523 183.327 108.974 182.779 108.974 182.103V169.204C108.974 168.528 109.523 167.98 110.201 167.98C110.878 167.98 111.427 168.528 111.427 169.204V182.103C111.427 182.779 110.878 183.327 110.201 183.327Z" fill="#231815"/>
</g>
<defs>
<clipPath id="clip0_7_2843">
<rect width="200" height="244.167" fill="white"/>
</clipPath>
</defs>
</svg>
