<svg width="100" height="101" fill="none" xmlns="http://www.w3.org/2000/svg"><rect y=".709" width="100" height="100" rx="50" fill="#024892"/><path d="M31.113 23.251c-4.122 2.673-4.932 11.03-3.376 17.841 1.212 5.304 3.789 12.42 8.134 19.119 4.088 6.303 9.791 11.954 14.14 15.224 5.584 4.199 13.544 6.868 17.666 4.194 2.085-1.352 5.182-5.045 5.323-5.708l-2.215-3.414-6.09-9.39c-.452-.698-3.29-.06-4.731.757-1.945 1.101-3.736 4.058-3.736 4.058-1.334.77-2.45.003-4.784-1.071-2.868-1.32-6.093-5.42-8.66-9.134-2.343-3.857-4.772-8.474-4.807-11.63-.03-2.57-.275-3.902.973-4.806 0 0 3.43-.43 5.229-1.755 1.333-.984 3.073-3.315 2.62-4.013l-6.09-9.39-2.214-3.414c-.663-.141-5.298 1.18-7.382 2.532z" fill="#fff"/></svg>