<svg width="100" height="101" fill="none" xmlns="http://www.w3.org/2000/svg"><rect y=".544" width="100" height="100" rx="50" fill="#024892"/><path d="M74.295 22.544H32.356c-3.984 0-7.226 3.241-7.226 7.216 0 2.028.822 3.889 2.22 5.217l.306 3.643.148 1.87-.105-.123c-2.813 2.5-5.18 5.226-6.894 7.925-.847 1.355-1.538 2.7-2.027 4.037-.49 1.337-.778 2.656-.778 3.975-.008 1.407.358 2.849 1.224 4.046.856 1.205 2.158 2.07 3.678 2.56.585.192 1.18.262 1.756.262 1.46-.01 2.884-.428 4.404-1.048 2.656-1.101 5.619-2.928 8.685-5.112a91.88 91.88 0 003.137-2.385v1.642a5.68 5.68 0 005.68 5.68h19.51a5.68 5.68 0 005.678-5.68V34.513h3.827l-2.743 33.141a7.432 7.432 0 01-7.41 6.815h-23.93a7.423 7.423 0 01-7.401-6.815l-.341-4.09-.149-1.772c-1.389.803-2.664 1.45-3.87 1.948l.017.157.332 4.09c.49 5.889 5.505 10.501 11.411 10.501h23.932c5.915 0 10.93-4.613 11.41-10.502l2.761-33.333a7.172 7.172 0 001.914-4.892c0-3.976-3.233-7.217-7.217-7.217zm-33.411 26.49c-1.075.9-2.098 1.731-2.997 2.43-2.78 2.14-5.53 4.037-7.917 5.356-1.187.663-2.28 1.18-3.206 1.512-.917.34-1.678.48-2.106.471-.209 0-.34-.026-.393-.044-.848-.288-1.25-.62-1.494-.96-.244-.35-.402-.787-.402-1.495-.009-.647.15-1.502.516-2.472.524-1.468 1.494-3.19 2.822-4.946a33.62 33.62 0 012.542-2.98l.2 2.368.595 7.06.08-.043a47.737 47.737 0 003.747-2.342l-.708-8.554-.148-1.773-.673-8.109h9.541v14.522zm0-16.617h-10.31a3.196 3.196 0 01-1.424-2.657 3.2 3.2 0 013.206-3.197h8.528v5.854zm28.247 0v23.852c0 .848-.34 1.6-.891 2.158-.56.56-1.311.9-2.167.9h-19.51c-.848 0-1.608-.34-2.158-.9a3.02 3.02 0 01-.9-2.158V26.563H69.13v5.854zm6.929 0h-4.308v-5.854h2.543a3.2 3.2 0 013.198 3.198 3.206 3.206 0 01-1.433 2.656z" fill="#fff"/><path d="M65.203 42.04c.483 0 .874-.39.874-.873v-3.12a.873.873 0 10-1.748 0v3.12c0 .483.391.874.874.874zm0 7.8a.874.874 0 00.874-.874v-3.12a.874.874 0 00-1.748 0v3.12c0 .483.391.873.874.873zm0-15.598a.874.874 0 00.874-.874v-3.12a.873.873 0 10-1.748 0v3.12c0 .483.391.874.874.874zm-1.747 22.025h1.747a.88.88 0 00.618-.256.88.88 0 00.256-.618v-1.748a.873.873 0 10-1.747 0v.874h-.874a.873.873 0 100 1.748zm-8.92 0h3.568a.874.874 0 000-1.748h-3.568a.873.873 0 100 1.748zm-7.098 0h1.747a.874.874 0 000-1.748h-.874v-.873a.874.874 0 00-1.747 0v1.747a.878.878 0 00.874.874zm0-6.427a.874.874 0 00.873-.873v-3.12a.874.874 0 10-1.747 0v3.12c0 .482.39.873.873.873zm0-7.8c.482 0 .873-.39.873-.873v-3.12a.874.874 0 00-1.747 0v3.12c0 .483.39.874.873.874zm0-7.798a.873.873 0 00.873-.874v-3.12a.874.874 0 00-1.747 0v3.12c0 .483.39.874.873.874z" fill="#fff"/></svg>