<svg width="100" height="101" fill="none" xmlns="http://www.w3.org/2000/svg"><rect y=".417" width="100" height="100" rx="50" fill="#024892"/><path d="M23.105 62.657a7.731 7.731 0 01-2.276-5.481v-7.977H17v7.977c.002 6.396 5.193 11.584 11.588 11.589h5.232v-3.83h-5.232a7.723 7.723 0 01-5.483-2.278zm4.988-24.131a5.05 5.05 0 005.053-5.054 5.053 5.053 0 10-10.107 0 5.053 5.053 0 005.054 5.054z" fill="#fff"/><path d="M40.129 55.746h-7.09V45.192a4.944 4.944 0 10-9.89 0v12.024a4.944 4.944 0 004.944 4.946c.371 0 9.04-.026 9.04-.026l.474 7.318a2.717 2.717 0 002.775 2.656 2.713 2.713 0 002.654-2.775l.288-10.394a3.194 3.194 0 00-3.195-3.195zm39.137-6.547v7.977a7.731 7.731 0 01-2.276 5.481 7.722 7.722 0 01-5.482 2.278h-5.233v3.83h5.233c6.394-.005 11.584-5.193 11.587-11.59V49.2h-3.829zm-7.264-10.673c2.79 0 5.054-2.26 5.054-5.054a5.054 5.054 0 10-10.108 0 5.05 5.05 0 005.054 5.054z" fill="#fff"/><path d="M76.947 57.216V45.192a4.944 4.944 0 10-9.89 0v10.554h-7.09a3.193 3.193 0 00-3.196 3.195l.288 10.394a2.713 2.713 0 002.655 2.774 2.717 2.717 0 002.774-2.655l.475-7.318s8.668.025 9.039.025a4.945 4.945 0 004.945-4.945z" fill="#fff"/><path d="M64.252 49.247H36.835v4.666h27.417v-4.666zm-12.558 7.171h-3.19v11.295h3.19V56.418z" fill="#fff"/></svg>