<svg width="100" height="101" fill="none" xmlns="http://www.w3.org/2000/svg"><rect y=".835" width="100" height="100" rx="50" fill="#024892"/><path d="M77.056 53.128l-5.498-.455-9.66-12.232c-.867-1.387-2.4-2.765-4.316-3.885-.168-.095-.338-.19-.51-.28l6.1-8.916a2.675 2.675 0 00-.699-3.725l-1.945-1.33a2.673 2.673 0 00-3.725.696l-7.995 11.687h-8.53c-1.543.066-2.828.331-3.93.812a7.887 7.887 0 00-2.938 2.234l-5.833 5.535A8.105 8.105 0 0025.3 46.88c-.335 1.08-.439 2.118-.522 2.952l-.024.236-1.489 10.933a8.667 8.667 0 00-.24 1.934c-.006 1.842.75 2.99 1.201 3.51.57.66 1.137.951 1.26 1.004.202.121.413.213.627.275l-1.964 2.818c-.057.082-.062.195-.046.296l-2.092 9.01a.4.4 0 00.615.42l7.617-5.197a.395.395 0 00.274-.17l5.208-7.61c.35.144.718.245 1.1.299.185.324.412.629.678.906.547.579 1.791 1.55 4 1.55.996 0 2.128-.205 3.367-.61a13.154 13.154 0 002.488 1.481c2.088.957 4.414 1.43 6.617 1.797 1.624.27 3.66.408 6.049.41a82.144 82.144 0 007.657-.389l9.302.951.04.002c.1 0 .194-.037.268-.104a.397.397 0 00.131-.295V53.526a.399.399 0 00-.365-.398zM58.143 23.917a1.05 1.05 0 011.467-.277l.062.044 1.888 1.29a1.056 1.056 0 01.276 1.47l-.989 1.445-3.694-2.528.99-1.444zm-32.81 52.54l-.196.135-.61-.417.054-.231 1.022-4.404 3.463 2.37-3.733 2.547zm1.343-9.052c.03.001.06.013.09.013.018 0 .033-.005.049-.006l-.074.107c-.002-.005 0-.011-.002-.016-.013-.038-.044-.064-.063-.098zm4.042-5.594l-2.742 3.937c-.27.083-.507.17-.696.231-.226.074-.39.108-.513.108-.131-.003-.238-.022-.436-.144l-.043-.027-.038-.017-.063-.034a2.635 2.635 0 01-.824-.773c-.317-.456-.606-1.123-.608-2.157 0-.457.058-.987.205-1.597l.007-.034 1.504-11.025v-.01c.093-.912.176-1.898.48-2.875a6.34 6.34 0 011.806-2.86l5.885-5.584.026-.033c.696-.85 1.456-1.43 2.37-1.83.913-.398 1.992-.615 3.304-.67l7.765.001-6.7 9.795-.592-.77-4.607 3.53-.31.637a110.441 110.441 0 01-1.894-.907c-.482-.238-.837-.416-.838-.416l-.595 1.19c.001 0 .637.32 1.37.676.14.069.283.136.426.206l-.068.01-.011.002v.002a3.859 3.859 0 00-2.53 1.79l-.02.033-.632 1.055-.03.048a3.883 3.883 0 00.532 4.68l.198.205-1.088 3.627zm10.036-14.644l-2.839 4.149-.659-.349v.001a4.162 4.162 0 00-.418-.247l.43-.883 3.486-2.671zm-4.41 18.509l1.747-2.553 2.349 1.813c-1.233.732-2.2.976-2.93.975a2.904 2.904 0 01-1.166-.235zm5.158 2.64c-1.481-.007-2.266-.523-2.75-1.017-.059-.06-.099-.12-.148-.18.878-.186 1.86-.603 2.958-1.316l1.029.795c.386.499.787.95 1.2 1.365-.902.252-1.66.354-2.289.354zm34.188 3.498l-8.01-.82-.07.008a27.25 27.25 0 01-.623.062c-1.201.109-3.988.33-6.964.329-1.982 0-4.048-.1-5.766-.386-2.45-.407-4.464-.875-6.18-1.662-1.716-.79-3.148-1.887-4.492-3.632l-.053-.07L33 57.506l-.43-.447v.002a2.56 2.56 0 01-.349-3.078l-.029.047.706-1.174a2.533 2.533 0 011.666-1.18l.018-.004-.007.002a2.29 2.29 0 01.507-.056c.223 0 .446.032.666.094l.012.004c.28.074.545.201.799.381l.038.028 8.946 4.73 3.789-.205-.072-1.327v-.001l-3.42.184-1.766-.933L55.73 37.534c.334.161.663.333.984.52 1.613.933 3.042 2.18 3.745 3.344l.02.035 10.188 12.903 5.025.417v17.062z" fill="#fff"/></svg>