<svg width="100" height="101" fill="none" xmlns="http://www.w3.org/2000/svg"><rect y=".126" width="100" height="100" rx="50" fill="#024892"/><path d="M63.54 67.147H35.72v2.658h27.82v-2.658zm0-10.781H35.72v2.658h27.82v-2.658zm0-10.779H35.72v2.659h27.82v-2.66zm0-10.779H50.428v2.658H63.54v-2.658z" fill="#fff"/><path d="M68.59 19.126H45.58a6.233 6.233 0 00-4.403 1.824L26.824 35.303A6.228 6.228 0 0025 39.708v36.12a5.679 5.679 0 005.672 5.672H68.59a5.678 5.678 0 005.672-5.672V24.796a5.677 5.677 0 00-5.671-5.67zm-25.02 3.941v12.75c0 1.377-.537 1.914-1.915 1.914h-12.75L43.57 23.067zm27.502 52.761a2.485 2.485 0 01-2.483 2.482H30.672a2.485 2.485 0 01-2.483-2.482V40.567h15.174a3.047 3.047 0 003.043-3.044V22.316H68.59a2.484 2.484 0 012.482 2.48v51.032z" fill="#fff"/></svg>