<svg width="25" height="25" fill="none" xmlns="http://www.w3.org/2000/svg"><circle cx="12.5" cy="12.5" r="12.5" fill="#fff"/><path d="M9.563 4.895c-.858.04-1.444.178-1.956.379-.53.206-.98.484-1.426.932a3.95 3.95 0 00-.928 1.43c-.199.513-.333 1.1-.371 1.958-.038.859-.046 1.135-.042 3.325.004 2.19.014 2.464.055 3.325.041.858.178 1.443.38 1.956.206.53.483.98.932 1.426.449.448.898.722 1.43.928.513.198 1.1.333 1.958.37.859.038 1.135.047 3.324.043 2.19-.004 2.465-.014 3.325-.055.86-.04 1.443-.178 1.956-.378.53-.208.98-.484 1.427-.933.447-.45.722-.9.927-1.43.198-.514.333-1.1.37-1.958.038-.86.047-1.136.043-3.325-.004-2.19-.014-2.464-.055-3.324-.04-.86-.177-1.445-.378-1.957A3.96 3.96 0 0019.6 6.18a3.936 3.936 0 00-1.43-.927c-.513-.199-1.1-.334-1.958-.371-.859-.037-1.135-.047-3.325-.042-2.19.004-2.464.013-3.325.055zm.095 14.579c-.787-.034-1.214-.165-1.498-.274a2.51 2.51 0 01-.929-.602 2.484 2.484 0 01-.605-.926c-.11-.284-.243-.71-.28-1.497-.04-.85-.048-1.105-.053-3.258-.005-2.153.003-2.408.04-3.258.034-.786.166-1.213.275-1.498.145-.377.32-.645.601-.928a2.49 2.49 0 01.927-.605c.284-.111.71-.243 1.496-.28.85-.041 1.106-.049 3.258-.054 2.153-.004 2.409.004 3.26.041.785.034 1.213.164 1.497.274.377.145.645.32.928.602.284.282.458.55.605.926.112.284.244.71.28 1.497.041.85.05 1.105.054 3.258.004 2.152-.003 2.408-.04 3.258-.035.786-.166 1.213-.275 1.498-.145.377-.32.645-.602.928a2.49 2.49 0 01-.926.605c-.284.111-.71.243-1.496.28-.85.04-1.106.05-3.26.054-2.153.004-2.407-.004-3.257-.041zm6.574-10.881a.968.968 0 101.936-.003.968.968 0 00-1.936.003zm-7.47 4.318a4.14 4.14 0 108.282-.016 4.14 4.14 0 00-8.281.016zm1.453-.003a2.689 2.689 0 115.378-.01 2.689 2.689 0 01-5.378.01z" fill="#0A3864"/></svg>