<svg width="161" height="237" fill="none" xmlns="http://www.w3.org/2000/svg"><path d="M133.642 46.877a3.395 3.395 0 11-5.818-3.505 3.394 3.394 0 014.66-1.158 3.399 3.399 0 011.158 4.663z" fill="#fff"/><path d="M130.725 50.05a4.888 4.888 0 01-2.531-.704 4.892 4.892 0 01-2.239-3.033 4.927 4.927 0 017.317-5.409 4.893 4.893 0 012.239 3.033 4.925 4.925 0 01-4.786 6.114zm.011-6.793a1.868 1.868 0 10-.006 3.735 1.868 1.868 0 00.006-3.735z" fill="#111"/><path d="M134.327 39.152a3.399 3.399 0 01-1.158-4.663l3.466-5.761a3.394 3.394 0 014.66-1.16c3.529 2.127 8.129.983 10.253-2.548 2.125-3.531.982-8.134-2.547-10.26a7.461 7.461 0 00-5.11-.964 3.398 3.398 0 01-1.148-6.697 14.251 14.251 0 019.761 1.84c6.737 4.058 8.919 12.845 4.863 19.586-3.453 5.739-10.329 8.174-16.454 6.268l-1.926 3.2a3.394 3.394 0 01-4.66 1.159z" fill="#fff"/><path d="M136.07 41.166a4.892 4.892 0 01-2.532-.704 4.895 4.895 0 01-2.238-3.034 4.89 4.89 0 01.56-3.728l3.466-5.761a4.927 4.927 0 016.757-1.68 5.947 5.947 0 008.156-2.028 5.955 5.955 0 00-2.026-8.16 5.936 5.936 0 00-4.064-.768 4.887 4.887 0 01-3.675-.834 4.894 4.894 0 01-2.01-3.19 4.895 4.895 0 01.833-3.677 4.889 4.889 0 013.188-2.01c3.727-.64 7.564.083 10.807 2.036 7.459 4.493 9.874 14.221 5.384 21.685a15.749 15.749 0 01-17.048 7.256l-1.332 2.213a4.925 4.925 0 01-4.226 2.384zm3.477-12.555c-.634 0-1.253.323-1.603.905l-3.466 5.76a1.86 1.86 0 00-.213 1.415 1.869 1.869 0 003.413.513l1.925-3.2a1.528 1.528 0 011.763-.671 12.702 12.702 0 0014.691-5.597c3.622-6.02 1.674-13.864-4.342-17.488a12.719 12.719 0 00-8.714-1.643 1.854 1.854 0 00-1.209.763c-.288.407-.4.903-.316 1.395.084.492.355.921.762 1.21.407.288.902.4 1.394.316a8.99 8.99 0 016.157 1.161c4.251 2.561 5.627 8.105 3.068 12.358-2.559 4.254-8.1 5.631-12.35 3.07a1.855 1.855 0 00-.96-.267z" fill="#111"/><path d="M100.006 111.216c-3.622-3.825-5.588-7.047-5.588-14.987V80.542L75.432 90.737 53.05 80.543s3.396 9.55 3.396 15.685c0 7.941-1.966 11.163-5.588 14.988-2.895 3.058-16.29 10.442-16.29 10.442l26.794 25.427h28.14l26.793-25.427s-13.394-7.384-16.289-10.442z" fill="#fff"/><path d="M89.503 148.614a1.53 1.53 0 01-1.052-2.639l25.286-23.997c-3.886-2.196-12.429-7.164-14.84-9.71-3.984-4.208-6.007-7.844-6.007-16.04v-13.13l-16.735 8.986c-.42.226-.921.242-1.355.044L55.569 83.37c1.024 3.42 2.406 8.79 2.406 12.86 0 8.195-2.023 11.831-6.007 16.039-2.41 2.546-10.954 7.514-14.84 9.71l25.287 23.997a1.528 1.528 0 11-2.103 2.219l-26.794-25.427a1.53 1.53 0 01.315-2.449c3.667-2.022 13.677-7.788 15.917-10.154 3.574-3.775 5.17-6.683 5.17-13.936 0-5.796-3.275-15.08-3.308-15.173a1.53 1.53 0 012.072-1.904l21.693 9.88 18.319-9.836a1.527 1.527 0 012.25 1.348v15.685c0 7.253 1.595 10.161 5.17 13.936 2.241 2.367 12.25 8.132 15.917 10.154a1.53 1.53 0 01.314 2.449l-26.793 25.427c-.295.28-.674.42-1.051.42z" fill="#111"/><path d="M47.581 107.393l2.335-1.551 4.992-8.189s1.63 1.223 10.194 7.267c4.748 3.35 10.33 6.362 10.33 6.362s5.58-3.012 10.328-6.362c8.565-6.044 10.194-7.267 10.194-7.267l4.992 8.189 2.335 1.551 3.867 3.812-6.202 35.07-14.13 63.916h-22.77l-14.13-63.916-6.202-35.07 3.867-3.812z" fill="#fff"/><path d="M86.817 211.72h-22.77a1.527 1.527 0 01-1.491-1.199l-14.13-63.916a1.114 1.114 0 01-.013-.064l-6.202-35.07a1.53 1.53 0 01.432-1.356l3.867-3.811c.07-.069.146-.131.227-.185l2.052-1.364 4.816-7.898a1.529 1.529 0 012.22-.428c.017.013 1.749 1.306 10.159 7.241 3.625 2.558 7.798 4.945 9.448 5.866 1.65-.921 5.824-3.308 9.448-5.866 8.41-5.935 10.142-7.228 10.159-7.24a1.526 1.526 0 012.22.427l4.816 7.898 2.052 1.364c.082.054.158.116.227.185l3.867 3.811c.359.353.52.86.433 1.356l-6.202 35.07a1.206 1.206 0 01-.013.064l-14.13 63.916a1.527 1.527 0 01-1.492 1.199zm-21.542-3.058H85.59l13.858-62.686 6.056-34.247-3.19-3.144-2.212-1.47a1.538 1.538 0 01-.46-.477l-4.129-6.773c-1.365.984-3.993 2.862-8.871 6.304-4.768 3.365-10.253 6.334-10.484 6.459a1.53 1.53 0 01-1.451 0c-.231-.125-5.716-3.094-10.484-6.459a1157.9 1157.9 0 01-8.872-6.304l-4.13 6.773c-.115.19-.272.353-.458.477l-2.213 1.47-3.19 3.144 6.056 34.247 13.859 62.686z" fill="#111"/><path d="M88.016 127.983c-.455 0-.886-.202-1.176-.552l-11.407-13.755-11.408 13.755a1.528 1.528 0 01-2.384-.041l-14.63-18.914a1.53 1.53 0 01.273-2.145 1.527 1.527 0 012.144.273l13.463 17.406 11.366-13.705a1.528 1.528 0 012.352 0l11.365 13.705 13.463-17.406a1.527 1.527 0 112.417 1.872l-14.63 18.914a1.528 1.528 0 01-1.182.593h-.026z" fill="#111"/><path d="M81.923 143.829c-.739-6.29-2.87-16.939-2.87-16.94 0 0 1.398-4.498 2.184-8.607l-5.738-6.928-.067-.072-.067.072-5.739 6.928c.787 4.109 2.185 8.607 2.185 8.607 0 .001-2.131 10.65-2.87 16.94-.429 3.654-2.617 36.475-4.375 63.34-1.269 19.378 23.001 19.384 21.733.011-1.758-26.867-3.947-59.697-4.376-63.351z" fill="#DBC890"/><path d="M87.824 207.08c-1.76-26.904-3.95-59.747-4.383-63.43-.498-4.236-2.191-13.842-2.818-16.669.351-1.165 1.443-4.894 2.116-8.411a1.532 1.532 0 00-.325-1.264l-5.738-6.927a1.226 1.226 0 00-.06-.068l-.067-.072a1.527 1.527 0 00-2.233-.002l-.067.073-.06.068-5.739 6.928a1.53 1.53 0 00-.324 1.264c.671 3.504 1.757 7.22 2.112 8.398-.39 1.979-2.153 11.055-2.814 16.682-.433 3.687-2.622 36.523-4.383 63.419-.425 6.501 1.87 11.771 6.297 14.46a11.735 11.735 0 006.099 1.713c2.107 0 4.216-.571 6.095-1.712 4.424-2.687 6.718-7.953 6.292-14.45zm-12.392-93.411l4.165 5.028c-.617 3-1.51 6.092-1.857 7.255-.437.277-1.284.71-2.307.71-1.026 0-1.875-.435-2.308-.709-.347-1.163-1.24-4.255-1.858-7.256l4.165-5.028zm4.515 105.246a8.665 8.665 0 01-9.023 0c-3.42-2.077-5.181-6.322-4.833-11.646 2.521-38.519 4.032-60.395 4.368-63.262.531-4.522 1.797-11.36 2.45-14.759.403.153.858.283 1.353.368l-.782 4.839a1.359 1.359 0 102.681.434l.866-5.359c.332-.078.644-.174.93-.282.65 3.397 1.92 10.252 2.449 14.759.336 2.863 1.847 24.743 4.369 63.273.348 5.32-1.412 9.561-4.828 11.635z" fill="#111"/><path d="M137.774 122.458s-7.333-1.517-13.917-4.192c-7.562-3.073-12.173-5.462-12.173-5.462l-3.24-4.939-7.129-4.219-7.577 55.272-18.306 43.902-3.879-14.379-12.827-18.197-9.178-66.598-7.129 4.219-3.24 4.939s-4.61 2.389-12.173 5.462c-6.584 2.675-12.219 4.192-12.219 4.192s-6.296.182-9.533 5.733c-6.842 11.734-1.021 41.644 2.213 65.591 3.22 23.836 5.433 35.816 12.567 39.811 0 0 3.415 2.198 8.8 1.543 3.186-.387 20.208-3.548 34.864-6.312l22.35-4.245s26.792 9.529 31.094 10.121c4.302.591 9.924 1.348 13.552-1.089 3.628-2.438 7.772-8.917 9.278-17.855 2.013-11.944 3.271-21.76 4.1-29.65.83-7.889 7.553-47.288 2.428-57.915-2.792-5.789-8.726-5.733-8.726-5.733z" fill="#024892"/><path d="M123.749 236.823c-2.387 0-4.775-.328-6.815-.609-4.407-.606-30.298-9.804-31.398-10.195a1.53 1.53 0 011.024-2.881c7.41 2.636 27.389 9.579 30.79 10.047 3.936.541 9.327 1.283 12.492-.844 3.248-2.182 7.174-8.235 8.623-16.84 1.729-10.262 3.104-20.205 4.087-29.555.14-1.324.439-3.496.817-6.245 1.746-12.683 5.834-42.385 1.754-50.845-2.317-4.806-7.139-4.869-7.343-4.87-.103 0-.215-.01-.316-.031-.305-.063-7.545-1.576-14.182-4.273-7.541-3.064-12.11-5.422-12.301-5.521a1.525 1.525 0 01-.575-.518L107.361 109l-4.845-2.867-7.264 52.993a1.526 1.526 0 01-.104.381l-18.306 43.901c-.238.57-.794.94-1.41.94-1.17 0-1.421-.928-1.642-1.748l-3.641-13.499-12.672-17.976a1.527 1.527 0 01-.265-.672l-8.864-64.321L43.502 109l-3.045 4.643a1.524 1.524 0 01-.575.518c-.19.099-4.76 2.457-12.3 5.521-6.596 2.68-12.164 4.189-12.398 4.252-.113.03-.23.048-.347.052-.223.008-5.511.255-8.264 4.976-5.57 9.553-2.15 33.046.867 53.774.549 3.768 1.067 7.327 1.541 10.841 3.186 23.586 5.389 35.091 11.798 38.681l.078.046c.026.017 3.075 1.888 7.792 1.314 2.521-.306 14.543-2.484 34.766-6.296a1.528 1.528 0 11.566 3.005c-14.147 2.667-31.696 5.93-34.963 6.327-5.576.679-9.276-1.447-9.762-1.745-7.62-4.295-9.907-15.779-13.303-40.923-.473-3.498-.99-7.049-1.537-10.809-3.24-22.261-6.592-45.279-.482-55.757 3.314-5.684 9.4-6.394 10.604-6.48.942-.261 6.031-1.709 11.893-4.091 6.237-2.534 10.487-4.619 11.695-5.225l3.015-4.598c.128-.196.3-.359.5-.478l7.13-4.219a1.53 1.53 0 012.291 1.107l9.126 66.231 12.614 17.893c.103.146.18.31.227.483l2.713 10.061 16.51-39.591 7.549-55.076a1.527 1.527 0 012.291-1.108l7.13 4.219c.201.119.372.282.5.478l3.015 4.598c1.208.606 5.458 2.691 11.694 5.225 5.895 2.395 12.503 3.864 13.519 4.083 1.152.04 7.008.544 9.926 6.594 4.481 9.292.604 37.46-1.48 52.592-.374 2.722-.67 4.872-.804 6.148-.99 9.412-2.374 19.42-4.113 29.744-1.71 10.151-6.42 16.509-9.933 18.87-2.226 1.495-5.011 1.943-7.797 1.943z" fill="#111"/><path d="M104.943 159.927a1.528 1.528 0 01-1.252-2.403l12.917-18.567-5.983-7.573a1.531 1.531 0 01.075-1.985l5.168-5.61-2.19-3.167a1.528 1.528 0 112.513-1.74l2.886 4.173a1.53 1.53 0 01-.133 1.907l-5.112 5.55 5.877 7.438a1.53 1.53 0 01.055 1.822l-13.565 19.499a1.526 1.526 0 01-1.256.656zM50.65 172.3c-.53 0-1.044-.275-1.327-.767L31.03 139.66a1.53 1.53 0 01.126-1.71l5.878-7.438-5.113-5.55a1.53 1.53 0 01-.133-1.907l2.886-4.173a1.528 1.528 0 112.513 1.74l-2.19 3.167 5.168 5.61a1.53 1.53 0 01.076 1.985l-6.046 7.651 17.78 30.975a1.53 1.53 0 01-1.324 2.29zm-12.82 12.628a1.529 1.529 0 01-1.518-1.372l-1.145-11.051a1.528 1.528 0 113.04-.315l1.145 11.051a1.53 1.53 0 01-1.522 1.687zm-10.147 32.367a1.529 1.529 0 01-1.419-2.094c.142-.357 3.57-8.828 11.343-16.244a1.527 1.527 0 112.109 2.213c-7.27 6.936-10.58 15.082-10.613 15.163a1.53 1.53 0 01-1.42.962z" fill="#111"/><path d="M55.752 185.918l-3.68 13.362-7.882-2.535s-.245-3.343-1.25-4.451c-1.007-1.107-3.71-1.356-3.71-1.356l-1.399-7.539 17.921 2.519z" fill="#fff"/><path d="M52.072 200.809c-.157 0-.315-.024-.467-.073l-7.883-2.536a1.527 1.527 0 01-1.056-1.343c-.11-1.477-.52-3.162-.858-3.535-.353-.388-1.718-.766-2.721-.862a1.531 1.531 0 01-1.36-1.243l-1.399-7.539a1.528 1.528 0 011.715-1.793l17.921 2.518a1.53 1.53 0 011.261 1.921l-3.68 13.362a1.528 1.528 0 01-1.473 1.123zm-6.467-5.215l5.418 1.742 2.794-10.147-14.096-1.981.812 4.382c1.096.221 2.644.693 3.537 1.675.944 1.039 1.358 3.017 1.535 4.329z" fill="#111"/><path d="M87.79 190.85s9.43-16.212 11.09-18.326c1.661-2.114 10.866-9.211 13.03-9.715 2.163-.503 12.953-.78 15.997 1.133 3.043 1.913 2.062 3.951 2.062 3.951s2.541-.05 3.723 2.567c1.182 2.618-.956 3.524-.956 3.524s2.968.805 2.968 2.869-3.924 2.719-3.924 2.719 2.918 2.567.906 4.731c-2.012 2.165-10.766 1.863-13.683 3.322-2.918 1.46-9.508 9.12-9.508 9.12L87.79 190.85z" fill="#fff"/><path d="M137.232 176.854c0-1.527-.92-2.633-1.986-3.365.026-.057.051-.116.074-.176.283-.723.472-1.915-.236-3.482-.831-1.84-2.23-2.772-3.464-3.186-.142-1.23-.877-2.726-2.901-3.998-3.548-2.23-14.861-1.861-17.156-1.327-2.63.612-12.112 8.003-13.884 10.26-1.678 2.136-10.239 16.832-11.21 18.501a1.53 1.53 0 00.92 2.245l21.705 5.894a1.527 1.527 0 001.559-.478c2.471-2.871 7.109-7.786 9.033-8.749 1.023-.512 3.304-.807 5.51-1.093 3.644-.471 7.085-.917 8.609-2.555.781-.841 1.166-1.856 1.111-2.936-.037-.744-.278-1.429-.587-2.014 1.398-.605 2.903-1.688 2.903-3.541zm-5.595 1.189c-2.275.001-11.901.038-13.753.56-1.96.553-7.681 5.401-9.387 6.874a1.528 1.528 0 001.996 2.316c3.215-2.775 7.273-5.952 8.22-6.246.952-.269 6.939-.433 12.419-.445.333.397.708.971.732 1.46.009.178-.019.401-.297.7-.772.83-4.377 1.297-6.763 1.606-2.571.333-5 .647-6.485 1.39-2.646 1.324-7.535 6.706-9.347 8.761l-18.857-5.122c3.082-5.268 8.802-14.945 9.967-16.428 1.593-2.029 10.581-8.8 12.173-9.17 2.059-.479 12.332-.638 14.839.938.619.389.986.748 1.203 1.055-6.474-.261-13.721-.388-15.122.266-1.576.736-8.002 6.196-9.934 7.852a1.53 1.53 0 001.988 2.322c3.822-3.276 8.26-6.893 9.197-7.382 1.24-.331 8.708-.228 15.338.065h.009l.128.006.013-.001c.021.001.041.003.062.002.162.002 1.6.067 2.323 1.668.282.625.29 1.063.029 1.335-3.905-.254-14.321-.828-16.493.103-2.244.963-9.495 6.824-10.314 7.489a1.528 1.528 0 001.925 2.375c2.968-2.409 8.197-6.454 9.587-7.05 1.204-.46 8.906-.277 15.426.156.649.216 1.717.785 1.717 1.356 0 .277-1.217.938-2.539 1.189z" fill="#111"/><path d="M50.22 195.33c-2.112 8.193-2.124 14.552-2.124 14.552l10.471 2.846 6.947-27.314-10.273-3.055s-2.907 4.779-5.02 12.971z" fill="#fff"/><path d="M58.568 214.257c-.133 0-.267-.018-.401-.054l-10.472-2.846a1.528 1.528 0 01-1.128-1.478c0-.268.037-6.647 2.174-14.931 2.145-8.316 5.071-13.181 5.195-13.384a1.527 1.527 0 011.74-.671l10.273 3.055a1.53 1.53 0 01-.871 2.932l-9.09-2.704c-.924 1.78-2.812 5.814-4.288 11.536-1.523 5.905-1.93 10.853-2.037 13.011l9.304 2.529a1.529 1.529 0 01-.399 3.005z" fill="#111"/><path d="M117.6 196.674c-2.666-1.611-6.238.604-6.238.604l-48.617-14.919s-3.591 7.247-5.735 16.132c-2.144 8.884-2.83 16.265-2.83 16.265l23.096 6.613 46.904-15.165s-3.914-7.919-6.58-9.53z" fill="#024892"/><path d="M77.276 222.898c-.139 0-.28-.019-.42-.059l-23.097-6.613a1.528 1.528 0 01-1.1-1.612c.028-.305.72-7.592 2.865-16.482 2.16-8.949 5.702-16.15 5.852-16.452a1.529 1.529 0 011.817-.783l48.006 14.732c1.34-.662 4.509-1.884 7.19-.264 2.902 1.753 6.474 8.772 7.16 10.161a1.53 1.53 0 01-2.739 1.356c-1.438-2.908-4.339-7.896-6-8.899-1.786-1.079-4.616.577-4.643.594a1.527 1.527 0 01-1.253.163l-47.348-14.53c-1.074 2.374-3.489 8.082-5.071 14.64a131.618 131.618 0 00-2.656 14.791l21.857 6.258a1.528 1.528 0 01-.42 2.999z" fill="#111"/><path d="M98.812 46.975l-2.571-14.59a25.404 25.404 0 00-5.196-11.498C85.939 14.526 76.382 6.032 62.909 8.35l-.236.042C49.22 10.824 43.143 22.076 40.519 29.8a25.41 25.41 0 00-.953 12.583l2.571 14.59c-3.346-.635-8.51 1.073-6.74 10.242 1.567 8.121 8.24 11.443 11.936 11.257.635 1.49 1.36 2.929 2.176 4.182 5.245 7.843 17.024 15.204 25.6 15.98 0 0 1.53.13 3.548-.227 2.018-.356 3.412-1 3.412-1 7.793-3.665 16.346-14.613 18.593-23.778.34-1.457.529-3.057.616-4.675 3.537-1.09 8.671-6.495 7.368-14.663-1.471-9.222-6.906-9.06-9.834-7.317z" fill="#fff"/><path d="M78.923 99.914c-2.19.386-3.871.251-3.942.245-9.008-.815-21.25-8.442-26.741-16.654-.666-1.02-1.306-2.201-1.913-3.527-4.461-.378-10.846-4.262-12.43-12.472-.89-4.608-.26-8.029 1.87-10.167 1.175-1.18 2.785-1.873 4.532-1.996L38.062 42.65a27.015 27.015 0 011.01-13.34c2.461-7.244 8.764-19.79 23.33-22.424.041-.007.083-.013.125-.017.04-.01.08-.02.123-.027 14.588-2.51 24.798 7.122 29.587 13.087a27.005 27.005 0 015.509 12.19l2.237 12.694c1.682-.483 3.432-.383 4.94.324 2.733 1.28 4.493 4.28 5.233 8.914 1.317 8.257-3.355 14.092-7.418 15.974-.117 1.453-.314 2.778-.587 3.951-2.358 9.614-11.254 20.97-19.432 24.815-.073.034-1.608.737-3.796 1.123zM39.985 58.46c-.684.121-1.43.411-2.054 1.037-1.352 1.357-1.709 3.926-1.033 7.428 1.423 7.378 7.448 10.166 10.358 10.02a1.528 1.528 0 011.482.927c.654 1.534 1.345 2.862 2.051 3.946 4.955 7.41 16.388 14.563 24.458 15.294 0 0 1.369.102 3.145-.21 1.776-.314 3.027-.88 3.04-.885 7.32-3.443 15.62-14.078 17.746-22.753.29-1.244.485-2.728.575-4.393a1.53 1.53 0 011.076-1.38c2.784-.857 7.493-5.539 6.309-12.959-.562-3.522-1.776-5.814-3.511-6.627-1.76-.825-3.533.084-4.034.383a1.527 1.527 0 01-2.286-1.049l-2.57-14.59a23.936 23.936 0 00-4.883-10.806C84.519 15.2 75.559 7.724 63.168 9.856a1.546 1.546 0 01-.112.015c-.037.01-.073.017-.111.024-12.373 2.238-18.238 12.328-20.98 20.399a23.948 23.948 0 00-.894 11.825l2.572 14.59a1.53 1.53 0 01-1.79 1.767 5.383 5.383 0 00-1.868-.015z" fill="#111"/><path d="M103.737 30.703s-.34-5.29-4.605-12.28c-2.857-4.681-6.109-9.072-11.654-11.84C78.853 2.278 74.945 4.04 74.945 4.04S69.36-.655 56.022 3.948c-7.305 2.52-14.078 9.943-16.534 13.14-4.935 6.423-7.82 7.827-8.224 19.45-.151 4.359 1.337 8.701 2.363 12.26 1.71 5.93 3.114 9.724 3.114 9.724s.951-1.09 2.421-1.439c1.47-.348 2.974-.11 2.974-.11s1.515-1.442 1.593-3.603c.16-4.375-2.51-9.497 2.159-14.308 2.438-2.512 9.63-5.317 14.666-10.114 4.395-4.188 6.948-7.36 8.759-8.963 4.11-3.638 8.569-2.738 8.569-2.738l6.51 1.63s2.624 1.53 5.002 7.508c1.548 3.89 2.077 5.408 3.964 12.36 1.966 7.243 5.589 8.111 5.589 8.111s1.565-.923 3.092-.813c1.527.11 2.358.88 2.358.88s-.18-5.691.049-6.421c.426-1.353.721-3.631.698-4.46-.045-1.626-1.407-5.34-1.407-5.34z" fill="#000"/><path d="M98.811 46.973l.868 5.455 1.407 10.255.192 6.27c3.536-1.09 8.671-6.495 7.368-14.662-1.472-9.222-6.907-9.06-9.835-7.318z" fill="#fff"/><path d="M101.543 70.46A1.527 1.527 0 0199.75 69l-.192-6.27a1.529 1.529 0 113.055-.093l.117 3.844c2.576-1.897 5.346-6.06 4.407-11.949-.562-3.522-1.776-5.814-3.511-6.626-1.159-.544-2.323-.335-3.126-.044l.688 4.326a1.528 1.528 0 11-3.018.48l-.868-5.454a1.53 1.53 0 01.728-1.554c2.209-1.315 4.786-1.51 6.892-.524 2.733 1.28 4.493 4.28 5.232 8.914 1.429 8.953-4.184 15.058-8.427 16.365a1.557 1.557 0 01-.184.044z" fill="#111"/><path d="M43.186 62.397l-1.05-5.423c-3.346-.635-8.509 1.072-6.74 10.242 1.568 8.121 8.24 11.443 11.936 11.256l-1.963-5.957-2.183-10.118z" fill="#fff"/><path d="M47.598 79.978a1.51 1.51 0 01-.189.021c-4.434.224-11.795-3.592-13.512-12.493-.89-4.609-.26-8.03 1.87-10.167 1.641-1.649 4.13-2.347 6.655-1.867a1.528 1.528 0 011.215 1.211l1.05 5.423a1.529 1.529 0 11-3.001.581l-.832-4.3c-.855 0-2.02.203-2.923 1.11-1.352 1.358-1.71 3.926-1.034 7.429 1.13 5.854 5.156 8.818 8.225 9.72l-1.203-3.653a1.53 1.53 0 012.902-.957l1.963 5.957a1.53 1.53 0 01-1.186 1.985z" fill="#111"/><path d="M42.7 58.021l.756-.217c.551-.621 1.722-2.19 1.802-4.377.048-1.321-.132-2.672-.306-3.978-.436-3.267-.848-6.353 2.033-9.321.913-.941 2.793-2.043 4.97-3.32 2.973-1.744 6.674-3.914 9.654-6.752 2.476-2.36 4.36-4.384 5.875-6.012 1.17-1.257 2.094-2.25 2.843-2.913 3.45-3.055 7.11-2.412 7.254-2.385a1.528 1.528 0 10.604-2.997c-.212-.043-5.258-1.004-9.883 3.092-.86.761-1.828 1.802-3.054 3.12-1.487 1.597-3.337 3.584-5.747 5.88-2.722 2.594-6.106 4.578-9.092 6.329-2.368 1.39-4.414 2.589-5.616 3.827-3.914 4.033-3.335 8.371-2.87 11.857.164 1.234.32 2.4.281 3.46-.054 1.484-1.119 2.551-1.12 2.553a1.529 1.529 0 00-.372.558l-.226.587a4.045 4.045 0 012.05.373c.303.212.164.636.164.636z" fill="#111"/><path d="M105.242 30.368c-.12-1.152-.849-6.26-4.805-12.742-2.864-4.693-6.333-9.445-12.276-12.411-7.033-3.51-11.235-3.236-12.963-2.845-2.01-1.198-8.212-3.822-19.673.132-8.938 3.084-16.423 12.581-17.247 13.654-.774 1.007-1.487 1.877-2.177 2.719-3.616 4.412-6.006 7.327-6.363 17.61-.141 4.074 1.013 7.97 2.031 11.407.135.454.266.898.39 1.33 1.707 5.916 3.092 9.674 3.15 9.831.09.244.242.461.44.63l.454.39c.404-.951 1.132-1.753 2.014-2.3l-.175-.15c-.387-1.084-1.572-4.486-2.946-9.25-.127-.438-.26-.889-.397-1.35-.952-3.213-2.03-6.856-1.907-10.432.322-9.25 2.222-11.568 5.672-15.777.672-.82 1.434-1.75 2.236-2.794 2.783-3.623 9.247-10.358 15.821-12.627 12.195-4.208 17.405-.211 17.442-.183.027.023.056.041.084.062.012.008.021.02.033.028.022.015 2.148 1.507 2.902 3.687a1.528 1.528 0 102.888-1c-.363-1.049-.922-1.964-1.51-2.726 1.849.159 4.638.794 8.437 2.69 4.96 2.476 7.997 6.295 11.032 11.269 3.987 6.533 4.381 11.536 4.384 11.58.009.147.04.292.09.43.493 1.344 1.286 3.851 1.314 4.854.017.618-.236 2.715-.627 3.958-.259.823-.252 3.34-.164 5.9 1.066-.008 2.144.358 3.1.981-.12-2.878-.155-5.4-.021-5.962.46-1.464.796-3.911.767-4.962-.046-1.653-1.12-4.764-1.43-5.63z" fill="#111"/><path d="M99.72 47.296a4.622 4.622 0 011.179-.88l-1.03-.779c-.186-.14-.319-.22-.542-.263-.257-.094-2.911-1.2-4.493-7.03-1.88-6.924-2.44-8.555-4.02-12.525-2.5-6.286-5.335-8.08-5.65-8.263a1.54 1.54 0 00-2.102.543 1.517 1.517 0 00.538 2.084c.023.015 2.275 1.489 4.376 6.767 1.551 3.9 2.058 5.38 3.909 12.195 1.856 6.841 5.189 8.651 6.343 9.084l.782-.012s.365-.665.71-.921zm-2.908 1.952a1.436 1.436 0 00-.642-.959c-.854-.557-2.372-.299-3.2-.095a1.019 1.019 0 00-.611 1.546c.24.37.516.984.747 1.743.01.05.026.1.044.148.587 2.02.843 4.968-.613 7.054-1.9 2.722-10.609 3.665-13.28 2.777-3.03-1.008-4.004-6.215-4.026-6.881a7.365 7.365 0 01.025-.795 1.019 1.019 0 00-.922-1.108 1.014 1.014 0 00-1.087.816 9.083 9.083 0 00-2.5.108 10.47 10.47 0 00-2.386.707 1.016 1.016 0 00-1.762 1.004c.001.003.175.374.294.74.207.632 1.073 5.858-1.431 7.843-2.206 1.749-10.712 3.843-13.428 1.936-2.083-1.464-2.85-4.324-2.987-6.424 0-.05-.003-.098-.01-.146-.041-.793.008-1.467.107-1.897a1.02 1.02 0 00-1.102-1.244c-.848.092-2.363.369-2.975 1.185-.247.33-.345.727-.276 1.12.13.74.895 1.33 2.277 1.763.289 2.546 1.356 5.598 3.796 7.311 1.839 1.292 5.152 1.326 8.339.763 3.141-.554 6.16-1.688 7.524-2.769 2.952-2.34 2.66-7.17 2.293-9.243a8.226 8.226 0 012.08-.641c.978-.172 1.74-.123 2.212-.05.38 2.101 1.764 6.66 5.303 7.837 1.651.549 4.876.581 8.017.027 3.187-.563 6.289-1.728 7.575-3.571 1.707-2.446 1.667-5.679 1.069-8.17 1.15-.878 1.666-1.696 1.536-2.435zM65.317 85.644a1.02 1.02 0 01-.9-1.494l1.487-2.83a1.018 1.018 0 111.803.949l-1.488 2.83a1.019 1.019 0 01-.902.545zm6.38-14.534c.213-.359 1-.142 1.958-.289.95-.19 1.615-.665 1.938-.401.335.273.297 1.937-1.598 2.323-1.913.289-2.519-1.262-2.298-1.633z" fill="#111"/><path d="M87.333 50.576c-.715-.513-1.542-.743-2.268-.63-.566.086-1.107.441-1.532.995-.592.773-.865 1.827-.71 2.75.143.846.708 1.663 1.514 2.186.629.408 1.308.576 1.92.476l.064-.011c1.338-.262 2.469-2.157 2.282-3.825-.077-.7-.552-1.425-1.27-1.94zM57.4 55.836c.498-.726 1.197-1.224 1.918-1.365.56-.112 1.19.037 1.778.413.821.525 1.436 1.423 1.604 2.344.155.843-.099 1.804-.678 2.57-.453.599-1.034.988-1.644 1.103a2.312 2.312 0 01-.064.01c-1.346.21-3.054-1.185-3.448-2.817-.165-.684.035-1.528.534-2.258zm12.463 29.152a1.188 1.188 0 01-.673-2.17c.21-.144 5.248-3.516 12.667-2.194a1.19 1.19 0 01-.417 2.342c-6.425-1.145-10.868 1.788-10.912 1.818a1.186 1.186 0 01-.665.204zm6.947-38.835c-.418 0-.84-.013-1.263-.041a1.359 1.359 0 01.178-2.712c5.27.346 10.325-2.025 10.375-2.05a1.358 1.358 0 011.17 2.454c-.214.102-4.974 2.349-10.46 2.349z" fill="#111"/><path d="M79.782 53.65a1.53 1.53 0 01-1.493-1.862c.252-1.13 1.395-3.293 4.08-4.228 4.48-1.56 7.303 1.029 8.17 2.615a1.53 1.53 0 01-2.682 1.467c-.215-.369-1.484-2.238-4.483-1.194-1.745.608-2.1 1.992-2.102 2.006a1.529 1.529 0 01-1.49 1.196zM53.13 50.943c-1.462 0-2.457-.124-2.567-.139a1.359 1.359 0 01.353-2.695c.064.008 6.59.809 10.693-2.021a1.358 1.358 0 111.542 2.238c-3.202 2.209-7.375 2.617-10.021 2.617zm-.153 9.019a1.536 1.536 0 01-1.515-1.761c.03-.203.8-4.998 6.423-6.328 2.316-.549 4.181.702 4.386.846a1.53 1.53 0 01-1.745 2.51c-.042-.027-.957-.613-1.937-.38-3.559.842-4.085 3.694-4.106 3.815a1.52 1.52 0 01-1.505 1.298zm20.337-12.951c-.412 0-.82-.187-1.087-.543l-1.076-1.435a1.36 1.36 0 012.174-1.631l1.075 1.435a1.36 1.36 0 01-1.086 2.174zm5.111-36.995a1.529 1.529 0 01-1.444-1.029c-.754-2.18-2.88-3.673-2.901-3.688a1.532 1.532 0 01-.392-2.124 1.525 1.525 0 012.119-.398c.12.082 2.972 2.057 4.062 5.21a1.53 1.53 0 01-1.444 2.03z" fill="#111"/></svg>