<svg width="165" height="235" fill="none" xmlns="http://www.w3.org/2000/svg"><path d="M28.057 46.045c-3.282 0-5.887-2.056-6.492-4.945-1.483.113-2.976-.178-3.975-1.037-1.13-.97-1.768-2.36-1.844-4.021a6.946 6.946 0 01-.007-.31c-1.25.163-2.424.207-3.37.149-2.854-.176-4.343-2.14-4.833-2.785-1.186-1.565-1.265-3.655-.227-5.902-2.678-.541-5.002-1.993-6.234-3.899-.953-1.476-1.237-3.183-.82-4.936 1.09-4.576 6.685-6.102 10.302-5.445 2.147.39 4.766 1.669 5.679 4.086.33.875-.022 1.505-.189 1.736-.594.821-1.53.78-2.283.748-1.239-.054-2.165-.013-2.797 1.013-.484.785-.478 1.557-.06 2.486.315-.193.641-.36.975-.5 1.342-.565 3.811-1.604 5.48-.299a3.1 3.1 0 01.572.593c.13-.12.253-.249.372-.386.884-1.014 1.62-2.775 1.273-4.42-.284-1.342-1.26-2.413-2.905-3.183a1.53 1.53 0 011.296-2.77c3.188 1.494 4.26 3.718 4.599 5.32.603 2.86-.678 5.592-1.959 7.063a7.845 7.845 0 01-1.87 1.573c-.12 1.087-.625 1.984-1.413 2.49-1.89 1.214-5.259 1.153-6.861-.712a7.958 7.958 0 00-.328.608c-.42.865-.789 2.068-.167 2.887.803 1.06 1.553 1.518 2.587 1.582 1.117.069 2.457-.033 3.77-.28.469-1.307 1.194-2.54 2.082-3.457.026-.028 2.797-2.686 4.847-1.59a2.47 2.47 0 011.303 1.87c.198 1.372-.61 2.739-1.203 3.323-1.109 1.093-2.763 1.874-4.526 2.392a4.996 4.996 0 00-.032.814c.037.809.3 1.428.78 1.842.29.248 1.061.382 1.933.291.132-1.218.453-2.465 1.14-3.33.716-.899 1.77-1.27 2.747-.97 1.02.315 1.713 1.274 1.807 2.503.127 1.662-.823 3.135-2.607 4.04a6.956 6.956 0 01-.073.035c.27 1.758 1.918 2.675 3.531 2.675a1.529 1.529 0 010 3.058zM8.883 15.828c-2.289 0-5.135 1.057-5.654 3.24-.226.948-.091 1.787.413 2.567.78 1.21 2.491 2.221 4.357 2.578l.128.024c-.71-1.595-.94-3.433.238-5.345.95-1.542 2.25-2.142 3.419-2.363a6.43 6.43 0 00-1.774-.606 6.341 6.341 0 00-1.127-.095z" fill="#111"/><path d="M117.944 113.228c-3.622-3.826-5.588-7.047-5.588-14.988V82.555L93.37 92.749 70.99 82.555s3.395 9.55 3.395 15.685c0 7.941-1.966 11.162-5.588 14.988-2.895 3.058-16.289 10.441-16.289 10.441L79.3 149.097h28.14l26.793-25.428s-13.394-7.383-16.289-10.441z" fill="#fff"/><path d="M107.441 150.625a1.529 1.529 0 01-1.052-2.638l25.286-23.997c-3.886-2.196-12.429-7.164-14.839-9.711-3.985-4.208-6.007-7.844-6.007-16.04V85.11l-16.736 8.986c-.42.225-.922.242-1.355.044l-19.231-8.76c1.024 3.422 2.406 8.791 2.406 12.86 0 8.195-2.023 11.831-6.007 16.039-2.41 2.547-10.954 7.515-14.84 9.711l25.287 23.997a1.53 1.53 0 01-2.103 2.219l-26.794-25.427a1.532 1.532 0 01.314-2.449c3.668-2.022 13.678-7.788 15.918-10.154 3.574-3.775 5.17-6.684 5.17-13.936 0-5.796-3.275-15.08-3.308-15.173a1.53 1.53 0 012.073-1.904l21.692 9.88 18.319-9.836a1.527 1.527 0 012.251 1.347V98.24c0 7.252 1.594 10.16 5.169 13.936 2.24 2.366 12.249 8.132 15.917 10.154a1.529 1.529 0 01.314 2.449l-26.793 25.427c-.295.28-.674.419-1.051.419z" fill="#111"/><path d="M142.055 120.906l-.365-.149-17.102-7.857-11.354-11.956s-3.948 5.118-9.4 9.384c-5.453 4.266-13.18 8.036-13.18 8.036l-4.511-2.274-16.098-14.772-9.885 11.779s-10.187 5.238-20.374 9.452c-10.187 4.214-20.52 10.237-19.433 29.281.787 13.777 3.281 25.539 5.57 42.67 2.288 17.131 2.52 25.744 8.883 32.385 8.938 9.331 23.528 1.29 26.093-1.226l33-3.908s22.705 6.612 33.468 9.425c10.762 2.813 20.366 3.902 23.913-4.615 3.15-7.565 4.786-20.732 6.508-34.678 1.991-16.12 3.868-33.281 4.648-44.034 1.243-17.151-14.677-24.254-20.381-26.943z" fill="#fff"/><path d="M139.914 234.748c-3.971 0-8.43-.916-12.934-2.093-10.659-2.786-33.282-9.37-33.509-9.437a1.529 1.529 0 01.854-2.936c.227.066 22.809 6.639 33.428 9.414 11.132 2.91 19.153 3.39 22.116-3.723 3.084-7.406 4.695-20.459 6.402-34.277 2.237-18.114 3.928-34.135 4.64-43.958 1.142-15.743-13.066-22.421-19.133-25.273l-.338-.159-.328-.134a1.554 1.554 0 01-.06-.026l-17.102-7.857a1.521 1.521 0 01-.47-.336l-10.162-10.701c-1.575 1.851-4.675 5.253-8.543 8.28-5.516 4.316-13.13 8.049-13.452 8.206-.428.209-.93.206-1.357-.009l-4.511-2.273a1.555 1.555 0 01-.346-.239l-14.92-13.692-8.86 10.555c-.13.156-.29.284-.471.377-.103.053-10.36 5.315-20.488 9.505-9.925 4.105-19.529 9.632-18.492 27.78.516 9.039 1.775 17.215 3.233 26.682.761 4.944 1.549 10.057 2.326 15.873a828.5 828.5 0 01.827 6.432c1.6 12.708 2.482 19.708 7.645 25.098 2.437 2.544 5.566 3.864 9.299 3.922 6.446.101 13.076-3.667 14.621-5.183a1.528 1.528 0 112.14 2.184c-2.142 2.101-9.494 6.175-16.809 6.056-4.58-.071-8.434-1.707-11.458-4.863-5.862-6.12-6.788-13.477-8.47-26.832-.256-2.03-.52-4.128-.825-6.409-.772-5.786-1.557-10.883-2.316-15.812-1.47-9.545-2.74-17.788-3.264-26.973-.516-9.038 1.396-15.997 5.846-21.275 3.979-4.718 9.334-7.357 14.529-9.506 9.093-3.761 18.302-8.403 19.987-9.26l9.685-11.541a1.526 1.526 0 012.203-.144L87.02 114.82l3.636 1.832c1.974-1.007 7.895-4.132 12.237-7.529 5.24-4.1 9.094-9.064 9.132-9.113a1.528 1.528 0 012.317-.12l11.151 11.743 16.805 7.72.335.137c.025.01.049.021.074.033l.372.175c6.064 2.85 22.175 10.423 20.881 28.262-.715 9.871-2.412 25.949-4.655 44.111-1.733 14.032-3.37 27.286-6.614 35.078-2.379 5.711-7.075 7.599-12.776 7.599z" fill="#111"/><path d="M103.237 135.036c-.438 0-.874-.188-1.176-.552l-11.408-13.755-11.407 13.755a1.527 1.527 0 01-2.307.051l-13.767-15.173a1.529 1.529 0 012.263-2.055l12.583 13.869 11.46-13.818a1.527 1.527 0 012.351 0l12.583 15.173a1.529 1.529 0 01-1.175 2.505z" fill="#111"/><path d="M94.275 133.942s1.398-4.498 2.184-8.607l-5.738-6.928-.067-.072-.067.072-5.738 6.928c.786 4.109 2.184 8.607 2.184 8.607s-2.131 10.65-2.87 16.939c-.385 3.277-1.262 27.613-2.015 50.178l17.047 1.054c-.76-22.854-1.66-47.904-2.05-51.232-.739-6.289-2.87-16.939-2.87-16.939z" fill="#DBC890"/><path d="M99.195 203.643c-.82 0-1.499-.652-1.526-1.479-1.024-30.786-1.73-48.458-2.04-51.104-.716-6.088-2.764-16.379-2.85-16.814a1.526 1.526 0 01.039-.758c.012-.041 1.225-3.963 2.002-7.737l-4.165-5.029-4.165 5.029c.777 3.774 1.99 7.696 2.003 7.737.077.247.09.507.04.757-.022.104-2.128 10.656-2.851 16.815-.214 1.823-.736 11.986-2.006 50.05a1.528 1.528 0 11-3.054-.102c1.022-30.644 1.703-47.569 2.025-50.305.497-4.235 2.19-13.841 2.817-16.669-.35-1.164-1.442-4.894-2.115-8.411a1.529 1.529 0 01.324-1.263l5.738-6.928a1.59 1.59 0 01.06-.068l.067-.072c.289-.31.693-.486 1.116-.486h.001c.423 0 .827.176 1.116.485l.067.072c.021.022.041.045.061.069l5.738 6.928c.291.351.41.815.324 1.263-.67 3.505-1.757 7.22-2.112 8.398.392 1.986 2.154 11.058 2.814 16.682.326 2.769 1.019 20.049 2.06 51.36a1.529 1.529 0 01-1.476 1.579l-.052.001z" fill="#111"/><path d="M115.782 48.788l-2.571-14.59a25.39 25.39 0 00-5.196-11.497c-5.106-6.362-14.663-14.856-28.136-12.538l-.236.041C66.191 12.637 60.113 23.89 57.49 31.615a25.41 25.41 0 00-.952 12.583l2.57 14.59c-3.346-.635-8.509 1.072-6.74 10.242 1.568 8.12 8.24 11.443 11.936 11.256.635 1.491 1.36 2.93 2.177 4.183 5.244 7.843 17.023 15.204 25.6 15.98 0 0 1.529.129 3.547-.227 2.019-.356 3.412-1 3.412-1 7.794-3.665 16.346-14.614 18.594-23.779.339-1.457.528-3.056.616-4.675 3.536-1.09 8.671-6.495 7.368-14.662-1.472-9.222-6.907-9.06-9.835-7.318z" fill="#fff"/><path d="M95.893 101.727c-2.189.386-3.87.252-3.941.246-9.009-.816-21.25-8.443-26.742-16.654-.666-1.022-1.305-2.202-1.912-3.528-4.462-.378-10.846-4.262-12.43-12.471-.89-4.609-.26-8.03 1.87-10.168 1.175-1.18 2.786-1.872 4.531-1.995l-2.237-12.694a27.018 27.018 0 011.01-13.34c2.461-7.244 8.764-19.79 23.33-22.424a1.25 1.25 0 01.125-.017c.04-.01.085-.02.123-.026 14.588-2.51 24.799 7.122 29.587 13.087a26.995 26.995 0 015.509 12.19l2.237 12.693c1.682-.482 3.432-.382 4.941.325 2.732 1.28 4.492 4.279 5.232 8.914 1.318 8.256-3.355 14.091-7.418 15.973-.117 1.453-.314 2.779-.587 3.952-2.357 9.613-11.254 20.97-19.432 24.815-.073.034-1.607.736-3.796 1.122zM56.955 60.275c-.683.12-1.43.41-2.053 1.036-1.352 1.357-1.71 3.926-1.034 7.429 1.424 7.378 7.449 10.166 10.358 10.019a1.528 1.528 0 011.483.927c.654 1.535 1.344 2.862 2.05 3.947 4.955 7.41 16.389 14.563 24.458 15.293 0 0 1.37.103 3.145-.21 1.776-.314 3.028-.879 3.04-.884 7.321-3.443 15.62-14.078 17.747-22.753.29-1.244.484-2.728.574-4.394a1.53 1.53 0 011.076-1.379c2.784-.857 7.493-5.539 6.309-12.96-.562-3.522-1.776-5.813-3.51-6.626-1.761-.825-3.533.084-4.034.382a1.525 1.525 0 01-2.286-1.048l-2.571-14.59a23.938 23.938 0 00-4.883-10.806c-5.334-6.646-14.294-14.12-26.686-11.989a1.632 1.632 0 01-.112.015c-.036.01-.073.018-.11.025-12.373 2.237-18.238 12.328-20.98 20.398a23.95 23.95 0 00-.894 11.825l2.57 14.59a1.53 1.53 0 01-1.789 1.768 5.383 5.383 0 00-1.867-.015z" fill="#111"/><path d="M89.078 5.47c-3.381-2.533-8.616-3.696-8.616-3.696L81.918 4.2l-.033-.001-.07-.003a21.995 21.995 0 00-1.89-.026 28.5 28.5 0 00-4.261.408l-.131.019.011.001c-15.428 2.7-25.722 17.214-26.55 19.27l2.785-.888h.001c-2.45 3.998-3.246 6.76-3.964 10.044-3.273 14.965 5.252 28.163 5.252 28.163l5.224 2.011.815-4.409s1.814-6.388 2.46-7.327c.903-1.313 8.034-8.553 12.349-13.966 1.068.744-.68 6.746-.68 6.746s5.917-.934 8.806-6.033c1.808-3.19 2.31-4.335 2.31-4.335s2.744-5.21 2.821.9c.04 3.106-1.44 6.024-1.44 6.024s13.975-6.346 9.075-20.815l6.061 2.508c4.64 4.055 7.841 15.858 10.234 20.799 3.089 6.376 4.678 5.5 4.678 5.5l3.392 3.053 3.085-2.88s3.474-23.616-15.135-37.674c-6.912-5.22-15.324-6.52-18.045-5.818z" fill="#000"/><path d="M58.558 64.703c-.27.047-.552.022-.814-.08l-5.223-2.01a1.527 1.527 0 01-.735-.597c-.362-.56-8.832-13.91-5.462-29.32.511-2.34 1.075-4.574 2.4-7.324a1.527 1.527 0 01-1.146-2.076c1.17-2.91 12.08-17.407 27.585-20.184.05-.013.101-.022.153-.03l.112-.016a30.495 30.495 0 013.785-.405l-.06-.1a1.53 1.53 0 011.64-2.28c.216.048 5.07 1.146 8.643 3.567 3.85-.517 12.032 1.252 18.608 6.22 7.917 5.98 13.148 14.64 15.127 25.042 1.489 7.825.637 13.822.6 14.074a1.53 1.53 0 01-.47.895l-3.085 2.88a1.527 1.527 0 01-2.064.02l-2.939-2.646a2.75 2.75 0 01-.438-.102c-1.596-.508-3.247-2.561-5.046-6.276-.725-1.497-1.484-3.497-2.361-5.814-2.005-5.29-4.5-11.875-7.503-14.5a1.53 1.53 0 012.01-2.303c3.579 3.129 6.225 10.11 8.35 15.72.817 2.154 1.588 4.188 2.254 5.563 1.73 3.573 2.824 4.455 3.133 4.648.425-.048.861.084 1.192.383l2.351 2.116 1.652-1.542c.16-1.57.513-6.568-.658-12.647-1.876-9.735-6.568-17.497-13.946-23.07-6.847-5.173-14.75-6.074-16.743-5.559a1.526 1.526 0 01-1.297-.256c-1.401-1.05-3.187-1.853-4.718-2.417a1.53 1.53 0 01-1.635 1.448l-.05-.002-.035-.002a20.585 20.585 0 00-1.758-.024 27.268 27.268 0 00-4.045.387l-.04.006-.022.003c-.017.004-.038.006-.052.01l-.039.007C64.424 8.112 55.983 16.866 52.35 21.56a1.53 1.53 0 01.733 2.218c-2.421 3.951-3.117 6.565-3.774 9.571-2.788 12.751 3.45 24.306 4.795 26.597l3.02 1.163.481-2.6a1.5 1.5 0 01.033-.139c.703-2.476 1.985-6.779 2.67-7.776.408-.592 1.539-1.826 3.67-4.137 2.617-2.84 6.202-6.727 8.744-9.916a1.528 1.528 0 012.067-.301c.505.351 1.589 1.106.603 5.737 1.708-.725 3.939-2.083 5.322-4.523 1.723-3.041 2.235-4.187 2.24-4.198.014-.032.03-.066.047-.096.795-1.51 2.09-3.228 3.734-2.831 1.917.462 1.95 3.139 1.967 4.425.011.862-.08 1.707-.224 2.491 3.418-2.738 7.8-8.162 4.884-16.773a1.53 1.53 0 012.894-.981c5.282 15.6-9.738 22.629-9.89 22.698a1.528 1.528 0 01-1.995-2.084c.012-.023 1.31-2.638 1.275-5.313v-.075c-.232.484-.87 1.769-2.274 4.245-3.216 5.675-9.623 6.745-9.897 6.79a1.527 1.527 0 01-1.706-1.939c.192-.657.364-1.335.508-1.982-2.056 2.364-4.275 4.77-6.052 6.7-1.593 1.726-3.096 3.357-3.399 3.796-.338.563-1.418 3.962-2.229 6.81l-.802 4.338a1.53 1.53 0 01-1.237 1.228zm56.494-17.258z" fill="#111"/><path d="M60.157 64.211l-1.05-5.422c-3.346-.636-8.509 1.072-6.74 10.242 1.568 8.12 8.24 11.442 11.936 11.256l-1.963-5.958-2.183-10.118z" fill="#fff"/><path d="M64.569 81.792a1.59 1.59 0 01-.189.022c-4.434.224-11.795-3.592-13.512-12.494-.89-4.608-.26-8.029 1.87-10.167 1.641-1.648 4.129-2.347 6.655-1.867a1.528 1.528 0 011.215 1.212l1.05 5.422a1.529 1.529 0 11-3.001.581l-.832-4.3c-.854.001-2.02.203-2.923 1.11-1.352 1.358-1.71 3.927-1.034 7.43 1.13 5.854 5.156 8.818 8.225 9.72l-1.204-3.653a1.53 1.53 0 012.903-.958l1.962 5.958a1.53 1.53 0 01-1.185 1.984z" fill="#111"/><path d="M115.782 48.789l.868 5.454 1.406 10.256.192 6.27c3.537-1.09 8.672-6.495 7.368-14.663-1.471-9.222-6.906-9.06-9.834-7.317z" fill="#fff"/><path d="M118.514 72.274a1.529 1.529 0 01-1.792-1.46l-.192-6.27a1.527 1.527 0 113.055-.093l.117 3.844c2.575-1.897 5.346-6.06 4.406-11.948-.562-3.523-1.775-5.814-3.51-6.627-1.159-.543-2.323-.334-3.127-.044l.689 4.327c.133.833-.442 1.632-1.269 1.75a1.528 1.528 0 01-1.749-1.27l-.868-5.454a1.528 1.528 0 01.728-1.555c2.209-1.315 4.785-1.51 6.892-.523 2.732 1.28 4.493 4.279 5.232 8.914 1.429 8.952-4.184 15.057-8.427 16.364a1.605 1.605 0 01-.185.045zm-29.713.609c.213-.36 1-.142 1.958-.29.95-.19 1.615-.665 1.938-.4.335.272.298 1.936-1.598 2.323-1.913.288-2.518-1.262-2.298-1.633zm-1.187-15.002c-.6 0-1.115-.453-1.18-1.063-.016-.126-.438-3.287-4.013-4.444a1.19 1.19 0 01.731-2.263c5.077 1.643 5.624 6.26 5.645 6.455a1.19 1.19 0 01-1.183 1.315zm15.962-5.229c-.715-.513-1.542-.743-2.268-.63-.566.086-1.107.441-1.532.995-.593.773-.864 1.827-.71 2.75.142.846.708 1.663 1.514 2.186.629.408 1.308.576 1.92.476l.064-.011c1.338-.262 2.468-2.157 2.282-3.825-.078-.7-.553-1.425-1.27-1.94zm-29.934 5.261c.498-.727 1.197-1.224 1.918-1.366.56-.112 1.19.037 1.778.413.821.525 1.436 1.423 1.604 2.344.155.843-.1 1.804-.678 2.57-.453.6-1.034.988-1.644 1.103a2.25 2.25 0 01-.064.011c-1.347.21-3.055-1.186-3.448-2.818-.165-.684.035-1.528.534-2.257zm13.593 29.151a1.188 1.188 0 01-.896-1.968c.192-.222 4.788-5.395 10.93-3.123a1.19 1.19 0 01-.823 2.23c-4.589-1.696-8.167 2.287-8.317 2.457a1.189 1.189 0 01-.894.404zm9.18-38.975c-.98 0-2.021-.117-3.11-.393a1.36 1.36 0 01.668-2.635c5.314 1.35 9.199-2.16 9.362-2.31a1.36 1.36 0 011.852 1.987c-.172.162-3.648 3.351-8.772 3.351z" fill="#111"/><path d="M96.027 55.74a1.54 1.54 0 01-1.495-1.876c.252-1.13 1.395-3.293 4.08-4.228 4.48-1.56 7.303 1.03 8.169 2.615a1.528 1.528 0 11-2.681 1.467c-.215-.368-1.483-2.238-4.483-1.194-1.716.598-2.093 1.973-2.108 2.031a1.513 1.513 0 01-1.482 1.184zm-26.653-2.72c-1.462 0-2.457-.124-2.567-.139a1.359 1.359 0 01.353-2.695c.064.008 6.59.809 10.693-2.021a1.358 1.358 0 111.542 2.238c-3.202 2.209-7.376 2.617-10.021 2.617zm-.154 9.018a1.536 1.536 0 01-1.515-1.761c.03-.203.8-4.998 6.423-6.328 2.316-.548 4.181.702 4.386.846a1.53 1.53 0 01-1.745 2.51c-.04-.026-.956-.613-1.938-.38-3.558.842-4.084 3.694-4.105 3.815a1.52 1.52 0 01-1.506 1.298zM55.634 169.102c-.753 0-1.41-.557-1.512-1.325l-1.615-12.014a1.529 1.529 0 113.029-.408l1.614 12.014a1.53 1.53 0 01-1.516 1.733z" fill="#111"/><path d="M91.886 193.409l-9.72-2.67-7.118-5.184-9.769 21.424 11.408 4.452 14.704 3.928 1.655-10.594-1.16-11.356z" fill="#fff"/><path d="M91.392 216.888c-.131 0-.264-.017-.394-.052l-14.704-3.927a1.532 1.532 0 01-.161-.053l-11.408-4.452a1.528 1.528 0 01-.835-2.059l9.769-21.425a1.528 1.528 0 012.29-.601l6.892 5.02 9.45 2.595a1.528 1.528 0 011.116 1.319l1.16 11.357c.013.13.01.262-.01.391l-1.655 10.594a1.53 1.53 0 01-1.51 1.293zm-14.228-6.912l12.98 3.467 1.362-8.719-1.033-10.118-8.71-2.392a1.544 1.544 0 01-.495-.238l-5.606-4.083-8.32 18.25 9.822 3.833z" fill="#111"/><path d="M121.68 195.709s-.348-2.844.783-4.128a106.544 106.544 0 002.475-2.945l2.759-25.214-19.862 29.532 13.845 2.755zm-31.008-6.049s1.372 4.534 1.456 14.4c.062 7.217-.854 13.518-.854 13.518l16.561-24.624-4.916-.978-12.247-2.316z" fill="#fff"/><path d="M91.276 219.107a1.53 1.53 0 01-1.514-1.749c.009-.062.898-6.279.838-13.285-.08-9.462-1.378-13.93-1.391-13.974a1.532 1.532 0 011.747-1.942l12.247 2.317 16.926 3.368c.091-1.087.387-2.364 1.188-3.272.791-.898 1.701-2 2.15-2.549l2.71-24.765a1.529 1.529 0 013.038.333l-2.759 25.214a1.533 1.533 0 01-.331.795c-.056.069-1.376 1.702-2.517 2.995-.436.494-.519 2.022-.412 2.934a1.531 1.531 0 01-1.815 1.682l-18.76-3.733-9.96-1.884c.42 2.333.944 6.424.995 12.455.062 7.251-.832 13.489-.87 13.751a1.529 1.529 0 01-1.51 1.309z" fill="#111"/><path d="M104.124 213.872l-.075-.001a1.528 1.528 0 01-1.452-1.601l.428-8.898-1.998-11.222a1.529 1.529 0 013.009-.536l2.028 11.391c.02.113.027.227.021.342l-.436 9.07a1.528 1.528 0 01-1.525 1.455zm35.316-1.066a1.528 1.528 0 01-1.44-1.019c-.03-.084-3.08-8.451-11.439-13.645a1.529 1.529 0 011.612-2.598c9.304 5.781 12.574 14.843 12.709 15.226a1.529 1.529 0 01-1.442 2.036z" fill="#111"/><path d="M118.59 114.54s.366-2.061-.502-3.458c-.868-1.397-2.279-2.067-2.279-2.067s1.054-1.472.072-3.435c-.98-1.963-3.063-2.596-5.101-2.747-2.037-.151-7.427.924-7.427.924l4.756-7.715s1.693-.553 5.114-2.114c3.021-1.378 2.827-3.97 1.358-5.134-.995-.789-2.305-1.263-5.604-.92-2.705.282-5.601 1.044-6.658 1.712-1.056.669-4.98 7.89-6.904 10.534-3.552 4.877-5.722 7.558-5.722 7.558l-3.995-5.37s-3.425-5.447-7.842-6.512c-3.678-.887-5.59 1.327-5.137 2.888.453 1.56 3.404 3.525 6.02 7.401 1.883 2.79 4.092 8.782 4.092 8.782s3.169 14.875 2.49 18.122c-.68 3.247-19.095 33.039-19.095 33.039l19.38 10.1 16.765-31.886s5.205-5.394 7.474-11.329c1.712-4.478 2.108-5.314 2.108-5.314s6.17-.59 7.177-1.496c1.006-.906 2.672-4.685 2.411-6.932-.416-3.575-2.951-4.631-2.951-4.631z" fill="#fff"/><path d="M123.059 118.994c-.335-2.884-1.83-4.479-2.865-5.254.025-.937-.092-2.315-.807-3.466a7.246 7.246 0 00-1.693-1.858c.225-.96.214-2.201-.445-3.52-1.073-2.148-3.211-3.355-6.355-3.588-1.077-.08-2.859.122-4.458.361l2.692-4.365c.764-.281 2.336-.893 4.73-1.985 2.559-1.167 3.138-2.962 3.255-3.928.174-1.43-.432-2.885-1.582-3.796-1.558-1.234-3.439-1.583-6.711-1.242-2.527.263-5.852 1.014-7.316 1.94-.845.535-1.86 2.127-4.334 6.206-1.098 1.81-2.234 3.682-2.99 4.72a250.522 250.522 0 01-4.452 5.943l-2.77-3.723c-.414-.641-3.978-5.98-8.743-7.13-2.448-.59-4.633-.11-5.996 1.318-.95.995-1.31 2.297-.966 3.483.328 1.131 1.247 2.09 2.52 3.419 1.09 1.139 2.448 2.556 3.7 4.411 1.63 2.414 3.593 7.572 3.887 8.356 1.199 5.645 2.91 15.259 2.466 17.379-.446 2.003-10.07 18.265-18.9 32.548a1.528 1.528 0 102.6 1.609c3.099-5.013 18.593-30.19 19.291-33.53.71-3.391-1.95-16.217-2.491-18.754a1.514 1.514 0 00-.06-.21c-.094-.252-2.296-6.199-4.26-9.109-1.398-2.071-2.856-3.593-4.027-4.816-.784-.819-1.673-1.746-1.791-2.156-.023-.078.022-.289.24-.518.219-.228 1.084-.937 3.07-.457 3.75.904 6.878 5.793 6.908 5.84.02.034.043.067.067.099l3.153 4.238-.462.406a1.53 1.53 0 002.016 2.299l1.522-1.338.015-.016c.058-.053.114-.108.165-.17.09-.111 2.235-2.767 5.769-7.62.831-1.143 1.949-2.984 3.131-4.934 1.139-1.877 2.85-4.698 3.405-5.238.734-.426 3.2-1.167 5.949-1.454 3.053-.318 3.922.142 4.498.598.321.255.492.65.446 1.03-.07.57-.599 1.108-1.49 1.515-3.277 1.494-4.94 2.047-4.955 2.052a1.524 1.524 0 00-.825.65l-4.756 7.714a1.53 1.53 0 001.599 2.303c1.443-.288 5.515-1.011 7.015-.899 2.023.15 3.282.774 3.848 1.907.259.518.283.961.236 1.289l-6.745.456a1.528 1.528 0 00.206 3.051l7.238-.489c.354.228.938.671 1.34 1.318.213.343.304.812.335 1.252l-7.8.732a1.53 1.53 0 00.285 3.045l8.649-.812c.505.344 1.535 1.271 1.764 3.242.202 1.738-1.244 4.941-1.88 5.584-.465.26-2.008.575-3.734.828l.709-1.646.333-.069a1.53 1.53 0 00-.627-2.993l-1.109.232a1.526 1.526 0 00-1.089.891l-2.07 4.804c-.096.209-.575 1.299-2.138 5.388-2.127 5.562-7.097 10.761-7.147 10.813-.1.104-.185.222-.253.35l-16.765 31.886a1.53 1.53 0 002.704 1.424l16.668-31.7c.917-.98 5.489-6.038 7.647-11.68.908-2.377 1.44-3.711 1.735-4.432 2.862-.312 6.114-.861 7.145-1.789 1.35-1.216 3.228-5.482 2.906-8.245z" fill="#111"/><path d="M78.697 142.898l-24.79 37.606-4.378.216-7.082 8.292 25.096 28.566s6.767-9.129 11.691-17.303c2.538-4.212 13.725-23.403 13.725-23.403s5.558-9.225 6.983-12.233c-16.042-9.875-21.245-21.741-21.245-21.741z" fill="#fff"/><path d="M67.543 219.107a1.53 1.53 0 01-1.226-2.44c.067-.091 6.781-9.167 11.61-17.182 2.502-4.154 13.6-23.192 13.713-23.384.059-.098 4.371-7.261 6.308-10.91-11.335-7.28-17.08-15.378-19.39-19.303l-23.374 35.457a1.528 1.528 0 01-1.2.686l-3.72.183-6.655 7.791a1.527 1.527 0 11-2.323-1.986l7.082-8.293c.273-.32.666-.513 1.087-.534l3.605-.178 24.362-36.958a1.527 1.527 0 012.675.227c.05.113 5.253 11.578 20.646 21.054.664.408.914 1.252.58 1.957-1.44 3.042-6.826 11.988-7.055 12.367-.1.173-11.21 19.23-13.724 23.403-4.905 8.142-11.704 17.333-11.772 17.425-.3.404-.762.618-1.229.618z" fill="#111"/><path d="M83.542 171.931c-.32 0-.644-.1-.92-.308-9.845-7.432-13.049-15.974-13.18-16.335a1.529 1.529 0 012.87-1.05c.028.078 3.066 8.086 12.151 14.944a1.529 1.529 0 01-.921 2.749z" fill="#111"/></svg>