<svg width="18" height="31" fill="none" xmlns="http://www.w3.org/2000/svg"><path d="M1.944 1.633C.364 2.999.054 7.27.65 10.753c.464 2.71 1.452 6.348 3.118 9.772 1.567 3.222 3.754 6.111 5.42 7.782 2.142 2.147 5.194 3.51 6.774 2.144.799-.69 1.986-2.579 2.04-2.918l-.848-1.745-2.335-4.8c-.174-.356-1.262-.03-1.814.387-.746.563-1.433 2.075-1.433 2.075-.51.393-.939.001-1.834-.548-1.1-.675-2.335-2.77-3.32-4.669-.898-1.972-1.83-4.331-1.843-5.945-.01-1.313-.105-1.994.373-2.456 0 0 1.315-.22 2.005-.898.511-.502 1.178-1.694 1.005-2.05l-2.335-4.8L4.774.338C4.52.266 2.743.942 1.944 1.633z" fill="#024892"/></svg>