<svg width="25" height="25" fill="none" xmlns="http://www.w3.org/2000/svg"><circle cx="12.5" cy="12.5" r="12.5" fill="#fff"/><path d="M19.809 8.877a4.079 4.079 0 01-4.079-4.038h-2.634v7.195l-.003 3.94a2.387 2.387 0 01-3.612 2.044 2.378 2.378 0 01-1.164-2.009 2.387 2.387 0 013.139-2.3v-2.668a5.052 5.052 0 00-.76-.057A5.05 5.05 0 006.9 12.68a4.952 4.952 0 00-1.246 2.981 4.936 4.936 0 001.47 3.842 5.048 5.048 0 003.57 1.464c.256 0 .511-.019.76-.057a5.04 5.04 0 002.811-1.407 4.928 4.928 0 001.48-3.508l-.013-5.886c.451.35.947.637 1.48.861.826.35 1.703.524 2.602.524V8.873c.003.004-.006.004-.006.004z" fill="#0A3864"/></svg>