<svg width="170" height="233" fill="none" xmlns="http://www.w3.org/2000/svg"><path d="M142.011 47.363a1.528 1.528 0 010-3.058c1.614 0 3.261-.916 3.531-2.674a12.075 12.075 0 01-.072-.036c-1.784-.905-2.735-2.377-2.608-4.04.094-1.23.787-2.188 1.808-2.502.978-.3 2.03.07 2.746.97.688.864 1.008 2.111 1.141 3.33.871.09 1.643-.044 1.932-.292.481-.413.743-1.033.781-1.841.012-.268 0-.541-.032-.815-1.764-.518-3.417-1.299-4.526-2.392-.592-.583-1.402-1.95-1.203-3.321a2.467 2.467 0 011.303-1.872c2.052-1.096 4.82 1.563 4.847 1.59.888.918 1.613 2.15 2.082 3.458 1.313.246 2.655.348 3.77.279 1.034-.064 1.783-.522 2.587-1.581.621-.82.252-2.023-.168-2.888a8.132 8.132 0 00-.327-.608c-1.604 1.866-4.973 1.927-6.861.713-.788-.507-1.294-1.404-1.414-2.49a7.866 7.866 0 01-1.87-1.574c-1.28-1.47-2.562-4.202-1.958-7.062.338-1.603 1.411-3.827 4.598-5.32a1.53 1.53 0 011.296 2.77c-1.644.77-2.621 1.84-2.904 3.181-.347 1.647.389 3.407 1.272 4.422.119.137.243.265.373.386.169-.228.361-.428.572-.593 1.667-1.305 4.137-.267 5.464.291.34.143.671.313.991.509.418-.93.424-1.702-.06-2.487-.632-1.026-1.557-1.067-2.797-1.014-.751.033-1.689.074-2.283-.748-.167-.23-.519-.861-.189-1.736.912-2.417 3.532-3.695 5.679-4.085 3.62-.658 9.211.868 10.301 5.444.417 1.754.134 3.46-.82 4.937-1.231 1.906-3.556 3.357-6.233 3.898 1.037 2.247.958 4.337-.228 5.902-.489.645-1.978 2.609-4.833 2.785-.944.058-2.12.015-3.369-.15 0 .105-.003.209-.007.311-.077 1.66-.714 3.051-1.844 4.022-1 .858-2.492 1.149-3.976 1.036-.605 2.889-3.209 4.945-6.492 4.945zm16.274-29.515c1.169.22 2.468.82 3.418 2.363 1.179 1.912.948 3.75.239 5.344l.128-.024c1.865-.357 3.576-1.369 4.357-2.578.504-.78.639-1.62.413-2.567-.61-2.561-4.424-3.573-6.781-3.145a6.43 6.43 0 00-1.774.607zm-53.13 39.35h-9.583l1.777 73.163s14.562 1.195 20.871-3.562c4.806-3.624 14.885-16.176.426-31.713-14.718-15.815-13.491-37.888-13.491-37.888z" fill="#111"/><path d="M101.393 132.028c-2.343 0-3.97-.127-4.168-.143a1.529 1.529 0 01.249-3.048c.14.012 14.059 1.09 19.827-3.259 3.023-2.28 6.734-7.01 7.246-12.842.483-5.497-1.878-11.085-7.018-16.608-12.844-13.8-13.919-31.913-13.932-37.401h-8.024a1.528 1.528 0 010-3.058h9.583a1.526 1.526 0 011.526 1.614c-.012.213-1 21.63 13.083 36.761 5.755 6.184 8.388 12.563 7.827 18.96-.6 6.832-4.928 12.359-8.452 15.016-4.554 3.434-12.766 4.008-17.747 4.008z" fill="#111"/><path d="M100.934 104.507c-2.175-2.451-2.5-4.219-2.5-12.16V76.662L81.146 86.856 63.858 76.662v15.685c0 7.941-.325 9.709-2.5 12.16-2.176 2.45-19.377 13.27-19.377 13.27l25.095 25.427h28.14l25.095-25.427s-17.201-10.82-19.377-13.27z" fill="#fff"/><path d="M67.077 144.733c-.394 0-.788-.152-1.087-.455l-25.095-25.427a1.53 1.53 0 01.273-2.369c6.58-4.138 17.569-11.325 19.048-12.991 1.741-1.961 2.115-3.137 2.115-11.144V76.662a1.53 1.53 0 012.304-1.318l16.512 9.737 16.512-9.737a1.527 1.527 0 012.304 1.318v15.685c0 8.007.373 9.183 2.115 11.144 1.479 1.666 12.468 8.853 19.047 12.991a1.53 1.53 0 01.274 2.369l-25.095 25.427a1.527 1.527 0 11-2.175-2.149l23.761-24.075c-4.505-2.861-16.175-10.367-18.097-12.532-2.603-2.932-2.886-5.259-2.886-13.175v-13.01l-14.984 8.836a1.527 1.527 0 01-1.552 0l-14.984-8.835v13.01c0 7.915-.284 10.242-2.886 13.174-1.923 2.165-13.593 9.671-18.098 12.532l23.761 24.075a1.53 1.53 0 01-1.087 2.604z" fill="#111"/><path d="M44.047 150.314l5.21-34.293 28.573 15.101h6.634l28.574-15.101 5.209 34.293.497 63.952H43.55l.497-63.952z" fill="#fff"/><path d="M118.745 215.794H43.551a1.524 1.524 0 01-1.528-1.541l.497-63.951c0-.073.006-.146.017-.218l5.21-34.293a1.527 1.527 0 012.224-1.122l28.239 14.924h5.876l28.239-14.924a1.525 1.525 0 012.224 1.122l5.21 34.293c.011.072.017.145.017.218l.497 63.951a1.529 1.529 0 01-1.528 1.541zm-73.654-3.058h72.114l-.484-62.301-4.87-32.057-26.672 14.096a1.53 1.53 0 01-.714.177h-6.634a1.53 1.53 0 01-.714-.177l-26.672-14.096-4.87 32.057-.484 62.301z" fill="#111"/><path d="M53.545 218.062s-.56-28.863-1.536-70.341c-.668-32.216 10.975-47.66 10.975-47.66l-16.997 11.483-19.204 9.4s-7.848 3.549-8.98 13.327c-1.131 9.778-.816 24.155.723 40.146 1.54 15.992 14.815 33.246 14.815 33.246v.002l20.204 10.397z" fill="#FFEFD9"/><path d="M53.545 219.591c-.24 0-.48-.056-.7-.169l-20.203-10.397a1.532 1.532 0 01-.546-.473c-.913-1.196-13.552-17.994-15.091-33.989-1.582-16.437-1.838-30.809-.72-40.468 1.197-10.338 9.234-14.251 9.843-14.533l19.092-9.345 16.91-11.424a1.527 1.527 0 012.074 2.188c-.112.149-11.315 15.491-10.667 46.708.964 41.003 1.53 70.055 1.535 70.343a1.529 1.529 0 01-1.527 1.559zm-19.191-13.124l17.612 9.063c-.159-7.955-.684-33.747-1.485-67.773-.444-21.416 4.422-35.487 7.909-42.748l-11.548 7.801c-.059.04-.12.076-.184.107l-19.204 9.4a.73.73 0 01-.042.02c-.284.131-7.078 3.36-8.091 12.11-1.094 9.451-.836 23.594.726 39.823 1.378 14.324 12.664 29.984 14.307 32.197z" fill="#111"/><path d="M43.04 161.868a1.528 1.528 0 01-1.522-1.424l-1.06-15.431a1.529 1.529 0 113.049-.21l1.06 15.431a1.528 1.528 0 01-1.526 1.634z" fill="#111"/><path d="M47.296 205.514c-7.124-2.798-19.858-14.165-19.858-14.165l-4.584-4.188s-4.567-7.021-6.58-7.371c-1.952-.338-4.558 1.207-7.443 2.494-3.443 1.537-6.085 2.564-6.64 4.134-.943 2.663 2.422 3.496 4.507 3.123 1.045-.187 7.559-2.39 7.559-2.39l1.274 2.398s-5.046.344-6.166.828c-.589.254-1.83 1.783-3.142 3.338-1.186 1.406-2.455 2.789-2.883 4.081-.962 2.908 1.867 4.074 1.867 4.074s-1.339 1.465-1.044 3.493c.263 1.807 1.876 2.3 1.876 2.3s-.769 1.38-.104 2.683c.432.848 1.198 1.772 3.12 1.522 1.921-.251 5.073-3.003 5.073-3.003l6.154.728s5.128 7.118 11.206 12.117c6.61 5.437 19.904 2.486 19.904 2.486l23.17.182-2.371-16.715s-17.77.648-24.895-2.149z" fill="#fff"/><path d="M74.573 222.849l-23.169-.181a1.385 1.385 0 00-.342.036c-.126.027-12.652 2.72-18.603-2.175-5.847-4.809-10.887-11.761-10.937-11.83a1.525 1.525 0 00-1.06-.624l-6.154-.728a1.529 1.529 0 00-1.183.366c-1.134.987-3.274 2.509-4.268 2.639-1.05.137-1.3-.189-1.561-.701-.187-.367-.078-.816.007-1.061 2.524-2.198 5.486-4.654 6.323-5.171.792-.032 3.467.212 5.664.478a1.528 1.528 0 00.367-3.036c-3.8-.46-6.102-.598-6.842-.41-.341.086-1.121.286-6.898 5.292a1.334 1.334 0 01-.242-.6c-.164-1.131.502-2.042.635-2.211 2.385-2.189 5.223-4.698 6.05-5.297.933-.06 4.192.034 6.932.167.85.044 1.56-.61 1.6-1.453a1.528 1.528 0 00-1.452-1.601c-7.146-.347-7.804-.127-8.085-.033-.301.101-.915.309-6.297 5.218-.313-.353-.522-.885-.267-1.656.283-.855 1.242-1.981 2.17-3.069l.837-.99c.77-.918 1.82-2.165 2.217-2.454.652-.227 3.36-.534 5.58-.687l3.454-.038a1.53 1.53 0 00-.017-3.058h-.017l-2.57.028-.84-1.576a1.528 1.528 0 00-1.837-.731c-3.15 1.066-6.755 2.23-7.339 2.334-1.144.204-2.444-.126-2.8-.546-.049-.057-.139-.164.002-.561.283-.799 2.712-1.872 4.855-2.819l.967-.429c.583-.26 1.155-.531 1.713-.794 1.832-.867 3.726-1.763 4.818-1.595.867.326 3.468 3.443 5.59 6.703.07.108.154.208.25.295l4.598 4.2c.528.472 13.021 11.583 20.316 14.447 7.337 2.881 24.77 2.281 25.508 2.254a1.529 1.529 0 00-.11-3.056c-.176.006-17.536.604-24.281-2.044-6.787-2.665-19.274-13.771-19.386-13.871l-4.442-4.058c-1.865-2.848-5.214-7.483-7.492-7.878-2.043-.354-4.293.711-6.675 1.838-.538.254-1.09.515-1.651.766-.327.146-.647.287-.958.424-3.354 1.483-5.778 2.554-6.5 4.596-.47 1.325-.275 2.59.548 3.56 1.182 1.395 3.37 1.821 5.117 1.653-.289.335-.606.711-.958 1.129l-.822.974c-1.119 1.312-2.275 2.669-2.746 4.092-.731 2.209.105 3.934 1.247 4.998a5.807 5.807 0 00-.486 3.269 4.342 4.342 0 001.56 2.775c-.137.752-.132 1.713.363 2.683 1.168 2.289 3.189 2.537 4.678 2.343 1.862-.243 4.24-2.015 5.354-2.922l4.84.572c1.344 1.791 5.824 7.541 11.072 11.857 3.517 2.893 8.608 3.638 12.922 3.638 3.973 0 7.287-.632 8.107-.802l23.003.18h.012a1.529 1.529 0 00.011-3.058z" fill="#111"/><path d="M107.344 195.611c-.683-3.688-1.052-7.568-1.22-11.682-.423-10.37.435-22.221.764-36.209.668-32.215-7.58-47.66-7.58-47.66l16.998 11.483 19.204 9.4s8.527 4.229 9.659 14.007c1.132 9.777.273 27.698-1.466 50.594-1.604 21.111-1.988 32.517-9.018 37.048-3.88 2.501-12.343 4.746-26.192 5.805-17.548 1.343-35.256 2.702-35.256 2.702s2.02-16.615-6.842-27.384c24.459-4.333 33.906-6.09 40.949-8.104z" fill="#FFEFD9"/><path d="M73.237 232.628a1.526 1.526 0 01-1.516-1.714c.019-.158 1.825-16.105-6.505-26.226a1.53 1.53 0 01.913-2.478c22.53-3.991 32.486-5.819 39.473-7.702-.516-3.164-.845-6.62-1.004-10.516-.284-6.982-.001-14.431.327-23.058.161-4.232.327-8.608.436-13.249.65-31.345-7.32-46.755-7.4-46.907a1.53 1.53 0 01.327-1.854 1.526 1.526 0 011.876-.131l16.91 11.423 19.108 9.354c.386.191 9.292 4.722 10.505 15.204 1.018 8.792.581 24.01-1.46 50.886-.104 1.37-.203 2.699-.299 3.988-1.42 19.074-2.202 29.581-9.414 34.23-4.591 2.958-13.894 5.049-26.904 6.044-17.548 1.343-35.256 2.702-35.256 2.702a1.524 1.524 0 01-.117.004zM69.1 204.789c5.99 8.895 6.05 20.241 5.806 24.649 4.917-.378 19.247-1.477 33.472-2.565 16.632-1.273 23.104-4.034 25.482-5.566 5.933-3.824 6.674-13.792 8.021-31.886.096-1.291.195-2.621.3-3.993 1.345-17.715 2.729-39.443 1.472-50.302-1.025-8.85-8.742-12.774-8.82-12.812l-19.197-9.398a1.45 1.45 0 01-.183-.106l-12.77-8.627c2.454 6.894 6.198 21.212 5.734 43.569-.109 4.668-.276 9.055-.437 13.298-.326 8.562-.607 15.956-.328 22.817.177 4.324.568 8.074 1.196 11.466a1.53 1.53 0 01-1.082 1.749c-6.964 1.99-16.331 3.745-38.666 7.707z" fill="#111"/><path d="M114.894 193.114a1.529 1.529 0 01-1.525-1.641l2.113-28.793a1.529 1.529 0 113.047.224l-2.112 28.793a1.53 1.53 0 01-1.523 1.417zm8.749 14.033a1.53 1.53 0 01-1.372-.853c-.028-.058-3.139-6.152-10.093-8.775a1.528 1.528 0 111.078-2.861c8.117 3.062 11.611 9.989 11.756 10.282a1.53 1.53 0 01-1.369 2.207z" fill="#111"/><path d="M114.257 52.297l2.571-14.59a25.408 25.408 0 00-.952-12.583c-2.624-7.725-8.701-18.978-22.154-21.41l-.236-.042C80.013 1.354 70.456 9.848 65.35 16.209a25.404 25.404 0 00-5.196 11.498l-2.571 14.59c-2.928-1.742-8.363-1.904-9.834 7.318-1.304 8.167 3.831 13.572 7.368 14.662.087 1.618.276 3.218.616 4.675 2.247 9.165 10.8 20.113 18.593 23.778 0 0 1.394.644 3.412 1 2.018.357 3.548.228 3.548.228 8.576-.776 20.355-8.138 25.6-15.98.817-1.254 1.541-2.692 2.176-4.183 3.696.187 10.369-3.135 11.936-11.256 1.769-9.17-3.394-10.877-6.741-10.242z" fill="#fff"/><path d="M77.472 95.237c-2.188-.386-3.723-1.088-3.787-1.118-8.187-3.85-17.084-15.206-19.437-24.802a27.326 27.326 0 01-.591-3.969c-4.063-1.882-8.735-7.717-7.418-15.974.74-4.634 2.5-7.633 5.232-8.914 1.509-.706 3.258-.805 4.941-.324l2.237-12.694a27.004 27.004 0 015.51-12.19C68.945 9.287 79.156-.344 93.744 2.165c.038.007.083.017.123.027.042.004.087.01.125.017 14.566 2.634 20.869 15.18 23.329 22.424a27.01 27.01 0 011.011 13.34l-2.237 12.693c1.747.123 3.356.815 4.532 1.996 2.13 2.138 2.759 5.559 1.87 10.167-1.585 8.21-7.969 12.094-12.43 12.472-.607 1.325-1.245 2.504-1.903 3.512-5.501 8.227-17.743 15.853-26.742 16.668-.08.007-1.762.142-3.95-.244zm-22.42-52.279c-.684-.12-1.486-.103-2.285.272-1.734.812-2.948 3.104-3.51 6.626-1.184 7.42 3.525 12.102 6.309 12.96a1.529 1.529 0 011.076 1.379c.09 1.665.285 3.15.578 4.41 2.124 8.659 10.422 19.294 17.756 22.742 0 0 1.25.565 3.027.878 1.776.314 3.145.21 3.159.21 8.055-.73 19.489-7.883 24.453-15.308.697-1.069 1.387-2.397 2.041-3.931a1.53 1.53 0 011.483-.928c2.909.147 8.934-2.64 10.358-10.019.676-3.502.318-6.071-1.033-7.428-1.373-1.378-3.349-1.13-3.922-1.021a1.529 1.529 0 01-1.79-1.768l2.571-14.59a23.94 23.94 0 00-.894-11.825c-2.742-8.07-8.607-18.161-20.98-20.399a1.611 1.611 0 01-.11-.024 1.596 1.596 0 01-.112-.015C80.836 3.047 71.875 10.522 66.54 17.167a23.94 23.94 0 00-4.883 10.806l-2.57 14.59a1.53 1.53 0 01-2.286 1.049 5.384 5.384 0 00-1.75-.654z" fill="#111"/><path d="M116.691 58.75c.024-1.353.089-2.52.173-3.511l1.601-2.322c3.981-8.608 10.386-34.926-18.194-49.106-4.624-2.295-12.318-3.27-17.53-.244-11.864-1.205-22.997 12.526-26.147 18.87-5.333 10.742-4.016 19.223-4.016 19.223l.972 5.47 4.033-4.832S60.67 22.29 74.537 14.102l6.005-3.643c-1.255 4.226-2.239 14.042 2.935 20.453 5.677 7.034 14.07 6.827 14.07 6.827s4.442 3.528 12.113 5.63c.058.034.324.507.699 1.216.256 1.486.423 3.468.26 5.938-1.131 17.154 8.234 19.854 8.234 19.854s-2.259-6.147-2.162-11.626z" fill="#000"/><path d="M123.088 30.217c-1.861-11.909-9.516-21.514-22.137-27.776C95.907-.06 88.009-.972 82.408 2.004c-12.546-.889-23.89 13.122-27.182 19.753-5.486 11.05-4.214 19.772-4.152 20.17l.972 5.47a1.529 1.529 0 002.678.713l4.032-4.831a1.53 1.53 0 00.337-.747c.03-.193 3.128-19.382 16.22-27.112a1.53 1.53 0 00-1.552-2.634c-13.35 7.882-17.066 25.765-17.616 28.85l-1.664 1.994-.394-2.213c-.05-.364-1.06-8.356 3.876-18.3 3.383-6.815 14.08-19.1 24.624-18.028.32.032.642-.038.921-.2 4.639-2.692 11.75-1.86 16.085.292 11.861 5.885 18.75 14.467 20.476 25.51 1.292 8.265-.66 16.483-2.936 21.467l-.474.687c.169 1.652.407 3.227.391 4.818l2.673-3.877a1.45 1.45 0 00.129-.226c2.488-5.38 4.644-14.336 3.236-23.343z" fill="#111"/><path d="M120.288 69.85c-.022-.059-2.159-5.954-2.069-11.072.091-5.12.791-7.474.796-7.491a1.529 1.529 0 10-2.915-.919c-.034.109-.836 2.72-.936 8.356-.05 2.814.476 5.755 1.033 8.043-2.198-2.323-4.656-6.999-4.053-16.143.429-6.491-1.317-9.927-1.391-10.07a1.523 1.523 0 00-2.048-.65 1.524 1.524 0 00-.823 1.323c-5.91-1.983-9.348-4.657-9.384-4.686-.031-.025-.066-.043-.1-.066-.02-.013-.037-.03-.058-.044-.082-.05-8.207-5.107-7.182-15.684a1.527 1.527 0 10-3.042-.294c-.675 6.966 1.976 11.874 4.517 14.893-2.502-.807-5.525-2.37-7.967-5.395-4.462-5.529-4.034-14.425-2.658-19.056a1.53 1.53 0 00-2.93-.871c-1.342 4.517-2.398 14.898 3.21 21.848 5.287 6.55 12.662 7.308 14.743 7.388 1.29.926 5.368 3.608 11.646 5.42l.207.384c.219 1.355.357 3.14.211 5.359-1.199 18.173 8.905 21.3 9.335 21.423a1.53 1.53 0 001.858-1.996z" fill="#111"/><path d="M56.715 47.752l.868-5.454c-2.928-1.743-8.363-1.905-9.834 7.317-1.304 8.168 3.831 13.573 7.368 14.662l.192-6.27 1.406-10.255z" fill="#fff"/><path d="M54.851 65.783a1.593 1.593 0 01-.184-.044c-4.243-1.307-9.856-7.412-8.428-16.365.74-4.634 2.5-7.633 5.232-8.914 2.107-.986 4.683-.791 6.893.524.538.32.826.936.728 1.554l-.868 5.455a1.528 1.528 0 01-1.75 1.27 1.522 1.522 0 01-1.268-1.75l.688-4.327c-.803-.291-1.967-.5-3.127.044-1.734.812-2.948 3.104-3.51 6.626-.94 5.888 1.831 10.052 4.406 11.949l.118-3.844a1.528 1.528 0 113.055.093l-.192 6.27a1.53 1.53 0 01-1.793 1.46z" fill="#111"/><path d="M111.805 73.877a2.717 2.717 0 11-5.35-.948 2.717 2.717 0 115.35.948z" fill="#fff"/><path d="M108.393 77.586h-.003a4.215 4.215 0 01-2.738-1.749 4.219 4.219 0 01-.701-3.174 4.221 4.221 0 011.747-2.74 4.215 4.215 0 013.169-.702h.003a4.252 4.252 0 013.44 4.923 4.25 4.25 0 01-4.917 3.442zm.944-5.354a1.18 1.18 0 00-.888.197 1.187 1.187 0 00.475 2.146 1.19 1.19 0 001.377-.964 1.19 1.19 0 00-.963-1.378h-.001z" fill="#111"/><path d="M56.66 64.148a2.717 2.717 0 11-5.35-.948 2.717 2.717 0 115.35.948z" fill="#fff"/><path d="M53.25 67.857h-.004a4.216 4.216 0 01-2.739-1.75 4.221 4.221 0 01-.7-3.173 4.22 4.22 0 011.747-2.74 4.215 4.215 0 013.169-.703h.003a4.252 4.252 0 013.44 4.924 4.25 4.25 0 01-4.917 3.442zm.942-5.354a1.18 1.18 0 00-.887.196 1.189 1.189 0 00-.293 1.657 1.19 1.19 0 101.181-1.852v-.001zm16.8-20.797c-2.298 0-3.984-.183-4.126-.198a1.359 1.359 0 01.3-2.702c.068.008 6.699.72 11.405-.766a1.358 1.358 0 11.817 2.592c-2.73.862-5.918 1.074-8.396 1.074zm34.717 6.638c-.106 0-.214-.013-.322-.039-.287-.07-7.092-1.748-11.467-5.108a1.36 1.36 0 011.654-2.156c3.915 3.006 10.389 4.607 10.454 4.623a1.36 1.36 0 01-.319 2.68zM83.313 79.197a1.358 1.358 0 01-1.249-.823s-.479-1.022-1.442-1.19a2.074 2.074 0 00-1.674.445 1.358 1.358 0 11-1.91-1.933c.606-.6 2.141-1.526 4.054-1.19 1.937.34 3.091 1.917 3.468 2.795a1.36 1.36 0 01-1.247 1.896zm1.331-12.775c-.214-.36-1-.142-1.958-.29-.95-.19-1.615-.665-1.939-.4-.334.272-.297 1.937 1.599 2.323 1.912.288 2.518-1.262 2.298-1.633zm-14.78-19.708c.756-.543 1.63-.786 2.4-.667.598.092 1.17.467 1.62 1.053.627.818.915 1.933.751 2.91-.15.895-.749 1.76-1.601 2.313-.666.432-1.385.61-2.033.504a2.225 2.225 0 01-.067-.012c-1.416-.277-2.612-2.282-2.415-4.047.082-.74.585-1.508 1.345-2.054z" fill="#111"/><path d="M77.776 49.552a1.528 1.528 0 01-1.41-.941c-.042-.097-.79-1.755-2.678-2.177-3.26-.728-4.669 1.713-4.819 1.993a1.534 1.534 0 01-2.058.642 1.523 1.523 0 01-.658-2.043c.856-1.68 3.671-4.59 8.201-3.577 3.493.781 4.784 3.866 4.837 3.997a1.53 1.53 0 01-1.415 2.106zm21.516 2.516c-.525-.77-1.264-1.297-2.027-1.448-.594-.12-1.26.038-1.883.434-.869.555-1.52 1.504-1.7 2.478-.165.893.102 1.91.714 2.722.478.634 1.092 1.047 1.737 1.169l.068.011c1.425.224 3.234-1.25 3.653-2.976.175-.724-.035-1.617-.562-2.39z" fill="#111"/><path d="M103.909 56.479a1.528 1.528 0 01-1.521-1.403c-.037-.361-.478-3.661-4.417-4.356-.88-.156-1.864.356-2.168.566a1.533 1.533 0 01-2.124-.376 1.524 1.524 0 01.358-2.12c.215-.153 2.167-1.487 4.465-1.082 5.091.898 6.76 5.047 6.931 7.116a1.528 1.528 0 01-1.524 1.655z" fill="#111"/><path d="M93.544 108.467c-1.772-2.226-3.46-4.571-4.573-4.757-2.173-.362-11.998 3.398-11.998 3.398l2.445-8.29s2.008-1.098 4.18-2.322c2.23-1.258 5.309-2.82 6.214-4.497.906-1.676.447-3.397-1.862-3.51-1.484-.074-4.596 1.269-8.144 2.717-3.739 1.527-5.181 2.42-6.157 3.444-.824.863-1.416 3.403-2.558 6.931-1.492 4.611-3.124 7.584-3.761 10.148s.045 25.642-1.494 30.716c-1.54 5.074-7.627 14.918-7.627 14.918l14.387 13.591 7.999-22.5s1.625-3.359 2.219-4.888c.549-1.412 2.988-9.729 2.988-9.729s1.087 1.337 2.784.521c1.698-.815 1.466-2.521 2.377-4.372a84.397 84.397 0 012.31-4.303s1.663-1.439 2.207-3.523c.543-2.084-.397-4.27-.397-4.27s1.947-2.356 1.947-4.349c0-.972-1.8-2.955-3.486-5.074z" fill="#fff"/><path d="M98.558 113.541c0-1.276-.989-2.548-2.885-4.873a118.887 118.887 0 01-1.647-2.058c-2.08-2.651-3.33-4.162-4.804-4.408-1.763-.294-6.556 1.229-9.923 2.421l1.406-4.768c.75-.413 2.165-1.194 3.643-2.028l.766-.427c2.356-1.309 5.026-2.792 6.042-4.674.753-1.394.822-2.839.189-3.964-.355-.629-1.257-1.7-3.32-1.801-1.614-.08-3.925.832-7.87 2.45l-.926.38c-3.698 1.51-5.447 2.504-6.686 3.803-.868.91-1.378 2.576-2.15 5.097-.226.739-.474 1.548-.756 2.419-.722 2.229-1.477 4.067-2.143 5.688-.697 1.696-1.299 3.16-1.647 4.562-.279 1.122-.329 4.353-.399 10.444-.084 7.306-.2 17.312-1.075 20.196-1.463 4.825-7.404 14.462-7.464 14.559a1.529 1.529 0 002.6 1.608c.252-.408 6.21-10.073 7.789-15.278 1.001-3.302 1.11-12.731 1.206-21.05.048-4.178.103-8.913.309-9.741.294-1.184.856-2.553 1.507-4.136.688-1.673 1.467-3.568 2.225-5.91.287-.887.54-1.712.77-2.465.501-1.638 1.07-3.495 1.439-3.882.757-.793 1.963-1.586 5.63-3.083l.93-.381c2.6-1.067 5.545-2.273 6.56-2.226.473.023.75.145.808.249.066.115.065.491-.214 1.008-.592 1.096-3.046 2.46-4.837 3.454l-.783.437c-2.138 1.206-4.142 2.301-4.162 2.312a1.529 1.529 0 00-.733.91l-2.18 7.388-2.098.384a1.529 1.529 0 00.55 3.008l3.023-.553.024-.007c.083-.017.166-.038.247-.069 4.46-1.706 9.95-3.429 11.157-3.323.591.285 2.005 2.086 2.946 3.285.24.306.483.615.727.921.319.401.642.797.956 1.183.807.989 2.016 2.471 2.196 3.011-.02.481-.235 1.066-.518 1.629l-3.212-4.201a1.528 1.528 0 00-1.156-.599l-13.584-.513a1.529 1.529 0 00-.116 3.056l12.866.486 3.955 5.173c.163.458.595 1.863.265 3.13-.115.439-.3.845-.506 1.204l-3.648-6.432a1.527 1.527 0 00-1.264-.772l-11.205-.476a1.521 1.521 0 00-1.592 1.463 1.529 1.529 0 001.462 1.592l10.36.44 3.907 6.889a80.826 80.826 0 00-1.922 3.628c-.364.738-.564 1.422-.742 2.026-.326 1.113-.46 1.42-.926 1.643-.36.174-.666.142-.913-.089-.14-.248-.58-1.141-.459-2.369.13-1.316.78-4.927.787-4.963a1.531 1.531 0 00-1.307-1.788l-4.568-.596a1.529 1.529 0 00-1.654 1.058l-1.445 4.593a1.54 1.54 0 00.174 1.289c.011.017 1.091 1.711 2.061 4.498 1.528 4.389.22 9.63.207 9.682-.012.045-.013.089-.02.133a144.676 144.676 0 01-1.568 3.36c-.025.05-.046.102-.065.154l-7.998 22.501a1.53 1.53 0 002.879 1.025l7.97-22.423c.253-.523 1.666-3.467 2.232-4.924.412-1.06 1.737-5.48 2.499-8.052.727.158 1.582.114 2.51-.331 1.744-.838 2.183-2.336 2.537-3.539.156-.532.303-1.035.55-1.536a82.714 82.714 0 012.147-4.016c.55-.527 1.935-2.019 2.477-4.1.446-1.71.123-3.397-.166-4.389.686-.987 1.766-2.826 1.766-4.616zm-16.217 12.831l1.715.224c-.205 1.202-.462 2.786-.544 3.625a7.22 7.22 0 00.645 3.792l-.276.935c-.11-.45-.24-.898-.394-1.342-.742-2.132-1.543-3.696-2.001-4.513l.855-2.721z" fill="#111"/><path d="M60.965 146.359l-15.96 22.624-4.915.231-8.317 11.193-13.247-5.99s1.366 9.123 2.319 15.132c1.508 9.512 4.73 18.22 10.45 22.28 11.325 8.038 19.736-4.705 22.116-7.231 4.977-5.282 7.156-8.584 12.288-15.832 4.087-5.774 7.894-11.646 12.122-18.022-11.72-8.959-16.856-24.385-16.856-24.385z" fill="#FFEFD9"/><path d="M38.73 216.008c-2.56 0-5.349-.824-8.318-2.931-6.877-4.881-9.818-15.359-11.075-23.289a2278.693 2278.693 0 01-2.321-15.144 1.529 1.529 0 013.022-.454c.014.092 1.376 9.186 2.317 15.119 1.165 7.35 3.815 17.008 9.825 21.273 7.87 5.586 14.053.2 19.063-5.806.427-.512.764-.916 1.057-1.227 4.371-4.639 6.584-7.776 10.602-13.471.488-.692 1.002-1.422 1.55-2.196 3.246-4.585 6.32-9.239 9.573-14.167l1.748-2.646c-8.383-6.918-13.227-16.757-15.207-21.492l-14.312 20.288a1.527 1.527 0 01-1.177.645l-4.191.198L33 181.32a1.528 1.528 0 11-2.453-1.825l8.317-11.193a1.528 1.528 0 011.154-.615l4.169-.196 15.53-22.014a1.53 1.53 0 011.47-.631 1.53 1.53 0 011.227 1.03c.05.149 5.14 15.096 16.334 23.654.64.488.79 1.389.346 2.06a2473.93 2473.93 0 00-2.52 3.811c-3.268 4.949-6.355 9.624-9.629 14.248-.547.773-1.06 1.502-1.547 2.192-4.099 5.809-6.356 9.009-10.876 13.806-.229.243-.556.635-.934 1.088-2.403 2.881-7.734 9.273-14.86 9.273z" fill="#111"/></svg>