<svg width="200" height="246" fill="none" xmlns="http://www.w3.org/2000/svg"><g clip-path="url(#clip0_7_2904)"><path d="M100.546 113.531c6.169 4 13.729 5.361 21.079 5.32 4.835-.028 9.741-.645 14.169-2.588 4.428-1.944 8.357-5.327 10.256-9.779 2.083-4.882 1.551-10.543-.161-15.567-1.713-5.024-4.519-9.586-7.028-14.263-.852-1.587-1.694-3.287-1.619-5.088.061-1.448.71-2.798 1.347-4.1 1.053-2.153 2.114-4.319 3.513-6.265 1.7-2.364 3.873-4.367 5.48-6.796 3.746-5.663 4.734-13.919 3.978-20.542-.689-6.044-1.995-14.376-5.75-19.317-3.447-4.536-8.495-8.363-13.773-10.47-2.108-.841-4.304-1.447-6.521-1.93-6.721-1.464-13.367-.927-19.736 1.883a31.409 31.409 0 00-8.412 5.463c-4.923 4.469-8.312 10.399-10.458 16.647-2.048 5.963-3.676 14.167-1.06 20.18 1.883 4.331 5.974 7.198 9.7 10.095 3.725 2.897 7.495 6.441 8.2 11.111.768 5.093-2.299 9.856-4.7 14.41a63.174 63.174 0 00-5.164 13.217c-.781 2.94-1.35 6.043-.676 9.01.9 3.969 3.924 7.156 7.336 9.369z" fill="#231815"/><path d="M121.292 120.207c-8.587 0-15.813-1.862-21.482-5.538-4.237-2.747-7.05-6.372-7.92-10.206-.763-3.361-.08-6.77.688-9.66a64.587 64.587 0 015.275-13.5c.293-.556.595-1.116.9-1.678 2.097-3.87 4.266-7.87 3.658-11.897-.643-4.256-4.25-7.566-7.692-10.243l-1.002-.774c-3.567-2.747-7.255-5.586-9.11-9.85-3.036-6.982-.663-16.256 1.022-21.163 2.446-7.117 6.089-12.908 10.83-17.21a32.65 32.65 0 018.775-5.7c6.493-2.863 13.414-3.526 20.57-1.966 2.574.56 4.776 1.213 6.735 1.995 5.527 2.206 10.757 6.182 14.349 10.908 3.899 5.13 5.264 13.375 6.018 19.984.71 6.228-.018 15.131-4.195 21.445-.922 1.395-2.011 2.644-3.064 3.852-.878 1.008-1.707 1.96-2.446 2.987-1.338 1.862-2.384 4.001-3.396 6.07-.57 1.166-1.16 2.372-1.209 3.56-.06 1.433.656 2.894 1.458 4.39.527.981 1.067 1.958 1.607 2.935 2.026 3.664 4.12 7.453 5.51 11.53 1.454 4.269 2.657 10.603.125 16.539-1.895 4.44-5.888 8.262-10.957 10.487-4.068 1.786-8.878 2.67-14.706 2.703h-.341zm-20.01-7.814c5.293 3.432 12.166 5.16 20.335 5.101 5.452-.03 9.911-.839 13.633-2.473 4.446-1.952 7.928-5.257 9.554-9.069 2.196-5.145 1.104-10.778-.197-14.597-1.313-3.85-3.348-7.533-5.316-11.094-.545-.987-1.091-1.973-1.623-2.965-.948-1.767-1.867-3.669-1.779-5.787.074-1.756.823-3.288 1.484-4.64 1.061-2.168 2.157-4.412 3.63-6.46.813-1.13 1.723-2.175 2.603-3.186 1.041-1.194 2.023-2.321 2.846-3.567 3.776-5.706 4.419-13.886 3.763-19.638-.659-5.777-1.945-13.994-5.482-18.651-3.303-4.346-8.114-8.002-13.197-10.03-1.819-.727-3.882-1.337-6.308-1.866-6.585-1.435-12.944-.83-18.902 1.8a29.955 29.955 0 00-8.048 5.226C93.879 14.489 90.485 19.9 88.19 26.58c-1.557 4.534-3.77 13.057-1.1 19.197 1.576 3.623 4.983 6.246 8.278 8.783l1.011.782c3.866 3.005 7.924 6.78 8.709 11.98.744 4.925-1.645 9.333-3.955 13.595-.3.553-.597 1.103-.886 1.65A61.835 61.835 0 0095.195 95.5c-.684 2.57-1.298 5.574-.665 8.36.713 3.141 3.11 6.171 6.751 8.532z" fill="#231815"/><path d="M102.003 97.291c.446-.072.947-.032 1.518.157.959.318 1.789.926 2.611 1.515 2.288 1.64 4.656 3.204 7.259 4.274 2.603 1.07 5.471 1.628 8.251 1.191 4.226-.664 7.811-3.515 11.962-4.55 1.024-.256 3.313-.913 3.878.407.303.707.092 1.517-.131 2.253-3.51 11.619-9.045 22.506-13.465 33.81-1.513 3.869-2.924 7.843-5.339 11.224-.249.348-.558.718-.984.759-.435.042-.814-.278-1.128-.583-4.265-4.143-7.229-9.432-9.796-14.797a143.205 143.205 0 01-7.581-19.338c-.75-2.416-1.441-4.878-1.574-7.406-.14-2.657 1.24-8.385 4.519-8.916z" fill="#fff"/><path d="M196.78 217.118c-.276-11.901-.169-23.894-.882-35.775-.726-12.121-1.703-24.19-1.804-36.345-.069-8.307.018-17.203-4.437-24.108-3.613-5.599-9.639-8.929-15.509-11.818-10.192-5.016-20.665-9.382-31.158-13.67-1.912-.78-4.037-2.372-5.663-.535-1.515 1.712-2.105 5.667-2.9 7.84a400.215 400.215 0 01-6.349 16.253 401.051 401.051 0 01-4.835 11.137c-.751 1.662-1.488 3.283-2.074 5.001-.193.566-2.329 4.152-2.272 4.238-4.078-6.26-7.002-12.834-9.949-19.714l-4.555-10.634-2.278-5.317c-.513-1.199-2.009-3.402-2.009-4.691-.688-1.604-1.383-3.238-1.586-4.98-5.596 2.475-11.133 4.587-16.907 6.561-5.652 1.932-11.485 5.408-16.84 8.123-12.166 6.171-19.12 16.738-19.882 26.678-1.252 16.356-2.093 32.742-2.626 49.14-.26 7.997-.452 15.996-.614 23.996-.083 4.101-.158 8.202-.23 12.304-.048 2.737-1.34 8.661.855 10.596 1.069.942 2.78.926 4.089.762 7.64-.959 14.99-4.28 20.87-9.431-.59.517.373 7.716.411 9.006.116 3.838.02 7.696.03 11.538.008 2.972 7.313 1.207 9.314 1.207h55.597c9.195 0 18.392.172 27.586.292 5.003.066 36.342-1.084 38.134-1.405.256-.045.535-.114.687-.332.14-.202-2.104-21.187-2.214-25.917z" fill="#DDD"/><path d="M45.918 137.02a1.224 1.224 0 01-1.218-1.352c.434-4.181 2.381-8.281 5.787-12.186 3.107-3.565 6.37-6.319 10.27-8.67 3.709-2.236 36.613-16.472 38.012-17.077.62-.27 1.339.018 1.608.639a1.226 1.226 0 01-.639 1.61c-.34.147-34.15 14.775-37.72 16.927-3.725 2.245-6.713 4.769-9.687 8.182-3.068 3.518-4.816 7.161-5.198 10.829a1.223 1.223 0 01-1.215 1.098zM198.767 244.5a1.232 1.232 0 01-1.229-1.177c-.047-1.033-4.725-103.45-6.163-110.284-2.685-12.775-15.49-17.729-15.619-17.778a1.168 1.168 0 01-.285-.153c-1.772-1.274-22.082-9.201-35.302-14.218a1.226 1.226 0 01-.469-.318l-6.58-7.155a1.235 1.235 0 01.072-1.742 1.23 1.23 0 011.74.072l6.382 6.94c4.394 1.67 32.084 12.222 35.441 14.317 1.533.609 14.189 6.013 17.031 19.527 1.477 7.028 6.02 106.451 6.213 110.68.03.68-.495 1.256-1.175 1.288l-.057.001z" fill="#231815"/><path d="M53.947 134.317c1.545-2.712 1.541-5.83 1.304-9.022-.2-2.69-1.2-5.251-2.194-7.763-1.85-4.675-3.84-9.296-5.61-14.001-.927-2.462-1.799-4.947-2.552-7.467-.435-1.453-.592-5.02-2.209-5.637-.714-.273-1.542-.056-2.171.375-4.72 3.228-1.859 11.949.44 15.95.16.289-2.91.318-3.231.243-2.985-.706-5.04-3.015-7.19-4.964-2.631-2.389-5.31-4.673-7.853-7.147-2.564-2.494-5.818-5.495-7.4-5.826-2.043-.427-4.226 1.825-4.226 1.825s-2.97-3.638-7.097-2.99c-.515.08-1.03.223-1.46.514-1.12.76-1.368 2.364-.937 3.64.43 1.275 1.387 2.3 2.316 3.282-1.885.834-2.64 3.25-2.13 5.232.51 1.981 1.988 3.576 3.567 4.897-1.963 3.226-.492 6.576 1.767 9.296 3.66 4.407 8.387 7.755 12.275 11.947a255.246 255.246 0 017.023 7.892c1.53 1.792 3.446 3.337 4.636 5.394 1.511 2.612-1.263 5.266-.253 7.329.974 1.99 4.83 2.116 6.659 2.111a54.05 54.05 0 006.308-.383c1.858-.223 3.585.286 5.36.049.85-.113 1.702-.596 2.003-1.389.184-.484.146-1.019.105-1.535l-.382-4.82c-.1-1.246-.18-2.579.45-3.661.337-.577.848-1.03 1.306-1.517a9.756 9.756 0 001.376-1.854z" fill="#fff"/><path d="M37.354 150.783c-4.309.001-6.863-.938-7.808-2.87-.698-1.427-.253-2.868.14-4.139.423-1.371.645-2.264.157-3.107-.703-1.215-1.717-2.259-2.791-3.364a39.573 39.573 0 01-1.702-1.829 254.593 254.593 0 00-6.986-7.85c-1.676-1.807-3.566-3.502-5.393-5.14-2.372-2.127-4.825-4.327-6.931-6.863-3.49-4.201-3.387-7.545-2.411-9.839-1.26-1.166-2.654-2.79-3.193-4.883-.491-1.904-.044-4.281 1.419-5.782-.632-.75-1.233-1.617-1.577-2.635-.68-2.016-.08-4.153 1.461-5.198.54-.365 1.197-.604 2.01-.731 3.367-.531 6.029 1.279 7.38 2.484 1.034-.765 2.697-1.665 4.43-1.306 1.55.324 3.886 2.114 8.065 6.18 1.71 1.664 3.526 3.28 5.282 4.842.847.753 1.695 1.508 2.538 2.273.334.303.666.614.999.927 1.756 1.649 3.415 3.207 5.592 3.723.12.009.453.01.84.001-2.38-5.102-3.865-12.752.876-15.995 1.074-.734 2.352-.928 3.417-.523 1.925.736 2.387 3.24 2.758 5.252.09.492.169.938.267 1.264.672 2.248 1.472 4.592 2.52 7.378 1.075 2.854 2.253 5.733 3.393 8.518a517.108 517.108 0 012.21 5.461c.969 2.446 2.066 5.218 2.285 8.162.23 3.081.323 6.633-1.478 9.795v.001a11.203 11.203 0 01-1.566 2.111l-.335.345c-.314.321-.611.625-.786.925-.406.697-.363 1.713-.272 2.87l.383 4.821c.045.569.106 1.348-.19 2.124-.453 1.195-1.637 2.057-3.088 2.251-1.035.137-2.007.061-2.948-.013-.842-.066-1.64-.13-2.43-.033a55.629 55.629 0 01-6.467.392h-.07zm-32.42-61.61c-.25 0-.505.018-.766.06-.412.064-.71.161-.91.297-.57.386-.658 1.362-.415 2.082.345 1.018 1.195 1.915 2.017 2.784a1.356 1.356 0 01-.435 2.173c-1.28.566-1.706 2.337-1.366 3.653.353 1.375 1.346 2.709 3.124 4.196.514.431.637 1.173.288 1.746-1.336 2.197-.78 4.795 1.652 7.723 1.978 2.383 4.356 4.515 6.655 6.577 1.873 1.68 3.81 3.416 5.57 5.314a258.093 258.093 0 017.061 7.934 36.043 36.043 0 001.584 1.699c1.142 1.175 2.323 2.39 3.194 3.896 1.117 1.931.52 3.86.086 5.269-.28.903-.52 1.683-.295 2.144.156.318 1.003 1.352 5.374 1.352h.066a52.86 52.86 0 006.15-.374c1.058-.127 2.03-.051 2.966.023.836.066 1.625.128 2.377.028.43-.057.823-.284.916-.528.078-.206.047-.599.02-.945l-.382-4.82c-.1-1.25-.236-2.963.63-4.451.347-.593.797-1.053 1.195-1.458l.295-.306a8.483 8.483 0 001.186-1.595c1.28-2.248 1.377-4.923 1.13-8.251-.19-2.531-1.162-4.988-2.103-7.364-.718-1.816-1.458-3.624-2.198-5.432-1.147-2.802-2.333-5.699-3.42-8.59-1.072-2.846-1.892-5.247-2.582-7.556-.13-.434-.23-.976-.336-1.55-.138-.746-.556-3.018-1.059-3.21-.222-.085-.604.008-.924.228-3.912 2.676-1.054 10.84.85 14.154a1.44 1.44 0 01-.097 1.542c-.858 1.138-4.583.706-4.617.698-2.883-.682-4.978-2.649-6.826-4.385a81.582 81.582 0 00-.964-.895c-.836-.759-1.678-1.507-2.518-2.255-1.778-1.582-3.617-3.218-5.37-4.924-4.629-4.503-6.204-5.36-6.732-5.47-.984-.21-2.433.885-2.982 1.445a1.357 1.357 0 01-2.018-.09c-.02-.024-2.165-2.569-5.071-2.569z" fill="#231815"/><path d="M18.486 117.692c-.232 0-.467-.06-.683-.186-1.308-.767-3.17-2.678-5.327-4.892-1.76-1.808-4.619-4.74-5.823-5.332a1.359 1.359 0 01-1.409.078 1.359 1.359 0 01-.552-1.837 1.925 1.925 0 011.453-1.026c1.751-.259 3.868 1.706 8.27 6.224 1.85 1.899 3.764 3.862 4.757 4.445a1.357 1.357 0 01-.686 2.526zm2.926-5.688a1.35 1.35 0 01-.967-.407c-2.805-2.866-5.289-5.242-8.165-7.993-1.52-1.455-3.143-3.005-4.962-4.774-1.716-1.666-2.659-1.832-2.799-1.78a1.35 1.35 0 01-1.831-.558 1.358 1.358 0 01.558-1.835c1.549-.827 3.606-.057 5.957 2.227a837.482 837.482 0 004.948 4.759c2.893 2.768 5.392 5.158 8.229 8.056a1.358 1.358 0 01-.968 2.305zm5.122-4.82c-.312 0-.624-.107-.88-.326-6.25-5.351-10.96-9.666-16.544-15.887a1.356 1.356 0 012.015-1.813c5.484 6.11 10.125 10.362 16.29 15.639a1.357 1.357 0 01-.881 2.387z" fill="#231815"/><path d="M31.725 126.537a1.35 1.35 0 01-1.012-.454c-3.623-4.076-7.26-7.786-11.906-8.421a1.356 1.356 0 01.367-2.687c5.562.76 9.589 4.835 13.562 9.305a1.358 1.358 0 01-1.011 2.257z" fill="#231815"/><path d="M53.685 202.877l.175-50.004c.007-1.801.591-6.846-.694-7.982-.416-.368-1.026-.382-1.58-.371-4.277.086-8.539.503-12.814.614-2.178.057-4.362.042-6.534-.144-1.286-.11-4.404-1.336-5.334-.23-.43.51-.557 1.203-.648 1.863a31.657 31.657 0 00-.231 6.306c.042.667.103 1.353-.102 1.988-.284.881-1.028 1.519-1.576 2.265-1.42 1.935-1.48 4.518-1.47 6.919.012 2.544.04 5.088.066 7.632l.172 16.265.12 11.298c.081 7.66-.07 16.478 4.626 22.945 3.455 4.757 12.151 13.779 30.686 4.348l-4.862-23.712z" fill="#DDD"/><path d="M45.352 233.579c-10.495 0-15.955-6.443-17.339-8.347-4.649-6.402-5.687-20.283-5.893-27.987-.192-7.238-.229-15.143-.116-24.878.056-4.795.121-9.121.348-13.509.043-.852.583-1.724 1.154-2.648.28-.454.75-1.214.786-1.48a150.14 150.14 0 011.136-10.612c.086-.603.6-1.054 1.209-1.06l28.77-.255c.372.042.646.127.88.359.233.232.364.549.363.879l-.035 10.153 1.325 5.347c.021.084.033.17.036.257l1.435 44.954a1.234 1.234 0 01-1.192 1.273c-.714-.001-1.25-.513-1.27-1.194l-1.431-44.823-1.331-5.368a1.28 1.28 0 01-.036-.302l.03-9.057-26.46.235a146.951 146.951 0 00-.971 9.395c-.06.836-.59 1.692-1.15 2.598-.281.455-.753 1.218-.789 1.486-.224 4.333-.288 8.633-.343 13.401-.113 9.702-.076 17.578.115 24.783.198 7.418 1.166 20.739 5.423 26.602 1.924 2.649 12.725 15.097 36.374-.155a1.232 1.232 0 111.335 2.074c-9.123 5.883-16.523 7.879-22.363 7.879z" fill="#231815"/><path d="M41.806 156.451c-4.395 0-9.607-.29-15.146-1.203a1.232 1.232 0 01.4-2.434c14.513 2.391 27.105.331 27.23.311a1.233 1.233 0 01.41 2.433c-.332.056-5.436.893-12.894.893z" fill="#231815"/><path d="M138.17 98.736c-2.963-3.852-5.717-10.297-5.717-20.944l-13.083 1.595-13.082-1.595c.265 14.555-6.356 21.349-6.356 21.349l19.105 10.558 19.133-10.963z" fill="#fff"/><path d="M119.037 110.9c-.2 0-.4-.05-.58-.15l-19.105-10.558a1.201 1.201 0 01-.278-1.89c.06-.063 6.266-6.675 6.015-20.488a1.2 1.2 0 011.344-1.215l12.937 1.578 12.937-1.578a1.204 1.204 0 011.345 1.193c0 8.693 1.84 15.493 5.468 20.212a1.2 1.2 0 01-.354 1.775l-19.134 10.962c-.184.106-.39.159-.595.159zm-17.264-12.114l17.253 9.535 17.391-9.964c-3.246-4.798-4.975-11.247-5.149-19.21l-11.752 1.432a1.276 1.276 0 01-.291 0l-11.732-1.43c-.114 10.761-3.88 17.15-5.72 19.637z" fill="#231815"/><path d="M124.483 84.187a45.655 45.655 0 002.078-.944c4.73-2.273 9.418-5.205 12.083-9.731 2.26-3.838 3.923-6.994 4.68-11.408 1.693-9.87 2.575-21.268-.523-30.943-1.822-5.69-5.461-10.606-10.022-14.42-4.384-3.665-9.77-6.489-15.521-5.857-6.133.673-11.558 1.412-15.797 6.485-5.75 6.878-7.686 15.955-8.106 24.708-.198 4.108-.725 8.192.009 12.232a125.157 125.157 0 003.826 15.428c.456 1.44.943 2.883 1.706 4.185.851 1.454 2.023 2.692 3.249 3.845 4.767 4.484 10.412 8.748 17.241 7.888 1.762-.222 3.455-.778 5.097-1.468z" fill="#fff"/><path d="M144.339 48.485l-.001.068c-.058 3.175 2.388-1.221 2.447-2.686.362-9.031-1.518-20.328-6.902-27.858-4.604-6.44-13.027-9.396-20.747-9.07-4.267.18-8.514 1.195-12.332 3.109-5.53 2.771-10.05 7.395-13.045 12.811-2.996 5.416-4.504 11.596-4.738 17.782-.062 1.647-.026 3.352.644 4.857.67 1.505 2.115 2.772 3.76 2.763.257-2.397-.158-6.957 2.008-8.44 1.037-.71 2.842-.863 4.022-1.489 4.539-2.405 8.627-5.944 11.955-9.84-2.535 3.385-3.329 7.75-6.166 11.147 5.926-.486 11.404-3.615 15.675-7.757 4.384-4.251 6.906-9.474 10.379-14.35 1.511 1.611 3.464 2.747 4.745 4.567 1.604 2.282 2.701 4.942 3.939 7.429 2.618 5.255 4.496 11.026 4.357 16.957z" fill="#231815"/><path d="M93.41 51.618c-2.032 0-4.032-1.431-4.983-3.568-.783-1.762-.827-3.666-.759-5.46.252-6.682 1.95-13.04 4.906-18.388 3.226-5.833 8.064-10.58 13.623-13.367 3.859-1.934 8.314-3.058 12.882-3.25 8.995-.38 17.385 3.311 21.905 9.634 5.799 8.11 7.498 20.145 7.154 28.702-.042 1.043-1.458 5.148-3.484 5.114-.516-.015-1.71-.29-1.67-2.507l.001-.075c.118-5.05-1.26-10.39-4.214-16.32-.308-.619-.608-1.249-.909-1.88-.877-1.842-1.783-3.746-2.927-5.373-.661-.94-1.57-1.703-2.533-2.513-.295-.247-.595-.5-.892-.76-.765 1.132-1.496 2.284-2.21 3.408-2.137 3.364-4.346 6.842-7.439 9.842-4.925 4.776-10.788 7.665-16.506 8.134a1.358 1.358 0 01-1.15-2.222c.876-1.049 1.543-2.203 2.145-3.426-2.023 1.647-4.129 3.058-6.262 4.188-.667.353-1.416.563-2.14.766-.674.189-1.371.384-1.752.644-1.129.774-1.239 3.647-1.311 5.547-.027.71-.054 1.368-.113 1.917a1.355 1.355 0 01-1.339 1.212h-.023zm50.929-3.131l1.004.037-.018-.012-.986-.025zM120.35 10.27c-.384 0-.769.008-1.156.024-4.19.177-8.265 1.203-11.784 2.966-5.075 2.545-9.503 6.897-12.466 12.256-2.752 4.977-4.332 10.917-4.57 17.176-.055 1.468-.03 3 .528 4.254.254.571.706 1.167 1.272 1.55l.004-.111c.104-2.735.234-6.138 2.49-7.683.75-.512 1.664-.768 2.55-1.016.586-.165 1.194-.335 1.603-.552 4.093-2.169 8.09-5.462 11.561-9.524a1.35 1.35 0 011.876-.177c.57.458.675 1.286.236 1.872-1.096 1.464-1.852 3.153-2.652 4.94-.528 1.18-1.066 2.381-1.719 3.552 4.129-1.013 8.249-3.393 11.854-6.889 2.863-2.777 4.891-5.969 7.037-9.348 1.006-1.585 2.046-3.223 3.181-4.816a1.36 1.36 0 011.012-.566c.409-.026.801.128 1.078.425.556.592 1.189 1.124 1.858 1.687 1.053.884 2.142 1.8 3.007 3.029 1.276 1.813 2.232 3.823 3.157 5.767.294.617.587 1.232.888 1.837 2.34 4.697 3.753 9.076 4.275 13.269.066-7.947-1.64-18.333-6.688-25.394-3.804-5.32-10.791-8.528-18.432-8.528zm-3.106 54.967a1.356 1.356 0 010-2.713c.356 0 .557-.04.837-.094.329-.064.739-.145 1.358-.145a1.356 1.356 0 010 2.713c-.356 0-.558.04-.838.094-.329.064-.739.145-1.357.145zm1.414 8.973c-2.703 0-5.384-.695-7.3-2.06a1.357 1.357 0 01-.318-1.892 1.353 1.353 0 011.889-.319c2.708 1.93 7.843 2.084 10.991.328a1.356 1.356 0 011.318 2.369c-1.892 1.055-4.245 1.575-6.58 1.575z" fill="#231815"/><path d="M109.551 50.51a2.96 2.96 0 01-2.959 2.962 2.96 2.96 0 01-2.958-2.963 2.96 2.96 0 012.958-2.962 2.96 2.96 0 012.959 2.962zm23.857 0a2.96 2.96 0 01-2.958 2.962 2.96 2.96 0 01-2.959-2.963 2.96 2.96 0 012.959-2.962 2.96 2.96 0 012.958 2.962zM101.9 44.131a.67.67 0 01-.293-1.275c2.95-1.434 6.707-1.599 9.804-.433a.671.671 0 01-.472 1.256c-2.763-1.04-6.115-.893-8.747.385a.668.668 0 01-.292.067zm32.044 0a.668.668 0 01-.292-.067c-2.632-1.279-5.983-1.426-8.747-.385a.67.67 0 11-.472-1.256c3.093-1.166 6.852-1 9.804.433a.672.672 0 01-.293 1.275zm-20.265 41.727c-.077 0-.156-.008-.234-.023-5.386-1.069-13.633-8.696-16.725-13.272-4.038-5.976-6.796-38.646-6.801-38.943a1.2 1.2 0 011.179-1.221c.616.02 1.208.517 1.22 1.18.038 1.4 2.921 32.506 6.389 37.638 3.18 4.706 10.976 11.423 15.204 12.261a1.202 1.202 0 01-.232 2.38z" fill="#231815"/><path d="M93.272 49.127s-6.928-3.572-8.553 3.123c-2.68 11.045 10.67 14.92 10.67 14.92l-2.117-18.043z" fill="#fff"/><path d="M95.39 68.371c-.113 0-.225-.015-.335-.047-4.999-1.452-13.835-6.738-11.501-16.357.536-2.21 1.646-3.713 3.3-4.47 3.08-1.41 6.81.48 6.966.562a1.2 1.2 0 01.643.928l2.118 18.043a1.202 1.202 0 01-1.192 1.341zM89.408 49.38c-.545 0-1.085.085-1.564.305-.96.443-1.602 1.374-1.96 2.848-1.84 7.582 4.779 11.422 8.085 12.835l-1.81-15.42c-.694-.27-1.732-.568-2.751-.568z" fill="#231815"/><path d="M144.629 49.127s6.927-3.573 8.552 3.123c2.68 11.044-10.67 14.92-10.67 14.92l2.118-18.043z" fill="#fff"/><path d="M142.511 68.371a1.204 1.204 0 01-1.192-1.341l2.118-18.043c.047-.398.288-.745.643-.928.157-.081 3.888-1.97 6.966-.562 1.654.757 2.765 2.26 3.301 4.47 2.334 9.62-6.503 14.905-11.502 16.356-.11.033-.223.048-.334.048zm3.229-18.424l-1.81 15.42c3.306-1.413 9.925-5.252 8.086-12.834-.358-1.474-.999-2.406-1.961-2.848-1.373-.631-3.249-.152-4.315.262z" fill="#231815"/><path d="M124.221 85.858a1.2 1.2 0 01-.232-2.38c4.229-.838 12.025-7.555 15.205-12.261 3.467-5.132 6.35-36.238 6.389-37.64.018-.661.586-1.208 1.226-1.172.66.014 1.184.555 1.173 1.215-.006.297-2.764 32.967-6.802 38.943-3.092 4.576-11.339 12.203-16.724 13.272a1.23 1.23 0 01-.235.023zm49.682 159.975c-.657 0-1.2-.522-1.222-1.185l-2.876-87.593a1.22 1.22 0 01.034-.329c.034-.14 3.446-14.118 7.437-24.998a1.223 1.223 0 112.297.845c-3.713 10.12-6.927 22.988-7.317 24.571l2.871 87.424a1.225 1.225 0 01-1.183 1.265h-.041zm-54.767-99.651c-.472 0-.922-.275-1.122-.737L98.279 99.962a1.223 1.223 0 112.244-.976l19.735 45.483a1.226 1.226 0 01-1.122 1.713zm6.314-10.579a1.225 1.225 0 01-.581-2.304l12.403-6.673a1.22 1.22 0 011.05-.052l9.484 3.957.98-24.964a1.21 1.21 0 011.271-1.176c.675.026 1.2.596 1.174 1.272l-1.049 26.724a1.225 1.225 0 01-1.694 1.083l-10.57-4.41-11.89 6.397a1.219 1.219 0 01-.578.146z" fill="#231815"/><path d="M113.414 135.602a1.21 1.21 0 01-.578-.146l-11.911-6.407-11.889 4.527a1.225 1.225 0 01-1.658-1.181l.81-27.784a1.24 1.24 0 011.258-1.189c.675.02 1.207.584 1.187 1.26l-.756 25.952 10.699-4.074a1.222 1.222 0 011.015.065l12.403 6.673a1.226 1.226 0 01-.58 2.304zM68.426 245.473a1.225 1.225 0 01-1.224-1.216l-.718-91.705c-.594-1.601-4.545-12.313-7.566-21.958a1.224 1.224 0 112.335-.733c3.239 10.34 7.555 21.921 7.598 22.037.05.135.077.276.078.419l.72 91.921a1.226 1.226 0 01-1.213 1.235h-.01zm52.25-86.672a1.226 1.226 0 01-.87-2.086l19.929-20.202-3.008-7.028a1.225 1.225 0 01.643-1.609 1.22 1.22 0 011.606.644l3.333 7.785c.196.458.095.989-.255 1.344l-20.507 20.788c-.24.243-.555.364-.871.364z" fill="#231815"/><path d="M116.623 244.788a1.225 1.225 0 01-1.224-1.216l-.684-89.856a5.422 5.422 0 01.636-2.584l21.802-51.741a1.222 1.222 0 011.603-.652c.622.262.914.981.651 1.605l-21.85 51.842c-.279.534-.399 1.022-.395 1.511l.684 89.857a1.225 1.225 0 01-1.214 1.234h-.009z" fill="#231815"/><path d="M128.416 243.73c-.662 0-1.207-.53-1.223-1.196l-2.044-84.147a1.223 1.223 0 011.193-1.254c.666-.048 1.236.518 1.253 1.195l2.044 84.147a1.223 1.223 0 01-1.193 1.254l-.03.001zm-37.86-75.953a1.26 1.26 0 01-.266-.029l-15.34-3.412a1.224 1.224 0 01-.958-1.196v-7.05c0-.676.547-1.225 1.223-1.225h30.828a1.226 1.226 0 011.222 1.284l-.302 6.327c-.026.53-.39.984-.901 1.123l-15.185 4.135a1.207 1.207 0 01-.321.043zm-14.117-5.62l14.087 3.133 14.035-3.821.199-4.154H76.439v4.842z" fill="#231815"/><path d="M106.079 188.494H75.215a1.225 1.225 0 01-1.223-1.225V163.14a1.224 1.224 0 112.447 0v22.903h28.416v-23.949a1.224 1.224 0 112.447 0v25.175c0 .676-.547 1.225-1.223 1.225z" fill="#231815"/><path d="M90.159 184.943a1.224 1.224 0 01-1.224-1.225v-12.909a1.225 1.225 0 112.447 0v12.909c0 .677-.548 1.225-1.223 1.225zm59.787-17.166a1.26 1.26 0 01-.266-.029l-15.34-3.412a1.223 1.223 0 01-.958-1.196v-7.05c0-.676.548-1.225 1.223-1.225h30.828a1.226 1.226 0 011.222 1.284l-.302 6.327c-.026.53-.39.984-.901 1.123l-15.185 4.135a1.205 1.205 0 01-.321.043zm-14.117-5.62l14.087 3.133 14.035-3.821.199-4.154h-28.321v4.842z" fill="#231815"/><path d="M165.469 188.494h-30.864a1.225 1.225 0 01-1.223-1.225V163.14a1.224 1.224 0 112.447 0v22.903h28.416v-23.949a1.224 1.224 0 112.447 0v25.175c0 .676-.547 1.225-1.223 1.225z" fill="#231815"/><path d="M149.549 184.943a1.224 1.224 0 01-1.224-1.225v-12.909a1.224 1.224 0 112.447 0v12.909c0 .677-.547 1.225-1.223 1.225zm-23.351-61.734a1.22 1.22 0 01-.914-.41l-6.649-7.474-6.121 6.938a1.225 1.225 0 01-1.834-1.622l7.035-7.973c.232-.263.564-.414.914-.415h.003c.349 0 .681.15.913.411l7.566 8.505a1.226 1.226 0 01-.913 2.04z" fill="#231815"/></g><defs><clipPath id="clip0_7_2904"><path fill="#fff" d="M0 0h200v245.833H0z"/></clipPath></defs></svg>