<svg width="200" height="245" fill="none" xmlns="http://www.w3.org/2000/svg"><g clip-path="url(#clip0_7_2843)"><path d="M144.24 118.95h-3.167v4.177h3.167v-4.177z" fill="#231815"/><path d="M63.014 92.03c.448-.072.95-.032 1.522.157.961.317 1.794.925 2.617 1.513 2.294 1.639 4.669 3.202 7.278 4.27 2.61 1.07 5.485 1.627 8.272 1.191 4.237-.663 7.83-3.512 11.993-4.547 1.085-.27 2.237-.411 3.315-.118 2.517.685 3.305 3.66 4.438 5.694 1.392 2.5 2.571 5.185 2.819 8.065.296 3.44-.749 6.835-1.63 10.178-5.878 22.312-5.25 47.199-18.791 66.066-1.52 2.117-3.398 4.25-5.979 4.829-2.647.594-5.385-.614-7.557-2.207-7.054-5.171-10.048-13.994-12.164-22.355a225.816 225.816 0 01-6.58-43.339c-.337-6.3-.361-12.853 2.292-18.605 1.136-2.464 2.718-4.684 4.31-6.87 1.124-1.546 2.053-3.633 3.845-3.922z" fill="#fff"/><path d="M1.875 242.881c0 .007.865 0 .91 0h90.648c7.528 0 41.235.46 41.235.46l.247-15.551s9.058 4.497 15.137 3.242c5.706-1.177 10.9-5.555 12.034-11.258 1.19-5.988-1.188-13.228-2.244-19.131a4819.492 4819.492 0 00-3.738-20.633c-2.457-13.39-5.492-26.687-6.511-40.262-.238-3.174-1.125-6.293-2.326-9.231-1.269-3.108-3.298-5.817-4.542-8.917-.262-.653-.49-1.32-.797-1.953-1.092-2.246-3.19-3.948-5.574-4.706-2.316-.736-4.514-1.684-6.738-2.662-3.844-1.711-7.49-3.849-11.309-5.619-2.454-1.137-4.948-2.225-7.526-3.069-1.114-.365-2.28-.558-3.391-.911-3.591-1.141-4.256-1.088-6.033 2.283-2.019 3.828-4.314 7.538-6.462 11.296-4.885 8.546-9.773 17.098-15.165 25.334-6.254-9.239-10.79-19.479-16.563-29.003-1.59-2.623-3.456-5.06-5.125-7.631-.944-1.455-2.33-6.185-4.195-4.862-1.005.713-2.194 1.113-3.363 1.503-8.252 2.754-16.904 5.257-24.737 9.081-12.178 5.944-19.33 17.509-20.092 27.084-2.866 36.044-3.147 64.898-3.804 100.903-.025 1.404-.05 2.809.024 4.213z" fill="#DDD"/><path d="M87.883 62.134c-6.51.432-13.106.237-19.627-.053-2.847-.127-5.695-.268-8.53-.563-1.768-.184-4.505-.096-6.098-.931-3.459-1.815-4.715-8.004-5.532-11.383-1.816-7.516-3.363-15.49-1.08-22.879 1.5-4.86 4.625-9.159 8.605-12.334.886-.707 1.825-1.371 2.532-2.256 1.102-1.377 1.445-2.915 2.976-3.878 1.708-1.074 3.55-2.142 5.395-2.978 4.528-2.054 9.502-2.914 14.44-3.51 1.434-.173 2.959-.313 4.264.307-.91.9-1.65 1.974-2.165 3.145l5.336-1.146c.581-.125 1.191-.25 1.763-.086.571.163 1.078.717.972 1.3-.102.558-.67.879-1.117 1.23-.446.35-.828 1.009-.47 1.45a32.8 32.8 0 019.352.215c3.239.544-1.334 3.687-.131 4.372 8.375 4.772 11.074 14.068 11.53 23.006.355 6.964.415 14.094-1.743 20.726-.756 2.324-2.095 2.777-4.266 3.434-5.34 1.616-10.841 2.443-16.406 2.812z" fill="#231815"/><path d="M79.708 63.611c-3.603 0-7.366-.123-11.506-.307-2.893-.13-5.729-.27-8.604-.569-.423-.044-.904-.071-1.41-.1-1.734-.1-3.7-.215-5.13-.965-3.728-1.955-5.089-7.691-5.99-11.487l-.164-.692c-1.85-7.654-3.455-15.776-1.06-23.527 1.516-4.912 4.717-9.504 9.01-12.93l.472-.37c.706-.551 1.373-1.072 1.869-1.692.337-.422.6-.877.878-1.359.545-.943 1.163-2.012 2.4-2.791 2.087-1.312 3.9-2.312 5.543-3.058 4.826-2.189 10.19-3.053 14.8-3.61 1.637-.198 3.368-.329 4.938.416a1.223 1.223 0 01.337 1.975 9.31 9.31 0 00-.44.468l2.49-.535c.623-.133 1.475-.318 2.358-.066 1.09.311 2.077 1.405 1.841 2.696a2.279 2.279 0 01-.489 1.04 34.023 34.023 0 017.252.43c1.051.175 1.74.628 2.049 1.344.498 1.159-.272 2.298-.89 3.214-.07.103-.152.226-.23.346 7.047 4.346 10.912 12.287 11.491 23.618.333 6.537.497 14.103-1.801 21.166-.972 2.984-2.965 3.588-5.077 4.227-4.998 1.513-10.454 2.45-16.68 2.862-2.722.18-5.44.256-8.257.256zM82.9 2.447c-.569 0-1.173.063-1.79.137-4.647.561-9.569 1.363-14.08 3.409-1.541.7-3.258 1.647-5.249 2.9-.724.456-1.103 1.112-1.584 1.943-.297.514-.633 1.096-1.085 1.662-.676.845-1.489 1.48-2.274 2.093l-.453.356c-3.913 3.122-6.825 7.29-8.199 11.738-2.211 7.159-.668 14.908 1.101 22.233l.168.701c.75 3.16 2.004 8.447 4.742 9.884.962.504 2.72.606 4.131.688a35.5 35.5 0 011.524.11c2.808.291 5.603.43 8.458.557 7.296.325 13.403.459 19.49.055 6.039-.401 11.315-1.305 16.132-2.763 2.14-.648 2.908-.957 3.456-2.64 2.169-6.667 2.006-13.967 1.684-20.285-.551-10.79-4.223-18.194-10.913-22.006a1.603 1.603 0 01-.782-1.031c-.202-.862.309-1.619.85-2.42.136-.202.35-.519.49-.773l-.022-.004c-2.977-.5-6.005-.57-9.002-.206a1.23 1.23 0 01-1.104-.448 1.873 1.873 0 01-.398-1.4c.073-.647.472-1.313 1.067-1.78.085-.067.174-.133.265-.2.078-.058.178-.132.263-.201-.293-.064-.736.03-1.13.115L83.32 6.018a1.223 1.223 0 01-1.381-1.69c.292-.662.642-1.29 1.05-1.88l-.089-.001zm51.665 241.719a1.225 1.225 0 01-1.225-1.183l-2.884-87.521a1.18 1.18 0 01.034-.329c.034-.14 3.455-14.106 7.456-24.977a1.227 1.227 0 012.303.844c-3.723 10.115-6.944 22.968-7.336 24.551l2.878 87.351a1.224 1.224 0 01-1.185 1.264h-.041z" fill="#231815"/><path d="M78.359 81.76l-16.124-.017-.61 12.494 16.795 10.158h1.636l16.795-10.158-.61-12.494-16.123.018h-1.76z" fill="#fff"/><path d="M80.056 105.619H78.42a1.23 1.23 0 01-.636-.177L60.99 95.284a1.225 1.225 0 01-.59-1.106l.61-12.495a1.225 1.225 0 011.225-1.164l17.883.017 16.122-.017c.654 0 1.195.512 1.227 1.164l.609 12.495c.022.449-.205.873-.59 1.106l-16.794 10.158a1.23 1.23 0 01-.636.177zm-1.293-2.448h.95l15.877-9.603-.517-10.6-16.715.016-14.955-.016-.516 10.6 15.876 9.603z" fill="#231815"/><path d="M54.295 51.833a86.937 86.937 0 00-.606-5.24c-.764-5.123-1.643-10.85.37-15.805 2.524-6.218 5.403-11.178 11.472-14.6 2.234-1.26 4.593-2.088 7.03-2.85 1.918-.598 3.524-1.579 5.56-1.695 5.274-.3 11.099.714 15.764 3.224 5.09 2.737 9.022 7.543 10.691 13.067 1.357 4.494 1.404 9.504.955 14.142-.474 4.899-1.24 10.18-.963 15.058.29 5.103-.568 10.417-1.899 15.337-.385 1.423-.832 2.844-1.56 4.126-1.659 2.917-4.602 4.84-7.469 6.592-4.435 2.71-9.273 5.364-14.47 5.154-2.079-.084-4.114-.631-6.082-1.307-3.864-1.326-7.586-3.188-10.683-5.847-3.098-2.66-5.549-6.158-6.565-10.108-.544-2.115-.671-4.312-.797-6.492-.244-4.248-.377-8.516-.748-12.756zm52.783-1.235s5.312-3.335 6.793 2.604c2.444 9.797-8.879 13.236-8.879 13.236l2.086-15.84z" fill="#fff"/><path d="M104.992 67.661a1.228 1.228 0 01-1.217-1.383l2.087-15.84c.047-.36.254-.682.563-.876.299-.189 3-1.81 5.53-.792 1.53.614 2.575 2.006 3.107 4.136 2.155 8.642-5.411 13.396-9.713 14.702a1.233 1.233 0 01-.357.053zm3.22-16.28l-1.731 13.139c2.842-1.363 7.776-4.705 6.2-11.022-.33-1.322-.88-2.148-1.635-2.455-.915-.372-2.106.002-2.834.338z" fill="#231815"/><path d="M53.403 51.673s-5.192-3.517-6.88 2.367c-2.784 9.707 8.413 13.535 8.413 13.535l-1.533-15.902z" fill="#fff"/><path d="M54.936 68.8a1.24 1.24 0 01-.398-.067c-4.254-1.454-11.65-6.467-9.194-15.03.605-2.11 1.698-3.465 3.248-4.026 2.565-.928 5.207.784 5.5.983.302.205.497.533.532.896l1.533 15.902a1.222 1.222 0 01-1.221 1.341zm-4.748-16.945c-.264 0-.524.037-.766.126-.765.28-1.344 1.086-1.72 2.396-1.795 6.258 3.02 9.769 5.812 11.23l-1.272-13.19c-.528-.267-1.31-.562-2.054-.562zM87.27 88.238a1.224 1.224 0 01-.232-2.426c3.87-.747 10.583-6.28 13.366-10.287 3.01-4.333 4.35-30.598 4.397-33.291a1.226 1.226 0 011.226-1.203h.022c.677.012 1.216.57 1.205 1.246-.005.284-1.093 29.258-4.834 34.643-3.122 4.494-10.318 10.407-14.915 11.295a1.24 1.24 0 01-.234.023z" fill="#231815"/><path d="M71.536 87.965c-.09 0-.184-.01-.276-.031-4.484-1.028-11.405-6.05-14.56-11.886-3.098-5.732-4.354-36.169-4.349-36.444a1.216 1.216 0 011.248-1.202 1.225 1.225 0 011.205 1.242c-.009 1.31 1.417 30.362 4.055 35.242 2.798 5.175 9.07 9.773 12.95 10.662a1.224 1.224 0 01-.273 2.417z" fill="#231815"/><path d="M50.868 49.195a5.127 5.127 0 01-.282-.545c-.873-1.975-1.167-4.262-1.188-6.402-.042-4.282 1.144-8.467 2.22-12.574 1.082-4.123 2.679-7.822 5.725-10.907 5.48-5.549 13.42-8.355 21.321-9.35 4.415-.556 9.035-.58 13.171 1 3.063 1.172 5.717 3.174 8.002 5.452 3.529 3.517 6.235 7.851 7.758 12.549 1.183 3.647 1.422 7.47 1.05 11.269-.182 1.869-.507 3.72-.873 5.562-.246 1.243.156 6.866-2.382 5.272a83.25 83.25 0 00-5.402-20.903c-.863-2.14-1.85-4.298-3.486-5.928-.427-.425-.91-.819-1.487-.995-.607-.186-1.259-.114-1.89-.047a99.978 99.978 0 01-31.136-1.578 54.922 54.922 0 00-6.602 16.393c-.874 3.88-1.099 7.753-1.713 11.656-.404 2.566-1.952 1.51-2.806.076z" fill="#231815"/><path d="M106.198 52.03c-.414 0-.904-.122-1.461-.472a1.224 1.224 0 01-.565-.887 81.947 81.947 0 00-5.322-20.596c-.755-1.872-1.688-3.997-3.215-5.518-.387-.386-.698-.605-.979-.691-.363-.11-.86-.058-1.387-.002a100.892 100.892 0 01-30.672-1.419 53.5 53.5 0 00-6.013 15.286c-.534 2.372-.829 4.814-1.114 7.176a121.487 121.487 0 01-.585 4.402c-.294 1.871-1.19 2.424-1.889 2.559-1.1.212-2.292-.553-3.182-2.047a6.243 6.243 0 01-.35-.677c-.83-1.879-1.266-4.195-1.292-6.884-.04-4.163 1.02-8.188 2.046-12.081l.214-.815c1.319-5.03 3.18-8.563 6.037-11.456 6.46-6.54 15.552-8.888 22.042-9.705 5.623-.708 9.998-.368 13.763 1.072 2.93 1.12 5.686 2.994 8.43 5.728 3.704 3.692 6.49 8.2 8.058 13.038 1.149 3.545 1.521 7.503 1.104 11.764-.204 2.09-.583 4.134-.89 5.682-.034.174-.059.651-.081 1.073-.102 1.982-.229 4.448-1.759 5.24a2.03 2.03 0 01-.938.23zM83.762 10.294c-1.523 0-3.162.113-4.944.338-6.105.769-14.635 2.953-20.602 8.995-2.538 2.57-4.207 5.764-5.41 10.357l-.215.818c-.985 3.736-2.004 7.6-1.966 11.434.023 2.355.388 4.347 1.084 5.92.061.14.133.278.213.413l.001.001c.169.284.34.496.484.643.019-.08.037-.173.055-.284.226-1.434.402-2.899.573-4.314.292-2.423.594-4.927 1.155-7.42a55.898 55.898 0 016.75-16.76 1.23 1.23 0 011.303-.563 98.402 98.402 0 0030.751 1.56c.729-.079 1.539-.165 2.381.093.892.273 1.565.872 1.993 1.3 1.855 1.847 2.912 4.24 3.758 6.336a84.373 84.373 0 015.184 19.036c.079-.664.115-1.374.135-1.763.031-.601.056-1.076.125-1.423.296-1.492.661-3.46.855-5.443.384-3.925.049-7.55-.997-10.773-1.449-4.47-4.028-8.641-7.457-12.06-2.496-2.487-4.973-4.18-7.575-5.174-2.219-.849-4.708-1.267-7.634-1.267zM79.66 144.598c-.431 0-.85-.227-1.073-.629l-24.262-43.494a1.222 1.222 0 01.475-1.664 1.228 1.228 0 011.669.474l24.261 43.494a1.223 1.223 0 01-1.07 1.819z" fill="#231815"/><path d="M85.97 106.024l-4.1 13.401 3.003 13.749-4.766 10.557-5.555-10.187 2.742-13.686-3.495-13.364 12.171-.47z" fill="#024892"/><path d="M80.107 144.955c-.448 0-.862-.245-1.077-.639l-5.556-10.187a1.221 1.221 0 01-.125-.825l2.687-13.41-3.424-13.091a1.223 1.223 0 011.14-1.532l12.17-.47a1.21 1.21 0 011.02.476c.242.314.318.725.201 1.104l-4.005 13.095 2.934 13.437c.056.257.028.524-.08.764l-4.767 10.556a1.227 1.227 0 01-1.072.721l-.046.001zm-4.265-11.606l4.161 7.631 3.586-7.94-2.916-13.355a1.225 1.225 0 01.025-.618l3.595-11.753-8.922.344 3.11 11.891c.046.179.052.367.015.549l-2.654 13.251zM1.227 243.509l-.052-.001A1.225 1.225 0 010 242.233c.176-4.127 4.302-101.154 5.03-108.14 1.035-9.904 9.14-17.664 12.578-20.54.105-.088.226-.159.355-.207l.598-.225c3.371-2.069 31.139-12.477 35.533-14.119l6.4-6.845a1.228 1.228 0 011.734-.06c.495.46.522 1.235.06 1.73l-6.597 7.056c-.13.138-.29.245-.468.311-13.255 4.949-33.62 12.767-35.396 14.024-.086.061-.179.11-.277.147l-.524.197c-3.292 2.785-10.63 9.915-11.555 18.784-.721 6.912-4.977 106.981-5.02 107.991a1.226 1.226 0 01-1.225 1.172zm142.37-123.27c-.172 0-.347-.037-.514-.114-6.753-3.118-40.263-18.375-40.53-18.481a1.236 1.236 0 01-.48-.344l-5.75-6.738a1.223 1.223 0 01.139-1.726 1.23 1.23 0 011.729.139l5.553 6.507c3.035 1.207 33.855 15.414 40.369 18.421a1.223 1.223 0 01-.516 2.336z" fill="#231815"/><path d="M85.987 134.028a1.223 1.223 0 01-.582-2.303l12.436-6.667a1.225 1.225 0 011.052-.052l9.508 3.953.982-24.943a1.227 1.227 0 012.452.096l-1.052 26.702a1.225 1.225 0 01-1.698 1.082l-10.597-4.406-11.921 6.392a1.223 1.223 0 01-.58.146zm-12.065 0c-.196 0-.395-.047-.58-.146L61.4 127.479l-11.918 4.524a1.228 1.228 0 01-1.663-1.18l.812-27.762a1.23 1.23 0 011.262-1.187c.677.02 1.21.583 1.19 1.259l-.758 25.931 10.726-4.072a1.23 1.23 0 011.017.066l12.435 6.668c.597.319.821 1.062.5 1.657a1.227 1.227 0 01-1.081.645zM28.819 243.807a1.225 1.225 0 01-1.226-1.215l-.721-91.629c-.595-1.6-4.556-12.303-7.585-21.939a1.224 1.224 0 01.803-1.535 1.228 1.228 0 011.537.802c3.248 10.329 7.576 21.903 7.62 22.019a1.2 1.2 0 01.076.419l.722 91.844a1.226 1.226 0 01-1.216 1.234h-.01zm67.48-199.479c-.1 0-.2-.01-.3-.03-3.206-.652-8.04-.586-9.237-.303a1.493 1.493 0 11-.689-2.905c1.865-.44 7.192-.394 10.523.283a1.492 1.492 0 01-.297 2.955zm-22.998 0c-.1 0-.2-.01-.3-.03-3.206-.652-8.042-.585-9.238-.303a1.492 1.492 0 11-.688-2.905c1.865-.44 7.192-.394 10.523.283a1.492 1.492 0 01-.297 2.955zm5.393 26.141c-.222 0-.425-.013-.611-.024a6.023 6.023 0 00-.43-.019 1.494 1.494 0 01-1.494-1.492c0-.824.67-1.492 1.495-1.492.21 0 .412.011.612.024.587.035.908.055 1.59-.344a1.496 1.496 0 012.046.531 1.49 1.49 0 01-.532 2.043c-1.112.651-1.985.773-2.676.773zm.139 7.833c-2.125 0-4.266-.46-5.987-1.394a1.222 1.222 0 01-.491-1.66 1.228 1.228 0 011.663-.49c2.88 1.562 7.577 1.426 10.055-.29a1.228 1.228 0 011.707.306 1.223 1.223 0 01-.308 1.704c-1.742 1.208-4.18 1.824-6.639 1.824zm9.775-25.923c0 1.26 1.046 2.28 2.336 2.28 1.29 0 2.336-1.02 2.336-2.28 0-1.26-1.046-2.28-2.336-2.28-1.29 0-2.336 1.02-2.336 2.28zm-21.94 0c0 1.26 1.045 2.28 2.336 2.28 1.29 0 2.336-1.02 2.336-2.28 0-1.26-1.046-2.28-2.336-2.28-1.29 0-2.337 1.02-2.337 2.28z" fill="#231815"/><path d="M145.071 131.886c-1.573-2.752-1.57-5.916-1.328-9.156.204-2.729 1.221-5.328 2.233-7.878 1.885-4.743 3.91-9.432 5.714-14.207.943-2.5 1.831-5.02 2.597-7.577.443-1.476.603-5.094 2.25-5.721.726-.277 1.57-.056 2.21.38 4.806 3.276 1.893 12.126-.448 16.186-.163.294 2.964.323 3.29.246 3.039-.716 5.133-3.058 7.32-5.037 2.68-2.424 5.408-4.742 7.997-7.252 2.611-2.531 5.924-5.577 7.534-5.912 2.081-.433 4.304 1.852 4.304 1.852s3.025-3.693 7.226-3.035c.524.082 1.049.227 1.486.522 1.141.771 1.394 2.399.955 3.694-.439 1.294-1.412 2.334-2.359 3.33 1.92.847 2.689 3.299 2.169 5.31-.519 2.01-2.024 3.629-3.632 4.97 1.999 3.273.501 6.672-1.799 9.433-3.726 4.472-8.539 7.869-12.499 12.123a260.722 260.722 0 00-7.151 8.009c-1.557 1.818-3.508 3.387-4.72 5.474-1.539 2.65 1.286 5.344.258 7.437-.992 2.02-4.918 2.147-6.78 2.143a55.143 55.143 0 01-6.423-.389c-1.892-.227-3.651.29-5.458.049-.865-.115-1.733-.605-2.04-1.41-.187-.49-.148-1.033-.106-1.557l.389-4.892c.101-1.264.182-2.616-.459-3.714-.343-.586-.863-1.045-1.329-1.54a9.874 9.874 0 01-1.401-1.881z" fill="#fff"/><path d="M161.893 148.595a56.718 56.718 0 01-6.583-.398c-.805-.098-1.616-.033-2.475.034-.958.076-1.947.153-3.001.013-1.478-.196-2.684-1.072-3.146-2.284-.301-.789-.237-1.58-.192-2.155l.39-4.893c.093-1.175.138-2.204-.276-2.912-.179-.306-.482-.613-.802-.939l-.34-.35a11.256 11.256 0 01-1.595-2.145c-1.835-3.209-1.739-6.812-1.504-9.938.222-2.985 1.34-5.8 2.325-8.283a497.486 497.486 0 012.242-5.518c1.163-2.834 2.366-5.763 3.462-8.667 1.071-2.833 1.886-5.212 2.568-7.487.1-.33.179-.782.271-1.28.378-2.044.849-4.586 2.807-5.332 1.088-.414 2.386-.216 3.482.53 4.826 3.29 3.313 11.053.892 16.231.388.01.73.008.855-.002 2.217-.522 3.907-2.104 5.695-3.779.339-.317.676-.632 1.015-.939.856-.774 1.717-1.538 2.576-2.3 1.791-1.588 3.644-3.229 5.387-4.92 4.255-4.126 6.635-5.943 8.212-6.272 1.769-.363 3.456.55 4.509 1.326 1.377-1.222 4.088-3.059 7.516-2.52.83.129 1.499.371 2.047.742 1.568 1.06 2.18 3.228 1.487 5.274-.35 1.031-.962 1.912-1.605 2.674 1.489 1.523 1.945 3.935 1.445 5.868-.55 2.124-1.97 3.771-3.251 4.954.993 2.328 1.096 5.722-2.456 9.985-2.145 2.575-4.643 4.807-7.06 6.967-1.859 1.662-3.783 3.381-5.489 5.214a259.585 259.585 0 00-7.113 7.966 39.635 39.635 0 01-1.733 1.856c-1.094 1.121-2.126 2.18-2.841 3.413-.497.855-.271 1.762.16 3.153.4 1.291.853 2.753.141 4.2-.962 1.96-3.563 2.913-7.95 2.913h-.072zm27.919-59.915a1.383 1.383 0 01-1.007.503 1.32 1.32 0 01-1.048-.412c-.559-.57-2.032-1.682-3.035-1.466-.537.111-2.141.982-6.855 5.551-1.787 1.733-3.662 3.396-5.475 5.003-.853.757-1.708 1.515-2.557 2.282-.327.296-.653.601-.98.907-1.882 1.762-4.015 3.759-6.949 4.45-.036.009-3.827.45-4.703-.707a1.454 1.454 0 01-.098-1.564c1.937-3.364 4.846-11.649.866-14.364-.328-.222-.714-.318-.943-.231-.512.195-.938 2.502-1.079 3.26-.107.582-.208 1.13-.341 1.57-.701 2.338-1.536 4.774-2.628 7.668-1.111 2.941-2.322 5.889-3.492 8.741-.75 1.826-1.5 3.653-2.229 5.488-.958 2.412-1.949 4.907-2.141 7.474-.252 3.375-.154 6.09 1.15 8.37l.002.002a8.498 8.498 0 001.206 1.618l.3.31c.405.412.863.878 1.216 1.48.883 1.511.744 3.248.643 4.517l-.39 4.893c-.028.351-.06.748.02.958.095.247.495.477.934.535.765.102 1.569.038 2.42-.028.956-.076 1.944-.153 3.02-.023 2.058.246 4.164.373 6.262.378h.065c4.451 0 5.315-1.049 5.474-1.372.229-.467-.016-1.259-.301-2.175-.442-1.429-1.049-3.387.088-5.347.888-1.527 2.09-2.76 3.251-3.952.553-.567 1.106-1.132 1.614-1.725a260.038 260.038 0 017.189-8.052c1.792-1.925 3.763-3.686 5.669-5.39 2.343-2.093 4.764-4.257 6.779-6.677 2.477-2.972 3.044-5.608 1.683-7.836a1.375 1.375 0 01.293-1.772c1.809-1.51 2.82-2.863 3.181-4.258.345-1.336-.088-3.133-1.391-3.707a1.378 1.378 0 01-.795-.988 1.379 1.379 0 01.351-1.217c.838-.883 1.704-1.795 2.053-2.825.249-.732.159-1.722-.421-2.114-.203-.137-.506-.236-.926-.302a5.093 5.093 0 00-.781-.061c-2.958 0-5.143 2.583-5.164 2.608z" fill="#231815"/><path d="M181.178 115.014c.236 0 .476-.06.694-.188 1.333-.778 3.23-2.719 5.426-4.965 1.793-1.834 4.702-4.809 5.928-5.41a1.38 1.38 0 001.998-1.785 1.963 1.963 0 00-1.48-1.042c-1.786-.25-3.937 1.73-8.419 6.315-1.885 1.928-3.833 3.921-4.845 4.512a1.375 1.375 0 00.698 2.563zm-2.98-5.771c.358 0 .715-.138.986-.413 2.855-2.908 5.383-5.319 8.31-8.109 1.549-1.477 3.201-3.051 5.056-4.847 1.74-1.686 2.692-1.848 2.849-1.806.67.36 1.505.104 1.864-.566a1.375 1.375 0 00-.569-1.862c-1.576-.84-3.674-.056-6.066 2.26-1.848 1.79-3.494 3.358-5.038 4.83-2.945 2.809-5.489 5.233-8.377 8.174a1.375 1.375 0 00.985 2.339zm-5.213-4.891c.316 0 .635-.109.895-.33 6.364-5.434 11.161-9.813 16.844-16.124a1.374 1.374 0 00-.104-1.943 1.383 1.383 0 00-1.948.103c-5.58 6.199-10.307 10.513-16.585 15.872a1.374 1.374 0 00-.152 1.94c.274.318.66.482 1.05.482z" fill="#231815"/><path d="M167.698 123.991c.38 0 .758-.155 1.03-.461 3.689-4.136 7.393-7.902 12.122-8.546a1.375 1.375 0 001.18-1.549 1.373 1.373 0 00-1.552-1.178c-5.663.771-9.763 4.907-13.809 9.443a1.374 1.374 0 001.029 2.291z" fill="#231815"/><path d="M144.154 202.88l-.174-49.617c-.007-1.787-.589-6.793.691-7.921.414-.365 1.022-.379 1.574-.368 7.593.152 15.256 1.347 22.734.02.893-.159 1.836-.35 2.688-.039 2.132.776 1.668 8.021 1.938 10.016.322 2.382 1.335 4.393 1.464 6.854.56 10.64 1.12 21.312.509 31.962-.28 4.878-.748 9.558-2.147 14.19-1.38 4.569-1.6 9.224-4.527 13.241-3.439 4.721-11.137 14.549-29.591 5.191l4.841-23.529z" fill="#DDD"/><path d="M152.286 232.001c-4.913.001-10.803-1.393-17.775-5.124a1.222 1.222 0 01-.501-1.657 1.228 1.228 0 011.661-.5c19.958 10.68 30.135.821 33.585-3.912 3.284-4.508 5.101-12.442 5.399-23.582.191-7.151.226-14.965.115-24.591-.056-4.739-.12-9.011-.343-13.307-.034-.256-.504-1.013-.785-1.465-.558-.899-1.085-1.748-1.144-2.578a145.341 145.341 0 00-.968-9.322l-26.344-.234.03 8.988c.001.1-.012.201-.036.299l-1.324 5.327-1.425 44.476a1.228 1.228 0 01-1.265 1.184 1.223 1.223 0 01-1.186-1.262l1.428-44.606c.003-.086.014-.172.035-.256l1.32-5.306-.034-10.074a1.215 1.215 0 01.362-.872c.233-.231.542-.35.875-.356l28.644.253a1.226 1.226 0 011.203 1.051 147.94 147.94 0 011.131 10.536c.036.259.504 1.013.784 1.464.568.915 1.105 1.781 1.149 2.626.225 4.341.289 8.64.345 13.405.113 9.658.076 17.503-.115 24.686-.311 11.643-2.286 20.039-5.867 24.955-2.596 3.563-8.602 9.754-18.954 9.754zm-71.084-74.794a1.223 1.223 0 01-.873-2.084l19.981-20.186-3.016-7.023a1.223 1.223 0 01.644-1.607 1.23 1.23 0 011.61.643l3.342 7.779c.196.458.096.988-.255 1.342l-20.56 20.772c-.24.242-.556.364-.873.364z" fill="#231815"/><path d="M77.139 243.122a1.225 1.225 0 01-1.226-1.214l-.686-89.782a5.387 5.387 0 01.637-2.581l25.746-48.669a1.23 1.23 0 011.657-.511c.6.316.829 1.056.513 1.654l-25.75 48.674a2.954 2.954 0 00-.35 1.414l.685 89.782a1.225 1.225 0 01-1.217 1.233h-.01zm80.368-86.309c-7.428 0-12.506-.831-12.837-.886a1.224 1.224 0 11.407-2.414c.125.021 12.662 2.064 27.112-.309a1.223 1.223 0 11.398 2.415c-5.513.906-10.705 1.194-15.08 1.194z" fill="#231815"/><path d="M88.961 242.065c-.664 0-1.21-.529-1.226-1.195l-2.049-84.077a1.226 1.226 0 011.197-1.253 1.235 1.235 0 011.256 1.194l2.049 84.077a1.225 1.225 0 01-1.197 1.253l-.03.001zm-37.956-75.89c-.089 0-.178-.01-.265-.029l-15.38-3.409a1.224 1.224 0 01-.96-1.195v-7.044c0-.676.548-1.224 1.226-1.224h30.906a1.224 1.224 0 011.225 1.283l-.304 6.322c-.025.53-.39.983-.903 1.122l-15.222 4.131a1.259 1.259 0 01-.323.043zm-14.153-5.615l14.124 3.13 14.07-3.818.199-4.15H36.852v4.838z" fill="#231815"/><path d="M66.568 186.875H35.626a1.225 1.225 0 01-1.227-1.224v-24.109c0-.676.549-1.224 1.227-1.224.677 0 1.226.548 1.226 1.224v22.884h28.49v-23.929a1.225 1.225 0 012.452 0v25.154c0 .676-.549 1.224-1.226 1.224z" fill="#231815"/><path d="M50.607 183.327a1.225 1.225 0 01-1.227-1.224v-12.899a1.226 1.226 0 012.453 0v12.899c0 .676-.549 1.224-1.226 1.224zm59.992-17.152a1.26 1.26 0 01-.266-.029l-15.38-3.409a1.224 1.224 0 01-.96-1.195v-7.044c0-.676.549-1.224 1.226-1.224h30.907a1.224 1.224 0 011.225 1.283l-.304 6.322c-.025.53-.39.983-.903 1.122l-15.223 4.131a1.255 1.255 0 01-.322.043zm-14.154-5.615l14.125 3.13 14.07-3.818.199-4.15H96.445v4.838z" fill="#231815"/><path d="M126.162 186.875H95.219a1.225 1.225 0 01-1.226-1.224v-24.109a1.225 1.225 0 012.453 0v22.884h28.49v-23.929a1.225 1.225 0 012.452 0v25.154c0 .676-.548 1.224-1.226 1.224z" fill="#231815"/><path d="M110.201 183.327a1.225 1.225 0 01-1.227-1.224v-12.899c0-.676.549-1.224 1.227-1.224.677 0 1.226.548 1.226 1.224v12.899c0 .676-.549 1.224-1.226 1.224z" fill="#231815"/></g><defs><clipPath id="clip0_7_2843"><path fill="#fff" d="M0 0h200v244.167H0z"/></clipPath></defs></svg>